STARTFONT 2.1
FONT -gumix-asciicker-medium-r-normal--8-120-72-72-c-120-iso10646-1
SIZE 8 72 72
FONTBOUNDINGBOX 8 8 0 0
STARTPROPERTIES 23
ADD_STYLE_NAME ""
AVERAGE_WIDTH 120
CHARSET_ENCODING "1"
CHARSET_REGISTRY "ISO10646"
COPYRIGHT "gumix"
FAMILY_NAME "asciicker"
FOUNDRY "gumix"
MIN_SPACE 8
NOTICE "Licensed"
PIXEL_SIZE 8
POINT_SIZE 120
QUAD_WIDTH 8
RESOLUTION_X 72
RESOLUTION_Y 72
SETWIDTH_NAME "Normal"
SLANT "R"
SPACING "M"
WEIGHT 10
WEIGHT_NAME "Bold"
X_HEIGHT 10
DEFAULT_CHAR 33
FONT_DESCENT 0
FONT_ASCENT 8
ENDPROPERTIES
CHARS 256
STARTCHAR U+0000
ENCODING 0
SWIDTH 500 0
DWIDTH 8 0
BBX 8 8 0 0
BITMAP
00
00
00
00
00
00
00
00
ENDCHAR
STARTCHAR U+263A
ENCODING 9786
SWIDTH 500 0
DWIDTH 8 0
BBX 8 8 0 0
BITMAP
7E
81
A5
81
BD
99
81
7E
ENDCHAR
STARTCHAR U+263B
ENCODING 9787
SWIDTH 500 0
DWIDTH 8 0
BBX 8 8 0 0
BITMAP
7E
FF
DB
FF
C3
E7
FF
7E
ENDCHAR
STARTCHAR U+2665
ENCODING 9829
SWIDTH 500 0
DWIDTH 8 0
BBX 8 8 0 0
BITMAP
6C
FE
FE
FE
7C
38
10
00
ENDCHAR
STARTCHAR U+2666
ENCODING 9830
SWIDTH 500 0
DWIDTH 8 0
BBX 8 8 0 0
BITMAP
10
38
7C
FE
7C
38
10
00
ENDCHAR
STARTCHAR U+2663
ENCODING 9827
SWIDTH 500 0
DWIDTH 8 0
BBX 8 8 0 0
BITMAP
38
7C
38
FE
FE
D6
10
38
ENDCHAR
STARTCHAR U+2660
ENCODING 9824
SWIDTH 500 0
DWIDTH 8 0
BBX 8 8 0 0
BITMAP
10
38
7C
FE
FE
54
10
38
ENDCHAR
STARTCHAR U+2022
ENCODING 8226
SWIDTH 500 0
DWIDTH 8 0
BBX 8 8 0 0
BITMAP
00
00
18
3C
3C
18
00
00
ENDCHAR
STARTCHAR U+25D8
ENCODING 9688
SWIDTH 500 0
DWIDTH 8 0
BBX 8 8 0 0
BITMAP
FF
FF
E7
C3
C3
E7
FF
FF
ENDCHAR
STARTCHAR U+25CB
ENCODING 9675
SWIDTH 500 0
DWIDTH 8 0
BBX 8 8 0 0
BITMAP
00
3C
66
42
42
66
3C
00
ENDCHAR
STARTCHAR U+25D9
ENCODING 9689
SWIDTH 500 0
DWIDTH 8 0
BBX 8 8 0 0
BITMAP
FF
C3
99
BD
BD
99
C3
FF
ENDCHAR
STARTCHAR U+2642
ENCODING 9794
SWIDTH 500 0
DWIDTH 8 0
BBX 8 8 0 0
BITMAP
0F
07
0F
7D
CC
CC
CC
78
ENDCHAR
STARTCHAR U+2640
ENCODING 9792
SWIDTH 500 0
DWIDTH 8 0
BBX 8 8 0 0
BITMAP
3C
66
66
66
3C
18
7E
18
ENDCHAR
STARTCHAR U+266A
ENCODING 9834
SWIDTH 500 0
DWIDTH 8 0
BBX 8 8 0 0
BITMAP
3E
36
3E
30
30
70
F0
E0
ENDCHAR
STARTCHAR U+266B
ENCODING 9835
SWIDTH 500 0
DWIDTH 8 0
BBX 8 8 0 0
BITMAP
7E
66
7E
66
66
6E
EC
C0
ENDCHAR
STARTCHAR U+263C
ENCODING 9788
SWIDTH 500 0
DWIDTH 8 0
BBX 8 8 0 0
BITMAP
18
DB
FF
3C
FF
DB
18
00
ENDCHAR
STARTCHAR U+25BA
ENCODING 9658
SWIDTH 500 0
DWIDTH 8 0
BBX 8 8 0 0
BITMAP
00
60
78
7E
7E
78
60
00
ENDCHAR
STARTCHAR U+25C4
ENCODING 9668
SWIDTH 500 0
DWIDTH 8 0
BBX 8 8 0 0
BITMAP
00
06
1E
7E
7E
1E
06
00
ENDCHAR
STARTCHAR U+2195
ENCODING 8597
SWIDTH 500 0
DWIDTH 8 0
BBX 8 8 0 0
BITMAP
18
3C
7E
18
18
7E
3C
18
ENDCHAR
STARTCHAR U+203C
ENCODING 8252
SWIDTH 500 0
DWIDTH 8 0
BBX 8 8 0 0
BITMAP
6C
6C
6C
6C
6C
00
6C
00
ENDCHAR
STARTCHAR U+00B6
ENCODING 182
SWIDTH 500 0
DWIDTH 8 0
BBX 8 8 0 0
BITMAP
7F
DB
DB
7B
1B
1B
1B
00
ENDCHAR
STARTCHAR U+00A7
ENCODING 167
SWIDTH 500 0
DWIDTH 8 0
BBX 8 8 0 0
BITMAP
3E
61
3C
66
66
3C
86
7C
ENDCHAR
STARTCHAR U+25AC
ENCODING 9644
SWIDTH 500 0
DWIDTH 8 0
BBX 8 8 0 0
BITMAP
00
00
00
00
00
7E
7E
00
ENDCHAR
STARTCHAR U+21A8
ENCODING 8616
SWIDTH 500 0
DWIDTH 8 0
BBX 8 8 0 0
BITMAP
18
3C
7E
18
7E
3C
18
FF
ENDCHAR
STARTCHAR U+2191
ENCODING 8593
SWIDTH 500 0
DWIDTH 8 0
BBX 8 8 0 0
BITMAP
00
18
3C
7E
18
18
18
00
ENDCHAR
STARTCHAR U+2193
ENCODING 8595
SWIDTH 500 0
DWIDTH 8 0
BBX 8 8 0 0
BITMAP
00
18
18
18
7E
3C
18
00
ENDCHAR
STARTCHAR U+2192
ENCODING 8594
SWIDTH 500 0
DWIDTH 8 0
BBX 8 8 0 0
BITMAP
00
08
0C
7E
7E
0C
08
00
ENDCHAR
STARTCHAR U+2190
ENCODING 8592
SWIDTH 500 0
DWIDTH 8 0
BBX 8 8 0 0
BITMAP
00
10
30
7E
7E
30
10
00
ENDCHAR
STARTCHAR U+221F
ENCODING 8735
SWIDTH 500 0
DWIDTH 8 0
BBX 8 8 0 0
BITMAP
00
00
00
60
60
7E
00
00
ENDCHAR
STARTCHAR U+2194
ENCODING 8596
SWIDTH 500 0
DWIDTH 8 0
BBX 8 8 0 0
BITMAP
00
24
66
FF
FF
66
24
00
ENDCHAR
STARTCHAR U+25B2
ENCODING 9650
SWIDTH 500 0
DWIDTH 8 0
BBX 8 8 0 0
BITMAP
00
18
18
3C
3C
7E
7E
00
ENDCHAR
STARTCHAR U+25BC
ENCODING 9660
SWIDTH 500 0
DWIDTH 8 0
BBX 8 8 0 0
BITMAP
00
7E
7E
3C
3C
18
18
00
ENDCHAR
STARTCHAR U+0020
ENCODING 32
SWIDTH 500 0
DWIDTH 8 0
BBX 8 8 0 0
BITMAP
00
00
00
00
00
00
00
00
ENDCHAR
STARTCHAR U+0021
ENCODING 33
SWIDTH 500 0
DWIDTH 8 0
BBX 8 8 0 0
BITMAP
18
3C
3C
18
18
00
18
00
ENDCHAR
STARTCHAR U+0022
ENCODING 34
SWIDTH 500 0
DWIDTH 8 0
BBX 8 8 0 0
BITMAP
6C
6C
28
00
00
00
00
00
ENDCHAR
STARTCHAR U+0023
ENCODING 35
SWIDTH 500 0
DWIDTH 8 0
BBX 8 8 0 0
BITMAP
6C
6C
FE
6C
FE
6C
6C
00
ENDCHAR
STARTCHAR U+0024
ENCODING 36
SWIDTH 500 0
DWIDTH 8 0
BBX 8 8 0 0
BITMAP
18
3E
60
3C
06
7C
18
00
ENDCHAR
STARTCHAR U+0025
ENCODING 37
SWIDTH 500 0
DWIDTH 8 0
BBX 8 8 0 0
BITMAP
00
C6
CC
18
30
66
C6
00
ENDCHAR
STARTCHAR U+0026
ENCODING 38
SWIDTH 500 0
DWIDTH 8 0
BBX 8 8 0 0
BITMAP
38
6C
38
76
DC
CC
76
00
ENDCHAR
STARTCHAR U+0027
ENCODING 39
SWIDTH 500 0
DWIDTH 8 0
BBX 8 8 0 0
BITMAP
18
18
30
00
00
00
00
00
ENDCHAR
STARTCHAR U+0028
ENCODING 40
SWIDTH 500 0
DWIDTH 8 0
BBX 8 8 0 0
BITMAP
18
30
60
60
60
30
18
00
ENDCHAR
STARTCHAR U+0029
ENCODING 41
SWIDTH 500 0
DWIDTH 8 0
BBX 8 8 0 0
BITMAP
60
30
18
18
18
30
60
00
ENDCHAR
STARTCHAR U+002A
ENCODING 42
SWIDTH 500 0
DWIDTH 8 0
BBX 8 8 0 0
BITMAP
00
6C
38
FE
38
6C
00
00
ENDCHAR
STARTCHAR U+002B
ENCODING 43
SWIDTH 500 0
DWIDTH 8 0
BBX 8 8 0 0
BITMAP
00
18
18
7E
18
18
00
00
ENDCHAR
STARTCHAR U+002C
ENCODING 44
SWIDTH 500 0
DWIDTH 8 0
BBX 8 8 0 0
BITMAP
00
00
00
00
00
18
18
30
ENDCHAR
STARTCHAR U+002D
ENCODING 45
SWIDTH 500 0
DWIDTH 8 0
BBX 8 8 0 0
BITMAP
00
00
00
7E
00
00
00
00
ENDCHAR
STARTCHAR U+002E
ENCODING 46
SWIDTH 500 0
DWIDTH 8 0
BBX 8 8 0 0
BITMAP
00
00
00
00
00
18
18
00
ENDCHAR
STARTCHAR U+002F
ENCODING 47
SWIDTH 500 0
DWIDTH 8 0
BBX 8 8 0 0
BITMAP
06
0E
1C
38
70
E0
C0
00
ENDCHAR
STARTCHAR U+0030
ENCODING 48
SWIDTH 500 0
DWIDTH 8 0
BBX 8 8 0 0
BITMAP
3C
66
6E
7E
76
66
3C
00
ENDCHAR
STARTCHAR U+0031
ENCODING 49
SWIDTH 500 0
DWIDTH 8 0
BBX 8 8 0 0
BITMAP
18
78
18
18
18
18
7E
00
ENDCHAR
STARTCHAR U+0032
ENCODING 50
SWIDTH 500 0
DWIDTH 8 0
BBX 8 8 0 0
BITMAP
3C
66
06
1C
30
66
7E
00
ENDCHAR
STARTCHAR U+0033
ENCODING 51
SWIDTH 500 0
DWIDTH 8 0
BBX 8 8 0 0
BITMAP
3C
66
06
1C
06
66
3C
00
ENDCHAR
STARTCHAR U+0034
ENCODING 52
SWIDTH 500 0
DWIDTH 8 0
BBX 8 8 0 0
BITMAP
1C
3C
6C
CC
FE
0C
0C
00
ENDCHAR
STARTCHAR U+0035
ENCODING 53
SWIDTH 500 0
DWIDTH 8 0
BBX 8 8 0 0
BITMAP
7E
60
7C
06
06
66
3C
00
ENDCHAR
STARTCHAR U+0036
ENCODING 54
SWIDTH 500 0
DWIDTH 8 0
BBX 8 8 0 0
BITMAP
1C
30
60
7C
66
66
3C
00
ENDCHAR
STARTCHAR U+0037
ENCODING 55
SWIDTH 500 0
DWIDTH 8 0
BBX 8 8 0 0
BITMAP
7E
66
06
0C
18
30
30
00
ENDCHAR
STARTCHAR U+0038
ENCODING 56
SWIDTH 500 0
DWIDTH 8 0
BBX 8 8 0 0
BITMAP
3C
66
66
3C
66
66
3C
00
ENDCHAR
STARTCHAR U+0039
ENCODING 57
SWIDTH 500 0
DWIDTH 8 0
BBX 8 8 0 0
BITMAP
3C
66
66
3E
06
0C
38
00
ENDCHAR
STARTCHAR U+003A
ENCODING 58
SWIDTH 500 0
DWIDTH 8 0
BBX 8 8 0 0
BITMAP
00
00
18
18
00
18
18
00
ENDCHAR
STARTCHAR U+003B
ENCODING 59
SWIDTH 500 0
DWIDTH 8 0
BBX 8 8 0 0
BITMAP
00
00
18
18
00
18
18
30
ENDCHAR
STARTCHAR U+003C
ENCODING 60
SWIDTH 500 0
DWIDTH 8 0
BBX 8 8 0 0
BITMAP
0C
18
30
60
30
18
0C
00
ENDCHAR
STARTCHAR U+003D
ENCODING 61
SWIDTH 500 0
DWIDTH 8 0
BBX 8 8 0 0
BITMAP
00
00
7E
00
7E
00
00
00
ENDCHAR
STARTCHAR U+003E
ENCODING 62
SWIDTH 500 0
DWIDTH 8 0
BBX 8 8 0 0
BITMAP
60
30
18
0C
18
30
60
00
ENDCHAR
STARTCHAR U+003F
ENCODING 63
SWIDTH 500 0
DWIDTH 8 0
BBX 8 8 0 0
BITMAP
3C
66
06
0C
18
00
18
00
ENDCHAR
STARTCHAR U+0040
ENCODING 64
SWIDTH 500 0
DWIDTH 8 0
BBX 8 8 0 0
BITMAP
3C
66
6E
6E
6E
60
3C
00
ENDCHAR
STARTCHAR U+0041
ENCODING 65
SWIDTH 500 0
DWIDTH 8 0
BBX 8 8 0 0
BITMAP
18
3C
66
66
7E
66
66
00
ENDCHAR
STARTCHAR U+0042
ENCODING 66
SWIDTH 500 0
DWIDTH 8 0
BBX 8 8 0 0
BITMAP
FC
66
66
7C
66
66
FC
00
ENDCHAR
STARTCHAR U+0043
ENCODING 67
SWIDTH 500 0
DWIDTH 8 0
BBX 8 8 0 0
BITMAP
3C
66
C0
C0
C0
66
3C
00
ENDCHAR
STARTCHAR U+0044
ENCODING 68
SWIDTH 500 0
DWIDTH 8 0
BBX 8 8 0 0
BITMAP
FC
6C
66
66
66
6C
FC
00
ENDCHAR
STARTCHAR U+0045
ENCODING 69
SWIDTH 500 0
DWIDTH 8 0
BBX 8 8 0 0
BITMAP
FE
62
68
78
68
62
FE
00
ENDCHAR
STARTCHAR U+0046
ENCODING 70
SWIDTH 500 0
DWIDTH 8 0
BBX 8 8 0 0
BITMAP
FE
62
68
78
68
60
F0
00
ENDCHAR
STARTCHAR U+0047
ENCODING 71
SWIDTH 500 0
DWIDTH 8 0
BBX 8 8 0 0
BITMAP
3C
66
C0
C0
CE
66
3E
00
ENDCHAR
STARTCHAR U+0048
ENCODING 72
SWIDTH 500 0
DWIDTH 8 0
BBX 8 8 0 0
BITMAP
66
66
66
7E
66
66
66
00
ENDCHAR
STARTCHAR U+0049
ENCODING 73
SWIDTH 500 0
DWIDTH 8 0
BBX 8 8 0 0
BITMAP
3C
18
18
18
18
18
3C
00
ENDCHAR
STARTCHAR U+004A
ENCODING 74
SWIDTH 500 0
DWIDTH 8 0
BBX 8 8 0 0
BITMAP
1E
0C
0C
0C
CC
CC
78
00
ENDCHAR
STARTCHAR U+004B
ENCODING 75
SWIDTH 500 0
DWIDTH 8 0
BBX 8 8 0 0
BITMAP
E6
66
6C
78
6C
66
E6
00
ENDCHAR
STARTCHAR U+004C
ENCODING 76
SWIDTH 500 0
DWIDTH 8 0
BBX 8 8 0 0
BITMAP
F0
60
60
60
62
66
FE
00
ENDCHAR
STARTCHAR U+004D
ENCODING 77
SWIDTH 500 0
DWIDTH 8 0
BBX 8 8 0 0
BITMAP
C6
EE
FE
D6
C6
C6
C6
00
ENDCHAR
STARTCHAR U+004E
ENCODING 78
SWIDTH 500 0
DWIDTH 8 0
BBX 8 8 0 0
BITMAP
C6
E6
F6
DE
CE
C6
C6
00
ENDCHAR
STARTCHAR U+004F
ENCODING 79
SWIDTH 500 0
DWIDTH 8 0
BBX 8 8 0 0
BITMAP
38
6C
C6
C6
C6
6C
38
00
ENDCHAR
STARTCHAR U+0050
ENCODING 80
SWIDTH 500 0
DWIDTH 8 0
BBX 8 8 0 0
BITMAP
FC
66
66
7C
60
60
F0
00
ENDCHAR
STARTCHAR U+0051
ENCODING 81
SWIDTH 500 0
DWIDTH 8 0
BBX 8 8 0 0
BITMAP
3C
66
66
66
6E
3C
0E
00
ENDCHAR
STARTCHAR U+0052
ENCODING 82
SWIDTH 500 0
DWIDTH 8 0
BBX 8 8 0 0
BITMAP
FC
66
66
7C
78
6C
E6
00
ENDCHAR
STARTCHAR U+0053
ENCODING 83
SWIDTH 500 0
DWIDTH 8 0
BBX 8 8 0 0
BITMAP
3C
66
70
1C
0E
66
3C
00
ENDCHAR
STARTCHAR U+0054
ENCODING 84
SWIDTH 500 0
DWIDTH 8 0
BBX 8 8 0 0
BITMAP
7E
5A
18
18
18
18
3C
00
ENDCHAR
STARTCHAR U+0055
ENCODING 85
SWIDTH 500 0
DWIDTH 8 0
BBX 8 8 0 0
BITMAP
66
66
66
66
66
66
7E
00
ENDCHAR
STARTCHAR U+0056
ENCODING 86
SWIDTH 500 0
DWIDTH 8 0
BBX 8 8 0 0
BITMAP
66
66
66
66
66
3C
18
00
ENDCHAR
STARTCHAR U+0057
ENCODING 87
SWIDTH 500 0
DWIDTH 8 0
BBX 8 8 0 0
BITMAP
C6
C6
C6
D6
FE
EE
C6
00
ENDCHAR
STARTCHAR U+0058
ENCODING 88
SWIDTH 500 0
DWIDTH 8 0
BBX 8 8 0 0
BITMAP
C6
C6
6C
38
6C
C6
C6
00
ENDCHAR
STARTCHAR U+0059
ENCODING 89
SWIDTH 500 0
DWIDTH 8 0
BBX 8 8 0 0
BITMAP
66
66
66
3C
18
18
3C
00
ENDCHAR
STARTCHAR U+005A
ENCODING 90
SWIDTH 500 0
DWIDTH 8 0
BBX 8 8 0 0
BITMAP
FE
CC
98
30
62
C6
FE
00
ENDCHAR
STARTCHAR U+005B
ENCODING 91
SWIDTH 500 0
DWIDTH 8 0
BBX 8 8 0 0
BITMAP
3C
30
30
30
30
30
3C
00
ENDCHAR
STARTCHAR U+005C
ENCODING 92
SWIDTH 500 0
DWIDTH 8 0
BBX 8 8 0 0
BITMAP
C0
E0
70
38
1C
0E
06
00
ENDCHAR
STARTCHAR U+005D
ENCODING 93
SWIDTH 500 0
DWIDTH 8 0
BBX 8 8 0 0
BITMAP
3C
0C
0C
0C
0C
0C
3C
00
ENDCHAR
STARTCHAR U+005E
ENCODING 94
SWIDTH 500 0
DWIDTH 8 0
BBX 8 8 0 0
BITMAP
10
38
6C
C6
00
00
00
00
ENDCHAR
STARTCHAR U+005F
ENCODING 95
SWIDTH 500 0
DWIDTH 8 0
BBX 8 8 0 0
BITMAP
00
00
00
00
00
00
00
FF
ENDCHAR
STARTCHAR U+0060
ENCODING 96
SWIDTH 500 0
DWIDTH 8 0
BBX 8 8 0 0
BITMAP
18
18
0C
00
00
00
00
00
ENDCHAR
STARTCHAR U+0061
ENCODING 97
SWIDTH 500 0
DWIDTH 8 0
BBX 8 8 0 0
BITMAP
00
00
78
0C
7C
CC
76
00
ENDCHAR
STARTCHAR U+0062
ENCODING 98
SWIDTH 500 0
DWIDTH 8 0
BBX 8 8 0 0
BITMAP
E0
60
7C
66
66
66
BC
00
ENDCHAR
STARTCHAR U+0063
ENCODING 99
SWIDTH 500 0
DWIDTH 8 0
BBX 8 8 0 0
BITMAP
00
00
3C
66
60
66
3C
00
ENDCHAR
STARTCHAR U+0064
ENCODING 100
SWIDTH 500 0
DWIDTH 8 0
BBX 8 8 0 0
BITMAP
1C
0C
0C
7C
CC
CC
76
00
ENDCHAR
STARTCHAR U+0065
ENCODING 101
SWIDTH 500 0
DWIDTH 8 0
BBX 8 8 0 0
BITMAP
00
00
3C
66
7E
60
3C
00
ENDCHAR
STARTCHAR U+0066
ENCODING 102
SWIDTH 500 0
DWIDTH 8 0
BBX 8 8 0 0
BITMAP
1C
36
30
78
30
30
78
00
ENDCHAR
STARTCHAR U+0067
ENCODING 103
SWIDTH 500 0
DWIDTH 8 0
BBX 8 8 0 0
BITMAP
00
00
76
CC
CC
7C
0C
F8
ENDCHAR
STARTCHAR U+0068
ENCODING 104
SWIDTH 500 0
DWIDTH 8 0
BBX 8 8 0 0
BITMAP
E0
60
6C
76
66
66
E6
00
ENDCHAR
STARTCHAR U+0069
ENCODING 105
SWIDTH 500 0
DWIDTH 8 0
BBX 8 8 0 0
BITMAP
18
00
38
18
18
18
3C
00
ENDCHAR
STARTCHAR U+006A
ENCODING 106
SWIDTH 500 0
DWIDTH 8 0
BBX 8 8 0 0
BITMAP
0C
00
3C
0C
0C
0C
6C
38
ENDCHAR
STARTCHAR U+006B
ENCODING 107
SWIDTH 500 0
DWIDTH 8 0
BBX 8 8 0 0
BITMAP
E0
60
66
6C
78
6C
E6
00
ENDCHAR
STARTCHAR U+006C
ENCODING 108
SWIDTH 500 0
DWIDTH 8 0
BBX 8 8 0 0
BITMAP
38
18
18
18
18
18
3C
00
ENDCHAR
STARTCHAR U+006D
ENCODING 109
SWIDTH 500 0
DWIDTH 8 0
BBX 8 8 0 0
BITMAP
00
00
EC
FE
D6
C6
C6
00
ENDCHAR
STARTCHAR U+006E
ENCODING 110
SWIDTH 500 0
DWIDTH 8 0
BBX 8 8 0 0
BITMAP
00
00
7C
66
66
66
66
00
ENDCHAR
STARTCHAR U+006F
ENCODING 111
SWIDTH 500 0
DWIDTH 8 0
BBX 8 8 0 0
BITMAP
00
00
78
CC
CC
CC
78
00
ENDCHAR
STARTCHAR U+0070
ENCODING 112
SWIDTH 500 0
DWIDTH 8 0
BBX 8 8 0 0
BITMAP
00
00
DC
66
66
7C
60
F0
ENDCHAR
STARTCHAR U+0071
ENCODING 113
SWIDTH 500 0
DWIDTH 8 0
BBX 8 8 0 0
BITMAP
00
00
76
CC
CC
7C
0C
1E
ENDCHAR
STARTCHAR U+0072
ENCODING 114
SWIDTH 500 0
DWIDTH 8 0
BBX 8 8 0 0
BITMAP
00
00
6C
36
36
30
78
00
ENDCHAR
STARTCHAR U+0073
ENCODING 115
SWIDTH 500 0
DWIDTH 8 0
BBX 8 8 0 0
BITMAP
00
00
3E
60
3C
06
7C
00
ENDCHAR
STARTCHAR U+0074
ENCODING 116
SWIDTH 500 0
DWIDTH 8 0
BBX 8 8 0 0
BITMAP
10
30
7C
30
30
34
18
00
ENDCHAR
STARTCHAR U+0075
ENCODING 117
SWIDTH 500 0
DWIDTH 8 0
BBX 8 8 0 0
BITMAP
00
00
CC
CC
CC
CC
76
00
ENDCHAR
STARTCHAR U+0076
ENCODING 118
SWIDTH 500 0
DWIDTH 8 0
BBX 8 8 0 0
BITMAP
00
00
66
66
66
3C
18
00
ENDCHAR
STARTCHAR U+0077
ENCODING 119
SWIDTH 500 0
DWIDTH 8 0
BBX 8 8 0 0
BITMAP
00
00
C6
C6
D6
FE
6C
00
ENDCHAR
STARTCHAR U+0078
ENCODING 120
SWIDTH 500 0
DWIDTH 8 0
BBX 8 8 0 0
BITMAP
00
00
C6
6C
38
6C
C6
00
ENDCHAR
STARTCHAR U+0079
ENCODING 121
SWIDTH 500 0
DWIDTH 8 0
BBX 8 8 0 0
BITMAP
00
00
66
66
66
3E
06
7C
ENDCHAR
STARTCHAR U+007A
ENCODING 122
SWIDTH 500 0
DWIDTH 8 0
BBX 8 8 0 0
BITMAP
00
00
7E
4C
18
32
7E
00
ENDCHAR
STARTCHAR U+007B
ENCODING 123
SWIDTH 500 0
DWIDTH 8 0
BBX 8 8 0 0
BITMAP
1C
30
30
60
30
30
1C
00
ENDCHAR
STARTCHAR U+007C
ENCODING 124
SWIDTH 500 0
DWIDTH 8 0
BBX 8 8 0 0
BITMAP
18
18
18
00
18
18
18
00
ENDCHAR
STARTCHAR U+007D
ENCODING 125
SWIDTH 500 0
DWIDTH 8 0
BBX 8 8 0 0
BITMAP
70
18
18
0C
18
18
70
00
ENDCHAR
STARTCHAR U+007E
ENCODING 126
SWIDTH 500 0
DWIDTH 8 0
BBX 8 8 0 0
BITMAP
76
DC
00
00
00
00
00
00
ENDCHAR
STARTCHAR U+2302
ENCODING 8962
SWIDTH 500 0
DWIDTH 8 0
BBX 8 8 0 0
BITMAP
00
00
18
3C
66
66
7E
00
ENDCHAR
STARTCHAR U+00C7
ENCODING 199
SWIDTH 500 0
DWIDTH 8 0
BBX 8 8 0 0
BITMAP
78
CC
C0
C0
CC
78
30
60
ENDCHAR
STARTCHAR U+00FC
ENCODING 252
SWIDTH 500 0
DWIDTH 8 0
BBX 8 8 0 0
BITMAP
00
CC
00
CC
CC
CC
7E
00
ENDCHAR
STARTCHAR U+00E9
ENCODING 233
SWIDTH 500 0
DWIDTH 8 0
BBX 8 8 0 0
BITMAP
0C
18
3C
66
7E
60
3C
00
ENDCHAR
STARTCHAR U+00E2
ENCODING 226
SWIDTH 500 0
DWIDTH 8 0
BBX 8 8 0 0
BITMAP
7E
C3
3C
06
3E
66
3F
00
ENDCHAR
STARTCHAR U+00E4
ENCODING 228
SWIDTH 500 0
DWIDTH 8 0
BBX 8 8 0 0
BITMAP
CC
00
78
0C
7C
CC
7E
00
ENDCHAR
STARTCHAR U+00E0
ENCODING 224
SWIDTH 500 0
DWIDTH 8 0
BBX 8 8 0 0
BITMAP
60
30
78
0C
7C
CC
7E
00
ENDCHAR
STARTCHAR U+00E5
ENCODING 229
SWIDTH 500 0
DWIDTH 8 0
BBX 8 8 0 0
BITMAP
3C
66
3C
06
3E
66
3F
00
ENDCHAR
STARTCHAR U+00E7
ENCODING 231
SWIDTH 500 0
DWIDTH 8 0
BBX 8 8 0 0
BITMAP
00
3C
66
60
66
3C
18
30
ENDCHAR
STARTCHAR U+00EA
ENCODING 234
SWIDTH 500 0
DWIDTH 8 0
BBX 8 8 0 0
BITMAP
7E
C3
3C
66
7E
60
3C
00
ENDCHAR
STARTCHAR U+00EB
ENCODING 235
SWIDTH 500 0
DWIDTH 8 0
BBX 8 8 0 0
BITMAP
66
00
3C
66
7E
60
3C
00
ENDCHAR
STARTCHAR U+00E8
ENCODING 232
SWIDTH 500 0
DWIDTH 8 0
BBX 8 8 0 0
BITMAP
30
18
3C
66
7E
60
3C
00
ENDCHAR
STARTCHAR U+00EF
ENCODING 239
SWIDTH 500 0
DWIDTH 8 0
BBX 8 8 0 0
BITMAP
66
00
38
18
18
18
3C
00
ENDCHAR
STARTCHAR U+00EE
ENCODING 238
SWIDTH 500 0
DWIDTH 8 0
BBX 8 8 0 0
BITMAP
7C
C6
38
18
18
18
3C
00
ENDCHAR
STARTCHAR U+00EC
ENCODING 236
SWIDTH 500 0
DWIDTH 8 0
BBX 8 8 0 0
BITMAP
30
18
38
18
18
18
3C
00
ENDCHAR
STARTCHAR U+00C4
ENCODING 196
SWIDTH 500 0
DWIDTH 8 0
BBX 8 8 0 0
BITMAP
66
18
3C
66
66
7E
66
00
ENDCHAR
STARTCHAR U+00C5
ENCODING 197
SWIDTH 500 0
DWIDTH 8 0
BBX 8 8 0 0
BITMAP
18
24
18
3C
66
7E
66
00
ENDCHAR
STARTCHAR U+00C9
ENCODING 201
SWIDTH 500 0
DWIDTH 8 0
BBX 8 8 0 0
BITMAP
18
30
FC
60
78
60
FC
00
ENDCHAR
STARTCHAR U+00E6
ENCODING 230
SWIDTH 500 0
DWIDTH 8 0
BBX 8 8 0 0
BITMAP
00
00
7E
0C
7E
CC
7E
00
ENDCHAR
STARTCHAR U+00C6
ENCODING 198
SWIDTH 500 0
DWIDTH 8 0
BBX 8 8 0 0
BITMAP
3E
6C
CC
FE
CC
CC
CE
00
ENDCHAR
STARTCHAR U+00F4
ENCODING 244
SWIDTH 500 0
DWIDTH 8 0
BBX 8 8 0 0
BITMAP
3C
66
00
3C
66
66
3C
00
ENDCHAR
STARTCHAR U+00F6
ENCODING 246
SWIDTH 500 0
DWIDTH 8 0
BBX 8 8 0 0
BITMAP
00
66
00
3C
66
66
3C
00
ENDCHAR
STARTCHAR U+00F2
ENCODING 242
SWIDTH 500 0
DWIDTH 8 0
BBX 8 8 0 0
BITMAP
30
18
00
3C
66
66
3C
00
ENDCHAR
STARTCHAR U+00FB
ENCODING 251
SWIDTH 500 0
DWIDTH 8 0
BBX 8 8 0 0
BITMAP
78
CC
00
CC
CC
CC
7E
00
ENDCHAR
STARTCHAR U+00F9
ENCODING 249
SWIDTH 500 0
DWIDTH 8 0
BBX 8 8 0 0
BITMAP
60
30
00
CC
CC
CC
7E
00
ENDCHAR
STARTCHAR U+00FF
ENCODING 255
SWIDTH 500 0
DWIDTH 8 0
BBX 8 8 0 0
BITMAP
00
66
00
66
66
7E
06
7C
ENDCHAR
STARTCHAR U+00D6
ENCODING 214
SWIDTH 500 0
DWIDTH 8 0
BBX 8 8 0 0
BITMAP
C6
00
7C
C6
C6
C6
7C
00
ENDCHAR
STARTCHAR U+00DC
ENCODING 220
SWIDTH 500 0
DWIDTH 8 0
BBX 8 8 0 0
BITMAP
66
00
66
66
66
66
3C
00
ENDCHAR
STARTCHAR U+00A2
ENCODING 162
SWIDTH 500 0
DWIDTH 8 0
BBX 8 8 0 0
BITMAP
18
18
7E
C0
C0
7E
18
18
ENDCHAR
STARTCHAR U+00A3
ENCODING 163
SWIDTH 500 0
DWIDTH 8 0
BBX 8 8 0 0
BITMAP
38
6C
64
F0
60
E6
FC
00
ENDCHAR
STARTCHAR U+00A5
ENCODING 165
SWIDTH 500 0
DWIDTH 8 0
BBX 8 8 0 0
BITMAP
66
66
3C
7E
18
7E
18
18
ENDCHAR
STARTCHAR U+20A7
ENCODING 8359
SWIDTH 500 0
DWIDTH 8 0
BBX 8 8 0 0
BITMAP
78
44
44
78
4C
58
4E
00
ENDCHAR
STARTCHAR U+0192
ENCODING 402
SWIDTH 500 0
DWIDTH 8 0
BBX 8 8 0 0
BITMAP
0E
1B
18
7E
18
D8
70
00
ENDCHAR
STARTCHAR U+00E1
ENCODING 225
SWIDTH 500 0
DWIDTH 8 0
BBX 8 8 0 0
BITMAP
18
30
78
0C
7C
CC
7E
00
ENDCHAR
STARTCHAR U+00ED
ENCODING 237
SWIDTH 500 0
DWIDTH 8 0
BBX 8 8 0 0
BITMAP
0C
18
38
18
18
18
3C
00
ENDCHAR
STARTCHAR U+00F3
ENCODING 243
SWIDTH 500 0
DWIDTH 8 0
BBX 8 8 0 0
BITMAP
06
0C
00
3C
66
66
3C
00
ENDCHAR
STARTCHAR U+00FA
ENCODING 250
SWIDTH 500 0
DWIDTH 8 0
BBX 8 8 0 0
BITMAP
0C
18
00
CC
CC
CC
7E
00
ENDCHAR
STARTCHAR U+00F1
ENCODING 241
SWIDTH 500 0
DWIDTH 8 0
BBX 8 8 0 0
BITMAP
76
DC
00
F8
CC
CC
CC
00
ENDCHAR
STARTCHAR U+00D1
ENCODING 209
SWIDTH 500 0
DWIDTH 8 0
BBX 8 8 0 0
BITMAP
76
DC
00
EC
FC
DC
CC
00
ENDCHAR
STARTCHAR U+00AA
ENCODING 170
SWIDTH 500 0
DWIDTH 8 0
BBX 8 8 0 0
BITMAP
3C
6C
6C
3E
00
7E
00
00
ENDCHAR
STARTCHAR U+00BA
ENCODING 186
SWIDTH 500 0
DWIDTH 8 0
BBX 8 8 0 0
BITMAP
3C
66
66
3C
00
7E
00
00
ENDCHAR
STARTCHAR U+00BF
ENCODING 191
SWIDTH 500 0
DWIDTH 8 0
BBX 8 8 0 0
BITMAP
18
00
18
30
60
66
3C
00
ENDCHAR
STARTCHAR U+2310
ENCODING 8976
SWIDTH 500 0
DWIDTH 8 0
BBX 8 8 0 0
BITMAP
00
00
00
7E
60
60
00
00
ENDCHAR
STARTCHAR U+00AC
ENCODING 172
SWIDTH 500 0
DWIDTH 8 0
BBX 8 8 0 0
BITMAP
00
00
00
7E
06
06
00
00
ENDCHAR
STARTCHAR U+00BD
ENCODING 189
SWIDTH 500 0
DWIDTH 8 0
BBX 8 8 0 0
BITMAP
C3
C6
CC
DE
33
66
CC
0F
ENDCHAR
STARTCHAR U+00BC
ENCODING 188
SWIDTH 500 0
DWIDTH 8 0
BBX 8 8 0 0
BITMAP
C3
C6
CC
DB
37
6F
CF
03
ENDCHAR
STARTCHAR U+00A1
ENCODING 161
SWIDTH 500 0
DWIDTH 8 0
BBX 8 8 0 0
BITMAP
00
18
00
18
18
3C
3C
18
ENDCHAR
STARTCHAR U+00AB
ENCODING 171
SWIDTH 500 0
DWIDTH 8 0
BBX 8 8 0 0
BITMAP
00
33
66
CC
66
33
00
00
ENDCHAR
STARTCHAR U+00BB
ENCODING 187
SWIDTH 500 0
DWIDTH 8 0
BBX 8 8 0 0
BITMAP
00
CC
66
33
66
CC
00
00
ENDCHAR
STARTCHAR U+2591
ENCODING 9617
SWIDTH 500 0
DWIDTH 8 0
BBX 8 8 0 0
BITMAP
44
11
44
11
44
11
44
11
ENDCHAR
STARTCHAR U+2592
ENCODING 9618
SWIDTH 500 0
DWIDTH 8 0
BBX 8 8 0 0
BITMAP
55
AA
55
AA
55
AA
55
AA
ENDCHAR
STARTCHAR U+2593
ENCODING 9619
SWIDTH 500 0
DWIDTH 8 0
BBX 8 8 0 0
BITMAP
DD
77
DD
77
DD
77
DD
77
ENDCHAR
STARTCHAR U+2502
ENCODING 9474
SWIDTH 500 0
DWIDTH 8 0
BBX 8 8 0 0
BITMAP
18
18
18
18
18
18
18
18
ENDCHAR
STARTCHAR U+2524
ENCODING 9508
SWIDTH 500 0
DWIDTH 8 0
BBX 8 8 0 0
BITMAP
18
18
18
F8
F8
18
18
18
ENDCHAR
STARTCHAR U+2561
ENCODING 9569
SWIDTH 500 0
DWIDTH 8 0
BBX 8 8 0 0
BITMAP
18
F8
F8
18
18
F8
F8
18
ENDCHAR
STARTCHAR U+2562
ENCODING 9570
SWIDTH 500 0
DWIDTH 8 0
BBX 8 8 0 0
BITMAP
66
66
66
E6
E6
66
66
66
ENDCHAR
STARTCHAR U+2556
ENCODING 9558
SWIDTH 500 0
DWIDTH 8 0
BBX 8 8 0 0
BITMAP
00
00
00
FE
FE
66
66
66
ENDCHAR
STARTCHAR U+2555
ENCODING 9557
SWIDTH 500 0
DWIDTH 8 0
BBX 8 8 0 0
BITMAP
00
F8
F8
18
18
F8
F8
18
ENDCHAR
STARTCHAR U+2563
ENCODING 9571
SWIDTH 500 0
DWIDTH 8 0
BBX 8 8 0 0
BITMAP
66
E6
E6
06
06
E6
E6
66
ENDCHAR
STARTCHAR U+2551
ENCODING 9553
SWIDTH 500 0
DWIDTH 8 0
BBX 8 8 0 0
BITMAP
66
66
66
66
66
66
66
66
ENDCHAR
STARTCHAR U+2557
ENCODING 9559
SWIDTH 500 0
DWIDTH 8 0
BBX 8 8 0 0
BITMAP
00
FE
FE
06
06
E6
E6
66
ENDCHAR
STARTCHAR U+255D
ENCODING 9565
SWIDTH 500 0
DWIDTH 8 0
BBX 8 8 0 0
BITMAP
66
E6
E6
06
06
FE
FE
00
ENDCHAR
STARTCHAR U+255C
ENCODING 9564
SWIDTH 500 0
DWIDTH 8 0
BBX 8 8 0 0
BITMAP
66
66
66
FE
FE
00
00
00
ENDCHAR
STARTCHAR U+255B
ENCODING 9563
SWIDTH 500 0
DWIDTH 8 0
BBX 8 8 0 0
BITMAP
18
F8
F8
18
18
F8
F8
00
ENDCHAR
STARTCHAR U+2510
ENCODING 9488
SWIDTH 500 0
DWIDTH 8 0
BBX 8 8 0 0
BITMAP
00
00
00
F8
F8
18
18
18
ENDCHAR
STARTCHAR U+2514
ENCODING 9492
SWIDTH 500 0
DWIDTH 8 0
BBX 8 8 0 0
BITMAP
18
18
18
1F
1F
00
00
00
ENDCHAR
STARTCHAR U+2534
ENCODING 9524
SWIDTH 500 0
DWIDTH 8 0
BBX 8 8 0 0
BITMAP
18
18
18
FF
FF
00
00
00
ENDCHAR
STARTCHAR U+252C
ENCODING 9516
SWIDTH 500 0
DWIDTH 8 0
BBX 8 8 0 0
BITMAP
00
00
00
FF
FF
18
18
18
ENDCHAR
STARTCHAR U+251C
ENCODING 9500
SWIDTH 500 0
DWIDTH 8 0
BBX 8 8 0 0
BITMAP
18
18
18
1F
1F
18
18
18
ENDCHAR
STARTCHAR U+2500
ENCODING 9472
SWIDTH 500 0
DWIDTH 8 0
BBX 8 8 0 0
BITMAP
00
00
00
FF
FF
00
00
00
ENDCHAR
STARTCHAR U+253C
ENCODING 9532
SWIDTH 500 0
DWIDTH 8 0
BBX 8 8 0 0
BITMAP
18
18
18
FF
FF
18
18
18
ENDCHAR
STARTCHAR U+255E
ENCODING 9566
SWIDTH 500 0
DWIDTH 8 0
BBX 8 8 0 0
BITMAP
18
1F
1F
18
18
1F
1F
18
ENDCHAR
STARTCHAR U+255F
ENCODING 9567
SWIDTH 500 0
DWIDTH 8 0
BBX 8 8 0 0
BITMAP
66
66
66
67
67
66
66
66
ENDCHAR
STARTCHAR U+255A
ENCODING 9562
SWIDTH 500 0
DWIDTH 8 0
BBX 8 8 0 0
BITMAP
66
67
67
60
60
7F
7F
00
ENDCHAR
STARTCHAR U+2554
ENCODING 9556
SWIDTH 500 0
DWIDTH 8 0
BBX 8 8 0 0
BITMAP
00
7F
7F
60
60
67
67
66
ENDCHAR
STARTCHAR U+2569
ENCODING 9577
SWIDTH 500 0
DWIDTH 8 0
BBX 8 8 0 0
BITMAP
66
E7
E7
00
00
FF
FF
00
ENDCHAR
STARTCHAR U+2566
ENCODING 9574
SWIDTH 500 0
DWIDTH 8 0
BBX 8 8 0 0
BITMAP
00
FF
FF
00
00
E7
E7
66
ENDCHAR
STARTCHAR U+2560
ENCODING 9568
SWIDTH 500 0
DWIDTH 8 0
BBX 8 8 0 0
BITMAP
66
67
67
60
60
67
67
66
ENDCHAR
STARTCHAR U+2550
ENCODING 9552
SWIDTH 500 0
DWIDTH 8 0
BBX 8 8 0 0
BITMAP
00
FF
FF
00
00
FF
FF
00
ENDCHAR
STARTCHAR U+256C
ENCODING 9580
SWIDTH 500 0
DWIDTH 8 0
BBX 8 8 0 0
BITMAP
66
E7
E7
00
00
E7
E7
66
ENDCHAR
STARTCHAR U+2567
ENCODING 9575
SWIDTH 500 0
DWIDTH 8 0
BBX 8 8 0 0
BITMAP
18
FF
FF
00
00
FF
FF
00
ENDCHAR
STARTCHAR U+2568
ENCODING 9576
SWIDTH 500 0
DWIDTH 8 0
BBX 8 8 0 0
BITMAP
66
66
66
FF
FF
00
00
00
ENDCHAR
STARTCHAR U+2564
ENCODING 9572
SWIDTH 500 0
DWIDTH 8 0
BBX 8 8 0 0
BITMAP
00
FF
FF
00
00
FF
FF
18
ENDCHAR
STARTCHAR U+2565
ENCODING 9573
SWIDTH 500 0
DWIDTH 8 0
BBX 8 8 0 0
BITMAP
00
00
00
00
00
FF
FF
66
ENDCHAR
STARTCHAR U+2559
ENCODING 9561
SWIDTH 500 0
DWIDTH 8 0
BBX 8 8 0 0
BITMAP
66
66
66
7F
7F
00
00
00
ENDCHAR
STARTCHAR U+2558
ENCODING 9560
SWIDTH 500 0
DWIDTH 8 0
BBX 8 8 0 0
BITMAP
18
1F
1F
18
18
1F
1F
00
ENDCHAR
STARTCHAR U+2552
ENCODING 9554
SWIDTH 500 0
DWIDTH 8 0
BBX 8 8 0 0
BITMAP
00
1F
1F
18
18
1F
1F
18
ENDCHAR
STARTCHAR U+2553
ENCODING 9555
SWIDTH 500 0
DWIDTH 8 0
BBX 8 8 0 0
BITMAP
00
00
00
7F
7F
66
66
66
ENDCHAR
STARTCHAR U+256B
ENCODING 9579
SWIDTH 500 0
DWIDTH 8 0
BBX 8 8 0 0
BITMAP
66
66
66
FF
FF
66
66
66
ENDCHAR
STARTCHAR U+256A
ENCODING 9578
SWIDTH 500 0
DWIDTH 8 0
BBX 8 8 0 0
BITMAP
18
FF
FF
18
18
FF
FF
18
ENDCHAR
STARTCHAR U+2518
ENCODING 9496
SWIDTH 500 0
DWIDTH 8 0
BBX 8 8 0 0
BITMAP
18
18
18
F8
F8
00
00
00
ENDCHAR
STARTCHAR U+250C
ENCODING 9484
SWIDTH 500 0
DWIDTH 8 0
BBX 8 8 0 0
BITMAP
00
00
00
1F
1F
18
18
18
ENDCHAR
STARTCHAR U+2588
ENCODING 9608
SWIDTH 500 0
DWIDTH 8 0
BBX 8 8 0 0
BITMAP
FF
FF
FF
FF
FF
FF
FF
FF
ENDCHAR
STARTCHAR U+2584
ENCODING 9604
SWIDTH 500 0
DWIDTH 8 0
BBX 8 8 0 0
BITMAP
00
00
00
00
FF
FF
FF
FF
ENDCHAR
STARTCHAR U+258C
ENCODING 9612
SWIDTH 500 0
DWIDTH 8 0
BBX 8 8 0 0
BITMAP
F0
F0
F0
F0
F0
F0
F0
F0
ENDCHAR
STARTCHAR U+2590
ENCODING 9616
SWIDTH 500 0
DWIDTH 8 0
BBX 8 8 0 0
BITMAP
0F
0F
0F
0F
0F
0F
0F
0F
ENDCHAR
STARTCHAR U+2580
ENCODING 9600
SWIDTH 500 0
DWIDTH 8 0
BBX 8 8 0 0
BITMAP
FF
FF
FF
FF
00
00
00
00
ENDCHAR
STARTCHAR U+03B1
ENCODING 945
SWIDTH 500 0
DWIDTH 8 0
BBX 8 8 0 0
BITMAP
00
00
76
DC
DC
76
00
00
ENDCHAR
STARTCHAR U+00DF
ENCODING 223
SWIDTH 500 0
DWIDTH 8 0
BBX 8 8 0 0
BITMAP
00
3C
66
7C
66
7C
30
00
ENDCHAR
STARTCHAR U+0393
ENCODING 915
SWIDTH 500 0
DWIDTH 8 0
BBX 8 8 0 0
BITMAP
00
7E
66
60
60
60
00
00
ENDCHAR
STARTCHAR U+03C0
ENCODING 960
SWIDTH 500 0
DWIDTH 8 0
BBX 8 8 0 0
BITMAP
00
FE
6C
6C
6C
6C
66
00
ENDCHAR
STARTCHAR U+03A3
ENCODING 931
SWIDTH 500 0
DWIDTH 8 0
BBX 8 8 0 0
BITMAP
00
7E
62
30
30
62
7E
00
ENDCHAR
STARTCHAR U+03C3
ENCODING 963
SWIDTH 500 0
DWIDTH 8 0
BBX 8 8 0 0
BITMAP
00
00
3E
6C
6C
6C
38
00
ENDCHAR
STARTCHAR U+00B5
ENCODING 181
SWIDTH 500 0
DWIDTH 8 0
BBX 8 8 0 0
BITMAP
00
00
66
66
66
7C
60
C0
ENDCHAR
STARTCHAR U+03C4
ENCODING 964
SWIDTH 500 0
DWIDTH 8 0
BBX 8 8 0 0
BITMAP
00
00
76
DC
18
18
18
00
ENDCHAR
STARTCHAR U+03A6
ENCODING 934
SWIDTH 500 0
DWIDTH 8 0
BBX 8 8 0 0
BITMAP
7E
18
3C
66
3C
18
7E
00
ENDCHAR
STARTCHAR U+0398
ENCODING 920
SWIDTH 500 0
DWIDTH 8 0
BBX 8 8 0 0
BITMAP
38
6C
6C
7C
6C
6C
38
00
ENDCHAR
STARTCHAR U+03A9
ENCODING 937
SWIDTH 500 0
DWIDTH 8 0
BBX 8 8 0 0
BITMAP
38
6C
C6
C6
6C
6C
EE
00
ENDCHAR
STARTCHAR U+03B4
ENCODING 948
SWIDTH 500 0
DWIDTH 8 0
BBX 8 8 0 0
BITMAP
1C
30
18
3C
66
66
3C
00
ENDCHAR
STARTCHAR U+221E
ENCODING 8734
SWIDTH 500 0
DWIDTH 8 0
BBX 8 8 0 0
BITMAP
00
00
7C
D6
D6
7C
00
00
ENDCHAR
STARTCHAR U+03C6
ENCODING 966
SWIDTH 500 0
DWIDTH 8 0
BBX 8 8 0 0
BITMAP
0C
18
7C
D6
D6
7C
60
C0
ENDCHAR
STARTCHAR U+03B5
ENCODING 949
SWIDTH 500 0
DWIDTH 8 0
BBX 8 8 0 0
BITMAP
1C
30
60
7C
60
30
1C
00
ENDCHAR
STARTCHAR U+2229
ENCODING 8745
SWIDTH 500 0
DWIDTH 8 0
BBX 8 8 0 0
BITMAP
00
3C
66
66
66
66
66
00
ENDCHAR
STARTCHAR U+2261
ENCODING 8801
SWIDTH 500 0
DWIDTH 8 0
BBX 8 8 0 0
BITMAP
00
7E
00
7E
00
7E
00
00
ENDCHAR
STARTCHAR U+00B1
ENCODING 177
SWIDTH 500 0
DWIDTH 8 0
BBX 8 8 0 0
BITMAP
30
30
FC
30
30
00
FC
00
ENDCHAR
STARTCHAR U+2265
ENCODING 8805
SWIDTH 500 0
DWIDTH 8 0
BBX 8 8 0 0
BITMAP
60
30
18
30
60
00
FC
00
ENDCHAR
STARTCHAR U+2264
ENCODING 8804
SWIDTH 500 0
DWIDTH 8 0
BBX 8 8 0 0
BITMAP
18
30
60
30
18
00
FC
00
ENDCHAR
STARTCHAR U+2320
ENCODING 8992
SWIDTH 500 0
DWIDTH 8 0
BBX 8 8 0 0
BITMAP
00
38
6C
6C
60
60
60
60
ENDCHAR
STARTCHAR U+2321
ENCODING 8993
SWIDTH 500 0
DWIDTH 8 0
BBX 8 8 0 0
BITMAP
0C
0C
0C
0C
6C
6C
38
00
ENDCHAR
STARTCHAR U+00F7
ENCODING 247
SWIDTH 500 0
DWIDTH 8 0
BBX 8 8 0 0
BITMAP
18
18
00
7E
00
18
18
00
ENDCHAR
STARTCHAR U+2248
ENCODING 8776
SWIDTH 500 0
DWIDTH 8 0
BBX 8 8 0 0
BITMAP
00
76
DC
00
76
DC
00
00
ENDCHAR
STARTCHAR U+00B0
ENCODING 176
SWIDTH 500 0
DWIDTH 8 0
BBX 8 8 0 0
BITMAP
38
6C
6C
38
00
00
00
00
ENDCHAR
STARTCHAR U+2219
ENCODING 8729
SWIDTH 500 0
DWIDTH 8 0
BBX 8 8 0 0
BITMAP
00
00
00
18
18
00
00
00
ENDCHAR
STARTCHAR U+00B7
ENCODING 183
SWIDTH 500 0
DWIDTH 8 0
BBX 8 8 0 0
BITMAP
00
00
00
00
18
00
00
00
ENDCHAR
STARTCHAR U+221A
ENCODING 8730
SWIDTH 500 0
DWIDTH 8 0
BBX 8 8 0 0
BITMAP
0E
08
08
48
68
38
18
00
ENDCHAR
STARTCHAR U+207F
ENCODING 8319
SWIDTH 500 0
DWIDTH 8 0
BBX 8 8 0 0
BITMAP
78
6C
6C
6C
00
00
00
00
ENDCHAR
STARTCHAR U+00B2
ENCODING 178
SWIDTH 500 0
DWIDTH 8 0
BBX 8 8 0 0
BITMAP
38
0C
18
3C
00
00
00
00
ENDCHAR
STARTCHAR U+25A0
ENCODING 9632
SWIDTH 500 0
DWIDTH 8 0
BBX 8 8 0 0
BITMAP
00
7E
7E
7E
7E
7E
7E
00
ENDCHAR
STARTCHAR U+00FF
ENCODING 255
SWIDTH 500 0
DWIDTH 8 0
BBX 8 8 0 0
BITMAP
00
7E
42
42
42
42
7E
00
ENDCHAR
ENDFONT
