ply
format ascii 1.0
comment Created by Blender 2.80 (sub 75) - www.blender.org, source file: 'bridge-1.blend'
element vertex 199
property float x
property float y
property float z
property uchar red
property uchar green
property uchar blue
property uchar alpha
element face 381
property list uchar uint vertex_indices
end_header
-3.883904 5.346575 3.242665 122 122 122 255
-6.281379 5.388756 1.730567 122 122 122 255
-8.290304 5.337247 4.262104 131 131 131 255
-5.790547 5.364807 5.886108 130 130 130 255
-4.291334 5.364361 6.186853 147 147 147 255
-7.144068 5.362345 5.255786 115 115 115 255
-12.858824 5.374831 1.587609 149 149 149 255
-10.454777 5.358208 3.010987 142 142 142 255
-4.759729 3.787826 4.122711 59 59 59 255
-4.292283 3.740162 6.179929 112 112 112 255
-5.791863 3.740219 5.887269 139 139 139 255
-2.493072 3.737328 6.193773 101 101 101 255
-4.716628 -3.230665 4.146172 59 59 59 255
0.786614 0.516013 4.138495 120 120 120 255
-4.739116 0.431325 4.133931 120 120 120 255
2.725237 3.738366 6.178461 96 96 96 255
-12.079001 5.322942 -0.035448 122 122 122 255
-12.077956 -3.234058 -0.035266 59 59 59 255
-10.352047 0.206685 1.094117 120 120 120 255
-12.078457 0.128709 -0.035353 123 118 116 255
5.500906 5.376285 2.665628 123 123 122 255
6.139072 5.364065 6.066146 174 174 174 255
7.417738 5.361622 5.516074 153 153 153 255
8.754671 5.393601 0.598484 122 122 122 255
6.608451 -4.822784 2.033871 169 171 153 255
12.898768 5.322815 -0.035460 128 128 123 255
10.559066 5.364027 3.864405 140 140 140 255
9.311031 3.787642 2.306277 59 59 59 255
9.020483 3.737701 4.705762 104 104 104 255
7.417809 3.737578 5.518089 104 104 104 255
13.672755 3.738419 1.782924 152 124 116 255
10.558380 3.735502 3.866455 129 126 126 255
12.149903 5.362240 2.885274 184 184 184 255
1.018379 5.357655 6.189012 138 138 138 255
2.732872 5.364568 6.194002 152 152 152 255
4.343656 5.378871 2.860115 122 122 122 255
0.409676 5.322451 -0.011345 123 123 121 255
-0.753007 5.364185 6.192521 128 128 128 255
5.592056 3.787621 4.131792 59 59 59 255
4.641272 3.736752 6.193732 108 108 108 255
6.122404 3.737211 6.068497 134 134 134 255
3.041068 5.390388 2.075038 128 128 123 255
2.202872 5.341630 0.449830 122 122 122 255
9.018418 -4.840377 0.420351 196 197 193 255
12.898787 -4.769299 -0.035356 171 171 171 255
5.098943 -4.829791 2.823088 124 124 121 255
7.398995 -4.806572 5.465343 144 144 144 255
4.642028 -4.811147 6.193862 137 137 137 255
5.579948 -3.234184 4.122709 59 59 59 255
4.643042 -3.186316 6.192908 110 110 110 255
6.126812 -3.185513 6.072210 129 129 129 255
9.549042 -4.774939 -0.037495 123 123 123 255
13.669629 -4.821918 1.782053 210 210 210 255
12.149705 -4.813438 2.886026 194 194 194 255
2.733400 -3.184394 6.193787 78 78 78 255
2.726343 -4.804903 6.183570 155 155 155 255
3.128327 -4.832684 2.190474 122 122 122 255
12.898187 3.787693 -0.035251 59 59 59 255
11.266292 0.534384 1.032601 120 120 120 255
12.898669 0.510565 -0.035344 120 120 120 255
2.534587 -4.772638 -0.004136 122 122 122 255
2.622115 -4.825938 0.778057 122 122 122 255
-4.284125 -4.807906 6.157091 155 155 155 255
-5.749339 -4.833193 2.060951 126 127 125 255
-4.292522 -4.833836 2.810028 122 122 122 255
-4.495156 5.389556 2.729521 122 122 122 255
-8.730885 5.377344 -0.041498 124 124 123 255
-8.730808 -4.820521 -0.037625 127 127 126 255
-12.078045 -4.769015 -0.035222 147 147 147 255
-7.146276 -4.808168 5.257647 145 145 145 255
-10.277544 -4.810463 3.554529 144 144 144 255
-8.456530 -3.234001 2.324224 59 59 59 255
-8.712748 -3.184276 4.426092 98 98 98 255
-7.142467 -3.182524 5.251780 130 130 130 255
-0.737478 -4.804214 6.192920 160 160 160 255
0.990202 -4.819657 6.188214 137 137 137 255
-1.688757 -4.807776 -0.001571 122 122 122 255
-1.648348 5.356827 0.003073 122 122 122 255
-1.750601 5.348352 2.068484 122 122 122 255
-2.492023 5.361607 6.193451 112 112 112 255
-2.304672 5.397069 2.181094 122 122 122 255
-3.469698 5.398537 2.825640 122 122 122 255
-8.555767 3.787717 2.269547 59 59 59 255
-7.147498 3.740849 5.259065 100 100 100 255
-8.715185 3.740888 4.424839 107 107 107 255
-8.506332 0.289830 2.296784 120 120 120 255
-11.953863 3.742305 2.583573 121 121 121 255
4.642797 5.360155 6.192235 154 154 154 255
5.586541 0.588902 4.127655 120 120 120 255
9.548027 5.327486 -0.039210 122 122 122 255
13.202590 5.363952 2.239408 189 189 189 255
13.655803 5.379197 1.643091 123 123 123 255
2.511935 5.361909 -0.001719 122 122 122 255
-10.859636 5.366674 4.496052 162 162 162 255
-10.274347 5.369373 3.550066 142 142 142 255
11.143613 5.362740 4.814477 158 158 158 255
-8.710197 5.380111 4.425458 116 116 116 255
-10.277502 3.740430 3.557005 161 161 161 255
4.686731 -3.184194 7.309682 172 172 172 255
-6.074358 5.367973 6.966367 192 192 192 255
-9.247107 -3.183679 5.405326 163 163 163 255
-7.634944 -3.183901 6.260410 183 183 183 255
6.366054 -3.187397 7.155044 188 188 188 255
-0.753140 3.738562 6.194484 147 147 147 255
12.150001 3.736626 2.888024 192 171 165 255
9.021266 5.362164 4.703705 137 137 137 255
-11.898417 5.375044 2.586253 163 163 163 255
9.021721 -3.186536 4.705475 131 98 87 255
12.150844 -3.186108 2.887442 160 135 127 255
9.375992 -3.234074 2.269543 59 59 59 255
9.020559 -4.811732 4.704035 170 170 170 255
10.558302 -4.813042 3.864897 150 150 150 255
9.340870 0.562345 2.289403 120 120 120 255
13.687226 -3.183563 1.797149 132 116 111 255
12.899222 -3.234152 -0.035450 66 62 60 255
7.418637 -3.186415 5.517587 92 87 87 255
-2.214930 -4.840001 2.065026 122 122 122 255
-3.254464 -4.818257 2.767679 125 125 123 255
-2.492666 -4.809339 6.194355 151 151 151 255
-10.273524 -3.181368 3.552380 94 94 94 255
-5.791211 -3.183257 5.890512 137 137 137 255
-4.290118 -3.184052 6.187013 116 116 116 255
-2.491599 -3.184883 6.192529 109 109 109 255
-12.853325 -3.177986 1.782505 145 145 145 255
-11.860476 -3.184469 2.561303 168 168 168 255
-11.969766 -4.809306 2.579211 199 199 199 255
-12.835580 -4.825557 1.643089 210 210 210 255
-4.362770 5.365091 7.332907 196 196 196 255
0.991830 -4.812595 7.308056 165 165 165 255
2.732065 -4.811864 7.309067 182 182 182 255
10.560205 -3.188512 3.866108 160 135 127 255
-0.751338 -3.183859 6.193888 125 125 125 255
-8.713564 -4.808889 4.424022 136 136 136 255
-5.791547 -4.809039 5.885952 148 148 148 255
6.135127 -4.813049 6.062652 168 168 168 255
-12.414551 3.754721 3.527592 192 192 192 255
-10.854828 3.743347 4.489959 198 198 198 255
9.561056 3.737637 5.700879 177 177 177 255
7.907314 5.364144 6.518651 206 206 206 255
7.906373 3.737498 6.520459 192 192 192 255
7.908146 -3.188422 6.520068 188 188 188 255
7.906561 -4.814935 6.519005 172 172 172 255
9.562285 -3.189225 5.699041 191 191 191 255
-12.444463 -3.183948 3.511681 192 192 192 255
-10.853770 -4.809270 4.488178 177 177 177 255
-10.853029 -3.183950 4.490441 166 166 166 255
11.144688 -3.189811 4.816173 166 166 166 255
12.736005 -3.189708 3.837451 185 185 185 255
-0.752468 -4.811800 7.308852 187 187 187 255
-2.492441 -4.811725 7.309186 168 168 168 255
-9.216478 3.757346 5.434010 178 178 178 255
-2.491329 -3.184766 7.309278 163 163 163 255
-0.751357 -3.184842 7.309046 183 183 183 255
0.992697 5.365486 7.308736 176 176 176 255
2.732670 5.365410 7.309070 159 159 159 255
2.731559 3.738453 7.309222 194 194 194 255
0.991585 3.738527 7.308990 164 164 164 255
-7.633179 3.742018 6.253861 188 188 188 255
4.685877 5.366663 7.308793 170 170 170 255
6.379711 5.363649 7.152110 187 187 187 255
-6.074322 -3.183512 6.968047 190 190 190 255
-4.343546 -3.185509 7.318230 174 174 174 255
12.734950 5.362912 3.835672 178 178 178 255
-1.475906 -5.127054 -4.471449 130 130 127 255
2.747438 -5.091916 -4.474014 124 124 124 255
0.622527 5.003174 -4.481223 122 122 122 255
-1.435497 5.037550 -4.466805 127 128 124 255
2.724786 5.042632 -4.471597 123 123 122 255
-2.491834 5.365473 7.309185 176 176 176 255
-2.492947 3.738522 7.309290 162 162 162 255
-12.079001 3.787795 -0.035449 59 59 59 255
-12.844260 3.734947 1.638791 169 166 166 255
4.139122 -4.841271 2.771946 121 121 121 255
-6.076355 3.740802 6.967737 206 206 206 255
-4.345191 3.739670 7.318224 169 169 169 255
0.991716 3.738063 6.193817 134 134 134 255
4.685576 -4.812242 7.310346 172 172 172 255
-9.247913 -4.809917 5.403208 181 181 181 255
-7.638594 -4.810035 6.261771 180 180 180 255
6.379744 -4.813116 7.132699 188 188 188 255
9.558608 5.363190 5.688976 190 190 190 255
0.992942 -3.185698 7.309373 177 177 177 255
0.993377 -3.184935 6.193755 99 99 99 255
11.142870 3.737741 4.816720 182 182 182 255
2.733178 -3.184837 7.309232 178 178 178 255
-0.751863 5.365572 7.308850 188 188 188 255
-0.752976 3.738621 7.309058 175 175 175 255
-12.445204 -4.809269 3.509417 194 194 194 255
-7.631582 5.368557 6.252706 182 182 182 255
-9.191916 5.395061 5.410215 190 190 190 255
4.684737 3.738531 7.310312 172 172 172 255
6.370313 3.737970 7.135371 186 186 186 255
-12.400885 5.392690 3.513910 203 203 203 255
12.734208 3.737596 3.837935 179 179 179 255
9.559582 -4.814802 5.693102 188 188 188 255
12.734202 -4.815027 3.836145 176 176 176 255
11.142814 -4.814807 4.814984 162 162 162 255
-4.363440 -4.810796 7.332747 193 193 193 255
-6.075286 -4.810745 6.966022 181 181 181 255
3 0 1 2
3 0 3 4
3 0 5 3
3 2 5 0
3 2 6 7
3 8 9 10
3 8 11 9
3 12 13 14
3 8 15 11
3 16 6 2
3 17 18 19
3 20 21 22
3 23 24 20
3 25 22 26
3 27 28 29
3 27 30 31
3 26 32 25
3 33 34 35
3 33 36 37
3 15 38 39
3 38 29 40
3 33 41 42
3 43 44 24
3 45 46 47
3 48 49 50
3 51 44 43
3 44 52 53
3 48 54 49
3 48 12 54
3 45 55 56
3 57 58 59
3 60 61 55
3 62 63 64
3 64 63 65
3 66 63 67
3 68 69 70
3 71 72 73
3 68 67 63
3 74 60 75
3 74 76 60
3 77 78 36
3 0 4 79
3 78 77 80
3 78 80 81
3 65 0 81
3 63 1 65
3 66 1 63
3 66 2 1
3 82 83 84
3 66 16 2
3 8 82 85
3 8 85 14
3 0 79 78
3 79 37 78
3 8 10 83
3 17 71 85
3 17 85 18
3 82 84 86
3 20 24 45
3 23 20 25
3 20 34 87
3 27 31 28
3 38 13 88
3 29 38 27
3 51 23 89
3 89 23 25
3 38 40 39
3 30 27 57
3 32 90 25
3 90 91 25
3 36 33 42
3 36 42 92
3 35 41 33
3 11 4 9
3 7 93 94
3 26 95 32
3 84 96 97
3 49 98 50
3 10 3 83
3 3 99 4
3 73 100 101
3 50 98 102
3 31 26 28
3 39 34 15
3 86 84 97
3 103 11 15
3 104 31 30
3 26 22 105
3 106 7 6
3 51 43 23
3 46 45 24
3 92 61 60
3 61 56 55
3 107 108 109
3 24 110 46
3 44 111 110
3 57 27 112
3 57 112 58
3 113 114 109
3 75 60 55
3 47 55 45
3 81 64 65
3 48 50 115
3 44 53 111
3 109 108 113
3 116 76 74
3 81 117 64
3 62 64 118
3 71 119 72
3 12 120 121
3 12 121 122
3 123 124 17
3 117 74 118
3 70 125 68
3 125 126 68
3 117 116 74
3 54 47 49
3 4 99 127
3 55 128 75
3 121 118 122
3 55 129 128
3 73 69 120
3 119 70 72
3 72 100 73
3 130 108 107
3 12 122 131
3 70 69 132
3 69 62 133
3 134 47 46
3 93 135 136
3 137 138 139
3 140 141 142
3 143 144 145
3 97 136 135
3 108 146 147
3 74 148 149
3 83 150 84
3 131 151 152
3 33 153 154
3 97 135 86
3 15 155 156
3 83 157 150
3 21 158 159
3 120 160 161
3 120 161 121
3 32 95 162
3 70 144 125
3 60 76 163
3 60 163 164
3 124 145 119
3 77 36 165
3 77 165 166
3 92 60 164
3 92 164 167
3 79 168 37
3 76 77 166
3 76 166 163
3 124 143 145
3 103 169 11
3 170 82 86
3 170 86 171
3 0 78 81
3 65 1 0
3 83 82 8
3 35 172 56
3 35 56 41
3 37 36 78
3 8 38 15
3 45 35 20
3 61 92 41
3 56 61 41
3 140 115 46
3 140 46 141
3 45 172 35
3 42 41 92
3 22 25 20
3 34 20 35
3 87 21 20
3 11 79 4
3 83 3 5
3 145 144 70
3 145 70 119
3 6 171 86
3 6 86 106
3 97 96 94
3 99 3 10
3 99 10 173
3 174 9 4
3 174 4 127
3 37 103 175
3 37 175 33
3 21 40 29
3 21 29 22
3 47 134 176
3 39 87 34
3 177 132 69
3 177 69 178
3 28 26 105
3 104 90 32
3 29 28 137
3 10 9 174
3 30 91 90
3 179 134 50
3 179 50 102
3 10 174 173
3 180 137 28
3 180 28 105
3 134 179 176
3 2 7 94
3 2 94 96
3 104 30 90
3 175 103 15
3 96 5 2
3 171 6 16
3 171 16 170
3 91 30 57
3 91 57 25
3 48 109 112
3 48 112 88
3 48 115 107
3 48 107 109
3 45 56 172
3 117 81 80
3 117 80 116
3 24 23 43
3 24 44 110
3 77 76 116
3 80 77 116
3 12 71 73
3 12 73 120
3 62 69 63
3 69 68 63
3 71 17 124
3 71 124 119
3 46 115 50
3 46 50 134
3 64 117 118
3 98 49 47
3 98 47 176
3 111 130 107
3 111 107 110
3 128 181 182
3 128 182 75
3 183 95 26
3 183 26 31
3 54 55 47
3 184 54 182
3 184 182 181
3 75 182 131
3 75 131 74
3 169 168 79
3 169 79 11
3 113 108 53
3 113 53 52
3 138 180 105
3 138 105 22
3 121 62 118
3 185 186 103
3 185 103 37
3 187 143 124
3 187 124 125
3 72 70 132
3 123 126 125
3 125 144 187
3 103 186 169
3 113 52 44
3 113 44 114
3 120 69 133
3 37 168 185
3 124 123 125
3 182 54 12
3 131 182 12
3 126 123 17
3 126 17 68
3 150 157 188
3 150 188 189
3 168 169 186
3 168 186 185
3 173 174 127
3 173 127 99
3 159 158 190
3 159 190 191
3 93 192 135
3 153 156 155
3 153 155 154
3 137 180 138
3 95 183 193
3 95 193 162
3 102 98 176
3 102 176 179
3 129 184 181
3 129 181 128
3 142 141 194
3 195 147 146
3 195 146 196
3 178 101 100
3 178 100 177
3 143 187 144
3 148 152 151
3 148 151 149
3 197 161 160
3 197 160 198
3 157 83 5
3 157 5 188
3 53 195 196
3 46 110 141
3 118 74 149
3 155 15 34
3 155 34 154
3 140 142 107
3 140 107 115
3 192 93 7
3 192 7 106
3 150 189 96
3 150 96 84
3 131 122 151
3 34 33 154
3 195 53 108
3 195 108 147
3 135 192 106
3 135 106 86
3 148 74 131
3 148 131 152
3 188 5 96
3 188 96 189
3 153 33 175
3 153 175 156
3 110 194 141
3 151 122 118
3 151 118 149
3 175 15 156
3 158 87 39
3 158 39 190
3 146 130 111
3 146 111 196
3 159 191 40
3 159 40 21
3 198 133 62
3 198 62 197
3 161 197 62
3 161 62 121
3 40 191 190
3 198 160 120
3 198 120 133
3 21 87 158
3 194 110 107
3 194 107 142
3 39 40 190
3 139 138 22
3 139 22 29
3 136 97 94
3 136 94 93
3 111 53 196
3 101 178 69
3 101 69 73
3 183 31 104
3 183 104 193
3 193 104 32
3 193 32 162
3 184 129 55
3 184 55 54
3 108 130 146
3 29 137 139
3 100 72 132
3 100 132 177
3 36 92 167
3 36 167 165
3 19 18 82
3 19 82 170
3 14 13 38
3 14 38 8
3 88 13 12
3 88 12 48
3 88 112 27
3 88 27 38
3 58 112 109
3 14 85 71
3 14 71 12
3 59 58 109
3 59 109 114
3 18 85 82
