ply
format ascii 1.0
comment Created by Blender 2.80 (sub 75) - www.blender.org, source file: 'bush-1.blend'
element vertex 29
property float x
property float y
property float z
property uchar red
property uchar green
property uchar blue
property uchar alpha
element face 54
property list uchar uint vertex_indices
end_header
-1.549656 -1.262569 0.631991 75 62 35 255
-1.046576 -1.661252 1.744846 16 121 1 255
-1.809049 -1.015108 2.097860 16 121 1 255
-0.565152 -1.615706 0.542192 69 15 1 255
0.373550 -1.598238 1.761600 62 99 14 255
-0.383301 -1.691586 2.026670 48 106 34 255
-1.393418 1.778732 0.827230 51 114 23 255
-1.970160 1.230678 0.821805 69 120 65 255
-1.963220 1.266443 1.863510 77 117 22 255
-0.867971 1.912737 0.595751 36 109 15 255
-0.888316 1.944690 2.052928 60 111 16 255
-1.228555 1.387808 2.674006 81 118 13 255
1.407720 -0.574590 1.237786 17 121 6 255
1.554413 0.106462 1.321291 20 121 3 255
1.275432 -0.380645 2.223696 94 121 0 255
1.317334 0.347661 0.449169 61 77 26 255
0.783982 1.080225 0.105070 62 91 13 255
1.406055 0.885418 1.579923 84 120 4 255
0.435172 -0.719640 -0.171593 69 34 1 255
0.205383 -0.031375 -0.488421 69 17 2 255
-1.777252 0.325266 -0.037055 69 16 1 255
-1.009865 -0.688741 -0.300040 69 15 0 255
-1.220758 -0.736225 2.921257 94 121 0 255
-1.630124 0.311052 2.906882 89 119 15 255
1.228301 0.679685 2.325574 92 121 0 255
0.753916 0.150800 2.954508 16 121 0 255
0.841222 1.172963 2.500978 15 118 0 255
-0.769289 1.174155 -0.279351 67 19 11 255
-0.247762 0.000735 3.323389 94 121 0 255
3 0 1 2
3 3 4 5
3 1 3 5
3 6 7 8
3 9 6 10
3 6 8 10
3 10 8 11
3 12 13 14
3 15 16 17
3 12 4 18
3 15 19 16
3 0 20 21
3 4 3 18
3 22 23 2
3 13 17 24
3 13 24 14
3 13 12 15
3 13 15 17
3 12 18 15
3 24 25 14
3 17 16 26
3 17 26 24
3 25 24 26
3 4 14 25
3 21 19 18
3 21 18 3
3 4 12 14
3 15 18 19
3 9 16 27
3 19 27 16
3 3 0 21
3 7 6 9
3 9 27 20
3 9 20 7
3 21 20 27
3 21 27 19
3 11 28 26
3 11 26 10
3 8 7 20
3 8 20 2
3 16 9 10
3 16 10 26
3 0 2 20
3 23 22 28
3 23 28 11
3 4 25 28
3 4 28 5
3 25 26 28
3 8 23 11
3 8 2 23
3 1 22 2
3 22 1 5
3 22 5 28
3 1 0 3
