ply
format ascii 1.0
comment Created by Blender 2.80 (sub 75) - www.blender.org, source file: 'fence.blend'
element vertex 83
property float x
property float y
property float z
property uchar red
property uchar green
property uchar blue
property uchar alpha
element face 138
property list uchar uint vertex_indices
end_header
0.097931 -4.298348 1.702751 196 123 77 0
0.107309 -4.314967 -0.297249 128 80 50 0
0.022294 -4.257919 -0.297249 128 80 50 0
0.081267 -4.495513 1.702751 196 123 77 0
0.016723 -4.522248 -0.297249 128 80 50 0
0.095111 -4.481089 -0.297249 129 81 51 0
-0.107309 -4.314967 1.702751 196 123 77 0
-0.087047 -4.290423 -0.297249 128 80 50 0
-0.134477 -4.394615 -0.297249 128 80 50 0
-0.022294 -4.257919 1.702751 196 123 77 0
0.068152 -1.272039 1.702751 196 123 77 0
0.059237 -1.271841 -0.297249 128 80 50 0
-0.055175 -1.267893 -0.297249 128 80 50 0
0.120002 -1.337355 -0.297249 128 80 50 0
0.132385 -1.381314 1.702751 196 123 77 0
0.128030 -1.425527 -0.297249 128 80 50 0
0.092248 -1.488527 1.702751 196 123 77 0
0.043714 -1.520171 -0.297249 128 80 50 0
0.132385 -4.399878 -0.297249 128 80 50 0
0.131652 -4.407320 1.702751 196 123 77 0
-0.016724 -1.522248 1.702751 196 123 77 0
-0.092248 -1.488527 -0.297249 128 80 50 0
-0.114046 -1.461966 1.702751 196 123 77 0
-0.132677 -1.368302 -0.297249 128 80 50 0
-0.131109 1.639580 1.702751 196 123 77 0
-0.087047 1.709577 -0.297249 128 80 50 0
-0.132385 1.618685 -0.297249 128 80 50 0
-0.035641 1.741427 1.702751 198 128 85 0
-0.003264 1.740645 -0.297249 128 80 50 0
0.118557 4.541252 1.702751 196 123 78 0
0.078053 4.499824 -0.297249 128 80 50 0
0.129357 4.587003 -0.297249 128 80 50 0
0.022400 4.480046 1.702751 196 123 77 0
-0.022400 4.480046 -0.297249 128 80 50 0
-0.078053 4.499824 1.702751 196 123 77 0
-0.118557 4.541252 -0.297249 128 80 50 0
-0.081267 -4.495513 -0.297249 128 80 50 0
-0.003266 -4.521838 1.702751 196 124 78 0
-0.087047 -4.490770 1.702751 196 123 77 0
-0.132385 -4.399878 1.702751 196 123 77 0
-0.125860 -1.348510 1.702751 196 123 77 0
-0.059237 -1.271841 1.702751 196 123 77 0
0.081267 1.714321 -0.297249 128 80 50 0
0.087047 1.709578 1.702751 196 123 77 0
0.131652 1.626127 -0.297249 128 80 50 0
0.132385 1.618685 1.702751 196 123 77 0
0.110937 1.539205 -0.297249 128 80 50 0
0.107309 1.533775 1.702751 196 123 77 0
0.030176 1.478294 -0.297249 128 80 50 0
0.022293 1.476727 1.702751 196 123 77 0
-0.092248 1.511472 -0.297249 128 80 50 0
-0.097931 1.517155 1.702751 196 124 79 0
0.109582 4.687455 -0.297249 128 80 50 0
-0.004021 4.743880 -0.297249 128 80 50 0
0.004018 4.743880 1.702751 196 123 77 0
0.114046 4.680774 1.702751 196 123 77 0
-0.114046 4.680774 -0.297249 128 81 51 0
-0.129357 4.587003 1.702751 196 123 77 0
-0.109582 4.687455 1.702751 196 124 78 0
0.063131 -1.253447 1.341481 196 187 10 0
0.063131 -1.218259 0.943874 196 187 9 0
0.063131 -4.688915 0.636716 196 184 61 0
0.063131 -4.724103 1.034323 196 184 61 0
0.226303 -1.218259 0.943874 196 130 39 0
0.226303 -1.253447 1.341481 196 180 21 0
0.226303 -4.688915 0.636716 196 184 61 0
0.226303 -4.724103 1.034323 196 184 61 0
0.063131 1.777644 0.889165 196 186 9 0
0.063131 1.829617 0.493402 210 204 120 0
0.063131 -1.624944 0.039740 205 197 92 0
0.063131 -1.676917 0.435503 197 188 23 0
0.226303 1.829617 0.493402 196 130 14 0
0.226303 1.777644 0.889165 196 174 4 0
0.226303 -1.624944 0.039740 196 187 14 0
0.226303 -1.676917 0.435503 196 187 9 0
0.063131 4.736297 0.336642 196 173 9 0
0.063131 1.347504 1.146508 196 173 14 0
0.063131 1.440284 1.534737 197 141 65 0
0.063131 4.829077 0.724870 197 157 31 0
0.226303 4.736297 0.336642 204 181 87 0
0.226303 4.829077 0.724870 196 118 31 0
0.226303 1.440284 1.534737 196 173 0 0
0.226303 1.347504 1.146508 197 174 26 0
3 0 1 2
3 3 4 5
3 6 7 8
3 9 2 7
3 10 11 12
3 10 13 11
3 14 15 13
3 16 17 15
3 18 1 0
3 18 0 19
3 20 21 17
3 22 23 21
3 24 25 26
3 27 28 25
3 29 30 31
3 32 33 30
3 34 35 33
3 9 0 2
3 5 18 19
3 5 19 3
3 36 4 37
3 36 37 38
3 3 37 4
3 8 36 38
3 8 38 39
3 39 6 8
3 6 9 7
3 39 38 37
3 37 3 19
3 19 0 9
3 9 6 39
3 39 37 19
3 19 9 39
3 5 4 36
3 36 8 7
3 7 2 1
3 1 18 5
3 5 36 7
3 7 1 5
3 12 23 40
3 12 40 41
3 10 14 13
3 14 16 15
3 16 20 17
3 20 22 21
3 22 40 23
3 22 20 16
3 16 14 10
3 10 41 40
3 40 22 16
3 16 10 40
3 41 10 12
3 23 12 11
3 11 13 15
3 15 17 21
3 21 23 11
3 11 15 21
3 42 28 27
3 42 27 43
3 44 42 43
3 44 43 45
3 46 44 45
3 46 45 47
3 48 46 47
3 48 47 49
3 50 48 49
3 50 49 51
3 26 50 51
3 26 51 24
3 24 27 25
3 51 49 47
3 47 45 43
3 43 27 24
3 24 51 47
3 47 43 24
3 42 44 46
3 46 48 50
3 50 26 25
3 25 28 42
3 42 46 50
3 50 25 42
3 52 53 54
3 52 54 55
3 31 52 55
3 31 55 29
3 56 35 57
3 56 57 58
3 29 32 30
3 32 34 33
3 34 57 35
3 53 56 58
3 53 58 54
3 54 58 57
3 57 34 32
3 32 29 55
3 55 54 57
3 57 32 55
3 59 60 61
3 59 61 62
3 33 35 56
3 56 53 52
3 52 31 30
3 30 33 56
3 56 52 30
3 63 60 59
3 63 59 64
3 65 63 64
3 65 64 66
3 61 65 66
3 61 66 62
3 61 60 63
3 61 63 65
3 66 64 59
3 66 59 62
3 67 68 69
3 67 69 70
3 71 68 67
3 71 67 72
3 73 71 72
3 73 72 74
3 69 73 74
3 69 74 70
3 69 68 71
3 69 71 73
3 74 72 67
3 74 67 70
3 75 76 77
3 75 77 78
3 79 75 78
3 79 78 80
3 81 82 79
3 81 79 80
3 76 82 81
3 76 81 77
3 76 75 79
3 76 79 82
3 81 80 78
3 81 78 77
