ply
format ascii 1.0
comment Created by Blender 2.80 (sub 75) - www.blender.org, source file: ''
element vertex 280
property float x
property float y
property float z
property uchar red
property uchar green
property uchar blue
property uchar alpha
element face 532
property list uchar uint vertex_indices
end_header
0.000000 -4.260889 -0.297249 128 80 50 255
0.000000 -4.260889 1.702751 196 123 77 255
0.025305 -4.263381 1.702751 196 123 77 255
0.025305 -4.263381 -0.297249 128 80 50 255
0.049637 -4.270762 1.702751 196 123 77 255
0.049637 -4.270762 -0.297249 128 80 50 255
0.072061 -4.282749 1.702751 196 123 77 255
0.072061 -4.282749 -0.297249 128 80 50 255
0.091717 -4.298880 1.702751 196 123 77 255
0.091717 -4.298880 -0.297249 128 80 50 255
0.107848 -4.318535 1.702751 196 123 77 255
0.107848 -4.318535 -0.297249 128 80 50 255
0.119834 -4.340960 1.702751 196 123 77 255
0.119834 -4.340960 -0.297249 128 80 50 255
0.127215 -4.365292 1.702751 196 123 77 255
0.127215 -4.365292 -0.297249 128 80 50 255
0.129707 -4.390596 1.702751 196 123 77 255
0.129707 -4.390596 -0.297249 128 80 50 255
0.127215 -4.415901 1.702751 196 123 77 255
0.127215 -4.415901 -0.297249 128 80 50 255
0.119834 -4.440233 1.702751 196 123 77 255
0.119834 -4.440233 -0.297249 128 80 50 255
0.107848 -4.462658 1.702751 196 123 77 255
0.107848 -4.462658 -0.297249 128 80 50 255
0.091717 -4.482313 1.702751 196 123 77 255
0.091717 -4.482313 -0.297249 129 81 51 255
0.072061 -4.498444 1.702751 196 123 77 255
0.072061 -4.498444 -0.297249 128 80 50 255
0.049637 -4.510430 1.702751 196 123 77 255
0.049637 -4.510430 -0.297249 128 80 50 255
0.025305 -4.517811 1.702751 196 123 77 255
0.025305 -4.517811 -0.297249 128 80 50 255
-0.000000 -4.520304 1.702751 196 124 79 255
-0.000000 -4.520304 -0.297249 128 80 50 255
-0.025305 -4.517811 1.702751 196 123 77 255
-0.025305 -4.517811 -0.297249 128 80 50 255
-0.049637 -4.510430 1.702751 196 123 77 255
-0.049637 -4.510430 -0.297249 128 80 50 255
-0.072062 -4.498444 1.702751 196 123 77 255
-0.072062 -4.498444 -0.297249 128 80 50 255
-0.091717 -4.482313 1.702751 196 123 77 255
-0.091717 -4.482313 -0.297249 128 80 50 255
-0.107848 -4.462658 1.702751 196 123 77 255
-0.107848 -4.462658 -0.297249 128 80 50 255
-0.119834 -4.440233 1.702751 196 123 77 255
-0.119834 -4.440233 -0.297249 128 80 50 255
-0.127215 -4.415901 1.702751 196 123 77 255
-0.127215 -4.415901 -0.297249 128 80 50 255
-0.129707 -4.390596 1.702751 196 123 77 255
-0.129707 -4.390596 -0.297249 128 80 50 255
-0.127215 -4.365292 1.702751 196 123 77 255
-0.127215 -4.365292 -0.297249 128 80 50 255
-0.119834 -4.340960 1.702751 196 123 77 255
-0.119834 -4.340960 -0.297249 128 80 50 255
-0.107848 -4.318535 1.702751 196 123 77 255
-0.107848 -4.318535 -0.297249 128 80 50 255
-0.091717 -4.298880 1.702751 196 123 77 255
-0.091717 -4.298880 -0.297249 128 80 50 255
-0.072061 -4.282749 1.702751 196 123 77 255
-0.072061 -4.282749 -0.297249 128 80 50 255
-0.049637 -4.270762 1.702751 196 123 77 255
-0.049637 -4.270762 -0.297249 128 80 50 255
-0.025304 -4.263381 1.702751 196 123 77 255
-0.025304 -4.263381 -0.297249 128 80 50 255
0.000000 -1.260889 -0.297249 128 80 50 255
0.000000 -1.260889 1.702751 196 123 77 255
0.025305 -1.263381 1.702751 196 123 77 255
0.025305 -1.263381 -0.297249 128 80 50 255
0.049637 -1.270762 1.702751 196 123 77 255
0.049637 -1.270762 -0.297249 128 80 50 255
0.072061 -1.282748 1.702751 196 123 77 255
0.072061 -1.282748 -0.297249 128 80 50 255
0.091717 -1.298879 1.702751 196 123 77 255
0.091717 -1.298879 -0.297249 129 82 53 255
0.107848 -1.318535 1.702751 196 123 77 255
0.107848 -1.318535 -0.297249 128 80 50 255
0.119834 -1.340960 1.702751 196 123 77 255
0.119834 -1.340960 -0.297249 128 80 50 255
0.127215 -1.365292 1.702751 196 123 77 255
0.127215 -1.365292 -0.297249 128 80 50 255
0.129707 -1.390596 1.702751 196 123 77 255
0.129707 -1.390596 -0.297249 128 80 50 255
0.127215 -1.415901 1.702751 196 123 77 255
0.127215 -1.415901 -0.297249 128 80 50 255
0.119834 -1.440233 1.702751 196 123 77 255
0.119834 -1.440233 -0.297249 128 80 50 255
0.107848 -1.462658 1.702751 196 123 77 255
0.107848 -1.462658 -0.297249 128 80 50 255
0.091717 -1.482313 1.702751 196 123 77 255
0.091717 -1.482313 -0.297249 128 80 50 255
0.072061 -1.498444 1.702751 196 123 77 255
0.072061 -1.498444 -0.297249 128 80 50 255
0.049637 -1.510430 1.702751 196 123 77 255
0.049637 -1.510430 -0.297249 128 80 50 255
0.025305 -1.517811 1.702751 196 123 77 255
0.025305 -1.517811 -0.297249 128 80 50 255
-0.000000 -1.520303 1.702751 196 123 77 255
-0.000000 -1.520303 -0.297249 128 80 50 255
-0.025305 -1.517811 1.702751 196 123 77 255
-0.025305 -1.517811 -0.297249 128 80 50 255
-0.049637 -1.510430 1.702751 196 123 77 255
-0.049637 -1.510430 -0.297249 128 80 50 255
-0.072062 -1.498444 1.702751 196 123 77 255
-0.072062 -1.498444 -0.297249 128 80 50 255
-0.091717 -1.482313 1.702751 196 123 77 255
-0.091717 -1.482313 -0.297249 128 80 50 255
-0.107848 -1.462658 1.702751 196 123 77 255
-0.107848 -1.462658 -0.297249 128 80 50 255
-0.119834 -1.440233 1.702751 196 123 77 255
-0.119834 -1.440233 -0.297249 128 80 50 255
-0.127215 -1.415901 1.702751 196 123 77 255
-0.127215 -1.415901 -0.297249 128 80 50 255
-0.129707 -1.390596 1.702751 196 123 77 255
-0.129707 -1.390596 -0.297249 128 80 50 255
-0.127215 -1.365292 1.702751 196 123 77 255
-0.127215 -1.365292 -0.297249 128 80 50 255
-0.119834 -1.340959 1.702751 196 123 77 255
-0.119834 -1.340959 -0.297249 128 80 50 255
-0.107848 -1.318535 1.702751 196 123 77 255
-0.107848 -1.318535 -0.297249 128 80 50 255
-0.091717 -1.298879 1.702751 196 123 77 255
-0.091717 -1.298879 -0.297249 128 80 50 255
-0.072061 -1.282748 1.702751 196 123 77 255
-0.072061 -1.282748 -0.297249 128 80 50 255
-0.049637 -1.270762 1.702751 196 123 77 255
-0.049637 -1.270762 -0.297249 128 80 50 255
-0.025304 -1.263381 1.702751 196 123 77 255
-0.025304 -1.263381 -0.297249 128 80 50 255
0.000000 1.739110 -0.297249 128 80 50 255
0.000000 1.739110 1.702751 199 131 92 255
0.025305 1.736619 1.702751 201 139 103 255
0.025305 1.736619 -0.297249 128 80 50 255
0.049637 1.729237 1.702751 196 124 79 255
0.049637 1.729237 -0.297249 128 80 50 255
0.072061 1.717251 1.702751 196 123 77 255
0.072061 1.717251 -0.297249 128 80 50 255
0.091717 1.701120 1.702751 196 123 77 255
0.091717 1.701120 -0.297249 128 80 50 255
0.107848 1.681465 1.702751 196 123 77 255
0.107848 1.681465 -0.297249 128 80 50 255
0.119834 1.659040 1.702751 196 123 77 255
0.119834 1.659040 -0.297249 128 80 50 255
0.127215 1.634708 1.702751 196 123 77 255
0.127215 1.634708 -0.297249 128 80 50 255
0.129707 1.609404 1.702751 196 123 77 255
0.129707 1.609404 -0.297249 128 80 50 255
0.127215 1.584099 1.702751 196 123 77 255
0.127215 1.584099 -0.297249 128 80 50 255
0.119834 1.559767 1.702751 196 123 77 255
0.119834 1.559767 -0.297249 128 80 50 255
0.107848 1.537342 1.702751 196 123 77 255
0.107848 1.537342 -0.297249 128 80 50 255
0.091717 1.517686 1.702751 196 123 77 255
0.091717 1.517686 -0.297249 128 80 50 255
0.072061 1.501556 1.702751 196 123 77 255
0.072061 1.501556 -0.297249 128 80 50 255
0.049637 1.489569 1.702751 196 123 77 255
0.049637 1.489569 -0.297249 128 80 50 255
0.025305 1.482189 1.702751 196 123 77 255
0.025305 1.482189 -0.297249 128 80 50 255
-0.000000 1.479696 1.702751 196 123 77 255
-0.000000 1.479696 -0.297249 128 80 50 255
-0.025305 1.482189 1.702751 196 123 77 255
-0.025305 1.482189 -0.297249 128 80 50 255
-0.049637 1.489570 1.702751 196 124 79 255
-0.049637 1.489570 -0.297249 128 80 50 255
-0.072062 1.501556 1.702751 197 126 83 255
-0.072062 1.501556 -0.297249 128 80 50 255
-0.091717 1.517686 1.702751 196 123 77 255
-0.091717 1.517686 -0.297249 128 80 50 255
-0.107848 1.537342 1.702751 196 123 77 255
-0.107848 1.537342 -0.297249 128 80 50 255
-0.119834 1.559767 1.702751 196 123 77 255
-0.119834 1.559767 -0.297249 128 80 50 255
-0.127215 1.584099 1.702751 196 123 77 255
-0.127215 1.584099 -0.297249 128 80 50 255
-0.129707 1.609404 1.702751 196 123 77 255
-0.129707 1.609404 -0.297249 128 80 50 255
-0.127215 1.634708 1.702751 196 123 77 255
-0.127215 1.634708 -0.297249 128 80 50 255
-0.119834 1.659040 1.702751 196 123 77 255
-0.119834 1.659040 -0.297249 128 80 50 255
-0.107848 1.681465 1.702751 196 123 77 255
-0.107848 1.681465 -0.297249 128 80 50 255
-0.091717 1.701120 1.702751 196 123 77 255
-0.091717 1.701120 -0.297249 128 80 50 255
-0.072061 1.717251 1.702751 196 123 77 255
-0.072061 1.717251 -0.297249 128 80 50 255
-0.049637 1.729238 1.702751 196 123 77 255
-0.049637 1.729238 -0.297249 128 80 50 255
-0.025304 1.736619 1.702751 197 125 81 255
-0.025304 1.736619 -0.297249 128 80 50 255
0.000000 4.739111 -0.297249 128 80 50 255
0.000000 4.739111 1.702751 196 123 77 255
0.025305 4.736618 1.702751 196 123 77 255
0.025305 4.736618 -0.297249 128 81 51 255
0.049637 4.729238 1.702751 196 123 77 255
0.049637 4.729238 -0.297249 128 81 51 255
0.072061 4.717251 1.702751 196 123 77 255
0.072061 4.717251 -0.297249 128 80 50 255
0.091717 4.701120 1.702751 196 123 77 255
0.091717 4.701120 -0.297249 128 80 50 255
0.107848 4.681465 1.702751 196 123 77 255
0.107848 4.681465 -0.297249 128 80 50 255
0.119834 4.659040 1.702751 196 123 77 255
0.119834 4.659040 -0.297249 128 80 50 255
0.127215 4.634708 1.702751 196 123 77 255
0.127215 4.634708 -0.297249 128 80 50 255
0.129707 4.609404 1.702751 198 127 84 255
0.129707 4.609404 -0.297249 128 80 50 255
0.127215 4.584099 1.702751 196 123 77 255
0.127215 4.584099 -0.297249 128 80 50 255
0.119834 4.559767 1.702751 196 123 77 255
0.119834 4.559767 -0.297249 128 80 50 255
0.107848 4.537342 1.702751 196 123 77 255
0.107848 4.537342 -0.297249 128 80 50 255
0.091717 4.517687 1.702751 196 123 77 255
0.091717 4.517687 -0.297249 128 80 50 255
0.072061 4.501556 1.702751 196 123 77 255
0.072061 4.501556 -0.297249 128 80 50 255
0.049637 4.489570 1.702751 196 123 77 255
0.049637 4.489570 -0.297249 128 80 50 255
0.025305 4.482189 1.702751 196 123 77 255
0.025305 4.482189 -0.297249 128 81 51 255
-0.000000 4.479696 1.702751 196 123 77 255
-0.000000 4.479696 -0.297249 128 80 50 255
-0.025305 4.482189 1.702751 196 123 77 255
-0.025305 4.482189 -0.297249 128 80 50 255
-0.049637 4.489570 1.702751 196 123 77 255
-0.049637 4.489570 -0.297249 128 80 50 255
-0.072062 4.501556 1.702751 196 123 77 255
-0.072062 4.501556 -0.297249 128 80 50 255
-0.091717 4.517687 1.702751 196 123 77 255
-0.091717 4.517687 -0.297249 128 80 50 255
-0.107848 4.537342 1.702751 196 123 77 255
-0.107848 4.537342 -0.297249 128 80 50 255
-0.119834 4.559767 1.702751 196 123 77 255
-0.119834 4.559767 -0.297249 128 80 50 255
-0.127215 4.584099 1.702751 196 123 77 255
-0.127215 4.584099 -0.297249 128 80 50 255
-0.129707 4.609404 1.702751 196 123 77 255
-0.129707 4.609404 -0.297249 128 80 50 255
-0.127215 4.634708 1.702751 196 123 77 255
-0.127215 4.634708 -0.297249 128 80 50 255
-0.119834 4.659040 1.702751 196 123 77 255
-0.119834 4.659040 -0.297249 128 80 50 255
-0.107848 4.681465 1.702751 196 123 77 255
-0.107848 4.681465 -0.297249 128 80 50 255
-0.091717 4.701120 1.702751 196 123 77 255
-0.091717 4.701120 -0.297249 128 80 50 255
-0.072061 4.717251 1.702751 196 124 78 255
-0.072061 4.717251 -0.297249 129 82 52 255
-0.049637 4.729238 1.702751 196 123 77 255
-0.049637 4.729238 -0.297249 128 80 50 255
-0.025304 4.736619 1.702751 196 123 77 255
-0.025304 4.736619 -0.297249 128 80 50 255
0.063131 -4.688915 0.636716 196 184 61 255
0.063131 -4.724103 1.034323 196 184 61 255
0.063131 -1.253447 1.341481 196 187 10 255
0.063131 -1.218259 0.943874 196 187 9 255
0.226303 -1.253447 1.341481 196 180 21 255
0.226303 -1.218259 0.943874 196 130 39 255
0.226303 -4.724103 1.034323 196 184 61 255
0.226303 -4.688915 0.636716 196 184 61 255
0.063131 -1.624944 0.039740 205 197 92 255
0.063131 -1.676917 0.435503 197 188 23 255
0.063131 1.777644 0.889165 196 186 9 255
0.063131 1.829617 0.493402 210 204 120 255
0.226303 1.777644 0.889165 196 174 4 255
0.226303 1.829617 0.493402 196 130 14 255
0.226303 -1.676917 0.435503 196 187 9 255
0.226303 -1.624944 0.039740 196 187 14 255
0.063131 1.347504 1.146508 196 173 14 255
0.063131 1.440284 1.534737 197 141 65 255
0.063131 4.829077 0.724870 197 157 31 255
0.063131 4.736297 0.336642 196 173 9 255
0.226303 4.829077 0.724870 196 118 31 255
0.226303 4.736297 0.336642 204 181 87 255
0.226303 1.440284 1.534737 196 173 0 255
0.226303 1.347504 1.146508 197 174 26 255
3 0 1 2
3 0 2 3
3 3 2 4
3 3 4 5
3 5 4 6
3 5 6 7
3 7 6 8
3 7 8 9
3 9 8 10
3 9 10 11
3 11 10 12
3 11 12 13
3 13 12 14
3 13 14 15
3 15 14 16
3 15 16 17
3 17 16 18
3 17 18 19
3 19 18 20
3 19 20 21
3 21 20 22
3 21 22 23
3 23 22 24
3 23 24 25
3 25 24 26
3 25 26 27
3 27 26 28
3 27 28 29
3 29 28 30
3 29 30 31
3 31 30 32
3 31 32 33
3 33 32 34
3 33 34 35
3 35 34 36
3 35 36 37
3 37 36 38
3 37 38 39
3 39 38 40
3 39 40 41
3 41 40 42
3 41 42 43
3 43 42 44
3 43 44 45
3 45 44 46
3 45 46 47
3 47 46 48
3 47 48 49
3 49 48 50
3 49 50 51
3 51 50 52
3 51 52 53
3 53 52 54
3 53 54 55
3 55 54 56
3 55 56 57
3 57 56 58
3 57 58 59
3 59 58 60
3 59 60 61
3 4 2 1
3 1 62 60
3 60 58 56
3 56 54 52
3 52 50 48
3 48 46 44
3 44 42 40
3 40 38 36
3 36 34 32
3 32 30 28
3 28 26 24
3 24 22 20
3 20 18 16
3 16 14 12
3 12 10 8
3 8 6 4
3 4 1 60
3 60 56 52
3 52 48 44
3 44 40 36
3 36 32 28
3 28 24 20
3 20 16 12
3 12 8 4
3 4 60 52
3 52 44 36
3 36 28 20
3 20 12 4
3 4 52 36
3 36 20 4
3 61 60 62
3 61 62 63
3 63 62 1
3 63 1 0
3 63 0 3
3 3 5 7
3 7 9 11
3 11 13 15
3 15 17 19
3 19 21 23
3 23 25 27
3 27 29 31
3 31 33 35
3 35 37 39
3 39 41 43
3 43 45 47
3 47 49 51
3 51 53 55
3 55 57 59
3 59 61 63
3 63 3 7
3 7 11 15
3 15 19 23
3 23 27 31
3 31 35 39
3 39 43 47
3 47 51 55
3 55 59 63
3 63 7 15
3 15 23 31
3 31 39 47
3 47 55 63
3 63 15 31
3 31 47 63
3 64 65 66
3 64 66 67
3 67 66 68
3 67 68 69
3 69 68 70
3 69 70 71
3 71 70 72
3 71 72 73
3 73 72 74
3 73 74 75
3 75 74 76
3 75 76 77
3 77 76 78
3 77 78 79
3 79 78 80
3 79 80 81
3 81 80 82
3 81 82 83
3 83 82 84
3 83 84 85
3 85 84 86
3 85 86 87
3 87 86 88
3 87 88 89
3 89 88 90
3 89 90 91
3 91 90 92
3 91 92 93
3 93 92 94
3 93 94 95
3 95 94 96
3 95 96 97
3 97 96 98
3 97 98 99
3 99 98 100
3 99 100 101
3 101 100 102
3 101 102 103
3 103 102 104
3 103 104 105
3 105 104 106
3 105 106 107
3 107 106 108
3 107 108 109
3 109 108 110
3 109 110 111
3 111 110 112
3 111 112 113
3 113 112 114
3 113 114 115
3 115 114 116
3 115 116 117
3 117 116 118
3 117 118 119
3 119 118 120
3 119 120 121
3 121 120 122
3 121 122 123
3 123 122 124
3 123 124 125
3 68 66 65
3 65 126 124
3 124 122 120
3 120 118 116
3 116 114 112
3 112 110 108
3 108 106 104
3 104 102 100
3 100 98 96
3 96 94 92
3 92 90 88
3 88 86 84
3 84 82 80
3 80 78 76
3 76 74 72
3 72 70 68
3 68 65 124
3 124 120 116
3 116 112 108
3 108 104 100
3 100 96 92
3 92 88 84
3 84 80 76
3 76 72 68
3 68 124 116
3 116 108 100
3 100 92 84
3 84 76 68
3 68 116 100
3 100 84 68
3 125 124 126
3 125 126 127
3 127 126 65
3 127 65 64
3 127 64 67
3 67 69 71
3 71 73 75
3 75 77 79
3 79 81 83
3 83 85 87
3 87 89 91
3 91 93 95
3 95 97 99
3 99 101 103
3 103 105 107
3 107 109 111
3 111 113 115
3 115 117 119
3 119 121 123
3 123 125 127
3 127 67 71
3 71 75 79
3 79 83 87
3 87 91 95
3 95 99 103
3 103 107 111
3 111 115 119
3 119 123 127
3 127 71 79
3 79 87 95
3 95 103 111
3 111 119 127
3 127 79 95
3 95 111 127
3 128 129 130
3 128 130 131
3 131 130 132
3 131 132 133
3 133 132 134
3 133 134 135
3 135 134 136
3 135 136 137
3 137 136 138
3 137 138 139
3 139 138 140
3 139 140 141
3 141 140 142
3 141 142 143
3 143 142 144
3 143 144 145
3 145 144 146
3 145 146 147
3 147 146 148
3 147 148 149
3 149 148 150
3 149 150 151
3 151 150 152
3 151 152 153
3 153 152 154
3 153 154 155
3 155 154 156
3 155 156 157
3 157 156 158
3 157 158 159
3 159 158 160
3 159 160 161
3 161 160 162
3 161 162 163
3 163 162 164
3 163 164 165
3 165 164 166
3 165 166 167
3 167 166 168
3 167 168 169
3 169 168 170
3 169 170 171
3 171 170 172
3 171 172 173
3 173 172 174
3 173 174 175
3 175 174 176
3 175 176 177
3 177 176 178
3 177 178 179
3 179 178 180
3 179 180 181
3 181 180 182
3 181 182 183
3 183 182 184
3 183 184 185
3 185 184 186
3 185 186 187
3 187 186 188
3 187 188 189
3 132 130 129
3 129 190 188
3 188 186 184
3 184 182 180
3 180 178 176
3 176 174 172
3 172 170 168
3 168 166 164
3 164 162 160
3 160 158 156
3 156 154 152
3 152 150 148
3 148 146 144
3 144 142 140
3 140 138 136
3 136 134 132
3 132 129 188
3 188 184 180
3 180 176 172
3 172 168 164
3 164 160 156
3 156 152 148
3 148 144 140
3 140 136 132
3 132 188 180
3 180 172 164
3 164 156 148
3 148 140 132
3 132 180 164
3 164 148 132
3 189 188 190
3 189 190 191
3 191 190 129
3 191 129 128
3 191 128 131
3 131 133 135
3 135 137 139
3 139 141 143
3 143 145 147
3 147 149 151
3 151 153 155
3 155 157 159
3 159 161 163
3 163 165 167
3 167 169 171
3 171 173 175
3 175 177 179
3 179 181 183
3 183 185 187
3 187 189 191
3 191 131 135
3 135 139 143
3 143 147 151
3 151 155 159
3 159 163 167
3 167 171 175
3 175 179 183
3 183 187 191
3 191 135 143
3 143 151 159
3 159 167 175
3 175 183 191
3 191 143 159
3 159 175 191
3 192 193 194
3 192 194 195
3 195 194 196
3 195 196 197
3 197 196 198
3 197 198 199
3 199 198 200
3 199 200 201
3 201 200 202
3 201 202 203
3 203 202 204
3 203 204 205
3 205 204 206
3 205 206 207
3 207 206 208
3 207 208 209
3 209 208 210
3 209 210 211
3 211 210 212
3 211 212 213
3 213 212 214
3 213 214 215
3 215 214 216
3 215 216 217
3 217 216 218
3 217 218 219
3 219 218 220
3 219 220 221
3 221 220 222
3 221 222 223
3 223 222 224
3 223 224 225
3 225 224 226
3 225 226 227
3 227 226 228
3 227 228 229
3 229 228 230
3 229 230 231
3 231 230 232
3 231 232 233
3 233 232 234
3 233 234 235
3 235 234 236
3 235 236 237
3 237 236 238
3 237 238 239
3 239 238 240
3 239 240 241
3 241 240 242
3 241 242 243
3 243 242 244
3 243 244 245
3 245 244 246
3 245 246 247
3 247 246 248
3 247 248 249
3 249 248 250
3 249 250 251
3 251 250 252
3 251 252 253
3 196 194 193
3 193 254 252
3 252 250 248
3 248 246 244
3 244 242 240
3 240 238 236
3 236 234 232
3 232 230 228
3 228 226 224
3 224 222 220
3 220 218 216
3 216 214 212
3 212 210 208
3 208 206 204
3 204 202 200
3 200 198 196
3 196 193 252
3 252 248 244
3 244 240 236
3 236 232 228
3 228 224 220
3 220 216 212
3 212 208 204
3 204 200 196
3 196 252 244
3 244 236 228
3 228 220 212
3 212 204 196
3 196 244 228
3 228 212 196
3 253 252 254
3 253 254 255
3 255 254 193
3 255 193 192
3 255 192 195
3 195 197 199
3 199 201 203
3 203 205 207
3 207 209 211
3 211 213 215
3 215 217 219
3 219 221 223
3 223 225 227
3 227 229 231
3 231 233 235
3 235 237 239
3 239 241 243
3 243 245 247
3 247 249 251
3 251 253 255
3 255 195 199
3 199 203 207
3 207 211 215
3 215 219 223
3 223 227 231
3 231 235 239
3 239 243 247
3 247 251 255
3 255 199 207
3 207 215 223
3 223 231 239
3 239 247 255
3 255 207 223
3 223 239 255
3 256 257 258
3 256 258 259
3 259 258 260
3 259 260 261
3 261 260 262
3 261 262 263
3 263 262 257
3 263 257 256
3 259 261 263
3 259 263 256
3 260 258 257
3 260 257 262
3 264 265 266
3 264 266 267
3 267 266 268
3 267 268 269
3 269 268 270
3 269 270 271
3 271 270 265
3 271 265 264
3 267 269 271
3 267 271 264
3 268 266 265
3 268 265 270
3 272 273 274
3 272 274 275
3 275 274 276
3 275 276 277
3 277 276 278
3 277 278 279
3 279 278 273
3 279 273 272
3 275 277 279
3 275 279 272
3 276 274 273
3 276 273 278
