ply
format ascii 1.0
comment Created by Blender 2.80 (sub 75) - www.blender.org, source file: 'house-3.blend'
element vertex 370
property float x
property float y
property float z
property uchar red
property uchar green
property uchar blue
property uchar alpha
element face 478
property list uchar uint vertex_indices
end_header
2.340310 -2.436201 0.291069 220 220 220 255
3.275342 -2.436201 0.291069 220 220 220 255
3.275342 -2.436201 1.291069 208 208 208 255
2.340310 -2.436201 1.291069 208 208 208 255
-3.275343 2.436201 0.291069 220 220 220 255
-3.275343 2.436201 1.291069 208 208 208 255
3.275342 2.436201 1.291069 208 208 208 255
3.275342 2.436201 0.291069 220 220 220 255
-3.275343 -2.436201 0.291069 220 220 220 255
-3.275343 -2.436201 1.291069 208 208 208 255
0.161803 -2.436201 0.291069 220 220 220 255
0.161803 -2.436201 1.291069 208 208 208 255
-0.789039 -2.436201 1.291069 208 208 208 255
-2.341128 -2.436201 1.291069 208 208 208 255
-3.275343 2.436201 2.831234 186 186 186 255
3.275342 2.436201 2.831234 186 186 186 255
3.275342 -2.436201 2.831234 186 186 186 255
2.340310 -2.436201 2.831234 183 183 183 255
-3.275343 -2.436201 2.831234 186 186 186 255
-2.354962 -2.436201 2.831234 186 186 186 255
-3.275343 2.436201 3.561814 177 177 177 255
3.275342 2.436201 3.561814 177 177 177 255
3.275342 -2.436201 3.561814 177 177 177 255
2.340310 -2.436201 3.561814 177 177 177 255
-3.275343 -2.436201 3.561814 177 177 177 255
-0.790771 -2.436201 2.831234 186 186 186 255
0.161803 -2.436201 2.831234 183 183 183 255
0.161803 -2.436201 3.561814 177 177 177 255
2.340310 -2.063462 0.291069 220 220 220 255
2.340310 -2.063462 1.291069 220 220 220 255
2.921003 -2.172643 1.291069 220 220 220 255
2.921003 -2.172643 0.291069 220 220 220 255
-2.921004 2.172643 0.291069 0 0 0 255
2.921003 2.172643 0.291069 0 0 0 255
2.921003 2.172643 1.291069 0 0 0 255
-2.921004 2.172643 1.291069 0 0 0 255
2.921003 -2.172643 0.291069 0 0 0 255
2.921003 -2.172643 1.291069 0 0 0 255
-2.921004 -2.172643 0.291069 0 0 0 255
-2.921004 -2.172643 1.291069 0 0 0 255
0.161803 -2.063462 0.291069 220 220 220 255
-2.921004 -2.172643 0.291069 220 220 220 255
-2.921004 -2.172643 1.291069 220 220 220 255
-2.341128 -2.063462 1.291069 220 220 220 255
-0.789039 -2.063462 1.291069 220 220 220 255
0.161803 -2.063462 1.291069 220 220 220 255
2.921003 2.172643 2.831234 0 0 0 255
-2.921004 2.172643 2.831234 0 0 0 255
2.340310 -2.063462 2.831234 220 220 220 255
2.921003 -2.172643 2.831234 220 220 220 255
2.921003 -2.172643 2.831234 0 0 0 255
-2.921004 -2.172643 2.831234 0 0 0 255
-2.921004 -2.172643 2.831234 220 220 220 255
-2.354962 -2.063462 2.831234 220 220 220 255
2.921003 2.172643 3.561814 0 0 0 255
-2.921004 2.172643 3.561814 0 0 0 255
2.340310 -2.063462 3.561814 220 220 220 255
2.921003 -2.172643 3.561814 220 220 220 255
2.921003 -2.172643 3.561814 0 0 0 255
-2.921004 -2.172643 3.561814 0 0 0 255
-2.921004 -2.172643 3.561814 220 220 220 255
0.161803 -2.063462 3.561814 220 220 220 255
0.161803 -2.063462 2.831234 220 220 220 255
-0.790771 -2.063462 2.831234 220 220 220 255
-3.275343 -2.436201 0.291069 0 0 0 255
-3.275343 2.436201 0.291069 0 0 0 255
3.275342 2.436201 0.291069 0 0 0 255
3.275342 -2.436201 0.291069 0 0 0 255
0.161803 -2.436201 0.291069 0 0 0 255
0.161803 -2.063462 0.291069 0 0 0 255
2.340310 -2.436201 0.291069 0 0 0 255
2.340310 -2.063462 0.291069 0 0 0 255
2.340310 -2.436201 0.291069 220 111 0 255
2.340310 -2.436201 1.291069 220 111 0 255
2.340310 -2.063462 1.291069 220 111 0 255
2.340310 -2.063462 0.291069 220 111 0 255
0.161803 -2.436201 1.291069 220 111 0 255
0.161803 -2.436201 0.291069 220 111 0 255
0.161803 -2.063462 0.291069 220 111 0 255
0.161803 -2.063462 1.291069 220 111 0 255
2.340310 -2.436201 2.831234 220 111 0 255
2.340310 -2.063462 2.831234 220 111 0 255
0.161803 -2.436201 2.831234 220 111 0 255
0.161803 -2.063462 2.831234 220 111 0 255
-3.275343 2.436201 3.561814 220 111 0 255
-3.275343 -2.436201 3.561814 220 111 0 255
-2.921004 -2.172643 3.561814 220 111 0 255
-2.921004 2.172643 3.561814 220 111 0 255
3.275342 2.436201 3.561814 220 111 0 255
2.921003 2.172643 3.561814 220 111 0 255
3.275342 -2.436201 3.561814 220 111 0 255
2.921003 -2.172643 3.561814 220 111 0 255
0.161803 -2.436201 3.561814 220 111 0 255
0.161803 -2.063462 3.561814 220 111 0 255
2.340310 -2.436201 3.561814 220 111 0 255
2.340310 -2.063462 3.561814 220 111 0 255
-0.790771 -2.436201 2.831234 220 111 0 255
-2.354962 -2.436201 2.831234 220 111 0 255
-2.354962 -2.063462 2.831234 220 111 0 255
-0.790771 -2.063462 2.831234 220 111 0 255
-2.341128 -2.436201 1.291069 220 111 0 255
-0.789039 -2.436201 1.291069 220 111 0 255
-0.789039 -2.063462 1.291069 220 111 0 255
-2.341128 -2.063462 1.291069 220 111 0 255
3.355944 2.478374 4.598834 100 0 0 255
3.355944 2.930678 4.838157 100 0 0 255
3.355944 3.620465 3.217360 100 0 0 255
3.355944 3.086084 3.247025 100 0 0 255
3.909451 3.620465 3.217360 100 0 0 255
3.909451 3.086084 3.247025 100 0 0 255
3.909451 2.930678 4.838157 100 0 0 255
3.909451 2.478374 4.598834 100 0 0 255
3.355944 1.355780 5.611000 100 0 0 255
3.355944 1.669840 5.973016 100 0 0 255
3.909451 1.355780 5.611000 100 0 0 255
3.909451 0.068814 5.932125 100 0 0 255
3.355944 0.068814 5.932125 100 0 0 255
3.909451 1.669840 5.973016 100 0 0 255
3.909451 0.068814 6.379052 100 0 0 255
3.355944 0.068814 6.379052 100 0 0 255
3.355944 -1.539059 6.038020 100 0 0 255
3.909451 -1.539059 6.038020 100 0 0 255
3.355944 -1.351705 5.619332 100 0 0 255
3.909451 -1.351705 5.619332 100 0 0 255
3.909451 -2.426927 4.627137 100 0 0 255
3.355944 -2.426927 4.627137 100 0 0 255
3.909451 -3.089047 3.258092 100 0 0 255
3.355944 -3.089047 3.258092 100 0 0 255
3.355944 -2.874601 4.872447 100 0 0 255
3.909451 -2.874601 4.872447 100 0 0 255
3.909451 -3.621000 3.206287 100 0 0 255
3.355944 -3.621000 3.206287 100 0 0 255
-3.856326 2.478374 4.598834 100 0 0 255
-3.856326 2.930678 4.838157 100 0 0 255
-3.856326 3.620465 3.217360 100 0 0 255
-3.856326 3.086084 3.247025 100 0 0 255
-3.302819 3.620465 3.217360 100 0 0 255
-3.302819 3.086084 3.247025 100 0 0 255
-3.302819 2.930678 4.838157 100 0 0 255
-3.302819 2.478374 4.598834 100 0 0 255
-3.856326 1.355780 5.611000 100 0 0 255
-3.856326 1.669840 5.973016 100 0 0 255
-3.302819 1.355780 5.611000 100 0 0 255
-3.302819 0.068814 5.932125 100 0 0 255
-3.856326 0.068814 5.932125 100 0 0 255
-3.302819 1.669840 5.973016 100 0 0 255
-3.302819 0.068814 6.379052 100 0 0 255
-3.856326 0.068814 6.379052 100 0 0 255
-3.856326 -1.539059 6.038020 100 0 0 255
-3.302819 -1.539059 6.038020 100 0 0 255
-3.856326 -1.351705 5.619332 100 0 0 255
-3.302819 -1.351705 5.619332 100 0 0 255
-3.302819 -2.426927 4.627137 100 0 0 255
-3.856326 -2.426927 4.627137 100 0 0 255
-3.302819 -3.089047 3.258092 100 0 0 255
-3.856326 -3.089047 3.258092 100 0 0 255
-3.856326 -2.874601 4.872447 100 0 0 255
-3.302819 -2.874601 4.872447 100 0 0 255
-3.302819 -3.621000 3.206287 100 0 0 255
-3.856326 -3.621000 3.206287 100 0 0 255
-3.275342 -2.436200 -0.291069 184 184 184 255
-3.275342 -2.436200 0.291069 184 184 184 255
-3.275342 2.436200 0.291069 184 184 184 255
-3.275342 2.436200 -0.291069 184 184 184 255
3.275343 2.436200 0.291069 184 184 184 255
3.275343 2.436200 -0.291069 184 184 184 255
3.275343 -2.436200 0.291069 184 184 184 255
3.275343 -2.436200 -0.291069 184 184 184 255
2.340311 -2.436200 0.291069 184 184 184 255
2.369382 -2.436200 -0.291069 184 184 184 255
-3.275342 -2.436200 -0.291069 0 0 0 255
-3.275342 2.436200 -0.291069 0 0 0 255
3.275343 2.436200 -0.291069 0 0 0 255
3.275343 -2.436200 -0.291069 0 0 0 255
2.369382 -2.436200 -0.291069 0 0 0 255
0.173937 -2.436200 -0.291069 0 0 0 255
3.275343 -2.436200 0.291069 156 156 156 255
3.275343 2.436200 0.291069 0 0 0 255
-3.275342 2.436200 0.291069 0 0 0 255
-3.275342 -2.436200 0.291069 161 161 161 255
0.161804 -2.436200 0.291069 156 156 156 255
2.340311 -2.436200 0.291069 156 156 156 255
3.355944 -3.089047 3.258092 159 54 28 255
3.355944 -2.426927 4.627137 107 36 19 255
-0.072001 -2.426927 4.310157 156 96 37 255
-0.082188 -3.089047 3.240904 174 107 41 255
3.355944 -2.426927 4.627137 159 54 28 255
3.355944 -1.351705 5.619332 159 54 28 255
-0.090961 -1.351705 5.085082 174 107 41 255
-0.072001 -2.426927 4.310157 174 107 41 255
3.355944 -1.351705 5.619332 99 33 17 255
3.355944 0.068814 5.932125 155 53 27 255
-0.109651 0.068814 5.329381 121 75 29 255
-0.090961 -1.351705 5.085082 121 75 29 255
3.355944 0.068814 5.932125 159 54 28 255
3.355944 1.355780 5.611000 159 54 28 255
-0.078389 1.355780 5.078575 173 103 40 255
-0.109651 0.068814 5.329381 174 107 41 255
3.355944 1.355780 5.611000 114 40 21 255
3.355944 2.478374 4.598834 111 38 20 255
0.088532 2.478374 4.288051 98 60 23 255
-0.078389 1.355780 5.078575 107 63 24 255
3.355944 3.086084 3.247025 159 54 28 255
0.097129 3.086084 3.232260 176 111 43 255
0.088532 2.478374 4.288051 174 106 41 255
3.355944 2.478374 4.598834 159 54 28 255
-3.302819 3.086084 3.247025 220 220 220 255
-3.302819 -3.089047 3.258092 220 220 220 255
-3.302819 -2.426927 4.627137 210 210 210 255
-3.302819 2.478374 4.598834 210 210 210 255
-3.302819 -1.351705 5.619332 177 177 177 255
-3.302819 1.355780 5.611000 177 177 177 255
-3.302819 0.068814 5.932125 154 154 154 255
3.355944 -3.089047 3.258092 220 220 220 255
3.355944 3.086084 3.247025 220 220 220 255
3.355944 2.478374 4.598834 210 210 210 255
3.355944 -2.426927 4.627137 210 210 210 255
3.355944 1.355780 5.611000 177 177 177 255
3.355944 -1.351705 5.619332 177 177 177 255
3.355944 0.068814 5.932125 154 154 154 255
-3.302819 2.478374 4.598834 159 54 28 255
-3.302819 1.355780 5.611000 159 54 28 255
-3.302819 -1.351705 5.619332 99 33 17 255
-3.302819 -2.426927 4.627137 99 33 17 255
-3.302819 3.086084 3.247025 144 49 26 255
-3.302819 2.478374 4.598834 111 38 20 255
-3.302819 0.068814 5.932125 159 54 28 255
-3.302819 -1.351705 5.619332 159 54 28 255
-3.302819 1.355780 5.611000 111 38 20 255
-3.302819 0.068814 5.932125 151 51 27 255
-3.302819 -2.426927 4.627137 159 54 28 255
-3.302819 -3.089047 3.258092 159 54 28 255
0.168438 -2.850829 -0.027198 123 123 123 255
0.173937 -2.850829 -0.291069 125 125 125 255
0.173937 -3.221723 -0.291069 123 123 123 255
0.168438 -3.221722 -0.027198 184 184 184 255
2.369382 -2.850829 -0.291069 127 127 127 255
2.369382 -3.221722 -0.291069 123 123 123 255
2.355649 -2.850829 -0.016082 123 123 123 255
2.355649 -3.221723 -0.016082 184 184 184 255
2.340311 -2.850829 0.291069 184 184 184 255
0.161804 -2.850829 0.291069 184 184 184 255
0.161804 -2.436200 0.291069 184 184 184 255
0.173937 -2.436200 -0.291069 184 184 184 255
-0.082188 -3.089047 3.240904 0 0 0 255
-3.302819 -3.089047 3.258092 0 0 0 255
-3.302819 3.086084 3.247025 0 0 0 255
0.097129 3.086084 3.232260 0 0 0 255
3.355944 3.086084 3.247025 0 0 0 255
3.355944 -3.089047 3.258092 0 0 0 255
-3.469673 -2.612361 -0.349921 194 142 0 255
-3.469673 -2.612361 3.190289 220 168 11 255
-3.469673 -2.238619 3.190289 205 132 0 255
-3.469673 -2.238619 -0.349921 179 106 0 255
-3.081002 -2.238619 3.190289 205 132 0 255
-3.081002 -2.238619 -0.349921 179 106 0 255
-3.081002 -2.612361 3.190289 205 132 0 255
-3.081002 -2.612361 -0.349921 179 106 0 255
3.106176 -2.612361 -0.349921 179 106 0 255
3.106176 -2.612361 3.190289 205 132 0 255
3.106176 -2.238619 3.190289 205 132 0 255
3.106176 -2.238619 -0.349921 179 106 0 255
3.494847 -2.238619 3.190289 205 132 0 255
3.494847 -2.238619 -0.349921 179 106 0 255
3.494847 -2.612361 3.190289 220 168 11 255
3.494847 -2.612361 -0.349921 194 142 0 255
-3.469673 2.243225 -0.349921 179 106 0 255
-3.469673 2.243225 3.190289 205 132 0 255
-3.469673 2.616967 3.190289 220 168 11 255
-3.469673 2.616967 -0.349921 194 142 0 255
-3.081002 2.616967 3.190289 205 132 0 255
-3.081002 2.616967 -0.349921 179 106 0 255
-3.081002 2.243225 3.190289 205 132 0 255
-3.081002 2.243225 -0.349921 179 106 0 255
3.106176 2.243225 -0.349921 179 106 0 255
3.106176 2.243225 3.190289 205 132 0 255
3.106176 2.616967 3.190289 205 132 0 255
3.106176 2.616967 -0.349921 179 106 0 255
3.494847 2.616967 3.190289 220 168 11 255
3.494847 2.616967 -0.349921 194 142 0 255
3.494847 2.243225 3.190289 205 132 0 255
3.494847 2.243225 -0.349921 179 106 0 255
-0.019725 -2.612361 -0.349921 179 106 0 255
-0.019725 -2.612361 3.764116 205 132 0 255
-0.019725 -2.238619 3.764116 205 132 0 255
-0.019725 -2.238619 -0.349921 179 106 0 255
0.368947 -2.238619 3.764116 205 132 0 255
0.368947 -2.238619 -0.349921 179 106 0 255
0.368947 -2.612361 3.764116 220 168 11 255
0.368947 -2.612361 -0.349921 194 142 0 255
2.181550 -2.612361 -0.349921 194 142 0 255
2.181550 -2.612361 3.764116 220 168 11 255
2.181550 -2.238619 3.764116 205 132 0 255
2.181550 -2.238619 -0.349921 179 106 0 255
2.570221 -2.238619 3.764116 205 132 0 255
2.570221 -2.238619 -0.349921 179 106 0 255
2.570221 -2.612361 3.764116 205 132 0 255
2.570221 -2.612361 -0.349921 179 106 0 255
-2.688712 -2.788279 1.387423 220 168 11 255
-0.442241 -2.788279 1.387423 220 168 11 255
-0.442241 -2.238619 1.387423 205 132 0 255
-2.688712 -2.238619 1.387423 205 132 0 255
-0.442241 -2.238619 1.180220 179 106 0 255
-2.688712 -2.238619 1.180220 179 106 0 255
-0.442241 -2.788279 1.180220 179 106 0 255
-2.688712 -2.788279 1.180220 179 106 0 255
-2.688712 -2.612361 2.944666 205 132 0 255
-0.442241 -2.612361 2.944666 205 132 0 255
-0.442241 -2.238619 2.944666 205 132 0 255
-2.688712 -2.238619 2.944666 205 132 0 255
-0.442241 -2.238619 2.737463 179 106 0 255
-2.688712 -2.238619 2.737463 179 106 0 255
-0.442241 -2.612361 2.737463 179 106 0 255
-2.688712 -2.612361 2.737463 179 106 0 255
0.122005 -2.792544 2.944666 205 132 0 255
2.368476 -2.792544 2.944666 205 132 0 255
2.368476 -2.069553 2.944666 205 132 0 255
0.122005 -2.069553 2.944666 205 132 0 255
2.368476 -2.069553 2.737463 179 106 0 255
0.122005 -2.069553 2.737463 179 106 0 255
2.368476 -2.792544 2.737463 179 106 0 255
0.122005 -2.792544 2.737463 179 106 0 255
-3.508246 3.376711 3.012837 179 106 0 255
-3.508246 -3.363486 3.012837 179 106 0 255
-3.508246 -3.363486 3.386580 220 168 11 255
-3.508246 3.376711 3.386579 220 168 11 255
-3.119575 -3.363486 3.386580 205 132 0 255
-3.119575 3.376711 3.386579 205 132 0 255
-3.119575 -3.363486 3.012837 179 106 0 255
-3.119575 3.376711 3.012837 179 106 0 255
3.157740 3.376711 3.012837 179 106 0 255
3.157740 -3.363486 3.012837 179 106 0 255
3.157740 -3.363486 3.386580 205 132 0 255
3.157740 3.376711 3.386579 205 132 0 255
3.546411 -3.363486 3.386580 220 168 11 255
3.546411 3.376711 3.386579 220 168 11 255
3.546411 -3.363486 3.012837 179 106 0 255
3.546411 3.376711 3.012837 179 106 0 255
-2.550100 -2.650205 -0.349921 179 106 0 255
-2.550100 -2.650205 3.190289 205 132 0 255
-2.550100 -2.131042 3.190289 205 132 0 255
-2.550100 -2.131042 -0.349921 179 106 0 255
-2.161428 -2.131042 3.190289 205 132 0 255
-2.161428 -2.131042 -0.349921 179 106 0 255
-2.161428 -2.650205 3.190289 220 168 11 255
-2.161428 -2.650205 -0.349921 194 142 0 255
-1.014318 -2.650205 -0.349921 194 142 0 255
-1.014318 -2.650205 3.190289 220 168 11 255
-1.014318 -2.131042 3.190289 205 132 0 255
-1.014318 -2.131042 -0.349921 179 106 0 255
-0.625648 -2.131042 3.190289 205 132 0 255
-0.625648 -2.131042 -0.349921 179 106 0 255
-0.625648 -2.650205 3.190289 205 132 0 255
-0.625648 -2.650205 -0.349921 179 106 0 255
-3.695088 2.838168 3.135707 179 106 0 255
3.717597 2.838167 3.135707 179 106 0 255
3.717597 2.838167 3.509449 205 132 0 255
-3.695088 2.838168 3.509449 205 132 0 255
3.717597 3.226839 3.509449 220 168 11 255
-3.695088 3.226839 3.509449 220 168 11 255
3.717597 3.226839 3.135707 179 106 0 255
-3.695088 3.226839 3.135707 179 106 0 255
-3.695088 -3.196389 3.135707 179 106 0 255
3.717597 -3.196390 3.135707 179 106 0 255
3.717597 -3.196390 3.509449 220 168 11 255
-3.695088 -3.196389 3.509449 220 168 11 255
3.717597 -2.807718 3.509449 205 132 0 255
-3.695088 -2.807718 3.509449 205 132 0 255
3.717597 -2.807718 3.135707 179 106 0 255
-3.695088 -2.807718 3.135707 179 106 0 255
3 0 1 2
3 0 2 3
3 4 5 6
3 4 6 7
3 7 6 2
3 7 2 1
3 8 9 5
3 8 5 4
3 9 8 10
3 10 11 12
3 13 9 10
3 10 12 13
3 6 5 14
3 6 14 15
3 3 2 16
3 3 16 17
3 2 6 15
3 2 15 16
3 5 9 18
3 5 18 14
3 9 13 19
3 9 19 18
3 15 14 20
3 15 20 21
3 17 16 22
3 17 22 23
3 16 15 21
3 16 21 22
3 14 18 24
3 14 24 20
3 24 18 19
3 25 26 27
3 24 19 25
3 25 27 24
3 23 27 26
3 23 26 17
3 25 12 11
3 25 11 26
3 28 29 30
3 28 30 31
3 32 33 34
3 32 34 35
3 33 36 37
3 33 37 34
3 38 32 35
3 38 35 39
3 40 41 42
3 42 43 44
3 44 45 40
3 42 44 40
3 34 46 47
3 34 47 35
3 29 48 49
3 29 49 30
3 37 50 46
3 37 46 34
3 35 47 51
3 35 51 39
3 42 52 53
3 42 53 43
3 46 54 55
3 46 55 47
3 48 56 57
3 48 57 49
3 50 58 54
3 50 54 46
3 47 55 59
3 47 59 51
3 53 52 60
3 60 61 62
3 62 63 53
3 60 62 53
3 56 48 62
3 56 62 61
3 63 62 45
3 63 45 44
3 64 65 32
3 64 32 38
3 65 66 33
3 65 33 32
3 66 67 36
3 66 36 33
3 68 64 38
3 68 38 69
3 67 70 71
3 67 71 36
3 72 73 74
3 72 74 75
3 76 77 78
3 76 78 79
3 73 80 81
3 73 81 74
3 82 76 79
3 82 79 83
3 84 85 86
3 84 86 87
3 88 84 87
3 88 87 89
3 90 88 89
3 90 89 91
3 85 92 93
3 85 93 86
3 94 90 91
3 94 91 95
3 96 97 98
3 96 98 99
3 100 101 102
3 100 102 103
3 97 100 103
3 97 103 98
3 101 96 99
3 101 99 102
3 92 94 95
3 92 95 93
3 80 82 83
3 80 83 81
3 104 105 106
3 104 106 107
3 107 106 108
3 107 108 109
3 109 108 110
3 109 110 111
3 105 104 112
3 105 112 113
3 107 109 111
3 107 111 104
3 108 106 105
3 108 105 110
3 112 114 115
3 112 115 116
3 104 111 114
3 104 114 112
3 110 105 113
3 110 113 117
3 111 110 117
3 111 117 114
3 118 119 120
3 118 120 121
3 113 112 116
3 113 116 119
3 117 113 119
3 117 119 118
3 114 117 118
3 114 118 115
3 122 123 124
3 122 124 125
3 115 118 121
3 115 121 123
3 116 115 123
3 116 123 122
3 119 116 122
3 119 122 120
3 125 124 126
3 125 126 127
3 120 122 125
3 120 125 128
3 121 120 128
3 121 128 129
3 123 121 129
3 123 129 124
3 126 130 131
3 126 131 127
3 128 125 127
3 128 127 131
3 129 128 131
3 129 131 130
3 124 129 130
3 124 130 126
3 132 133 134
3 132 134 135
3 135 134 136
3 135 136 137
3 137 136 138
3 137 138 139
3 133 132 140
3 133 140 141
3 135 137 139
3 135 139 132
3 136 134 133
3 136 133 138
3 140 142 143
3 140 143 144
3 132 139 142
3 132 142 140
3 138 133 141
3 138 141 145
3 139 138 145
3 139 145 142
3 146 147 148
3 146 148 149
3 141 140 144
3 141 144 147
3 145 141 147
3 145 147 146
3 142 145 146
3 142 146 143
3 150 151 152
3 150 152 153
3 143 146 149
3 143 149 151
3 144 143 151
3 144 151 150
3 147 144 150
3 147 150 148
3 153 152 154
3 153 154 155
3 148 150 153
3 148 153 156
3 149 148 156
3 149 156 157
3 151 149 157
3 151 157 152
3 154 158 159
3 154 159 155
3 156 153 155
3 156 155 159
3 157 156 159
3 157 159 158
3 152 157 158
3 152 158 154
3 160 161 162
3 160 162 163
3 163 162 164
3 163 164 165
3 165 164 166
3 165 166 167
3 167 166 168
3 167 168 169
3 170 171 172
3 172 173 174
3 175 170 172
3 172 174 175
3 176 177 178
3 178 179 180
3 181 176 178
3 178 180 181
3 182 183 184
3 182 184 185
3 186 187 188
3 186 188 189
3 190 191 192
3 190 192 193
3 194 195 196
3 194 196 197
3 198 199 200
3 198 200 201
3 202 203 204
3 202 204 205
3 206 207 208
3 206 208 209
3 209 208 210
3 209 210 211
3 211 210 212
3 213 214 215
3 213 215 216
3 216 215 217
3 216 217 218
3 219 218 217
3 196 204 220
3 196 220 221
3 184 193 222
3 184 222 223
3 200 203 224
3 200 224 225
3 188 197 226
3 188 226 227
3 192 201 228
3 192 228 229
3 185 189 230
3 185 230 231
3 232 233 234
3 232 234 235
3 233 236 237
3 233 237 234
3 238 232 235
3 238 235 239
3 232 238 240
3 232 240 241
3 237 239 235
3 237 235 234
3 168 242 241
3 168 241 240
3 236 169 168
3 168 240 238
3 168 238 236
3 243 169 236
3 243 236 233
3 243 242 161
3 243 161 160
3 241 242 243
3 243 233 232
3 243 232 241
3 236 238 239
3 236 239 237
3 244 245 246
3 246 247 248
3 248 249 244
3 246 248 244
3 250 251 252
3 250 252 253
3 253 252 254
3 253 254 255
3 255 254 256
3 255 256 257
3 257 256 251
3 257 251 250
3 253 255 257
3 253 257 250
3 254 252 251
3 254 251 256
3 258 259 260
3 258 260 261
3 261 260 262
3 261 262 263
3 263 262 264
3 263 264 265
3 265 264 259
3 265 259 258
3 261 263 265
3 261 265 258
3 262 260 259
3 262 259 264
3 266 267 268
3 266 268 269
3 269 268 270
3 269 270 271
3 271 270 272
3 271 272 273
3 273 272 267
3 273 267 266
3 269 271 273
3 269 273 266
3 270 268 267
3 270 267 272
3 274 275 276
3 274 276 277
3 277 276 278
3 277 278 279
3 279 278 280
3 279 280 281
3 281 280 275
3 281 275 274
3 277 279 281
3 277 281 274
3 278 276 275
3 278 275 280
3 282 283 284
3 282 284 285
3 285 284 286
3 285 286 287
3 287 286 288
3 287 288 289
3 289 288 283
3 289 283 282
3 285 287 289
3 285 289 282
3 286 284 283
3 286 283 288
3 290 291 292
3 290 292 293
3 293 292 294
3 293 294 295
3 295 294 296
3 295 296 297
3 297 296 291
3 297 291 290
3 293 295 297
3 293 297 290
3 294 292 291
3 294 291 296
3 298 299 300
3 298 300 301
3 301 300 302
3 301 302 303
3 303 302 304
3 303 304 305
3 305 304 299
3 305 299 298
3 301 303 305
3 301 305 298
3 302 300 299
3 302 299 304
3 306 307 308
3 306 308 309
3 309 308 310
3 309 310 311
3 311 310 312
3 311 312 313
3 313 312 307
3 313 307 306
3 309 311 313
3 309 313 306
3 310 308 307
3 310 307 312
3 314 315 316
3 314 316 317
3 317 316 318
3 317 318 319
3 319 318 320
3 319 320 321
3 321 320 315
3 321 315 314
3 317 319 321
3 317 321 314
3 318 316 315
3 318 315 320
3 322 323 324
3 322 324 325
3 325 324 326
3 325 326 327
3 327 326 328
3 327 328 329
3 329 328 323
3 329 323 322
3 325 327 329
3 325 329 322
3 326 324 323
3 326 323 328
3 330 331 332
3 330 332 333
3 333 332 334
3 333 334 335
3 335 334 336
3 335 336 337
3 337 336 331
3 337 331 330
3 333 335 337
3 333 337 330
3 334 332 331
3 334 331 336
3 338 339 340
3 338 340 341
3 341 340 342
3 341 342 343
3 343 342 344
3 343 344 345
3 345 344 339
3 345 339 338
3 341 343 345
3 341 345 338
3 342 340 339
3 342 339 344
3 346 347 348
3 346 348 349
3 349 348 350
3 349 350 351
3 351 350 352
3 351 352 353
3 353 352 347
3 353 347 346
3 349 351 353
3 349 353 346
3 350 348 347
3 350 347 352
3 354 355 356
3 354 356 357
3 357 356 358
3 357 358 359
3 359 358 360
3 359 360 361
3 361 360 355
3 361 355 354
3 357 359 361
3 357 361 354
3 358 356 355
3 358 355 360
3 362 363 364
3 362 364 365
3 365 364 366
3 365 366 367
3 367 366 368
3 367 368 369
3 369 368 363
3 369 363 362
3 365 367 369
3 365 369 362
3 366 364 363
3 366 363 368
