ply
format ascii 1.0
comment Created by Blender 2.80 (sub 75) - www.blender.org, source file: 'house-1.blend'
element vertex 678
property float x
property float y
property float z
property uchar red
property uchar green
property uchar blue
property uchar alpha
element face 1180
property list uchar uint vertex_indices
end_header
6.040707 -2.876721 0.788955 231 231 231 255
6.130886 3.089140 0.597447 246 246 246 255
5.967037 2.864369 5.150923 231 231 231 255
-6.098339 3.006987 5.207614 228 228 228 255
-5.972469 2.938209 0.806352 244 244 244 255
-6.031925 -2.922409 0.792178 232 232 232 255
-1.410110 -2.914414 0.858913 234 234 234 255
-1.447235 -2.867855 4.093336 206 206 206 255
-3.011353 -2.851817 1.882434 213 213 213 255
6.103687 -0.009910 7.759998 221 221 221 255
6.239475 1.812737 7.075156 219 219 219 255
-5.920105 -0.017202 7.732882 221 221 221 255
-6.054134 -3.226455 5.200264 214 214 214 255
-5.989979 -1.857515 7.182427 219 219 219 255
5.876514 -2.842309 5.107080 214 214 214 255
4.657845 -3.131822 2.114606 214 214 214 255
1.450653 -2.845330 4.177613 208 208 208 255
1.288139 -2.913196 4.988781 214 214 214 255
-1.371841 -2.993525 5.128498 211 211 211 255
3.115005 -2.923501 4.251080 204 204 204 255
3.088615 -3.157105 1.955240 212 212 212 255
-4.587250 -2.938634 4.284427 207 207 207 255
-3.022240 -3.116846 4.123084 205 205 205 255
-4.741318 -2.893632 1.813367 214 214 214 255
6.052036 -1.846947 7.197199 219 219 219 255
6.062092 -2.962939 6.376775 224 224 224 255
6.114426 -0.970487 8.026758 218 218 218 255
6.097382 0.991879 7.918578 218 218 218 255
6.162193 2.810201 6.384965 225 225 225 255
-5.983093 1.743496 7.041112 219 219 219 255
-6.142387 2.787660 6.301702 224 224 224 255
-6.000114 0.737433 7.645587 218 218 218 255
-6.060188 -0.969499 8.069542 218 218 218 255
-5.900005 -2.701653 6.272145 224 224 224 255
1.186111 -3.109880 0.522115 233 233 233 255
4.608204 -3.164153 4.179863 207 207 207 255
5.756516 -2.633544 0.890041 56 56 56 255
5.394962 2.653029 5.345052 56 56 56 255
5.562664 2.437821 0.560727 56 56 56 255
-5.753819 2.730507 5.073463 56 56 56 255
-5.645687 -2.578049 0.510455 56 56 56 255
-5.643970 2.663842 0.840439 56 56 56 255
-1.233170 -2.447420 0.477831 222 222 222 255
-3.196468 -2.409057 1.987699 205 205 205 255
-1.415203 -2.605199 4.069350 207 207 207 255
5.628986 -0.071047 7.635129 203 203 203 255
5.597404 1.810902 6.880636 208 208 208 255
5.394962 2.653029 5.345052 200 200 200 255
-5.437901 -0.066020 7.874106 204 204 204 255
-5.523399 -1.825926 7.024487 209 209 209 255
-5.612682 -2.721429 5.171800 205 205 205 255
5.756516 -2.633544 0.890041 206 206 206 255
4.768818 -2.612190 1.885414 194 194 194 255
5.408352 -2.766728 5.182094 205 205 205 255
1.256432 -2.251885 3.897807 208 208 208 255
-1.412663 -2.469720 5.321551 202 202 202 255
1.298363 -2.392818 5.307794 203 203 203 255
3.326794 -2.407840 4.139575 196 196 196 255
2.947979 -2.577724 1.998084 205 205 205 255
-3.156475 -2.604235 4.372210 196 196 196 255
-4.696522 -2.316744 4.064204 194 194 194 255
5.408352 -2.766728 5.182094 56 56 56 255
-5.612682 -2.721429 5.171800 56 56 56 255
-5.645687 -2.578049 0.510455 207 207 207 255
-4.549507 -2.402857 2.098064 194 194 194 255
5.581108 -2.646830 6.314378 207 207 207 255
5.365715 -1.816203 7.281373 209 209 209 255
5.403183 -0.944209 7.887254 219 219 219 255
5.701443 0.893510 7.745104 219 219 219 255
5.325382 2.859020 6.310818 206 206 206 255
-5.753819 2.730507 5.073463 199 199 199 255
-5.534046 2.491608 6.345676 208 208 208 255
-5.331413 1.830688 7.301169 209 209 209 255
-5.350929 0.838032 7.967039 219 219 219 255
-5.565495 -0.944273 7.691170 219 219 219 255
-5.567715 -2.716575 6.377905 207 207 207 255
1.261230 -2.427264 0.582645 221 221 221 255
4.642651 -2.575012 4.291883 194 194 194 255
5.562664 2.437821 0.560727 205 205 205 255
-5.643970 2.663842 0.840439 200 200 200 255
-2.526974 -3.241330 5.448301 163 110 12 255
-2.762329 -2.684085 5.380514 163 110 12 255
-3.244774 -2.757792 5.436353 163 110 12 255
-2.637405 -3.265728 0.716129 163 110 12 255
-3.131443 -3.347764 5.471646 163 110 12 255
-2.928616 -2.881965 0.823944 163 110 12 255
-2.976849 -3.249335 0.974635 163 110 12 255
-2.973297 -2.877429 0.913863 163 110 12 255
-5.860298 -3.073274 5.083271 252 252 252 255
-6.020390 -2.963522 4.957724 252 252 252 255
-5.964134 -2.912927 5.502594 252 252 252 255
6.161713 -3.187955 5.077978 252 252 252 255
-5.966328 -3.002735 5.295044 252 252 252 255
6.110020 -2.863367 5.121401 252 252 252 255
6.289814 -2.892223 5.542639 252 252 252 255
6.060509 -2.963150 5.502174 252 252 252 255
-5.986191 2.952436 4.986282 252 252 252 255
-6.034508 2.730212 4.859047 252 252 252 255
-6.278484 2.831585 5.510593 252 252 252 255
6.242786 3.195187 4.807573 252 252 252 255
-6.035175 3.149268 5.612286 252 252 252 255
6.030273 3.036217 5.021277 252 252 252 255
6.112320 2.988820 5.499638 252 252 252 255
6.172939 2.811160 5.547827 252 252 252 255
-6.047188 -3.198145 4.902514 163 110 12 255
-6.142536 -3.062508 5.493221 163 110 12 255
-6.065685 -2.987302 5.514134 163 110 12 255
-6.058830 3.027126 5.187546 163 110 12 255
-6.016605 -2.935250 4.921404 163 110 12 255
-6.148445 3.103285 5.090086 163 110 12 255
-6.012745 2.896004 5.456848 163 110 12 255
-6.056274 3.002861 5.446950 163 110 12 255
5.987854 -3.081963 4.838926 163 110 12 255
6.072201 -2.995450 4.951460 163 110 12 255
6.263176 -3.234485 5.532183 163 110 12 255
5.928295 3.216160 5.006813 163 110 12 255
6.001854 -2.894401 5.440356 163 110 12 255
6.192596 3.209372 4.955335 163 110 12 255
5.856625 3.030646 5.649066 163 110 12 255
6.038204 2.985465 5.560656 163 110 12 255
-3.312992 -2.904594 4.640323 97 22 4 255
-3.236305 -4.079060 4.570734 97 22 4 255
-3.074928 -3.511595 6.168827 97 22 4 255
-2.967884 3.782225 4.721001 97 22 4 255
-3.328857 4.104576 4.620397 97 22 4 255
-3.399803 3.758914 6.327703 97 22 4 255
-2.930988 3.472090 6.178405 97 22 4 255
-3.409920 2.805104 7.164530 97 22 4 255
-2.872223 -2.646026 6.997508 97 22 4 255
-2.715893 -3.542399 6.263659 97 22 4 255
-2.841408 -2.951467 6.202874 97 22 4 255
-3.427490 2.916725 5.952963 97 22 4 255
-3.264553 3.235662 4.740317 97 22 4 255
-2.594883 3.100872 4.628095 97 22 4 255
-2.622105 -3.957732 4.588475 97 22 4 255
-2.801105 -3.137970 4.756048 97 22 4 255
-3.183697 -2.891488 6.199658 97 22 4 255
-2.984875 2.352155 6.901222 97 22 4 255
-2.952194 2.848569 7.098957 97 22 4 255
-2.724800 2.172712 7.964204 97 22 4 255
-3.383617 2.155179 8.009615 97 22 4 255
-3.230320 2.331784 7.195472 97 22 4 255
-2.681744 2.844243 6.099550 97 22 4 255
-3.043461 -2.320723 7.009734 97 22 4 255
-3.301888 -2.919638 7.275149 97 22 4 255
-3.185123 -1.043213 8.132778 97 22 4 255
-3.274155 -2.103834 7.988866 97 22 4 255
-2.828903 -2.024047 7.798253 97 22 4 255
-2.815750 -1.719307 7.649776 97 22 4 255
-3.417046 -1.624226 7.480303 97 22 4 255
-3.085865 -0.715171 8.024707 97 22 4 255
-2.706696 -1.995563 6.960130 97 22 4 255
-3.448719 1.822427 7.525651 97 22 4 255
-3.474495 0.222085 8.086660 97 22 4 255
-3.198307 0.964378 7.989486 97 22 4 255
-2.768353 0.820672 7.777750 97 22 4 255
-2.768581 1.280450 8.480730 97 22 4 255
-3.441967 1.073082 8.339293 97 22 4 255
-3.234264 0.337411 8.496703 97 22 4 255
-2.702930 1.792895 7.399697 97 22 4 255
-2.777966 -1.052617 8.461736 97 22 4 255
-2.818165 -0.225123 8.277362 97 22 4 255
-3.158409 -0.181517 8.351179 97 22 4 255
-3.199276 -0.365372 8.589711 97 22 4 255
-2.839329 -0.906140 8.058377 97 22 4 255
-2.593525 0.441680 8.835253 97 22 4 255
-2.648819 -0.172150 8.774392 97 22 4 255
-2.734024 0.254554 8.037309 97 22 4 255
2.465107 -2.978041 4.557867 97 22 4 255
2.586945 -3.740104 4.813591 97 22 4 255
2.601307 -3.628965 6.236207 97 22 4 255
3.090370 4.098909 4.462777 97 22 4 255
2.614479 3.890214 4.837399 97 22 4 255
2.617634 3.525216 6.155763 97 22 4 255
3.170673 3.207226 4.630523 97 22 4 255
2.419464 3.242376 4.582399 97 22 4 255
2.975323 -3.788140 4.734940 97 22 4 255
2.942390 3.441309 6.231955 97 22 4 255
2.701267 2.832375 6.970997 97 22 4 255
3.019680 -2.583020 7.065987 97 22 4 255
3.214031 -3.676339 6.256333 97 22 4 255
2.988392 -2.957208 6.256631 97 22 4 255
2.536957 2.873101 6.180891 97 22 4 255
3.041409 -3.373066 4.734757 97 22 4 255
2.804260 -3.030902 6.093167 97 22 4 255
2.994244 2.349657 7.016993 97 22 4 255
3.226826 2.957620 7.254900 97 22 4 255
2.989292 2.109191 7.650293 97 22 4 255
2.660446 2.125415 7.813618 97 22 4 255
2.437244 2.368440 6.910027 97 22 4 255
3.019718 3.123188 6.326116 97 22 4 255
2.644337 -2.462178 7.034639 97 22 4 255
2.711720 -2.694590 7.069741 97 22 4 255
2.481861 -0.965118 8.426705 97 22 4 255
2.624329 -1.944647 7.703843 97 22 4 255
3.148804 -2.189178 7.881252 97 22 4 255
3.149509 -1.540704 7.499977 97 22 4 255
2.748581 -1.636255 7.618673 97 22 4 255
2.484371 -0.729005 7.958945 97 22 4 255
2.993279 -2.322350 7.031005 97 22 4 255
2.346466 1.704815 7.523908 97 22 4 255
2.578804 0.836755 7.866363 97 22 4 255
3.248413 0.897920 7.938560 97 22 4 255
2.988407 0.209806 8.326557 97 22 4 255
3.000839 0.457379 8.639703 97 22 4 255
2.990116 1.187461 8.214295 97 22 4 255
2.527012 1.057839 8.572653 97 22 4 255
2.933609 1.750161 7.575606 97 22 4 255
3.026421 -0.985249 8.244808 97 22 4 255
2.967350 -0.032167 8.367311 97 22 4 255
2.643780 -0.284350 8.260133 97 22 4 255
2.492016 0.081840 8.158625 97 22 4 255
2.599949 -0.239870 8.634055 97 22 4 255
2.840088 0.284072 8.637901 97 22 4 255
3.188793 -0.517507 7.872721 97 22 4 255
2.892460 -0.260789 8.605216 97 22 4 255
-7.585281 0.312998 8.731871 97 22 4 255
-7.566669 0.195307 8.488760 97 22 4 255
-7.424492 -0.370506 8.602472 97 22 4 255
7.632088 0.318552 8.732466 97 22 4 255
4.641071 0.395224 8.595177 97 22 4 255
4.580093 -0.415890 8.470788 97 22 4 255
7.716404 0.501879 8.339932 97 22 4 255
7.827492 -0.440387 8.910204 97 22 4 255
-4.616119 0.467970 7.994027 97 22 4 255
-4.555744 -0.292517 8.352373 97 22 4 255
-4.490093 -0.316900 8.353958 97 22 4 255
-7.573040 -0.305875 8.559721 97 22 4 255
7.654228 -0.257214 8.537870 97 22 4 255
4.658291 -0.183025 8.229248 97 22 4 255
1.497383 -0.275164 8.232272 97 22 4 255
1.464832 -0.406197 7.893148 97 22 4 255
-1.531582 -0.379687 8.472459 97 22 4 255
-4.494366 0.398880 8.543613 97 22 4 255
-1.406250 0.363328 8.190711 97 22 4 255
-1.502335 0.307743 8.003674 97 22 4 255
1.447857 0.326431 8.162016 97 22 4 255
4.533127 0.565078 7.984816 97 22 4 255
1.578178 0.267421 8.192439 97 22 4 255
-1.449169 -0.349058 7.865527 97 22 4 255
-6.290756 -3.166757 0.596027 163 110 12 255
-6.175949 -3.150494 5.081575 163 110 12 255
-6.342621 -2.290457 5.012462 163 110 12 255
-5.800873 -3.230335 0.312748 163 110 12 255
-6.247402 -2.392812 0.243301 163 110 12 255
-5.814148 -3.363260 5.001895 163 110 12 255
-5.904404 -2.328409 0.336172 163 110 12 255
-6.054550 2.545074 0.531869 163 110 12 255
-6.175564 2.689878 5.172622 163 110 12 255
-6.267250 3.235440 5.146591 163 110 12 255
-5.708885 2.445205 0.380260 163 110 12 255
-6.136703 3.033417 0.446305 163 110 12 255
-5.895550 2.463506 5.061479 163 110 12 255
-5.939835 2.857750 0.430888 163 110 12 255
5.981876 -3.109992 0.594353 163 110 12 255
5.751228 -3.384830 5.289112 163 110 12 255
5.856129 -2.299865 5.226999 163 110 12 255
5.744209 -2.406402 0.334308 163 110 12 255
6.282139 -2.456626 0.278719 163 110 12 255
6.033630 -3.205225 5.021540 163 110 12 255
6.449501 -3.292881 0.349545 163 110 12 255
5.807446 2.478270 0.419967 163 110 12 255
5.768600 2.373211 5.021294 163 110 12 255
5.974064 3.037608 5.042515 163 110 12 255
5.799435 3.215717 0.335862 163 110 12 255
6.142700 3.006691 0.474056 163 110 12 255
6.060566 2.705446 5.158782 163 110 12 255
6.093464 2.806991 0.395272 163 110 12 255
-7.727108 -3.147924 4.786955 97 22 4 255
-7.775780 -3.805686 4.686287 97 22 4 255
-8.034515 -3.637693 5.933733 97 22 4 255
-7.529892 4.090322 4.461571 97 22 4 255
-8.024347 3.945239 4.570052 97 22 4 255
-7.813217 3.449263 5.932992 97 22 4 255
-7.474533 3.744158 5.956862 97 22 4 255
-7.961777 2.849223 6.935866 97 22 4 255
-7.413860 -2.791250 6.809597 97 22 4 255
-7.401798 -3.664357 5.897515 97 22 4 255
-7.424362 -2.751258 5.886640 97 22 4 255
-7.867077 3.125076 6.027792 97 22 4 255
-7.927322 3.438862 4.732402 97 22 4 255
-7.701698 3.343698 4.672444 97 22 4 255
-7.455650 -3.961078 4.419244 97 22 4 255
-7.598522 -3.288742 4.668560 97 22 4 255
-7.551163 2.343504 6.793126 97 22 4 255
-7.396011 2.937986 6.819154 97 22 4 255
-7.714321 2.185500 7.475195 97 22 4 255
-7.870388 1.959764 7.388419 97 22 4 255
-7.833279 2.405132 6.716438 97 22 4 255
-7.396652 2.883803 5.805088 97 22 4 255
-7.640041 -2.355744 6.726982 97 22 4 255
-7.702400 -2.808355 6.117030 97 22 4 255
-8.016542 -2.895569 6.771950 97 22 4 255
-8.017397 -2.115922 7.697826 97 22 4 255
-7.632874 -2.014187 7.414649 97 22 4 255
-7.389095 -1.019146 8.339672 97 22 4 255
-7.572392 -0.856162 8.014204 97 22 4 255
-7.577919 -1.619098 7.347496 97 22 4 255
-7.700756 -1.729591 7.190912 97 22 4 255
-7.844318 -2.386372 6.676743 97 22 4 255
-7.810642 1.701239 7.326290 97 22 4 255
-7.834103 0.268422 8.271905 97 22 4 255
-7.708721 0.798664 8.120215 97 22 4 255
-7.613724 0.853412 8.073211 97 22 4 255
-7.566631 0.295590 8.492525 97 22 4 255
-7.569393 1.098283 8.245409 97 22 4 255
-7.988678 1.069440 8.398435 97 22 4 255
-7.423145 1.693242 7.109971 97 22 4 255
-7.879417 -0.958177 8.234538 97 22 4 255
-8.053276 -0.138913 8.112522 97 22 4 255
-7.465416 0.228508 8.128293 97 22 4 255
-7.827904 -0.200636 8.626279 97 22 4 255
-7.978745 0.400378 8.801137 97 22 4 255
-7.502693 -0.188329 7.995366 97 22 4 255
-8.070396 -0.753882 7.929821 97 22 4 255
-7.273567 -0.377242 8.699327 97 22 4 255
7.521915 -3.151531 4.700994 97 22 4 255
7.399509 -4.061742 4.675182 97 22 4 255
7.562508 -3.532768 5.950481 97 22 4 255
7.766682 3.537058 5.837461 97 22 4 255
7.830719 3.848623 4.781063 97 22 4 255
7.443207 3.806144 4.644977 97 22 4 255
7.921516 2.805450 6.879051 97 22 4 255
7.452160 3.424953 5.916790 97 22 4 255
7.869125 -2.838233 6.838613 97 22 4 255
7.696419 -3.430156 5.832104 97 22 4 255
7.693939 -2.863187 6.046252 97 22 4 255
7.293964 2.993619 5.771140 97 22 4 255
7.466518 3.262524 4.766955 97 22 4 255
7.998180 3.208496 4.625556 97 22 4 255
7.891521 -3.584177 4.695933 97 22 4 255
7.912083 -3.026029 4.581192 97 22 4 255
7.806744 2.405254 6.719670 97 22 4 255
7.840080 2.079649 7.263858 97 22 4 255
7.327393 2.160291 7.582801 97 22 4 255
7.240948 2.792180 6.856225 97 22 4 255
7.518322 2.422012 6.762281 97 22 4 255
7.946320 2.866750 5.801185 97 22 4 255
7.781509 -2.202509 6.783826 97 22 4 255
7.525105 -2.862354 6.015909 97 22 4 255
7.325214 -2.780231 6.949106 97 22 4 255
7.584202 -1.023796 8.302538 97 22 4 255
7.236946 -2.042981 7.624373 97 22 4 255
7.706371 -1.957938 7.527312 97 22 4 255
7.965599 -0.698705 7.963721 97 22 4 255
8.012573 -1.592051 7.214031 97 22 4 255
7.563938 -1.638036 7.424380 97 22 4 255
7.403831 -2.124030 6.559171 97 22 4 255
7.874859 1.608048 7.112663 97 22 4 255
7.524876 0.433904 8.315745 97 22 4 255
7.421864 0.728562 7.823607 97 22 4 255
7.742397 0.856021 8.079638 97 22 4 255
7.811386 1.059870 8.189850 97 22 4 255
7.481949 0.906360 8.265089 97 22 4 255
7.426071 0.347671 8.816122 97 22 4 255
7.390240 1.682402 7.124346 97 22 4 255
7.796558 -0.959754 8.096386 97 22 4 255
7.599846 -0.044473 8.251010 97 22 4 255
7.966576 0.272516 8.098729 97 22 4 255
7.516392 -0.310473 8.572308 97 22 4 255
7.977005 -0.273165 8.146688 97 22 4 255
7.466331 -0.871093 8.183228 97 22 4 255
7.749531 -0.346396 8.508842 97 22 4 255
7.957306 0.369601 8.672735 97 22 4 255
6.003464 -3.014732 0.543931 163 110 12 255
5.968750 -3.143293 0.561345 163 110 12 255
6.013905 -2.908508 0.793960 163 110 12 255
5.989120 3.131626 0.176409 163 110 12 255
5.948025 -3.101604 0.998234 163 110 12 255
6.274437 3.200286 0.271607 163 110 12 255
6.017975 2.973272 0.905029 163 110 12 255
6.224022 3.115773 1.024630 163 110 12 255
-5.886372 -3.215191 0.233960 163 110 12 255
-5.841942 -3.185130 1.087573 163 110 12 255
-6.066380 -3.029174 0.856212 163 110 12 255
-6.041271 2.934877 0.453500 163 110 12 255
-6.089928 -3.020869 0.519367 163 110 12 255
-5.970222 3.159868 0.169629 163 110 12 255
-6.003952 3.014086 0.763124 163 110 12 255
-5.908127 3.293355 0.967912 163 110 12 255
-6.212669 3.026687 0.267369 163 110 12 255
-6.009277 3.208831 0.373357 163 110 12 255
-6.028881 3.112948 0.894125 163 110 12 255
6.381504 3.092056 0.286183 163 110 12 255
-6.091877 3.145343 1.078925 163 110 12 255
6.127762 2.906697 0.314010 163 110 12 255
6.279079 3.082116 1.104118 163 110 12 255
6.203659 2.712932 0.975281 163 110 12 255
-6.056187 -2.875968 0.210851 163 110 12 255
-6.093739 -3.430992 0.291317 163 110 12 255
-6.252621 -3.472506 1.051546 163 110 12 255
6.280521 -2.799206 0.255473 163 110 12 255
-6.152020 -2.752812 1.000761 163 110 12 255
5.983711 -3.234111 0.541911 163 110 12 255
6.116310 -3.072721 0.881737 163 110 12 255
5.945717 -3.256701 0.873634 163 110 12 255
-1.665646 -3.815624 0.295189 225 225 225 255
1.526531 -3.697483 0.343023 229 229 229 255
1.510780 -3.849038 0.708209 225 225 225 255
-1.544437 -3.700455 -0.101302 224 224 224 255
-1.279713 -3.157054 0.036402 204 204 204 255
1.442493 -3.141881 -0.270283 216 216 216 255
-1.442688 -4.195885 0.175815 235 235 235 255
-6.474129 -3.213270 0.952718 219 219 219 255
-6.019047 -2.911266 0.852667 196 196 196 255
-5.996967 3.018817 0.482816 210 210 210 255
5.954914 2.963645 0.600405 199 199 199 255
6.011627 -3.042489 0.557182 197 197 197 255
6.461956 -3.304920 0.786417 216 216 216 255
-5.993431 2.989970 -0.121548 216 216 216 255
-6.022118 -3.065281 -0.101119 193 193 193 255
-6.462700 -3.392894 -0.068091 221 221 221 255
-1.434586 -3.213609 0.845682 214 214 214 255
6.355206 -3.078351 -0.057896 224 224 224 255
5.930901 -2.817518 -0.157674 195 195 195 255
6.102970 3.124025 -0.178373 203 203 203 255
-1.254711 -3.107278 0.515932 182 182 182 255
6.420883 3.041806 0.673951 236 236 236 255
-6.244427 3.055451 -0.024443 243 243 243 255
-6.508816 3.207568 0.863716 243 243 243 255
1.450222 -3.111725 0.509351 208 208 208 255
-1.572929 -3.637575 0.901932 222 222 222 255
6.481831 3.332945 -0.209201 229 229 229 255
-1.428928 -4.224075 0.167654 247 247 247 255
1.214462 -3.774363 0.018558 228 228 228 255
1.470924 -4.387192 -0.179373 240 240 240 255
1.528114 -4.366577 0.375915 246 246 246 255
5.954914 2.963645 0.600405 56 56 56 255
1.367500 -3.157938 0.498494 56 56 56 255
6.011627 -3.042489 0.557182 56 56 56 255
-6.189636 -0.373133 8.554484 163 110 12 255
-5.811787 -0.495453 8.452204 163 110 12 255
-6.210659 0.152372 8.487889 163 110 12 255
-6.064980 -0.072119 5.106146 163 110 12 255
-6.320145 0.310483 8.455385 163 110 12 255
-6.221004 0.336910 4.936888 163 110 12 255
-5.890114 0.250976 5.045097 163 110 12 255
-5.976540 -0.366025 4.969855 163 110 12 255
6.144592 -0.244812 8.279096 163 110 12 255
6.094288 -0.397946 8.565802 163 110 12 255
6.037941 0.154755 8.386938 163 110 12 255
5.946671 -0.476339 4.897707 163 110 12 255
6.024563 0.123655 8.224888 163 110 12 255
5.963718 0.391633 4.969189 163 110 12 255
6.299232 0.459202 5.144410 163 110 12 255
6.082474 -0.186237 5.097207 163 110 12 255
-0.904633 -3.365210 5.469811 163 110 12 255
-0.985664 -2.878063 5.583306 163 110 12 255
-1.647213 -3.116131 5.269957 163 110 12 255
-0.935883 -3.344759 0.665543 163 110 12 255
-1.600994 -3.321162 5.331120 163 110 12 255
-1.130199 -3.055064 0.868772 163 110 12 255
-1.552559 -3.306849 0.766581 163 110 12 255
-1.791882 -2.934946 0.598338 163 110 12 255
1.562023 -3.321494 5.417898 163 110 12 255
1.730038 -3.111031 5.402449 163 110 12 255
1.372719 -3.012443 5.305545 163 110 12 255
1.594818 -3.293772 0.842306 163 110 12 255
1.104645 -3.482421 5.536271 163 110 12 255
1.693325 -3.218582 0.671674 163 110 12 255
1.332123 -3.369282 0.859138 163 110 12 255
1.364922 -2.941024 0.847008 163 110 12 255
5.046288 -2.782427 2.314888 163 110 12 255
4.905533 -3.519065 1.846262 163 110 12 255
5.066818 -3.747928 1.872825 163 110 12 255
5.026154 -2.698402 1.904745 163 110 12 255
2.939198 -3.543633 2.056752 163 110 12 255
2.679684 -2.666777 2.171141 163 110 12 255
2.954391 -2.836227 1.936881 163 110 12 255
2.602768 -3.540727 2.163282 163 110 12 255
1.472977 -3.351580 3.505415 163 110 12 255
1.067055 -3.085396 3.642292 163 110 12 255
1.222557 -3.086267 4.085168 163 110 12 255
-1.142494 -3.395695 3.522235 163 110 12 255
1.426975 -3.369014 4.311702 163 110 12 255
-1.268787 -3.482994 4.190615 163 110 12 255
-0.899330 -3.110100 4.215454 163 110 12 255
-0.926716 -2.920225 3.820450 163 110 12 255
-2.607155 -2.659941 2.260202 163 110 12 255
-2.709019 -3.605201 2.183565 163 110 12 255
-2.681217 -3.607751 1.761246 163 110 12 255
-2.723621 -2.688742 1.870470 163 110 12 255
-4.725266 -3.440018 1.963021 163 110 12 255
-4.805630 -2.779184 1.972398 163 110 12 255
-5.141666 -2.828809 1.826277 163 110 12 255
-4.981968 -3.609048 2.184017 163 110 12 255
-4.695480 -3.158849 5.099469 163 110 12 255
-4.351254 -2.909371 5.386899 163 110 12 255
-5.105225 -2.844360 5.418478 163 110 12 255
-4.528214 -3.433906 0.566224 163 110 12 255
-5.155613 -3.379631 5.369055 163 110 12 255
-4.772308 -2.907541 0.829196 163 110 12 255
-4.847691 -3.232781 1.011804 163 110 12 255
-4.813812 -3.051533 0.825955 163 110 12 255
3.418949 -3.341058 5.230997 163 110 12 255
3.474560 -2.760666 5.215063 163 110 12 255
2.853722 -2.799986 5.356189 163 110 12 255
3.498169 -3.420685 0.795533 163 110 12 255
2.768810 -3.514296 5.312404 163 110 12 255
3.284729 -2.898234 0.885907 163 110 12 255
2.840137 -3.465228 0.678409 163 110 12 255
2.932205 -3.041615 0.770216 163 110 12 255
4.915730 -3.037248 5.190829 163 110 12 255
4.912888 -2.805124 5.326273 163 110 12 255
4.469963 -2.680057 5.322710 163 110 12 255
5.035809 -3.296584 0.732124 163 110 12 255
4.719772 -3.234922 5.264017 163 110 12 255
4.923576 -2.793050 0.742800 163 110 12 255
4.546577 -3.425284 0.654017 163 110 12 255
4.491341 -2.827255 0.689761 163 110 12 255
5.056042 -2.982575 4.442677 163 110 12 255
4.954857 -3.526937 4.469413 163 110 12 255
4.818722 -3.215432 4.154696 163 110 12 255
2.635906 -2.985490 4.333609 163 110 12 255
5.018013 -2.862715 4.135443 163 110 12 255
2.758251 -3.138432 4.238303 163 110 12 255
2.565044 -3.567683 4.101672 163 110 12 255
2.845890 -3.334975 4.122776 163 110 12 255
-2.729309 -3.192262 4.119490 163 110 12 255
-2.675724 -3.634988 4.479323 163 110 12 255
-2.756802 -3.324663 4.254148 163 110 12 255
-4.727161 -3.083974 4.296588 163 110 12 255
-2.962349 -3.063426 4.224053 163 110 12 255
-5.011528 -3.219667 4.327684 163 110 12 255
-5.053989 -3.516742 3.949279 163 110 12 255
-4.832024 -3.403177 4.218095 163 110 12 255
3.159756 1.899387 7.692803 117 35 30 255
7.347824 0.841625 8.420805 117 35 30 255
3.134285 0.940776 8.187217 117 35 30 255
3.015457 2.317641 7.060417 117 35 30 255
7.375256 1.881541 7.820559 117 35 30 255
7.309837 0.394213 8.559666 117 35 30 255
2.870533 0.231403 8.339217 117 35 30 255
7.674721 -1.884079 7.735133 117 35 30 255
3.181934 -2.297751 7.090465 117 35 30 255
2.919159 -1.688210 7.643586 117 35 30 255
2.906643 -0.714547 8.076382 117 35 30 255
7.491180 -0.329503 8.677688 117 35 30 255
7.604080 -0.819856 8.141039 117 35 30 255
-2.841522 -1.630505 7.611618 117 35 30 255
-7.898422 -0.859928 8.218329 117 35 30 255
-2.962978 -0.763082 8.171261 117 35 30 255
-7.576935 -2.384975 6.956350 117 35 30 255
-2.981590 -2.374638 7.250493 117 35 30 255
-7.734333 -0.327733 8.653916 117 35 30 255
-2.962090 -0.127554 8.207131 117 35 30 255
-3.125057 1.872898 7.621183 117 35 30 255
-7.516117 2.400624 6.947857 117 35 30 255
-2.818752 2.236827 6.871096 117 35 30 255
-2.950859 0.657421 7.917287 117 35 30 255
-7.551243 0.379992 8.701061 117 35 30 255
-7.913063 0.832083 8.266886 117 35 30 255
-7.479713 1.850155 7.553853 117 35 30 255
-2.994190 1.626838 7.463310 117 35 30 255
2.518753 2.352258 7.050650 117 35 30 255
2.628075 1.790537 7.690010 117 35 30 255
-2.846203 2.422686 7.088014 117 35 30 255
2.617622 3.170105 6.104399 117 35 30 255
-2.981876 0.858505 7.948289 117 35 30 255
-2.773651 -2.463901 7.057885 117 35 30 255
2.573864 -2.972440 6.279814 117 35 30 255
-3.019852 -2.918626 6.132623 117 35 30 255
7.428711 -1.743169 7.826969 117 35 30 255
3.221554 -1.706737 7.711205 117 35 30 255
3.209854 -2.293478 7.179464 117 35 30 255
-2.734711 -0.664138 8.269212 117 35 30 255
2.648827 -1.897603 7.819975 117 35 30 255
-2.797462 -1.764805 7.736933 117 35 30 255
2.628731 -2.290469 7.106699 117 35 30 255
3.019321 0.961253 8.405670 117 35 30 255
3.046116 0.404288 8.621417 117 35 30 255
7.367588 0.255286 8.442662 117 35 30 255
-2.700138 -0.295585 8.461137 117 35 30 255
2.565498 -0.921301 8.113846 117 35 30 255
2.534237 0.977272 8.033632 117 35 30 255
-3.047192 0.192668 8.355039 117 35 30 255
2.415813 -3.591497 4.732069 117 35 30 255
-3.132168 2.960201 6.194527 117 35 30 255
2.718407 3.498629 4.386720 117 35 30 255
-5.832378 -2.440163 5.101375 163 110 12 255
-6.109722 3.054854 5.004552 163 110 12 255
6.260910 -2.293553 5.060696 163 110 12 255
6.139824 2.936237 4.974591 163 110 12 255
1.367500 -3.157938 0.498494 181 181 181 255
-1.254711 -3.107278 0.515932 56 56 56 255
-5.996967 3.018817 0.482816 56 56 56 255
-6.019047 -2.911266 0.852667 56 56 56 255
7.408043 2.517208 7.184628 117 35 30 255
7.400974 -2.599653 7.150424 117 35 30 255
3.101204 -0.337101 8.294190 117 35 30 255
-7.797153 -1.805968 7.507265 117 35 30 255
-2.938927 0.364938 8.361387 117 35 30 255
2.913960 2.485542 7.216300 117 35 30 255
3.220627 1.818213 7.742130 117 35 30 255
7.473896 1.939116 7.834993 117 35 30 255
7.467381 0.807869 8.269303 117 35 30 255
2.764137 -0.261376 8.372739 117 35 30 255
2.636021 0.340440 8.317507 117 35 30 255
-2.926140 -3.656036 4.706470 117 35 30 255
-2.906071 3.685664 4.851963 117 35 30 255
3.189781 3.084877 6.284281 117 35 30 255
3.023045 3.687201 4.611471 117 35 30 255
7.379028 3.162812 6.432611 117 35 30 255
7.431850 -3.081111 6.409036 117 35 30 255
3.109550 -3.616786 4.764172 117 35 30 255
3.084324 -3.098264 6.302627 117 35 30 255
-3.050575 -3.090216 6.328265 117 35 30 255
-3.191296 -3.733651 4.710659 117 35 30 255
-7.689106 -3.135858 6.472075 117 35 30 255
-7.661434 3.317146 6.405859 117 35 30 255
-2.861794 3.545282 4.606506 117 35 30 255
-2.961143 2.986324 5.982394 117 35 30 255
7.739616 3.755303 4.659892 117 35 30 255
7.434399 -3.774250 4.767315 117 35 30 255
-7.887169 -3.829110 4.697437 117 35 30 255
-7.706039 3.863169 4.866471 117 35 30 255
2.915775 -0.782278 8.315540 117 35 30 255
7.281818 -0.913008 8.261883 117 35 30 255
7.477215 -0.220169 8.830988 117 35 30 255
-3.009274 -1.546009 7.690524 117 35 30 255
-2.802444 -0.920827 8.169315 117 35 30 255
-7.610962 -0.658469 8.295797 117 35 30 255
-7.469479 -2.359824 7.158114 117 35 30 255
-2.983521 -2.318881 7.046450 117 35 30 255
-2.964161 -0.291611 8.306839 117 35 30 255
-7.739544 -0.187724 8.772804 117 35 30 255
-2.981388 2.048148 7.914357 117 35 30 255
-3.124283 2.519131 6.985939 117 35 30 255
-7.511654 2.588924 7.212913 117 35 30 255
-3.024403 0.935945 8.069856 117 35 30 255
-7.660301 0.965957 8.312744 117 35 30 255
-7.785015 0.296478 8.754505 117 35 30 255
-7.773888 2.071793 7.885777 117 35 30 255
-2.775185 1.724079 7.734845 117 35 30 255
2.681416 1.880314 7.643073 117 35 30 255
2.630569 2.385533 6.952924 117 35 30 255
-2.808651 2.380597 7.021167 117 35 30 255
2.646114 3.045526 6.217535 117 35 30 255
-2.799480 0.947375 8.050774 117 35 30 255
-2.895000 -2.329798 7.048101 117 35 30 255
-2.868343 -3.063320 6.114570 117 35 30 255
2.687622 -2.991899 6.281834 117 35 30 255
-2.876457 -0.961365 8.286421 117 35 30 255
-3.005337 -1.811894 7.798850 117 35 30 255
2.606411 -1.631152 7.581037 117 35 30 255
2.708294 -2.297741 6.910180 117 35 30 255
-2.732792 -0.376730 8.290173 117 35 30 255
2.716278 -0.747237 8.070512 117 35 30 255
2.644489 0.954459 7.998238 117 35 30 255
-2.795784 0.349739 8.255286 117 35 30 255
2.562119 -3.567395 4.829492 117 35 30 255
-2.802532 2.951959 6.272537 117 35 30 255
2.638859 3.899252 4.650062 117 35 30 255
7.327995 2.486176 7.270316 117 35 30 255
7.466728 -2.569338 7.409269 117 35 30 255
3.171509 -0.423340 8.405869 117 35 30 255
-7.865501 -1.948649 7.837993 117 35 30 255
-2.971077 0.391676 8.303023 117 35 30 255
2.632378 -0.142924 8.323335 117 35 30 255
2.665344 0.365242 8.253828 117 35 30 255
-2.871601 -3.744587 4.856553 117 35 30 255
-2.966919 3.628366 4.780138 117 35 30 255
2.919006 3.271880 6.258455 117 35 30 255
3.261063 3.778396 4.831501 117 35 30 255
7.414047 3.221562 6.384651 117 35 30 255
7.371536 -3.106349 6.192190 117 35 30 255
3.286396 -2.956174 6.264802 117 35 30 255
3.183922 -3.509121 4.764222 117 35 30 255
-2.951977 -3.331452 6.268945 117 35 30 255
-3.215866 -3.575829 4.857150 117 35 30 255
-7.650547 -3.131974 6.254210 117 35 30 255
-7.668907 3.284908 6.333786 117 35 30 255
-3.097649 3.142765 6.167389 117 35 30 255
-3.179806 3.715683 4.757232 117 35 30 255
7.588829 3.962760 4.704162 117 35 30 255
7.651798 -3.935019 4.596479 117 35 30 255
-7.804367 -3.788507 4.803922 117 35 30 255
-7.883492 3.975616 4.683146 117 35 30 255
3 0 1 2
3 3 4 5
3 6 7 8
3 9 2 10
3 11 12 13
3 0 14 15
3 16 17 18
3 4 3 2
3 19 16 20
3 12 21 22
3 0 2 14
3 3 5 12
3 6 8 5
3 5 8 23
3 8 7 22
3 14 24 25
3 24 9 26
3 9 10 27
3 10 2 28
3 2 9 14
3 14 9 24
3 3 29 30
3 29 11 31
3 11 13 32
3 13 12 33
3 12 11 3
3 3 11 29
3 0 20 34
3 15 14 35
3 0 15 20
3 16 18 7
3 4 2 1
3 20 16 34
3 16 19 17
3 17 19 14
3 14 19 35
3 23 12 5
3 12 22 18
3 18 22 7
3 21 12 23
3 36 37 38
3 39 40 41
3 42 43 44
3 45 46 47
3 48 49 50
3 51 52 53
3 54 55 56
3 41 37 39
3 57 58 54
3 50 59 60
3 36 61 37
3 39 62 40
3 42 63 43
3 63 64 43
3 43 59 44
3 53 65 66
3 66 67 45
3 45 68 46
3 46 69 47
3 47 53 45
3 53 66 45
3 70 71 72
3 72 73 48
3 48 74 49
3 49 75 50
3 50 70 48
3 70 72 48
3 51 76 58
3 52 77 53
3 51 58 52
3 54 44 55
3 41 38 37
3 58 76 54
3 54 56 57
3 56 53 57
3 53 77 57
3 64 63 50
3 50 55 59
3 55 44 59
3 60 64 50
3 33 75 49
3 33 49 13
3 29 72 71
3 29 71 30
3 7 44 54
3 7 54 16
3 3 70 47
3 3 47 2
3 32 74 48
3 32 48 11
3 8 43 64
3 8 64 23
3 27 68 45
3 27 45 9
3 19 57 77
3 19 77 35
3 2 47 69
3 2 69 28
3 26 67 66
3 26 66 24
3 1 78 79
3 1 79 4
3 4 79 63
3 4 63 5
3 14 53 56
3 14 56 17
3 12 50 75
3 12 75 33
3 28 69 46
3 28 46 10
3 6 42 44
3 6 44 7
3 23 64 60
3 23 60 21
3 35 77 52
3 35 52 15
3 20 58 57
3 20 57 19
3 5 63 42
3 5 42 6
3 24 66 65
3 24 65 25
3 13 49 74
3 13 74 32
3 11 48 73
3 11 73 31
3 17 56 55
3 17 55 18
3 15 52 58
3 15 58 20
3 30 71 70
3 30 70 3
3 16 54 76
3 16 76 34
3 18 55 50
3 18 50 12
3 10 46 68
3 10 68 27
3 31 73 72
3 31 72 29
3 0 51 78
3 0 78 1
3 34 76 51
3 34 51 0
3 25 65 53
3 25 53 14
3 21 60 59
3 21 59 22
3 9 45 67
3 9 67 26
3 22 59 43
3 22 43 8
3 80 81 82
3 83 80 84
3 85 83 86
3 81 85 87
3 80 83 85
3 87 86 84
3 88 89 90
3 91 88 92
3 93 91 94
3 89 93 95
3 89 88 91
3 94 92 90
3 96 97 98
3 99 96 100
3 101 99 102
3 97 101 103
3 97 96 99
3 103 102 100
3 104 105 106
3 107 108 106
3 109 107 110
3 104 109 111
3 104 108 107
3 110 106 105
3 112 113 114
3 115 112 116
3 117 115 118
3 113 117 119
3 113 112 115
3 118 116 114
3 120 121 122
3 123 124 125
3 126 125 127
3 128 129 130
3 131 132 133
3 129 134 135
3 125 124 132
3 133 123 126
3 135 120 136
3 122 121 134
3 137 138 139
3 140 127 141
3 141 131 142
3 130 136 143
3 144 122 129
3 127 125 131
3 142 126 138
3 136 122 144
3 145 146 147
3 148 149 150
3 143 144 146
3 147 128 151
3 138 127 140
3 152 141 137
3 151 143 149
3 146 144 128
3 153 154 155
3 156 157 158
3 157 140 152
3 159 139 156
3 149 146 145
3 160 147 148
3 139 140 157
3 154 152 159
3 161 162 153
3 162 163 158
3 164 150 162
3 163 145 160
3 158 157 154
3 155 156 165
3 150 145 163
3 166 160 164
3 166 161 167
3 166 165 158
3 168 169 170
3 171 172 173
3 174 175 172
3 176 169 168
3 133 132 124
3 134 121 120
3 177 173 178
3 179 180 181
3 182 175 174
3 180 176 183
3 173 172 175
3 174 171 177
3 183 168 184
3 170 169 176
3 185 186 187
3 188 178 189
3 189 182 190
3 181 184 191
3 192 170 180
3 178 173 182
3 190 177 186
3 184 170 192
3 193 194 195
3 196 197 198
3 191 192 194
3 195 179 199
3 186 178 188
3 200 189 185
3 199 191 197
3 194 192 179
3 201 202 203
3 204 205 206
3 206 188 200
3 207 187 205
3 197 194 193
3 208 195 196
3 187 188 206
3 201 200 207
3 209 210 211
3 210 212 213
3 214 198 210
3 193 208 215
3 213 206 201
3 202 205 204
3 198 193 212
3 215 208 214
3 209 203 204
3 215 204 213
3 216 217 218
3 219 220 221
3 222 219 223
3 224 225 218
3 220 219 222
3 226 227 218
3 228 223 221
3 229 221 230
3 231 230 232
3 232 226 225
3 217 216 233
3 224 233 234
3 235 234 236
3 236 220 237
3 222 228 229
3 237 229 231
3 238 231 239
3 235 239 225
3 233 216 227
3 234 233 226
3 236 234 232
3 220 236 230
3 240 241 242
3 243 240 244
3 245 243 246
3 245 241 240
3 246 244 242
3 247 248 249
3 250 247 251
3 252 250 253
3 252 248 247
3 253 251 249
3 254 255 256
3 254 257 258
3 259 260 258
3 259 255 254
3 258 257 256
3 261 262 263
3 261 264 265
3 266 267 265
3 266 262 261
3 265 264 263
3 268 269 270
3 271 272 273
3 274 273 275
3 276 277 278
3 279 280 281
3 277 282 283
3 273 272 280
3 281 271 274
3 278 283 268
3 269 282 277
3 284 285 286
3 287 275 288
3 288 279 289
3 290 278 291
3 270 277 276
3 275 273 279
3 289 274 285
3 291 270 292
3 293 294 295
3 296 297 298
3 299 292 293
3 294 276 290
3 286 285 275
3 300 288 284
3 290 299 298
3 292 276 294
3 301 302 303
3 304 305 306
3 306 287 300
3 307 286 305
3 298 293 308
3 295 294 297
3 305 286 287
3 300 307 303
3 309 301 310
3 309 311 312
3 313 296 314
3 308 295 315
3 312 306 302
3 303 305 304
3 314 308 311
3 315 295 296
3 315 313 310
3 315 304 312
3 316 317 318
3 319 320 321
3 322 319 323
3 324 325 326
3 327 328 329
3 325 330 331
3 323 321 328
3 329 320 319
3 326 331 316
3 318 317 330
3 332 322 333
3 334 335 336
3 336 327 337
3 338 326 339
3 340 318 325
3 335 323 327
3 337 319 322
3 339 318 340
3 341 342 343
3 344 345 346
3 347 340 342
3 343 324 338
3 333 322 335
3 336 332 348
3 338 347 346
3 340 324 343
3 349 350 351
3 352 353 354
3 353 334 355
3 348 333 352
3 346 342 341
3 356 343 345
3 333 334 353
3 350 355 348
3 357 349 358
3 359 354 349
3 360 344 361
3 341 356 362
3 354 353 350
3 351 352 363
3 361 341 359
3 362 356 344
3 362 360 358
3 359 362 363
3 364 365 366
3 367 364 368
3 369 367 370
3 365 369 371
3 365 364 367
3 370 368 366
3 372 373 374
3 375 376 374
3 377 375 378
3 372 377 379
3 372 376 375
3 378 374 373
3 380 381 382
3 383 380 384
3 385 383 386
3 381 385 387
3 381 380 383
3 387 386 384
3 388 389 390
3 391 388 392
3 393 391 394
3 389 393 395
3 389 388 391
3 394 392 390
3 396 397 398
3 399 400 401
3 397 396 402
3 403 404 405
3 406 407 408
3 409 410 411
3 411 400 412
3 413 414 415
3 412 416 404
3 405 406 417
3 401 414 413
3 418 419 417
3 401 413 408
3 420 412 421
3 422 415 409
3 423 399 424
3 423 425 426
3 410 409 415
3 427 428 429
3 402 396 399
3 425 424 397
3 419 418 411
3 413 422 417
3 396 400 399
3 397 420 398
3 430 431 432
3 433 430 434
3 433 435 436
3 431 437 436
3 430 433 437
3 436 435 434
3 438 439 440
3 441 438 442
3 441 443 444
3 439 445 444
3 439 438 441
3 444 443 442
3 446 447 448
3 449 446 450
3 451 449 452
3 447 451 453
3 446 449 451
3 453 452 450
3 454 455 456
3 457 454 458
3 459 457 460
3 455 459 461
3 454 457 459
3 461 460 458
3 462 463 464
3 465 464 466
3 467 468 466
3 462 467 469
3 462 465 468
3 469 466 464
3 470 471 472
3 473 470 474
3 473 475 476
3 471 477 476
3 471 470 473
3 475 474 472
3 478 479 480
3 481 480 482
3 483 484 482
3 478 483 485
3 478 481 484
3 485 482 480
3 486 487 488
3 489 486 490
3 491 489 492
3 487 491 493
3 486 489 491
3 493 492 490
3 494 495 496
3 497 494 498
3 499 497 500
3 495 499 501
3 494 497 499
3 501 500 498
3 502 503 504
3 505 502 506
3 507 505 508
3 503 507 509
3 502 505 507
3 509 508 506
3 510 511 512
3 513 510 514
3 513 515 516
3 511 517 516
3 511 510 513
3 516 515 514
3 518 519 520
3 521 518 522
3 521 523 524
3 519 525 524
3 519 518 521
3 524 523 522
3 526 527 528
3 529 530 526
3 528 531 532
3 533 534 535
3 536 537 538
3 535 538 533
3 539 540 541
3 542 539 543
3 541 544 545
3 546 547 548
3 549 550 551
3 546 551 552
3 553 554 555
3 556 557 554
3 555 558 553
3 559 560 561
3 562 563 564
3 565 566 567
3 567 568 559
3 569 570 571
3 572 573 565
3 574 575 558
3 561 560 576
3 577 578 557
3 80 82 84
3 83 84 86
3 85 86 87
3 81 87 82
3 80 85 81
3 87 84 82
3 88 90 92
3 91 92 94
3 93 94 95
3 89 95 90
3 89 91 93
3 94 90 95
3 96 98 100
3 99 100 102
3 101 102 103
3 97 103 98
3 97 99 101
3 103 100 98
3 104 106 108
3 107 106 110
3 109 110 111
3 104 111 105
3 104 107 109
3 110 105 111
3 112 114 116
3 115 116 118
3 117 118 119
3 113 119 114
3 113 115 117
3 118 114 119
3 120 122 136
3 123 125 126
3 126 127 138
3 128 130 151
3 131 133 142
3 129 135 130
3 125 132 131
3 133 126 142
3 135 136 130
3 122 134 129
3 137 139 159
3 140 141 152
3 141 142 137
3 130 143 151
3 144 129 128
3 127 131 141
3 142 138 137
3 136 144 143
3 145 147 160
3 148 150 164
3 143 146 149
3 147 151 148
3 138 140 139
3 152 137 159
3 151 149 148
3 146 128 147
3 153 155 167
3 156 158 165
3 157 152 154
3 159 156 155
3 149 145 150
3 160 148 164
3 139 157 156
3 154 159 155
3 161 153 167
3 162 158 153
3 164 162 161
3 163 160 166
3 158 154 153
3 155 165 167
3 150 163 162
3 166 164 161
3 166 167 165
3 166 158 163
3 168 170 184
3 171 173 177
3 174 172 171
3 176 168 183
3 133 124 123
3 134 120 135
3 177 178 186
3 179 181 199
3 182 174 190
3 180 183 181
3 173 175 182
3 174 177 190
3 183 184 181
3 170 176 180
3 185 187 207
3 188 189 200
3 189 190 185
3 181 191 199
3 192 180 179
3 178 182 189
3 190 186 185
3 184 192 191
3 193 195 208
3 196 198 214
3 191 194 197
3 195 199 196
3 186 188 187
3 200 185 207
3 199 197 196
3 194 179 195
3 201 203 211
3 204 206 213
3 206 200 201
3 207 205 202
3 197 193 198
3 208 196 214
3 187 206 205
3 201 207 202
3 209 211 203
3 210 213 211
3 214 210 209
3 193 215 212
3 213 201 211
3 202 204 203
3 198 212 210
3 215 214 209
3 209 204 215
3 215 213 212
3 216 218 227
3 219 221 223
3 222 223 228
3 224 218 217
3 220 222 237
3 226 218 225
3 228 221 229
3 229 230 231
3 231 232 239
3 232 225 239
3 217 233 224
3 224 234 235
3 235 236 238
3 236 237 238
3 222 229 237
3 237 231 238
3 238 239 235
3 235 225 224
3 233 227 226
3 234 226 232
3 236 232 230
3 220 230 221
3 240 242 244
3 243 244 246
3 245 246 579
3 245 240 243
3 246 242 579
3 247 249 251
3 250 251 253
3 252 253 580
3 252 247 250
3 253 249 580
3 254 256 257
3 254 258 260
3 259 258 581
3 259 254 260
3 258 256 581
3 261 263 264
3 261 265 267
3 266 265 582
3 266 261 267
3 265 263 582
3 268 270 291
3 271 273 274
3 274 275 285
3 276 278 290
3 279 281 289
3 277 283 278
3 273 280 279
3 281 274 289
3 278 268 291
3 269 277 270
3 284 286 307
3 287 288 300
3 288 289 284
3 290 291 299
3 270 276 292
3 275 279 288
3 289 285 284
3 291 292 299
3 293 295 308
3 296 298 314
3 299 293 298
3 294 290 297
3 286 275 287
3 300 284 307
3 290 298 297
3 292 294 293
3 301 303 310
3 304 306 312
3 306 300 302
3 307 305 303
3 298 308 314
3 295 297 296
3 305 287 306
3 300 303 302
3 309 310 313
3 309 312 301
3 313 314 309
3 308 315 311
3 312 302 301
3 303 304 310
3 314 311 309
3 315 296 313
3 315 310 304
3 315 312 311
3 316 318 339
3 319 321 323
3 322 323 335
3 324 326 338
3 327 329 337
3 325 331 326
3 323 328 327
3 329 319 337
3 326 316 339
3 318 330 325
3 332 333 348
3 334 336 355
3 336 337 332
3 338 339 347
3 340 325 324
3 335 327 336
3 337 322 332
3 339 340 347
3 341 343 356
3 344 346 361
3 347 342 346
3 343 338 345
3 333 335 334
3 336 348 355
3 338 346 345
3 340 343 342
3 349 351 358
3 352 354 363
3 353 355 350
3 348 352 351
3 346 341 361
3 356 345 344
3 333 353 352
3 350 348 351
3 357 358 360
3 359 349 357
3 360 361 357
3 341 362 359
3 354 350 349
3 351 363 358
3 361 359 357
3 362 344 360
3 362 358 363
3 359 363 354
3 364 366 368
3 367 368 370
3 369 370 371
3 365 371 366
3 365 367 369
3 370 366 371
3 372 374 376
3 375 374 378
3 377 378 379
3 372 379 373
3 372 375 377
3 378 373 379
3 380 382 384
3 383 384 386
3 385 386 387
3 381 387 382
3 381 383 385
3 387 384 382
3 388 390 392
3 391 392 394
3 393 394 395
3 389 395 390
3 389 391 393
3 394 390 395
3 396 398 421
3 399 401 424
3 397 402 426
3 403 405 419
3 406 408 417
3 409 411 418
3 411 412 403
3 413 415 422
3 416 420 583
3 583 420 407
3 407 420 408
3 412 404 403
3 420 416 412
3 405 417 419
3 414 400 410
3 410 400 411
3 400 414 401
3 418 417 422
3 401 408 420
3 420 421 398
3 422 409 418
3 423 424 425
3 423 426 402
3 410 415 414
3 428 427 584
3 584 585 586
3 585 584 427
3 402 399 423
3 425 397 426
3 419 411 403
3 413 417 408
3 400 396 412
3 412 396 421
3 420 397 401
3 401 397 424
3 430 432 434
3 433 434 435
3 433 436 437
3 431 436 432
3 430 437 431
3 436 434 432
3 438 440 442
3 441 442 443
3 441 444 445
3 439 444 440
3 439 441 445
3 444 442 440
3 446 448 450
3 449 450 452
3 451 452 453
3 447 453 448
3 446 451 447
3 453 450 448
3 454 456 458
3 457 458 460
3 459 460 461
3 455 461 456
3 454 459 455
3 461 458 456
3 462 464 465
3 465 466 468
3 467 466 469
3 462 469 463
3 462 468 467
3 469 464 463
3 470 472 474
3 473 474 475
3 473 476 477
3 471 476 472
3 471 473 477
3 475 472 476
3 478 480 481
3 481 482 484
3 483 482 485
3 478 485 479
3 478 484 483
3 485 480 479
3 486 488 490
3 489 490 492
3 491 492 493
3 487 493 488
3 486 491 487
3 493 490 488
3 494 496 498
3 497 498 500
3 499 500 501
3 495 501 496
3 494 499 495
3 501 498 496
3 502 504 506
3 505 506 508
3 507 508 509
3 503 509 504
3 502 507 503
3 509 506 504
3 510 512 514
3 513 514 515
3 513 516 517
3 511 516 512
3 511 513 517
3 516 514 512
3 518 520 522
3 521 522 523
3 521 524 525
3 519 524 520
3 519 521 525
3 524 522 520
3 526 530 527
3 529 587 530
3 528 527 531
3 533 588 534
3 536 589 537
3 535 536 538
3 539 590 540
3 542 590 539
3 541 540 544
3 546 552 547
3 549 591 550
3 546 549 551
3 553 556 554
3 556 577 557
3 555 574 558
3 559 568 560
3 592 593 594
3 565 573 566
3 567 566 568
3 593 569 595
3 572 596 573
3 574 597 575
3 561 576 598
3 577 599 578
3 600 587 529
3 601 602 600
3 603 604 605
3 588 605 534
3 606 542 543
3 607 608 606
3 609 610 611
3 547 611 548
3 600 602 587
3 601 612 602
3 603 613 604
3 588 603 605
3 606 608 542
3 607 614 608
3 609 615 610
3 547 609 611
3 330 316 331
3 330 317 316
3 328 321 320
3 328 320 329
3 281 272 271
3 281 280 272
3 269 268 283
3 269 283 282
3 616 617 618
3 563 562 617
3 619 620 621
3 622 623 619
3 620 624 625
3 626 627 628
3 629 630 631
3 626 632 630
3 633 634 635
3 636 635 637
3 634 633 638
3 639 640 641
3 642 643 644
3 643 639 645
3 646 642 647
3 648 638 649
3 640 650 641
3 651 637 652
3 593 595 594
3 592 594 653
3 569 571 595
3 562 564 654
3 616 618 655
3 563 617 616
3 619 621 656
3 622 619 656
3 620 625 621
3 626 628 632
3 629 631 657
3 626 630 629
3 633 635 636
3 636 637 651
3 634 638 648
3 639 641 645
3 642 644 647
3 643 645 644
3 646 647 658
3 648 649 659
3 640 660 650
3 651 652 661
3 662 592 653
3 663 662 664
3 665 666 667
3 654 564 666
3 668 623 622
3 669 668 670
3 671 672 673
3 628 627 672
3 662 653 664
3 663 664 674
3 665 667 675
3 654 666 665
3 668 622 670
3 669 670 676
3 671 673 677
3 628 672 671
3 573 596 647
3 596 658 647
3 574 555 634
3 574 634 648
3 537 589 655
3 537 655 618
3 557 578 637
3 578 652 637
3 611 610 673
3 611 673 672
3 588 533 654
3 533 562 654
3 606 543 668
3 543 623 668
3 542 608 622
3 608 670 622
3 550 591 631
3 591 657 631
3 591 549 657
3 549 629 657
3 577 556 636
3 577 636 651
3 538 537 617
3 537 618 617
3 613 603 675
3 603 665 675
3 612 601 663
3 612 663 674
3 567 559 639
3 567 639 643
3 615 609 677
3 609 671 677
3 572 565 646
3 565 642 646
3 532 531 570
3 531 571 570
3 530 587 594
3 587 653 594
3 534 605 666
3 534 666 564
3 602 612 674
3 602 674 664
3 601 600 663
3 600 662 663
3 599 577 661
3 577 651 661
3 590 542 622
3 590 622 656
3 548 611 672
3 548 672 627
3 539 541 619
3 541 620 619
3 552 551 632
3 551 630 632
3 568 566 644
3 568 644 645
3 608 614 676
3 608 676 670
3 597 574 648
3 597 648 659
3 554 557 637
3 554 637 635
3 551 550 630
3 550 631 630
3 535 534 564
3 535 564 563
3 553 558 638
3 553 638 633
3 533 538 617
3 533 617 562
3 529 526 592
3 526 593 592
3 598 576 650
3 598 650 660
3 576 560 641
3 576 641 650
3 555 554 635
3 555 635 634
3 596 572 658
3 572 646 658
3 604 613 667
3 613 675 667
3 543 539 623
3 539 619 623
3 600 529 592
3 600 592 662
3 556 553 636
3 553 633 636
3 540 590 621
3 590 656 621
3 549 546 626
3 549 626 629
3 614 607 669
3 614 669 676
3 546 548 627
3 546 627 626
3 558 575 649
3 558 649 638
3 603 588 665
3 588 654 665
3 578 599 652
3 599 661 652
3 605 604 667
3 605 667 666
3 561 598 660
3 561 660 640
3 547 552 632
3 547 632 628
3 536 535 563
3 536 563 616
3 527 530 594
3 527 594 595
3 610 615 673
3 615 677 673
3 544 540 621
3 544 621 625
3 541 545 624
3 541 624 620
3 560 568 645
3 560 645 641
3 528 532 570
3 528 570 569
3 526 528 593
3 528 569 593
3 559 561 639
3 561 640 639
3 609 547 671
3 547 628 671
3 589 536 616
3 589 616 655
3 575 597 659
3 575 659 649
3 566 573 647
3 566 647 644
3 565 567 643
3 565 643 642
3 545 544 624
3 544 625 624
3 587 602 653
3 602 664 653
3 531 527 595
3 531 595 571
3 607 606 669
3 606 668 669
