ply
format ascii 1.0
comment Created by Blender 2.80 (sub 75) - www.blender.org, source file: 'monkey.blend'
element vertex 507
property float x
property float y
property float z
property uchar red
property uchar green
property uchar blue
property uchar alpha
element face 968
property list uchar uint vertex_indices
end_header
1.109167 -1.793153 2.930867 75 106 122 255
1.035223 -1.811640 2.746006 75 106 122 255
1.183112 -1.626778 2.579631 75 106 122 255
1.331000 -1.589806 2.930867 75 106 122 255
-1.183112 -1.626778 2.579631 75 106 122 255
-1.035223 -1.811640 2.746006 75 106 122 255
-1.109167 -1.793153 2.930867 75 106 122 255
-1.331000 -1.589806 2.930867 75 106 122 255
1.294028 -1.367973 2.487200 75 106 122 255
1.478889 -1.331000 2.930867 75 106 122 255
-1.294028 -1.367973 2.487200 75 106 122 255
-1.478889 -1.331000 2.930867 75 106 122 255
0.831875 -1.700723 2.431742 75 106 122 255
0.831875 -1.460403 2.302339 75 106 122 255
-0.831875 -1.460403 2.302339 75 106 122 255
-0.831875 -1.700723 2.431742 75 106 122 255
0.831875 -1.848612 2.672061 75 106 122 255
-0.831875 -1.848612 2.672061 75 106 122 255
0.647014 -1.885584 2.746006 75 106 122 255
0.480639 -1.756181 2.579631 75 106 122 255
-0.480639 -1.756181 2.579631 75 106 122 255
-0.647014 -1.885584 2.746006 75 106 122 255
0.369722 -1.534348 2.487200 75 106 122 255
-0.369722 -1.534348 2.487200 75 106 122 255
0.332750 -1.756181 2.930867 75 106 122 255
0.184861 -1.552834 2.930867 75 106 122 255
-0.184861 -1.552834 2.930867 75 106 122 255
-0.332750 -1.756181 2.930867 75 106 122 255
0.573070 -1.885584 2.930867 75 106 122 255
-0.573070 -1.885584 2.930867 75 106 122 255
0.647014 -1.885584 3.134214 75 106 122 255
0.480639 -1.756181 3.282103 75 106 122 255
-0.480639 -1.756181 3.282103 75 106 122 255
-0.647014 -1.885584 3.134214 75 106 122 255
0.369722 -1.534348 3.393020 75 106 122 255
-0.369722 -1.534348 3.393020 75 106 122 255
0.831875 -1.700723 3.429992 75 106 122 255
0.831875 -1.460403 3.577881 75 106 122 255
-0.831875 -1.460403 3.577881 75 106 122 255
-0.831875 -1.700723 3.429992 75 106 122 255
0.831875 -1.848612 3.208158 75 106 122 255
-0.831875 -1.848612 3.208158 75 106 122 255
1.035223 -1.811640 3.134214 75 106 122 255
1.183112 -1.626778 3.282103 75 106 122 255
-1.183112 -1.626778 3.282103 75 106 122 255
-1.035223 -1.811640 3.134214 75 106 122 255
1.294028 -1.367973 3.393020 75 106 122 255
-1.294028 -1.367973 3.393020 75 106 122 255
1.053709 -1.848612 3.152700 75 106 122 255
1.127653 -1.830126 2.930867 75 106 122 255
-1.053709 -1.848612 3.152700 75 106 122 255
-1.127653 -1.830126 2.930867 75 106 122 255
0.831875 -1.904070 3.245131 75 106 122 255
-0.831875 -1.904070 3.245131 75 106 122 255
0.628528 -1.941042 3.152700 75 106 122 255
-0.628528 -1.941042 3.152700 75 106 122 255
0.536097 -1.941042 2.930867 75 106 122 255
-0.536097 -1.941042 2.930867 75 106 122 255
0.628528 -1.941042 2.727520 75 106 122 255
-0.628528 -1.941042 2.727520 75 106 122 255
0.831875 -1.904070 2.635089 75 106 122 255
-0.831875 -1.904070 2.635089 75 106 122 255
1.053709 -1.848612 2.727520 75 106 122 255
-1.053709 -1.848612 2.727520 75 106 122 255
0.831875 -1.959528 2.930867 75 106 122 255
-0.831875 -1.959528 2.930867 75 106 122 255
0.425181 -1.312514 0.065519 75 106 122 255
0.388208 -1.497376 0.157949 75 106 122 255
0.000000 -1.515862 0.120977 75 106 122 255
0.000000 -1.367973 0.028546 75 106 122 255
-0.388208 -1.497376 0.157949 75 106 122 255
-0.425181 -1.312514 0.065519 75 106 122 255
0.776417 -1.238570 0.120977 75 106 122 255
0.554584 -1.497376 0.194921 75 106 122 255
-0.554584 -1.497376 0.194921 75 106 122 255
-0.776417 -1.238570 0.120977 75 106 122 255
0.868848 -1.257056 0.250380 75 106 122 255
0.628528 -1.571320 0.416755 75 106 122 255
-0.628528 -1.571320 0.416755 75 106 122 255
-0.868848 -1.257056 0.250380 75 106 122 255
0.831875 -1.349487 0.712533 75 106 122 255
0.591556 -1.626778 0.694046 75 106 122 255
-0.591556 -1.626778 0.694046 75 106 122 255
-0.831875 -1.349487 0.712533 75 106 122 255
0.739445 -1.349487 1.322574 75 106 122 255
0.499125 -1.682237 1.304088 75 106 122 255
-0.499125 -1.682237 1.304088 75 106 122 255
-0.739445 -1.349487 1.322574 75 106 122 255
0.480639 -1.331000 1.914130 75 106 122 255
1.035223 -1.257056 2.025047 75 106 122 255
0.942792 -1.589806 2.246881 75 106 122 255
0.295778 -1.922556 2.117478 75 106 122 255
-0.942792 -1.589806 2.246881 75 106 122 255
-1.035223 -1.257056 2.025047 75 106 122 255
-0.480639 -1.331000 1.914130 75 106 122 255
-0.295778 -1.922556 2.117478 75 106 122 255
1.497376 -1.275542 2.265367 75 106 122 255
1.460403 -1.478889 2.487200 75 106 122 255
-1.460403 -1.478889 2.487200 75 106 122 255
-1.497376 -1.275542 2.265367 75 106 122 255
1.959528 -1.053709 2.709033 75 106 122 255
1.719209 -1.423431 2.838436 75 106 122 255
-1.719209 -1.423431 2.838436 75 106 122 255
-1.959528 -1.053709 2.709033 75 106 122 255
2.033473 -1.404945 3.374534 75 106 122 255
1.756181 -1.552834 3.245131 75 106 122 255
-1.756181 -1.552834 3.245131 75 106 122 255
-2.033473 -1.404945 3.374534 75 106 122 255
1.682237 -1.478889 3.503936 75 106 122 255
1.626778 -1.719209 3.337561 75 106 122 255
-1.626778 -1.719209 3.337561 75 106 122 255
-1.682237 -1.478889 3.503936 75 106 122 255
1.164625 -1.626778 3.781228 75 106 122 255
1.035223 -1.885584 3.651825 75 106 122 255
-1.035223 -1.885584 3.651825 75 106 122 255
-1.164625 -1.626778 3.781228 75 106 122 255
0.757931 -1.737695 4.150950 75 106 122 255
0.739445 -1.978015 3.873659 75 106 122 255
-0.739445 -1.978015 3.873659 75 106 122 255
-0.757931 -1.737695 4.150950 75 106 122 255
0.369722 -1.793153 4.058520 75 106 122 255
0.480639 -2.014987 3.818201 75 106 122 255
-0.480639 -2.014987 3.818201 75 106 122 255
-0.369722 -1.793153 4.058520 75 106 122 255
0.147889 -1.774667 3.522423 75 106 122 255
0.240320 -1.996501 3.374534 75 106 122 255
-0.240320 -1.996501 3.374534 75 106 122 255
-0.147889 -1.774667 3.522423 75 106 122 255
0.000000 -1.756181 3.374534 75 106 122 255
0.000000 -1.941042 3.189672 75 106 122 255
0.388208 -1.830126 3.337561 75 106 122 255
0.591556 -1.793153 3.466964 75 106 122 255
-0.591556 -1.793153 3.466964 75 106 122 255
-0.388208 -1.830126 3.337561 75 106 122 255
0.776417 -1.756181 3.485450 75 106 122 255
-0.776417 -1.756181 3.485450 75 106 122 255
1.016737 -1.700723 3.393020 75 106 122 255
-1.016737 -1.700723 3.393020 75 106 122 255
1.423431 -1.571320 3.245131 75 106 122 255
-1.423431 -1.571320 3.245131 75 106 122 255
1.515862 -1.534348 3.060270 75 106 122 255
-1.515862 -1.534348 3.060270 75 106 122 255
1.478889 -1.534348 2.801464 75 106 122 255
-1.478889 -1.534348 2.801464 75 106 122 255
1.164625 -1.589806 2.505686 75 106 122 255
-1.164625 -1.589806 2.505686 75 106 122 255
0.887334 -1.663751 2.394769 75 106 122 255
-0.887334 -1.663751 2.394769 75 106 122 255
0.480639 -1.756181 2.579631 75 106 122 255
-0.480639 -1.756181 2.579631 75 106 122 255
0.388208 -1.774667 2.690547 75 106 122 255
0.000000 -1.719209 2.468714 75 106 122 255
-0.388208 -1.774667 2.690547 75 106 122 255
0.295778 -1.811640 3.078756 75 106 122 255
-0.295778 -1.811640 3.078756 75 106 122 255
0.000000 -1.811640 2.856922 75 106 122 255
0.314264 -1.793153 2.856922 75 106 122 255
-0.314264 -1.793153 2.856922 75 106 122 255
0.147889 -1.645265 0.268866 75 106 122 255
0.000000 -1.626778 0.250380 75 106 122 255
-0.147889 -1.645265 0.268866 75 106 122 255
0.277292 -1.682237 0.379783 75 106 122 255
-0.277292 -1.682237 0.379783 75 106 122 255
0.258806 -1.737695 0.657074 75 106 122 255
-0.258806 -1.737695 0.657074 75 106 122 255
0.184861 -1.774667 1.304088 75 106 122 255
0.277292 -1.737695 0.731019 75 106 122 255
-0.277292 -1.737695 0.731019 75 106 122 255
-0.184861 -1.774667 1.304088 75 106 122 255
0.203347 -1.756181 1.673811 75 106 122 255
0.000000 -1.756181 1.581380 75 106 122 255
0.000000 -1.774667 1.304088 75 106 122 255
-0.203347 -1.756181 1.673811 75 106 122 255
0.000000 -1.737695 0.749505 75 106 122 255
0.000000 -1.737695 0.546158 75 106 122 255
0.295778 -1.774667 1.821700 75 106 122 255
0.314264 -1.885584 1.821700 75 106 122 255
0.221833 -1.848612 1.710783 75 106 122 255
-0.221833 -1.848612 1.710783 75 106 122 255
-0.314264 -1.885584 1.821700 75 106 122 255
-0.295778 -1.774667 1.821700 75 106 122 255
0.240320 -1.756181 2.006561 75 106 122 255
0.258806 -1.848612 2.043533 75 106 122 255
-0.258806 -1.848612 2.043533 75 106 122 255
-0.240320 -1.756181 2.006561 75 106 122 255
0.000000 -1.756181 2.025047 75 106 122 255
0.092431 -1.848612 2.062019 75 106 122 255
-0.092431 -1.848612 2.062019 75 106 122 255
0.000000 -1.774667 1.895644 75 106 122 255
0.000000 -1.885584 1.914130 75 106 122 255
0.000000 -1.848612 1.599866 75 106 122 255
0.184861 -1.904070 1.766241 75 106 122 255
0.000000 -1.904070 1.673811 75 106 122 255
-0.184861 -1.904070 1.766241 75 106 122 255
0.000000 -1.959528 1.877158 75 106 122 255
0.110917 -1.922556 2.006561 75 106 122 255
-0.110917 -1.922556 2.006561 75 106 122 255
0.221833 -1.922556 1.988075 75 106 122 255
-0.221833 -1.922556 1.988075 75 106 122 255
0.258806 -1.959528 1.821700 75 106 122 255
-0.258806 -1.959528 1.821700 75 106 122 255
0.388208 -1.682237 1.784728 75 106 122 255
-0.388208 -1.682237 1.784728 75 106 122 255
0.425181 -1.682237 1.618352 75 106 122 255
-0.425181 -1.682237 1.618352 75 106 122 255
0.610042 -1.312514 1.618352 75 106 122 255
-0.610042 -1.312514 1.618352 75 106 122 255
0.554584 -1.312514 1.766241 75 106 122 255
-0.554584 -1.312514 1.766241 75 106 122 255
0.000000 -1.700723 0.527671 75 106 122 255
0.221833 -1.719209 0.601616 75 106 122 255
-0.221833 -1.719209 0.601616 75 106 122 255
0.221833 -1.682237 0.416755 75 106 122 255
-0.221833 -1.682237 0.416755 75 106 122 255
0.110917 -1.626778 0.305838 75 106 122 255
-0.110917 -1.626778 0.305838 75 106 122 255
0.000000 -1.626778 0.287352 75 106 122 255
0.110917 -1.497376 0.342810 75 106 122 255
0.000000 -1.497376 0.324324 75 106 122 255
-0.110917 -1.497376 0.342810 75 106 122 255
0.221833 -1.515862 0.435241 75 106 122 255
-0.221833 -1.515862 0.435241 75 106 122 255
0.221833 -1.571320 0.583130 75 106 122 255
-0.221833 -1.571320 0.583130 75 106 122 255
0.000000 -1.552834 0.509185 75 106 122 255
0.443667 -1.830126 2.727520 75 106 122 255
0.406695 -1.848612 2.875408 75 106 122 255
-0.443667 -1.830126 2.727520 75 106 122 255
-0.406695 -1.848612 2.875408 75 106 122 255
0.425181 -1.848612 3.060270 75 106 122 255
-0.425181 -1.848612 3.060270 75 106 122 255
0.499125 -1.848612 3.245131 75 106 122 255
-0.499125 -1.848612 3.245131 75 106 122 255
0.536097 -1.848612 2.616603 75 106 122 255
-0.536097 -1.848612 2.616603 75 106 122 255
0.887334 -1.756181 2.505686 75 106 122 255
-0.887334 -1.756181 2.505686 75 106 122 255
1.127653 -1.700723 2.598117 75 106 122 255
-1.127653 -1.700723 2.598117 75 106 122 255
1.367973 -1.608292 2.819950 75 106 122 255
-1.367973 -1.608292 2.819950 75 106 122 255
1.386459 -1.626778 3.041784 75 106 122 255
-1.386459 -1.626778 3.041784 75 106 122 255
1.331000 -1.645265 3.189672 75 106 122 255
-1.331000 -1.645265 3.189672 75 106 122 255
0.998250 -1.830126 3.300589 75 106 122 255
-0.998250 -1.830126 3.300589 75 106 122 255
0.794903 -1.793153 3.374534 75 106 122 255
-0.794903 -1.793153 3.374534 75 106 122 255
0.647014 -1.830126 3.356048 75 106 122 255
-0.647014 -1.830126 3.356048 75 106 122 255
0.554584 -1.793153 3.208158 75 106 122 255
0.665500 -1.811640 3.300589 75 106 122 255
-0.554584 -1.793153 3.208158 75 106 122 255
-0.665500 -1.811640 3.300589 75 106 122 255
0.794903 -1.774667 3.319075 75 106 122 255
-0.794903 -1.774667 3.319075 75 106 122 255
0.979764 -1.774667 3.282103 75 106 122 255
-0.979764 -1.774667 3.282103 75 106 122 255
1.257056 -1.608292 3.152700 75 106 122 255
-1.257056 -1.608292 3.152700 75 106 122 255
1.312514 -1.589806 3.023297 75 106 122 255
-1.312514 -1.589806 3.023297 75 106 122 255
1.294028 -1.589806 2.856922 75 106 122 255
-1.294028 -1.589806 2.856922 75 106 122 255
1.090681 -1.663751 2.635089 75 106 122 255
-1.090681 -1.663751 2.635089 75 106 122 255
0.887334 -1.719209 2.561144 75 106 122 255
-0.887334 -1.719209 2.561144 75 106 122 255
0.573070 -1.793153 2.653575 75 106 122 255
-0.573070 -1.793153 2.653575 75 106 122 255
0.480639 -1.774667 2.764492 75 106 122 255
-0.480639 -1.774667 2.764492 75 106 122 255
0.462153 -1.793153 3.060270 75 106 122 255
-0.462153 -1.793153 3.060270 75 106 122 255
0.462153 -1.774667 2.893895 75 106 122 255
-0.462153 -1.774667 2.893895 75 106 122 255
0.258806 -1.441917 3.448478 75 106 122 255
0.000000 -1.423431 3.319075 75 106 122 255
-0.258806 -1.441917 3.448478 75 106 122 255
0.462153 -1.460403 3.929117 75 106 122 255
-0.462153 -1.460403 3.929117 75 106 122 255
0.794903 -1.404945 3.984576 75 106 122 255
-0.794903 -1.404945 3.984576 75 106 122 255
1.146139 -1.312514 3.670311 75 106 122 255
-1.146139 -1.312514 3.670311 75 106 122 255
1.608292 -1.164625 3.429992 75 106 122 255
-1.608292 -1.164625 3.429992 75 106 122 255
1.885584 -1.090681 3.319075 75 106 122 255
-1.885584 -1.090681 3.319075 75 106 122 255
1.830126 -0.887334 2.746006 75 106 122 255
-1.830126 -0.887334 2.746006 75 106 122 255
1.423431 -0.979764 2.357797 75 106 122 255
-1.423431 -0.979764 2.357797 75 106 122 255
1.035223 -1.109167 2.135964 75 106 122 255
-1.035223 -1.109167 2.135964 75 106 122 255
0.000000 -0.757931 1.008311 75 106 122 255
0.000000 -0.665500 1.211658 75 106 122 255
0.425181 -0.610042 1.378033 75 106 122 255
0.295778 -0.850361 1.082255 75 106 122 255
-0.425181 -0.610042 1.378033 75 106 122 255
-0.295778 -0.850361 1.082255 75 106 122 255
0.000000 -0.813389 0.453727 75 106 122 255
0.332750 -0.868848 0.564644 75 106 122 255
-0.332750 -0.868848 0.564644 75 106 122 255
0.000000 -1.090681 0.047032 75 106 122 255
0.388208 -1.035223 0.120977 75 106 122 255
-0.388208 -1.035223 0.120977 75 106 122 255
0.776417 -0.942792 0.194921 75 106 122 255
-0.776417 -0.942792 0.194921 75 106 122 255
0.683986 -0.905820 0.675560 75 106 122 255
-0.683986 -0.905820 0.675560 75 106 122 255
0.591556 -0.924306 1.174686 75 106 122 255
-0.591556 -0.924306 1.174686 75 106 122 255
0.554584 -0.961278 1.525922 75 106 122 255
-0.554584 -0.961278 1.525922 75 106 122 255
0.517611 -1.016737 1.692297 75 106 122 255
0.499125 -1.109167 1.821700 75 106 122 255
-0.499125 -1.109167 1.821700 75 106 122 255
-0.517611 -1.016737 1.692297 75 106 122 255
0.480639 -1.183112 1.951102 75 106 122 255
-0.480639 -1.183112 1.951102 75 106 122 255
0.000000 1.959528 2.524172 75 106 122 255
0.794903 1.571320 2.487200 75 106 122 255
0.813389 1.275542 2.006561 75 106 122 255
0.000000 1.589806 1.895644 75 106 122 255
-0.813389 1.275542 2.006561 75 106 122 255
-0.794903 1.571320 2.487200 75 106 122 255
0.702473 0.628528 1.618352 75 106 122 255
0.000000 0.831875 1.451977 75 106 122 255
-0.702473 0.628528 1.618352 75 106 122 255
0.499125 -0.388208 1.433491 75 106 122 255
0.000000 -0.443667 1.267116 75 106 122 255
-0.499125 -0.388208 1.433491 75 106 122 255
1.737695 -0.166375 2.246881 75 106 122 255
2.014987 -0.129403 2.912381 75 106 122 255
-1.737695 -0.166375 2.246881 75 106 122 255
-2.014987 -0.129403 2.912381 75 106 122 255
0.000000 2.014987 3.688797 75 106 122 255
1.090681 1.663751 3.393020 75 106 122 255
-1.090681 1.663751 3.393020 75 106 122 255
0.000000 -0.683986 4.483701 75 106 122 255
1.072195 -0.554584 4.372784 75 106 122 255
1.072195 0.166375 4.557645 75 106 122 255
0.000000 0.184861 4.687048 75 106 122 255
-1.072195 0.166375 4.557645 75 106 122 255
-1.072195 -0.554584 4.372784 75 106 122 255
1.072195 0.905820 4.409756 75 106 122 255
0.000000 1.294028 4.483701 75 106 122 255
-1.072195 0.905820 4.409756 75 106 122 255
1.719209 -0.794903 3.319075 75 106 122 255
1.497376 -0.665500 3.429992 75 106 122 255
-1.719209 -0.794903 3.319075 75 106 122 255
-1.497376 -0.665500 3.429992 75 106 122 255
1.885584 -0.295778 3.688797 75 106 122 255
1.515862 -0.129403 4.021548 75 106 122 255
-1.885584 -0.295778 3.688797 75 106 122 255
-1.515862 -0.129403 4.021548 75 106 122 255
1.885584 0.277292 3.818201 75 106 122 255
1.515862 0.462153 4.132464 75 106 122 255
-1.885584 0.277292 3.818201 75 106 122 255
-1.515862 0.462153 4.132464 75 106 122 255
1.885584 0.850361 3.633339 75 106 122 255
1.515862 1.053709 3.966089 75 106 122 255
-1.885584 0.850361 3.633339 75 106 122 255
-1.515862 1.053709 3.966089 75 106 122 255
1.830126 1.035223 2.986325 75 106 122 255
1.460403 1.386459 3.134214 75 106 122 255
-1.460403 1.386459 3.134214 75 106 122 255
-1.830126 1.035223 2.986325 75 106 122 255
1.090681 -1.016737 3.596367 75 106 122 255
-1.090681 -1.016737 3.596367 75 106 122 255
0.000000 -1.349487 3.707284 75 106 122 255
2.033473 0.110917 3.115728 75 106 122 255
-2.033473 0.110917 3.115728 75 106 122 255
1.941042 0.480639 3.134214 75 106 122 255
-1.941042 0.480639 3.134214 75 106 122 255
1.016737 0.499125 1.895644 75 106 122 255
0.961278 -0.351236 1.951102 75 106 122 255
-1.016737 0.499125 1.895644 75 106 122 255
-0.961278 -0.351236 1.951102 75 106 122 255
1.404945 0.388208 2.062019 75 106 122 255
-1.404945 0.388208 2.062019 75 106 122 255
1.515862 1.016737 2.339311 75 106 122 255
1.146139 1.294028 2.413255 75 106 122 255
-1.146139 1.294028 2.413255 75 106 122 255
-1.515862 1.016737 2.339311 75 106 122 255
2.421681 0.739445 3.485450 75 106 122 255
2.107417 0.554584 3.319075 75 106 122 255
2.181362 0.517611 3.208158 75 106 122 255
2.403195 0.683986 3.337561 75 106 122 255
-2.181362 0.517611 3.208158 75 106 122 255
-2.107417 0.554584 3.319075 75 106 122 255
-2.421681 0.739445 3.485450 75 106 122 255
-2.403195 0.683986 3.337561 75 106 122 255
2.809890 0.924306 3.393020 75 106 122 255
2.920807 0.998250 3.559395 75 106 122 255
-2.809890 0.924306 3.393020 75 106 122 255
-2.920807 0.998250 3.559395 75 106 122 255
2.994751 0.961278 3.041784 75 106 122 255
3.198098 0.998250 3.115728 75 106 122 255
-2.994751 0.961278 3.041784 75 106 122 255
-3.198098 0.998250 3.115728 75 106 122 255
2.865348 0.961278 2.542658 75 106 122 255
3.031723 1.016737 2.487200 75 106 122 255
-2.865348 0.961278 2.542658 75 106 122 255
-3.031723 1.016737 2.487200 75 106 122 255
2.440168 0.720959 2.265367 75 106 122 255
2.458654 0.776417 2.117478 75 106 122 255
-2.440168 0.720959 2.265367 75 106 122 255
-2.458654 0.776417 2.117478 75 106 122 255
1.959528 0.314264 2.191422 75 106 122 255
1.830126 0.295778 2.025047 75 106 122 255
-1.959528 0.314264 2.191422 75 106 122 255
-1.830126 0.295778 2.025047 75 106 122 255
2.458654 0.868848 2.357797 75 106 122 255
2.088931 0.499125 2.302339 75 106 122 255
-2.088931 0.499125 2.302339 75 106 122 255
-2.458654 0.868848 2.357797 75 106 122 255
2.809890 1.053709 2.579631 75 106 122 255
-2.809890 1.053709 2.579631 75 106 122 255
2.920807 1.053709 2.949353 75 106 122 255
-2.920807 1.053709 2.949353 75 106 122 255
2.772918 1.035223 3.208158 75 106 122 255
-2.772918 1.035223 3.208158 75 106 122 255
2.421681 0.850361 3.171186 75 106 122 255
-2.421681 0.850361 3.171186 75 106 122 255
2.236820 0.683986 3.078756 75 106 122 255
-2.236820 0.683986 3.078756 75 106 122 255
1.700723 0.406695 2.302339 75 106 122 255
1.719209 0.166375 2.357797 75 106 122 255
-1.700723 0.406695 2.302339 75 106 122 255
-1.719209 0.166375 2.357797 75 106 122 255
1.996501 0.499125 3.041784 75 106 122 255
-1.996501 0.499125 3.041784 75 106 122 255
1.922556 0.647014 2.320825 75 106 122 255
-1.922556 0.647014 2.320825 75 106 122 255
1.996501 0.647014 2.394769 75 106 122 255
1.700723 0.443667 2.450228 75 106 122 255
-1.700723 0.443667 2.450228 75 106 122 255
-1.996501 0.647014 2.394769 75 106 122 255
1.793153 0.647014 2.579631 75 106 122 255
1.941042 0.647014 2.561144 75 106 122 255
-1.793153 0.647014 2.579631 75 106 122 255
-1.941042 0.647014 2.561144 75 106 122 255
1.978015 0.647014 2.764492 75 106 122 255
1.885584 0.499125 2.838436 75 106 122 255
-1.885584 0.499125 2.838436 75 106 122 255
-1.978015 0.647014 2.764492 75 106 122 255
2.107417 0.628528 2.930867 75 106 122 255
-2.107417 0.628528 2.930867 75 106 122 255
2.107417 0.757931 2.912381 75 106 122 255
2.255306 0.813389 3.041784 75 106 122 255
-2.107417 0.757931 2.912381 75 106 122 255
-2.255306 0.813389 3.041784 75 106 122 255
1.996501 0.757931 2.764492 75 106 122 255
-1.996501 0.757931 2.764492 75 106 122 255
1.811640 0.757931 2.579631 75 106 122 255
-1.811640 0.757931 2.579631 75 106 122 255
1.959528 0.757931 2.542658 75 106 122 255
-1.959528 0.757931 2.542658 75 106 122 255
2.014987 0.757931 2.394769 75 106 122 255
-2.014987 0.757931 2.394769 75 106 122 255
1.922556 0.757931 2.320825 75 106 122 255
-1.922556 0.757931 2.320825 75 106 122 255
2.088931 0.628528 2.320825 75 106 122 255
-2.088931 0.628528 2.320825 75 106 122 255
2.458654 0.979764 3.134214 75 106 122 255
-2.458654 0.979764 3.134214 75 106 122 255
2.809890 1.146139 3.171186 75 106 122 255
-2.809890 1.146139 3.171186 75 106 122 255
2.976265 1.164625 2.930867 75 106 122 255
-2.976265 1.164625 2.930867 75 106 122 255
2.865348 1.146139 2.561144 75 106 122 255
-2.865348 1.146139 2.561144 75 106 122 255
2.477140 0.998250 2.357797 75 106 122 255
-2.477140 0.998250 2.357797 75 106 122 255
2.218334 0.794903 2.505686 75 106 122 255
2.107417 0.776417 2.616603 75 106 122 255
-2.218334 0.794903 2.505686 75 106 122 255
-2.107417 0.776417 2.616603 75 106 122 255
2.366223 0.868848 2.653575 75 106 122 255
2.273793 0.831875 2.764492 75 106 122 255
-2.366223 0.868848 2.653575 75 106 122 255
-2.273793 0.831875 2.764492 75 106 122 255
2.495626 0.905820 2.801464 75 106 122 255
2.403195 0.887334 2.912381 75 106 122 255
-2.495626 0.905820 2.801464 75 106 122 255
-2.403195 0.887334 2.912381 75 106 122 255
2.625029 0.924306 2.856922 75 106 122 255
2.569570 0.924306 3.004811 75 106 122 255
-2.625029 0.924306 2.856922 75 106 122 255
-2.569570 0.924306 3.004811 75 106 122 255
1.867098 0.776417 2.062019 75 106 122 255
2.458654 1.164625 2.154450 75 106 122 255
-1.867098 0.776417 2.062019 75 106 122 255
-2.458654 1.164625 2.154450 75 106 122 255
3.105668 1.257056 2.487200 75 106 122 255
-3.105668 1.257056 2.487200 75 106 122 255
3.235071 1.183112 3.060270 75 106 122 255
-3.235071 1.183112 3.060270 75 106 122 255
2.957779 1.294028 3.466964 75 106 122 255
-2.957779 1.294028 3.466964 75 106 122 255
2.421681 1.146139 3.393020 75 106 122 255
-2.421681 1.146139 3.393020 75 106 122 255
2.033473 0.905820 3.263617 75 106 122 255
-2.033473 0.905820 3.263617 75 106 122 255
3 0 1 2
3 0 2 3
3 4 5 6
3 4 6 7
3 3 2 8
3 3 8 9
3 10 4 7
3 10 7 11
3 2 12 13
3 2 13 8
3 14 15 4
3 14 4 10
3 1 16 12
3 1 12 2
3 15 17 5
3 15 5 4
3 16 18 19
3 16 19 12
3 20 21 17
3 20 17 15
3 12 19 22
3 12 22 13
3 23 20 15
3 23 15 14
3 19 24 25
3 19 25 22
3 26 27 20
3 26 20 23
3 18 28 24
3 18 24 19
3 27 29 21
3 27 21 20
3 28 30 31
3 28 31 24
3 32 33 29
3 32 29 27
3 24 31 34
3 24 34 25
3 35 32 27
3 35 27 26
3 31 36 37
3 31 37 34
3 38 39 32
3 38 32 35
3 30 40 36
3 30 36 31
3 39 41 33
3 39 33 32
3 40 42 43
3 40 43 36
3 44 45 41
3 44 41 39
3 36 43 46
3 36 46 37
3 47 44 39
3 47 39 38
3 43 3 9
3 43 9 46
3 11 7 44
3 11 44 47
3 42 0 3
3 42 3 43
3 7 6 45
3 7 45 44
3 0 42 48
3 0 48 49
3 50 45 6
3 50 6 51
3 42 40 52
3 42 52 48
3 53 41 45
3 53 45 50
3 40 30 54
3 40 54 52
3 55 33 41
3 55 41 53
3 30 28 56
3 30 56 54
3 57 29 33
3 57 33 55
3 28 18 58
3 28 58 56
3 59 21 29
3 59 29 57
3 18 16 60
3 18 60 58
3 61 17 21
3 61 21 59
3 16 1 62
3 16 62 60
3 63 5 17
3 63 17 61
3 1 0 49
3 1 49 62
3 51 6 5
3 51 5 63
3 64 62 49
3 51 63 65
3 60 62 64
3 65 63 61
3 64 58 60
3 61 59 65
3 64 56 58
3 59 57 65
3 64 54 56
3 57 55 65
3 64 52 54
3 55 53 65
3 64 48 52
3 53 50 65
3 64 49 48
3 50 51 65
3 66 67 68
3 66 68 69
3 68 70 71
3 68 71 69
3 72 73 67
3 72 67 66
3 70 74 75
3 70 75 71
3 76 77 73
3 76 73 72
3 74 78 79
3 74 79 75
3 80 81 77
3 80 77 76
3 78 82 83
3 78 83 79
3 84 85 81
3 84 81 80
3 82 86 87
3 82 87 83
3 88 89 90
3 88 90 91
3 92 93 94
3 92 94 95
3 89 96 97
3 89 97 90
3 98 99 93
3 98 93 92
3 96 100 101
3 96 101 97
3 102 103 99
3 102 99 98
3 100 104 105
3 100 105 101
3 106 107 103
3 106 103 102
3 104 108 109
3 104 109 105
3 110 111 107
3 110 107 106
3 108 112 113
3 108 113 109
3 114 115 111
3 114 111 110
3 112 116 117
3 112 117 113
3 118 119 115
3 118 115 114
3 116 120 121
3 116 121 117
3 122 123 119
3 122 119 118
3 120 124 125
3 120 125 121
3 126 127 123
3 126 123 122
3 124 128 129
3 124 129 125
3 129 128 127
3 129 127 126
3 130 131 121
3 130 121 125
3 122 132 133
3 122 133 126
3 131 134 117
3 131 117 121
3 118 135 132
3 118 132 122
3 136 113 117
3 136 117 134
3 118 114 137
3 118 137 135
3 138 109 113
3 138 113 136
3 114 110 139
3 114 139 137
3 140 105 109
3 140 109 138
3 110 106 141
3 110 141 139
3 142 101 105
3 142 105 140
3 106 102 143
3 106 143 141
3 144 97 101
3 144 101 142
3 102 98 145
3 102 145 143
3 146 90 97
3 146 97 144
3 98 92 147
3 98 147 145
3 148 91 90
3 148 90 146
3 92 95 149
3 92 149 147
3 148 150 151
3 148 151 91
3 151 152 149
3 151 149 95
3 130 125 129
3 130 129 153
3 129 126 133
3 129 133 154
3 153 129 155
3 153 155 156
3 155 129 154
3 155 154 157
3 151 150 156
3 151 156 155
3 157 152 151
3 157 151 155
3 158 159 68
3 158 68 67
3 68 159 160
3 68 160 70
3 161 158 67
3 161 67 73
3 70 160 162
3 70 162 74
3 163 161 73
3 163 73 77
3 74 162 164
3 74 164 78
3 85 165 166
3 85 166 81
3 167 168 86
3 167 86 82
3 163 77 81
3 163 81 166
3 82 78 164
3 82 164 167
3 169 170 171
3 169 171 165
3 171 170 172
3 171 172 168
3 166 165 171
3 166 171 173
3 171 168 167
3 171 167 173
3 174 163 166
3 174 166 173
3 167 164 174
3 167 174 173
3 175 176 177
3 175 177 169
3 178 179 180
3 178 180 172
3 181 182 176
3 181 176 175
3 179 183 184
3 179 184 180
3 185 186 182
3 185 182 181
3 183 187 185
3 183 185 184
3 188 189 186
3 188 186 185
3 187 189 188
3 187 188 185
3 170 169 177
3 170 177 190
3 178 172 170
3 178 170 190
3 190 177 191
3 190 191 192
3 193 178 190
3 193 190 192
3 189 194 195
3 189 195 186
3 196 194 189
3 196 189 187
3 186 195 197
3 186 197 182
3 198 196 187
3 198 187 183
3 182 197 199
3 182 199 176
3 200 198 183
3 200 183 179
3 176 199 191
3 176 191 177
3 193 200 179
3 193 179 178
3 194 199 197
3 194 197 195
3 198 200 194
3 198 194 196
3 194 192 191
3 194 191 199
3 193 192 194
3 193 194 200
3 185 181 91
3 185 91 151
3 95 184 185
3 95 185 151
3 181 175 91
3 175 201 91
3 202 180 95
3 180 184 95
3 175 169 203
3 175 203 201
3 204 172 180
3 204 180 202
3 169 165 85
3 169 85 203
3 86 168 172
3 86 172 204
3 84 205 203
3 84 203 85
3 204 206 87
3 204 87 86
3 205 207 201
3 205 201 203
3 202 208 206
3 202 206 204
3 88 91 201
3 88 201 207
3 202 95 94
3 202 94 208
3 163 174 209
3 163 209 210
3 209 174 164
3 209 164 211
3 161 163 210
3 161 210 212
3 211 164 162
3 211 162 213
3 158 161 212
3 158 212 214
3 213 162 160
3 213 160 215
3 159 158 214
3 159 214 216
3 215 160 159
3 215 159 216
3 216 214 217
3 216 217 218
3 219 215 216
3 219 216 218
3 214 212 220
3 214 220 217
3 221 213 215
3 221 215 219
3 212 210 222
3 212 222 220
3 223 211 213
3 223 213 221
3 210 209 224
3 210 224 222
3 224 209 211
3 224 211 223
3 224 218 217
3 224 217 222
3 219 218 224
3 219 224 223
3 222 217 220
3 221 219 223
3 156 150 225
3 156 225 226
3 227 152 157
3 227 157 228
3 153 156 226
3 153 226 229
3 228 157 154
3 228 154 230
3 130 153 229
3 130 229 231
3 230 154 133
3 230 133 232
3 150 148 233
3 150 233 225
3 234 149 152
3 234 152 227
3 148 146 235
3 148 235 233
3 236 147 149
3 236 149 234
3 146 144 237
3 146 237 235
3 238 145 147
3 238 147 236
3 144 142 239
3 144 239 237
3 240 143 145
3 240 145 238
3 142 140 241
3 142 241 239
3 242 141 143
3 242 143 240
3 140 138 243
3 140 243 241
3 244 139 141
3 244 141 242
3 138 136 245
3 138 245 243
3 246 137 139
3 246 139 244
3 136 134 247
3 136 247 245
3 248 135 137
3 248 137 246
3 134 131 249
3 134 249 247
3 250 132 135
3 250 135 248
3 131 130 231
3 131 231 249
3 232 133 132
3 232 132 250
3 249 231 251
3 249 251 252
3 253 232 250
3 253 250 254
3 247 249 252
3 247 252 255
3 254 250 248
3 254 248 256
3 245 247 255
3 245 255 257
3 256 248 246
3 256 246 258
3 243 245 257
3 243 257 259
3 258 246 244
3 258 244 260
3 241 243 259
3 241 259 261
3 260 244 242
3 260 242 262
3 239 241 261
3 239 261 263
3 262 242 240
3 262 240 264
3 237 239 263
3 237 263 265
3 264 240 238
3 264 238 266
3 235 237 265
3 235 265 267
3 266 238 236
3 266 236 268
3 233 235 267
3 233 267 269
3 268 236 234
3 268 234 270
3 225 233 269
3 225 269 271
3 270 234 227
3 270 227 272
3 231 229 273
3 231 273 251
3 274 230 232
3 274 232 253
3 229 226 275
3 229 275 273
3 276 228 230
3 276 230 274
3 226 225 271
3 226 271 275
3 272 227 228
3 272 228 276
3 128 124 277
3 128 277 278
3 279 127 128
3 279 128 278
3 124 120 280
3 124 280 277
3 281 123 127
3 281 127 279
3 120 116 282
3 120 282 280
3 283 119 123
3 283 123 281
3 116 112 284
3 116 284 282
3 285 115 119
3 285 119 283
3 112 108 286
3 112 286 284
3 287 111 115
3 287 115 285
3 108 104 288
3 108 288 286
3 289 107 111
3 289 111 287
3 104 100 290
3 104 290 288
3 291 103 107
3 291 107 289
3 100 96 292
3 100 292 290
3 293 99 103
3 293 103 291
3 96 89 294
3 96 294 292
3 295 93 99
3 295 99 293
3 296 297 298
3 296 298 299
3 300 297 296
3 300 296 301
3 302 296 299
3 302 299 303
3 301 296 302
3 301 302 304
3 305 302 303
3 305 303 306
3 304 302 305
3 304 305 307
3 66 69 305
3 66 305 306
3 305 69 71
3 305 71 307
3 72 66 306
3 72 306 308
3 307 71 75
3 307 75 309
3 76 72 308
3 76 308 310
3 309 75 79
3 309 79 311
3 80 76 310
3 80 310 312
3 311 79 83
3 311 83 313
3 310 303 299
3 310 299 312
3 301 304 311
3 301 311 313
3 310 308 306
3 310 306 303
3 307 309 311
3 307 311 304
3 314 312 299
3 314 299 298
3 301 313 315
3 301 315 300
3 84 80 312
3 84 312 314
3 313 83 87
3 313 87 315
3 205 316 317
3 205 317 207
3 318 319 206
3 318 206 208
3 84 314 316
3 84 316 205
3 319 315 87
3 319 87 206
3 88 207 317
3 88 317 320
3 318 208 94
3 318 94 321
3 88 320 294
3 88 294 89
3 295 321 94
3 295 94 93
3 322 323 324
3 322 324 325
3 326 327 322
3 326 322 325
3 325 324 328
3 325 328 329
3 330 326 325
3 330 325 329
3 329 328 331
3 329 331 332
3 333 330 329
3 333 329 332
3 332 331 298
3 332 298 297
3 300 333 332
3 300 332 297
3 314 298 331
3 314 331 316
3 333 300 315
3 333 315 319
3 290 292 334
3 290 334 335
3 336 293 291
3 336 291 337
3 338 339 323
3 338 323 322
3 327 340 338
3 327 338 322
3 341 342 343
3 341 343 344
3 345 346 341
3 345 341 344
3 344 343 347
3 344 347 348
3 349 345 344
3 349 344 348
3 348 347 339
3 348 339 338
3 340 349 348
3 340 348 338
3 286 288 350
3 286 350 351
3 352 289 287
3 352 287 353
3 351 350 354
3 351 354 355
3 356 352 353
3 356 353 357
3 355 354 358
3 355 358 359
3 360 356 357
3 360 357 361
3 359 358 362
3 359 362 363
3 364 360 361
3 364 361 365
3 366 367 363
3 366 363 362
3 365 368 369
3 365 369 364
3 339 347 363
3 339 363 367
3 365 349 340
3 365 340 368
3 347 343 359
3 347 359 363
3 361 345 349
3 361 349 365
3 343 342 355
3 343 355 359
3 357 346 345
3 357 345 361
3 342 370 351
3 342 351 355
3 353 371 346
3 353 346 357
3 284 286 351
3 284 351 370
3 353 287 285
3 353 285 371
3 372 370 342
3 372 342 341
3 346 371 372
3 346 372 341
3 277 280 282
3 277 282 284
3 283 281 279
3 283 279 285
3 277 284 370
3 277 370 372
3 371 285 279
3 371 279 372
3 278 277 372
3 372 279 278
3 288 290 335
3 288 335 350
3 337 291 289
3 337 289 352
3 335 373 354
3 335 354 350
3 356 374 337
3 356 337 352
3 373 375 358
3 373 358 354
3 360 376 374
3 360 374 356
3 366 362 358
3 366 358 375
3 360 364 369
3 360 369 376
3 331 328 377
3 331 377 378
3 379 330 333
3 379 333 380
3 334 378 377
3 334 377 381
3 379 380 336
3 379 336 382
3 292 294 378
3 292 378 334
3 380 295 293
3 380 293 336
3 294 317 316
3 294 316 378
3 319 318 295
3 319 295 380
3 316 331 378
3 380 333 319
3 294 320 317
3 318 321 295
3 366 383 384
3 366 384 367
3 385 386 369
3 385 369 368
3 339 367 384
3 339 384 323
3 385 368 340
3 385 340 327
3 381 377 384
3 381 384 383
3 385 379 382
3 385 382 386
3 328 324 384
3 328 384 377
3 385 326 330
3 385 330 379
3 323 384 324
3 326 385 327
3 387 388 389
3 387 389 390
3 391 392 393
3 391 393 394
3 387 390 395
3 387 395 396
3 397 394 393
3 397 393 398
3 396 395 399
3 396 399 400
3 401 397 398
3 401 398 402
3 400 399 403
3 400 403 404
3 405 401 402
3 405 402 406
3 404 403 407
3 404 407 408
3 409 405 406
3 409 406 410
3 408 407 411
3 408 411 412
3 413 409 410
3 413 410 414
3 407 415 416
3 407 416 411
3 417 418 409
3 417 409 413
3 403 419 415
3 403 415 407
3 418 420 405
3 418 405 409
3 399 421 419
3 399 419 403
3 420 422 401
3 420 401 405
3 395 423 421
3 395 421 399
3 422 424 397
3 422 397 401
3 390 425 423
3 390 423 395
3 424 426 394
3 424 394 397
3 390 389 427
3 390 427 425
3 428 391 394
3 428 394 426
3 334 381 429
3 334 429 430
3 431 382 336
3 431 336 432
3 381 412 411
3 381 411 429
3 413 414 382
3 413 382 431
3 335 334 430
3 335 430 373
3 432 336 337
3 432 337 374
3 375 433 389
3 375 389 388
3 391 434 376
3 391 376 392
3 411 416 435
3 411 435 429
3 436 417 413
3 436 413 431
3 437 438 429
3 437 429 435
3 431 439 440
3 431 440 436
3 441 438 437
3 441 437 442
3 440 439 443
3 440 443 444
3 445 446 438
3 445 438 441
3 439 447 448
3 439 448 443
3 433 446 445
3 433 445 449
3 448 447 434
3 448 434 450
3 389 433 449
3 389 449 427
3 450 434 391
3 450 391 428
3 373 446 433
3 373 433 375
3 434 447 374
3 434 374 376
3 373 430 438
3 373 438 446
3 439 432 374
3 439 374 447
3 430 429 438
3 439 431 432
3 427 449 451
3 427 451 452
3 453 450 428
3 453 428 454
3 449 445 455
3 449 455 451
3 456 448 450
3 456 450 453
3 445 441 457
3 445 457 455
3 458 443 448
3 458 448 456
3 441 442 459
3 441 459 457
3 460 444 443
3 460 443 458
3 442 437 461
3 442 461 459
3 462 440 444
3 462 444 460
3 437 435 463
3 437 463 461
3 464 436 440
3 464 440 462
3 435 416 465
3 435 465 463
3 466 417 436
3 466 436 464
3 425 427 452
3 425 452 467
3 454 428 426
3 454 426 468
3 423 425 467
3 423 467 469
3 468 426 424
3 468 424 470
3 421 423 469
3 421 469 471
3 470 424 422
3 470 422 472
3 419 421 471
3 419 471 473
3 472 422 420
3 472 420 474
3 415 419 473
3 415 473 475
3 474 420 418
3 474 418 476
3 416 415 475
3 416 475 465
3 476 418 417
3 476 417 466
3 459 461 477
3 459 477 478
3 479 462 460
3 479 460 480
3 478 477 481
3 478 481 482
3 483 479 480
3 483 480 484
3 482 481 485
3 482 485 486
3 487 483 484
3 487 484 488
3 486 485 489
3 486 489 490
3 491 487 488
3 491 488 492
3 467 452 486
3 467 486 490
3 488 454 468
3 488 468 492
3 451 482 486
3 451 486 452
3 488 484 453
3 488 453 454
3 451 455 478
3 451 478 482
3 480 456 453
3 480 453 484
3 459 478 455
3 459 455 457
3 456 480 460
3 456 460 458
3 463 465 461
3 465 477 461
3 479 466 462
3 466 464 462
3 475 481 477
3 475 477 465
3 479 483 476
3 479 476 466
3 473 485 481
3 473 481 475
3 483 487 474
3 483 474 476
3 471 489 485
3 471 485 473
3 487 491 472
3 487 472 474
3 469 490 489
3 469 489 471
3 491 492 470
3 491 470 472
3 467 490 469
3 470 492 468
3 408 412 493
3 408 493 494
3 495 414 410
3 495 410 496
3 404 408 494
3 404 494 497
3 496 410 406
3 496 406 498
3 400 404 497
3 400 497 499
3 498 406 402
3 498 402 500
3 396 400 499
3 396 499 501
3 500 402 398
3 500 398 502
3 387 396 501
3 387 501 503
3 502 398 393
3 502 393 504
3 388 387 503
3 388 503 505
3 504 393 392
3 504 392 506
3 503 494 493
3 503 493 505
3 495 496 504
3 495 504 506
3 503 501 497
3 503 497 494
3 498 502 504
3 498 504 496
3 501 499 497
3 498 500 502
3 366 375 388
3 366 388 505
3 392 376 369
3 392 369 506
3 366 505 493
3 366 493 383
3 495 506 369
3 495 369 386
3 381 383 493
3 381 493 412
3 495 386 382
3 495 382 414
