ply
format ascii 1.0
comment Created by Blender 2.80 (sub 75) - www.blender.org, source file: 'rock-1.blend'
element vertex 17
property float x
property float y
property float z
property uchar red
property uchar green
property uchar blue
property uchar alpha
element face 30
property list uchar uint vertex_indices
end_header
-1.291992 2.610071 4.373346 148 148 148 255
-2.614032 2.637926 2.307047 90 90 90 255
-2.600386 1.557273 4.372763 146 146 146 255
-0.223227 -2.598859 -0.960997 102 102 102 255
-0.953503 -3.079658 0.852176 80 80 80 255
-2.474853 0.013205 -0.952526 83 83 83 255
2.973948 0.571858 4.274189 139 139 139 255
2.837619 2.487031 1.985828 105 105 105 255
1.535785 2.563168 4.258820 153 153 153 255
2.645665 -2.257773 -0.281533 71 71 71 255
-1.978348 2.483370 -0.794069 66 66 66 255
2.257405 1.829804 -0.763350 44 44 44 255
-2.739200 -1.527403 1.117484 88 88 88 255
-2.288536 -0.736012 4.104120 93 93 93 255
0.035062 -2.224374 4.124239 111 111 111 255
0.398988 -2.901884 3.156418 57 57 57 255
2.860073 -2.436441 1.978024 92 92 92 255
3 0 1 2
3 3 4 5
3 6 7 8
3 9 3 5
3 5 10 11
3 5 11 9
3 0 8 7
3 7 11 10
3 10 1 0
3 7 10 0
3 5 12 13
3 13 2 1
3 1 10 5
3 13 1 5
3 14 13 12
3 12 4 15
3 12 15 14
3 6 8 0
3 0 2 13
3 13 14 6
3 0 13 6
3 7 6 16
3 16 9 11
3 16 11 7
3 9 16 15
3 15 4 3
3 15 3 9
3 16 6 14
3 16 14 15
3 5 4 12
