ply
format ascii 1.0
comment Created by Blender 2.80 (sub 75) - www.blender.org, source file: 'rock-1.blend'
element vertex 47
property float x
property float y
property float z
property uchar red
property uchar green
property uchar blue
property uchar alpha
element face 90
property list uchar uint vertex_indices
end_header
2.879071 0.839155 4.248594 143 143 143 255
2.879071 1.689257 3.112193 183 183 183 255
2.216000 1.689257 4.248594 182 182 182 255
-1.599694 -1.780549 0.015264 59 59 59 255
-1.829002 -2.317733 0.999296 116 116 116 255
-2.727167 -1.553199 1.113772 87 87 87 255
-2.603438 -0.737166 0.099191 104 104 104 255
-1.291226 2.610678 4.373350 148 148 148 255
-1.967317 2.610678 3.370720 171 171 171 255
-1.967317 2.073159 4.373350 188 188 188 255
1.566074 -1.973584 3.349271 119 119 119 255
1.639744 -2.652665 2.578208 109 109 109 255
2.858826 -2.437292 1.976710 92 92 92 255
2.896848 -1.410261 3.041092 145 145 145 255
-2.215283 1.319323 -0.833707 100 100 100 255
-1.950857 2.559777 -0.752025 66 66 66 255
0.113692 2.215552 -0.814403 77 77 77 255
2.178241 1.871326 -0.876781 43 43 43 255
2.411953 -0.193223 -0.579157 77 77 77 255
2.645665 -2.257773 -0.281533 71 71 71 255
1.192302 -2.411685 -0.651841 98 98 98 255
-0.261061 -2.565597 -1.022149 102 102 102 255
-1.370385 -1.243365 -0.968769 104 104 104 255
-2.479710 0.078868 -0.915389 82 82 82 255
-2.297132 2.585227 0.808033 140 140 140 255
-2.643407 2.610678 2.368090 88 88 88 255
0.130852 2.575018 4.310972 161 161 161 255
1.552929 2.539359 4.248594 153 153 153 255
2.216000 2.539359 3.112193 176 176 176 255
2.879071 2.539359 1.975792 105 105 105 255
2.528656 2.205342 0.549506 135 135 135 255
-2.408560 -1.205599 2.661879 156 156 156 255
-2.089953 -0.857998 4.209986 88 88 88 255
-2.366680 0.338821 4.291668 186 186 186 255
-2.643407 1.535641 4.373350 146 146 146 255
-2.643407 2.073159 3.370720 193 193 193 255
-1.020008 -1.531888 4.172589 150 150 150 255
-0.930837 -3.082266 0.884821 80 80 80 255
-0.255087 -2.975152 2.032264 109 109 109 255
0.420662 -2.868038 3.179706 55 55 55 255
0.235299 -2.536908 3.657450 102 102 102 255
0.049937 -2.205777 4.135193 111 111 111 255
1.492403 -1.294503 4.120334 136 136 136 255
2.934870 -0.383229 4.105474 122 122 122 255
2.906971 0.227963 4.177034 161 161 161 255
2.752246 -2.347532 0.847589 108 108 108 255
-0.595949 -2.823932 -0.068664 131 131 131 255
3 0 1 2
3 3 4 5
3 3 5 6
3 7 8 9
3 10 11 12
3 10 12 13
3 14 15 16
3 16 17 18
3 18 19 20
3 20 21 22
3 22 23 14
3 14 16 18
3 18 20 22
3 18 22 14
3 16 15 24
3 24 25 8
3 8 7 26
3 26 27 28
3 28 29 30
3 30 17 16
3 16 24 8
3 8 26 28
3 28 30 16
3 8 28 16
3 24 15 14
3 14 23 6
3 6 5 31
3 31 32 33
3 33 34 35
3 35 25 24
3 24 14 6
3 6 31 33
3 33 35 24
3 6 33 24
3 36 32 31
3 31 5 4
3 4 37 38
3 38 39 40
3 40 41 36
3 36 31 4
3 4 38 40
3 4 40 36
3 2 27 26
3 26 7 9
3 9 34 33
3 33 32 36
3 36 41 42
3 42 43 44
3 44 0 2
3 2 26 9
3 9 33 36
3 36 42 44
3 44 2 9
3 9 36 44
3 18 17 30
3 30 29 1
3 1 0 44
3 44 43 13
3 13 12 45
3 45 19 18
3 18 30 1
3 1 44 13
3 13 45 18
3 1 13 18
3 20 19 45
3 45 12 11
3 11 39 38
3 38 37 46
3 46 21 20
3 20 45 11
3 11 38 46
3 11 46 20
3 42 10 13
3 42 13 43
3 41 40 10
3 41 10 42
3 40 39 11
3 40 11 10
3 9 35 34
3 9 8 35
3 8 25 35
3 22 3 6
3 22 6 23
3 21 46 3
3 21 3 22
3 46 37 4
3 46 4 3
3 2 28 27
3 2 1 28
3 1 29 28
