ply
format ascii 1.0
comment Created by Blender 2.81 (sub 16) - www.blender.org, source file: 'ship-1.blend'
element vertex 771
property float x
property float y
property float z
property uchar red
property uchar green
property uchar blue
property uchar alpha
element face 908
property list uchar uint vertex_indices
end_header
-0.372905 -2.886905 0.537795 255 158 72 255
-0.407445 -2.399192 0.292113 255 161 74 255
0.000000 -2.399192 0.292113 207 145 56 255
0.000000 -2.886905 0.537795 232 161 60 255
-0.512829 -1.168538 0.136975 228 140 66 255
-0.618213 0.062116 -0.018162 184 118 59 255
0.000000 0.062116 -0.018162 157 111 49 255
0.000000 -1.168538 0.136975 184 131 53 255
0.408982 1.006033 0.602105 220 115 72 255
0.408982 0.556686 0.602105 220 115 72 255
0.000000 0.556686 0.602105 220 115 72 255
0.000000 1.006033 0.602105 220 115 72 255
-0.521119 4.062116 1.243880 196 119 57 255
0.000000 4.062116 1.243880 216 145 56 255
0.000000 3.062116 0.800440 181 122 53 255
-0.569666 3.062116 0.800440 177 109 53 255
0.000000 5.062116 2.197731 204 143 56 255
0.429742 5.062116 2.197731 212 125 61 255
0.521119 4.062116 1.243880 232 138 64 255
0.000000 6.062116 3.151582 186 131 53 255
0.000320 7.797801 3.865768 230 209 76 255
0.282113 7.797801 3.865768 216 207 85 255
0.338365 6.062116 3.151582 190 141 58 255
0.000000 -3.374618 0.783476 189 123 61 255
0.000000 -4.620996 0.676558 76 49 42 255
-0.210634 -4.620996 0.676558 79 49 42 255
-0.338365 -3.374618 0.783476 205 122 68 255
0.151613 -5.592450 1.478199 26 22 17 255
0.220322 -5.317528 2.386758 22 17 17 255
0.000000 -5.317528 2.386758 33 26 22 255
0.000000 -5.592450 1.478199 33 26 22 255
0.001914 -5.525705 3.060505 76 45 42 255
-0.206979 -5.525705 3.060505 79 49 42 255
-0.220322 -5.317528 2.386758 45 33 26 255
0.003828 -5.233882 3.734251 111 65 53 255
-0.264086 -5.233882 3.734251 111 65 53 255
-0.193635 -5.733882 3.734251 115 60 56 255
0.003828 -5.733882 3.734251 115 60 56 255
0.342193 -4.733882 3.734251 164 118 77 255
0.390099 -4.733882 3.234251 123 94 47 255
0.537966 -4.263121 3.137245 152 118 63 255
0.438005 -4.733882 2.734251 87 67 36 255
0.585872 -4.263121 2.637245 121 98 43 255
0.851256 2.622563 3.299159 38 30 21 255
0.780930 2.610982 3.602160 84 55 45 255
0.870315 1.958818 3.795478 47 31 28 255
0.950334 1.843052 3.492477 58 47 34 255
-0.423293 -2.632148 6.119488 196 181 157 255
-0.850414 -2.680205 5.934473 185 175 156 255
-0.750742 -2.865502 5.921986 183 173 156 255
-0.373457 -2.817445 6.089075 193 177 157 255
2.556508 1.015293 2.821629 226 190 112 255
2.357994 1.833695 2.856616 210 177 108 255
2.357994 1.736418 3.191675 216 156 93 255
2.602828 0.978549 3.163199 219 171 102 255
1.632196 3.716788 2.888028 187 135 99 255
1.632196 3.522234 3.406142 237 154 102 255
1.995095 2.726603 2.963850 213 168 111 255
1.995095 2.872518 2.537263 190 137 102 255
-2.592330 -0.600568 3.502109 123 90 55 255
-2.544605 0.213857 3.131515 80 60 36 255
-2.692305 0.217269 3.133119 161 120 72 255
-2.742311 -0.616521 3.476542 222 164 98 255
0.003828 5.702878 3.741118 211 192 117 255
0.003508 7.517596 4.334282 226 226 197 255
-0.202824 7.517596 4.334282 233 233 139 255
-0.241262 5.702878 3.741118 212 190 126 255
-2.006637 0.109673 1.302255 242 194 84 255
-1.875902 -1.057902 1.399808 238 190 81 255
-2.330259 -1.021024 1.820752 239 201 112 255
-2.469445 0.125525 1.742394 255 221 129 255
0.245977 7.657699 4.100025 216 216 94 255
0.170762 9.332315 4.927446 183 183 116 255
0.209840 7.517596 4.334282 212 212 131 255
0.798889 4.024423 1.525388 238 124 71 255
-1.941713 1.796702 6.756495 255 255 255 255
-1.896178 1.829157 7.244878 255 255 255 255
-2.528237 1.829157 7.244878 255 255 255 255
-2.588951 1.788530 6.730428 255 255 255 255
-1.917307 2.109673 1.477831 240 194 85 255
-1.961972 1.109673 1.390043 240 194 85 255
-2.409892 1.125525 1.796918 255 224 132 255
-2.350338 2.125525 1.851441 255 224 131 255
-0.647238 1.813046 6.808628 243 243 243 255
-0.632059 1.829157 7.244878 216 216 216 255
-1.264119 1.829157 7.244878 255 255 255 255
-1.294475 1.804874 6.782561 255 255 255 255
0.338365 -3.374618 0.783476 186 108 62 255
0.326806 -3.554250 1.258864 166 90 59 255
0.210635 -4.620996 0.676558 72 45 37 255
-0.260291 -4.913166 1.856225 65 43 36 255
-0.368969 -4.233882 2.234251 146 113 55 255
-0.307590 -3.733882 1.734251 172 127 63 255
-0.195247 -4.800627 1.151945 72 45 37 255
0.293642 5.882497 3.446350 216 205 85 255
0.824034 4.915766 2.767377 255 251 108 255
0.707512 5.024423 2.479239 239 185 91 255
0.271742 -5.233882 3.734251 111 60 53 255
0.300453 -5.129793 3.147378 76 49 42 255
2.698333 -2.408758 4.154292 245 144 82 255
2.832745 -2.180045 4.423789 255 161 114 255
2.743504 -2.745097 5.017145 247 132 83 255
2.364436 -3.037290 4.355582 255 184 88 255
-0.588165 -2.947768 0.976363 212 108 63 255
-0.853352 -2.341287 0.693862 199 105 62 255
1.881644 -1.057902 1.399808 190 156 68 255
2.337915 -1.021024 1.820752 171 133 75 255
2.198729 -2.167573 1.899110 125 97 56 255
1.750908 -2.225478 1.497361 180 143 65 255
-0.281473 7.797801 3.865768 216 208 85 255
-0.242148 7.657699 4.100025 216 216 94 255
-0.164386 9.332315 4.927446 183 183 116 255
-0.194483 9.432900 4.753700 183 183 99 255
1.923049 2.109673 1.477831 226 180 81 255
1.638738 3.029354 1.783118 255 215 92 255
1.995095 3.018433 2.110677 209 161 91 255
2.357994 2.125525 1.851441 214 166 91 255
1.798856 -4.375176 5.127032 255 180 101 255
1.798856 -4.375176 5.428133 255 164 118 255
1.521475 -4.656897 5.438621 255 197 141 255
1.445776 -4.784975 5.137520 255 208 129 255
-0.322978 -3.554250 1.258864 177 96 63 255
0.591036 -2.947768 0.976363 173 94 58 255
0.809167 -3.008632 1.414931 192 129 65 255
-0.610400 4.807110 2.836143 255 255 255 255
-0.287900 4.807110 2.616771 251 251 251 255
-0.979539 3.911341 1.931169 255 255 255 255
-0.334537 3.911341 1.492425 255 255 255 255
1.256988 -2.950727 1.816681 193 154 68 255
0.524493 -3.763121 2.137245 179 145 62 255
0.315246 -3.733882 1.734251 172 126 64 255
1.466234 -2.979967 2.219674 112 87 52 255
-1.038990 -3.676641 2.828683 122 91 66 255
-1.351897 -3.560921 3.117129 172 136 90 255
-1.671836 -2.910213 2.537938 153 111 81 255
-1.458578 -2.979967 2.219674 150 115 68 255
-1.438120 -4.784975 5.137520 255 220 140 255
-1.791199 -4.375176 5.127032 255 203 111 255
-1.884456 -3.852329 4.410525 255 239 111 255
-1.531376 -4.262128 4.421014 255 255 160 255
2.967157 -1.951332 4.693286 255 231 175 255
2.816915 -1.898522 4.728321 255 255 193 255
2.833856 -2.346734 5.636678 255 255 219 255
2.982079 -2.417037 5.619346 255 244 195 255
-0.516836 -3.763121 2.137245 187 151 65 255
-0.578216 -4.263121 2.637245 137 111 50 255
-0.726083 -3.792360 2.540238 124 99 52 255
0.337993 3.517841 3.408842 74 54 36 255
0.672158 3.517841 3.408842 62 46 31 255
0.688913 4.521995 3.574980 141 107 63 255
2.653162 -2.072418 3.291439 244 154 97 255
2.802699 -1.779023 3.529332 255 138 97 255
2.319265 -2.700950 3.492729 252 201 107 255
0.905070 -5.079551 4.794569 255 255 192 255
1.092696 -5.194774 5.148008 255 238 181 255
0.003828 -5.194774 5.148008 255 236 189 255
0.003828 -5.079551 4.794569 255 255 204 255
0.632059 1.829157 7.244878 216 216 216 255
0.647238 1.813046 7.602729 193 193 193 255
0.000000 1.821218 7.595253 180 180 180 255
0.000000 1.829157 7.244878 200 200 200 255
1.244095 -4.938617 5.449108 255 219 154 255
1.395493 -4.682459 5.750209 255 239 182 255
0.003828 -4.682459 5.750209 255 245 199 255
0.003828 -4.938617 5.449108 255 228 157 255
-2.456212 1.088781 2.138488 232 164 120 255
-2.350338 2.028249 2.186499 226 161 118 255
0.003828 5.614513 3.741118 213 158 94 255
-0.029682 5.526149 3.741118 179 132 76 255
0.003828 5.526149 3.741118 180 134 81 255
0.834188 -3.098857 5.630055 177 168 157 255
0.960564 -2.913559 5.620568 189 177 157 255
0.758399 -2.865502 5.921986 183 173 156 255
0.658727 -3.050800 5.909497 177 170 156 255
1.294475 1.931726 6.737704 255 255 255 255
1.324832 1.901708 6.290339 255 255 255 255
0.662416 1.951199 6.327520 255 255 255 255
0.647238 1.989619 6.741343 255 255 255 255
0.940557 4.807110 3.055515 231 196 146 255
0.940557 4.612556 3.573630 241 145 106 255
-2.645505 -2.072418 3.291439 242 171 99 255
-2.742755 -0.925869 3.213081 251 153 96 255
-2.639631 -0.949658 2.864999 255 215 128 255
-2.531897 -2.096207 2.943357 255 217 128 255
0.925026 -3.664292 5.105761 122 100 65 255
0.759657 -4.206509 5.137221 86 71 45 255
1.137571 -4.206509 5.137221 19 15 9 255
-1.987439 2.726603 2.963850 216 170 110 255
-1.624540 3.522234 3.406142 234 159 105 255
-1.624540 3.716788 2.888028 209 148 112 255
-1.987439 2.872518 2.537263 219 158 117 255
-2.356780 -3.037290 4.355582 255 186 88 255
-1.977712 -3.329482 3.694019 255 226 119 255
-2.263524 -3.560137 5.072089 255 167 94 255
-2.690677 -2.408758 4.154292 245 144 82 255
-2.795043 -1.779023 3.529332 255 138 97 255
-2.311609 -2.700950 3.492729 252 201 107 255
0.278760 1.006033 5.587182 220 115 72 255
0.278760 0.699761 5.587182 220 115 72 255
0.000000 0.699761 5.587182 220 115 72 255
0.000000 0.842835 10.572259 220 115 72 255
-0.148538 0.842835 10.572259 220 115 72 255
-0.278760 0.699761 5.587182 220 115 72 255
-0.148538 1.006033 10.572259 220 115 72 255
-0.278760 1.006033 5.587182 220 115 72 255
0.148538 0.842835 10.572259 220 115 72 255
0.000000 1.006033 10.572259 220 115 72 255
0.148538 1.006033 10.572259 220 115 72 255
-1.791199 -4.375176 5.428133 255 195 136 255
-1.513819 -4.656897 5.438621 255 216 150 255
-1.589518 -4.528818 5.739721 255 244 198 255
-1.791199 -4.375176 5.729233 255 239 184 255
-1.387837 -4.682459 5.750209 255 248 196 255
1.046647 -3.676641 2.828683 108 81 60 255
0.788233 -4.262873 3.458187 135 101 73 255
0.733739 -3.792360 2.540238 111 89 48 255
-1.236438 -4.938617 5.449108 255 232 161 255
-1.085040 -5.194774 5.148008 255 239 183 255
1.985368 -3.329482 3.694019 255 224 118 255
1.892112 -3.852329 4.410525 255 222 105 255
1.539032 -4.262128 4.421014 255 255 157 255
2.699961 0.217269 3.133119 163 122 75 255
2.552261 0.213857 3.131515 84 62 40 255
2.599986 -0.600568 3.502109 123 93 55 255
2.749967 -0.616521 3.476542 225 166 98 255
-0.151613 -5.592450 1.478199 37 29 26 255
-0.082904 -5.867373 0.569639 26 22 22 255
0.000000 -5.867373 0.569639 26 22 22 255
0.003828 -4.444484 5.744815 255 255 216 255
1.455489 -4.444484 5.744815 255 255 204 255
1.597174 -4.528818 5.739721 255 236 185 255
1.495929 -0.927409 3.206792 84 61 27 255
1.434329 -2.068676 3.282070 73 50 25 255
1.890818 -2.068676 3.282070 82 61 31 255
1.972857 -0.927409 3.206792 98 79 50 255
-1.836763 2.292966 3.816816 255 239 150 255
-1.585371 2.829659 3.918189 255 239 150 255
-1.733290 2.901847 3.909649 255 255 181 255
-1.987320 2.359401 3.805346 255 255 181 255
1.994976 2.359401 3.805346 255 255 184 255
1.844419 2.292966 3.816816 255 244 151 255
1.950649 2.010126 3.503146 215 161 96 255
2.101207 2.045627 3.497961 255 228 132 255
-2.446043 0.974560 3.161847 147 111 66 255
-2.350338 1.736418 3.191675 217 155 92 255
-2.595171 0.978549 3.163199 216 169 100 255
-2.389259 -2.410079 4.146724 31 25 16 255
-2.438867 -2.751482 5.011378 47 37 23 255
-1.926172 -2.751482 5.011378 90 71 44 255
-1.904667 -2.410079 4.146724 52 42 18 255
-2.442128 -0.927409 3.206792 69 56 35 255
1.645855 2.726111 3.608674 177 134 78 255
1.593027 2.829659 3.918189 255 244 151 255
1.698683 2.622563 3.299159 79 59 37 255
2.040782 -3.360232 5.385508 140 108 62 255
1.515485 -4.206509 5.438322 114 86 50 255
1.515485 -4.206509 5.739422 255 249 156 255
2.100559 -3.241470 5.696715 255 255 169 255
1.341635 3.366351 4.019562 255 232 136 255
0.689487 4.446250 3.880340 228 175 102 255
1.341061 3.442096 3.714202 166 124 72 255
-1.333978 3.366351 4.019562 255 232 140 255
-1.333405 3.442096 3.714202 163 122 73 255
-0.681830 4.446250 3.880340 222 169 98 255
-1.385546 1.732024 5.395609 255 255 255 255
-1.355189 1.756307 5.857926 255 255 255 255
-2.032784 1.731791 5.779726 255 255 255 255
-2.078319 1.699335 5.291342 255 255 255 255
-2.524137 -2.127895 4.455040 122 94 58 255
-2.640054 -1.414994 3.872704 218 162 95 255
-2.659016 -1.845712 4.763356 255 236 145 255
-2.489853 -1.741835 3.577387 76 59 36 255
-1.649514 -4.290843 5.734327 255 255 212 255
-1.507829 -4.206509 5.739422 255 255 177 255
-2.092903 -3.241470 5.696715 255 255 179 255
-2.237857 -3.318789 5.685503 255 255 219 255
-2.892292 -0.632474 3.450974 255 184 115 255
-2.792317 -1.450311 3.819964 255 245 144 255
-1.447833 -4.444484 5.744815 255 255 223 255
-0.374086 -4.206509 5.137221 5 5 0 255
0.003828 -4.206509 5.739422 255 255 165 255
0.003828 -4.206509 5.137221 46 38 23 255
1.632196 3.522234 3.707243 255 147 103 255
0.940557 4.612556 3.724180 255 140 99 255
0.940557 4.612556 3.874731 255 216 133 255
1.632196 3.522234 4.008344 255 210 138 255
2.528237 1.829157 7.244878 255 255 255 255
1.896178 1.895451 7.214974 255 255 255 255
1.941713 1.836066 7.699064 255 255 255 255
2.588951 1.740406 7.832778 255 255 255 255
0.003828 -4.733882 3.734251 146 99 74 255
-0.334537 -4.733882 3.734251 164 118 76 255
2.207437 1.731852 3.190576 160 124 72 255
2.304570 0.970571 3.160495 84 64 40 255
2.453699 0.974560 3.161847 148 112 68 255
-2.677978 -2.276431 5.654009 255 255 194 255
-2.809258 -1.898522 4.728321 255 255 193 255
-2.826200 -2.346734 5.636678 255 255 219 255
2.245513 -3.318789 5.685503 255 255 207 255
2.390467 -3.396107 5.674290 255 237 185 255
2.685634 -2.276431 5.654009 255 255 189 255
1.888865 2.974035 3.901110 255 220 158 255
1.941980 2.801681 3.600009 255 156 109 255
0.248918 5.702878 3.741118 208 178 121 255
1.354427 3.949035 2.088405 255 236 102 255
1.076658 3.986729 1.806896 247 189 97 255
-2.817524 -0.779171 3.332027 255 124 88 255
-2.840005 0.220680 3.134723 243 165 102 255
-1.987439 2.629326 3.298909 240 146 96 255
-1.987439 2.677964 3.131380 225 192 112 255
-2.350338 1.833695 2.856616 210 179 106 255
2.271180 -3.560137 5.072089 255 174 90 255
2.330823 -3.478122 5.373189 255 181 125 255
-0.651071 -3.050800 5.909497 177 170 156 255
-0.323621 -3.002743 6.058661 184 173 157 255
2.952236 -1.485628 3.767225 255 188 123 255
2.771092 1.654216 9.422113 255 255 255 255
2.771092 1.747516 9.523983 255 255 255 255
2.771092 1.636162 9.625969 255 255 255 255
2.771092 1.542862 9.524099 255 255 255 255
1.385546 1.568733 9.231981 127 127 127 255
0.692773 1.572641 9.187851 102 102 102 255
1.385546 1.836123 9.523933 255 255 255 255
-2.771092 1.524808 9.727955 255 255 255 255
-2.771092 1.636162 9.625969 255 255 255 255
-2.771092 1.542862 9.524099 255 255 255 255
-2.771092 1.431508 9.626085 255 255 255 255
2.771092 1.524808 9.727955 255 255 255 255
1.385546 1.516991 9.816217 255 255 255 255
1.385546 1.383296 9.670242 255 255 255 255
2.771092 1.431508 9.626085 255 255 255 255
0.000000 1.160993 9.524317 255 255 255 255
0.000000 1.368771 9.334018 255 255 255 255
1.385546 1.676557 9.670074 255 255 255 255
1.740946 2.901847 3.909649 255 255 181 255
2.145534 2.425837 3.793876 255 231 173 255
-2.771092 1.338208 9.524216 255 255 255 255
-2.771092 1.449562 9.422230 255 255 255 255
-2.078319 1.564824 9.276113 249 249 249 255
0.000000 1.335084 9.714397 255 255 255 255
0.000000 1.509175 9.904480 255 255 255 255
-1.385546 1.516991 9.816217 255 255 255 255
-1.385546 1.383296 9.670242 255 255 255 255
-0.692773 1.572641 9.187851 102 102 102 255
-1.385546 1.568733 9.231981 127 127 127 255
-1.385546 1.836123 9.523933 255 255 255 255
-0.677595 1.857955 5.913698 255 255 255 255
0.000000 1.899045 5.984423 255 255 255 255
0.000000 1.797401 5.604143 255 255 255 255
-0.692773 1.764712 5.499876 255 255 255 255
-2.323167 -3.478122 5.373189 255 194 134 255
1.294475 1.804874 7.610205 252 252 252 255
1.324832 1.780591 7.975532 204 204 204 255
0.662416 1.796935 7.960580 154 154 154 255
0.000000 2.047511 7.505539 252 252 252 255
0.000000 2.094332 7.125260 255 255 255 255
-0.632059 2.028039 7.155165 255 255 255 255
-0.647238 1.989619 7.535444 255 255 255 255
-2.418289 -2.119996 2.595274 229 189 121 255
-2.536507 -0.973446 2.516917 230 190 123 255
-2.433383 -0.997235 2.168834 219 158 115 255
-2.304681 -2.143785 2.247192 192 138 102 255
-2.502532 1.052037 2.480058 218 172 112 255
-2.548851 1.015293 2.821629 223 187 112 255
-2.350338 1.930972 2.521558 204 162 103 255
1.359554 -3.560921 3.117129 140 105 77 255
1.038499 -4.262624 3.779129 196 155 103 255
2.569741 0.149314 2.090477 192 137 104 255
2.662381 0.173103 2.438559 226 183 118 255
2.544163 -0.973446 2.516917 227 184 118 255
2.441039 -0.997235 2.168834 179 128 95 255
0.529819 -4.849105 4.087690 179 130 94 255
0.717445 -4.964328 4.441130 233 196 126 255
0.003828 -4.964328 4.441130 237 205 132 255
0.003828 -4.849105 4.087690 184 134 96 255
1.632196 3.911341 2.369913 203 167 116 255
1.672461 -3.445201 3.405574 232 193 115 255
1.892750 -2.840458 2.856202 197 161 100 255
2.106007 -2.770704 3.174465 232 194 117 255
2.463868 1.088781 2.138488 190 137 102 255
2.357994 2.028249 2.186499 189 135 101 255
2.357994 1.930972 2.521558 201 158 104 255
2.510188 1.052037 2.480058 219 172 112 255
-0.522163 -4.849105 4.087690 179 130 94 255
-1.030843 -4.262624 3.779129 190 144 101 255
-0.780576 -4.262873 3.458187 143 105 75 255
0.569666 3.062116 0.800440 181 109 55 255
0.926024 3.051195 1.127999 183 98 58 255
1.053159 2.077969 0.730610 128 71 46 255
0.618213 2.062116 0.357000 127 80 45 255
-1.267313 2.622563 3.299159 53 40 24 255
-1.022697 1.727285 3.189476 18 15 11 255
-0.843599 2.622563 3.299159 42 31 22 255
-0.773274 2.610982 3.602160 86 50 45 255
-0.862659 1.958818 3.795478 50 32 31 255
-0.702948 2.599401 3.905161 169 97 74 255
-1.324832 1.901708 7.945628 246 246 246 255
-1.294475 1.931726 7.565349 255 255 255 255
-1.941713 1.836066 7.699064 255 255 255 255
-1.987248 1.776681 8.183153 255 255 255 255
-1.535960 1.727285 3.189476 42 35 22 255
-1.691027 2.622563 3.299159 82 63 38 255
0.517091 1.727286 3.189476 18 15 13 255
1.030353 1.727286 3.189476 46 39 27 255
0.477081 1.843052 3.548332 26 23 19 255
0.003828 3.378913 3.744240 134 79 56 255
-0.300021 3.378913 3.728041 132 79 58 255
-0.269705 3.239985 4.047241 234 159 113 255
0.003828 3.239985 4.079638 234 159 113 255
1.896178 1.829157 7.244878 255 255 255 255
1.264119 1.829157 7.244878 255 255 255 255
1.294475 1.804874 6.782561 255 255 255 255
1.941713 1.796702 6.756495 255 255 255 255
-0.429415 1.958818 3.907187 45 32 30 255
-0.349560 2.599401 3.977214 204 118 88 255
0.003828 -2.068676 3.282070 86 65 35 255
0.003828 -2.410079 4.146724 81 55 23 255
0.715780 -2.410079 4.146724 93 62 25 255
0.719079 -2.068676 3.282070 89 70 39 255
1.421134 -2.751482 5.011378 106 91 65 255
1.933828 -2.751482 5.011378 101 81 52 255
1.912323 -2.410079 4.146724 95 77 32 255
1.427731 -2.410079 4.146724 94 70 25 255
2.056879 1.727286 3.189476 87 66 40 255
1.799256 0.970571 3.160495 71 56 35 255
0.003828 -0.927409 3.206792 59 47 14 255
0.749879 -0.927409 3.206792 86 71 31 255
-1.507829 -4.206509 5.137221 19 15 10 255
-1.129915 -4.206509 5.137221 0 0 0 255
-0.917370 -3.664292 5.105761 117 94 62 255
0.712481 -2.751482 5.011378 142 132 113 255
1.378604 -2.761511 5.122953 154 151 144 255
0.780679 0.213857 3.131515 61 51 17 255
1.557530 0.213857 3.131515 60 44 27 255
1.293941 0.970571 3.160495 50 42 28 255
-1.965201 -0.927409 3.206792 81 66 42 255
-2.047239 0.213857 3.131515 74 58 37 255
-1.426673 -2.068676 3.282070 80 61 37 255
-0.711423 -2.068676 3.282070 94 70 38 255
-0.742223 -0.927409 3.206792 56 44 14 255
-1.488273 -0.927409 3.206792 59 43 25 255
-1.286285 0.970571 3.160495 62 46 26 255
-0.773023 0.213857 3.131515 71 54 21 255
-0.509435 1.727285 3.189476 15 15 12 255
0.003828 -3.122076 5.074300 150 132 111 255
-0.539455 -3.122076 5.074300 112 98 79 255
-0.456771 -3.664292 5.105761 113 92 59 255
0.003828 -3.664292 5.105761 100 77 52 255
1.090395 -3.122076 5.074300 81 68 53 255
0.547112 -3.122076 5.074300 106 93 76 255
0.464427 -3.664292 5.105761 83 66 43 255
0.003828 -2.667787 5.657941 185 177 166 255
-0.423293 -2.715843 5.472926 185 177 164 255
0.003828 -2.769388 6.256165 171 152 132 255
0.003828 -2.584091 6.304503 174 154 132 255
-1.082739 -3.122076 5.074300 90 78 61 255
-1.042366 -3.134495 5.212456 122 122 114 255
1.162730 -2.961617 5.319151 173 168 155 255
1.009650 -3.146914 5.350612 163 157 150 255
1.050022 -3.134495 5.212456 107 107 105 255
0.003828 -2.751482 5.011378 160 148 129 255
-0.704825 -2.751482 5.011378 155 146 124 255
-0.652163 -2.763901 5.149534 180 175 163 255
-1.264119 1.961745 7.185070 255 255 255 255
-1.896178 1.895451 7.214974 255 255 255 255
-1.079284 -2.728262 5.611082 177 168 154 255
-0.952908 -2.913559 5.620568 177 168 154 255
0.858070 -2.680205 5.934473 185 173 156 255
0.430949 -2.632148 6.119488 173 157 143 255
0.381113 -2.817445 6.089075 173 162 148 255
-1.360816 -2.763901 5.149534 173 166 154 255
-1.308154 -2.776320 5.287690 180 170 156 255
-1.745166 -2.225478 1.497361 216 173 73 255
-2.191073 -2.167573 1.899110 198 153 85 255
0.969101 -1.131660 0.557920 132 71 49 255
1.425372 -1.094781 0.978864 159 111 57 255
1.303087 -2.283382 1.095612 187 129 64 255
0.855266 -2.341287 0.693862 147 79 50 255
0.000000 1.821218 6.834695 228 228 228 255
1.068047 1.077968 0.576294 121 66 42 255
1.517881 1.093821 0.983168 146 101 51 255
1.547657 0.093821 0.862116 122 87 46 255
1.082935 0.077968 0.421977 109 63 42 255
0.376626 -4.233882 2.234251 136 104 51 255
-0.803424 -3.008632 1.414931 190 126 60 255
-1.249331 -2.950727 1.816681 235 187 81 255
-1.299259 -2.283382 1.095612 174 121 58 255
1.941713 1.772640 7.721492 255 255 255 255
1.987248 1.716123 8.198105 255 255 255 255
0.647238 1.813046 6.808628 243 243 243 255
2.312337 -2.143785 2.247192 156 111 84 255
1.282381 3.040275 1.455558 219 163 78 255
1.488104 2.093821 1.104220 166 116 57 255
-0.647238 1.813046 7.602729 193 193 193 255
0.000000 1.813279 7.945628 143 143 143 255
-0.662416 1.796935 7.960580 154 154 154 255
-1.941713 1.772640 7.721492 255 255 255 255
-1.294475 1.804874 7.610205 252 252 252 255
-1.324832 1.780591 7.975532 204 204 204 255
-1.987248 1.716123 8.198105 255 255 255 255
-2.032784 1.640474 8.737108 246 246 246 255
-1.355189 1.674662 8.603757 147 147 147 255
0.000000 1.805340 6.014327 255 255 255 255
0.000000 1.813279 6.424511 255 255 255 255
-0.662416 1.796935 6.372377 255 255 255 255
-0.677595 1.780823 5.936127 255 255 255 255
-1.324832 1.780591 6.320244 255 255 255 255
-1.987248 1.764246 6.268110 255 255 255 255
1.294475 1.931726 7.565349 255 255 255 255
0.647238 1.989619 7.535444 255 255 255 255
0.662416 1.951199 7.915723 210 210 210 255
1.324832 1.901708 7.945628 246 246 246 255
0.677595 1.684788 8.574215 101 101 101 255
0.000000 1.694914 8.544674 112 112 112 255
2.032784 1.640474 8.737108 246 246 246 255
1.355189 1.674662 8.603757 147 147 147 255
0.000000 1.788620 8.514769 147 147 147 255
0.000000 2.000690 7.885819 203 203 203 255
-0.662416 1.951199 7.915723 210 210 210 255
-0.677595 1.761920 8.551786 132 132 132 255
-1.355189 1.735220 8.588804 171 171 171 255
-2.032784 1.670753 8.729633 255 255 255 255
1.264119 1.961745 7.185070 255 255 255 255
-0.325335 -5.025705 2.560505 58 40 32 255
-0.430349 -4.733882 2.734251 101 79 41 255
-0.932901 4.612556 3.874731 255 220 147 255
-0.932901 4.612556 3.573630 237 147 107 255
-1.624540 3.522234 3.707243 255 168 120 255
-1.624540 3.522234 4.008343 255 224 162 255
2.032784 1.762070 5.772250 255 255 255 255
2.078319 1.699335 5.291342 255 255 255 255
1.385546 1.732024 5.395609 255 255 255 255
1.355189 1.816866 5.842974 255 255 255 255
-0.998667 3.517841 3.408842 60 46 28 255
-1.332832 3.517841 3.408842 88 67 40 255
0.000000 2.000690 6.364702 255 255 255 255
0.000000 2.047511 6.744981 255 255 255 255
-1.278553 3.040275 1.455558 160 113 57 255
-1.484276 2.093821 1.104220 95 72 39 255
-1.632996 3.029354 1.783118 255 217 92 255
-1.941713 1.860128 6.734066 255 255 255 255
-1.294475 1.931726 6.737704 255 255 255 255
-1.324832 1.901708 6.290339 255 255 255 255
-1.987248 1.824805 6.253158 255 255 255 255
0.331277 -3.086438 5.491899 173 165 156 255
0.331277 -3.002743 6.058661 173 166 154 255
0.003828 -3.038381 5.641063 173 165 156 255
-0.499083 -3.134495 5.212456 143 139 130 255
-1.001993 -3.146914 5.350612 166 161 150 255
1.255764 -2.936779 5.042839 90 81 67 255
0.430949 -2.715843 5.472926 186 175 164 255
-2.098351 -2.770704 3.174465 243 206 122 255
0.878446 -2.744886 5.367017 189 177 161 255
1.315810 -2.776320 5.287690 189 178 156 255
1.325942 -2.773930 5.261109 179 172 156 255
1.336074 -2.771541 5.234528 172 164 154 255
0.669951 -2.761511 5.122953 179 171 161 255
0.506739 -3.134495 5.212456 138 134 127 255
-0.323621 -3.086438 5.491899 172 164 155 255
-0.826532 -3.098857 5.630055 173 166 154 255
-2.649664 1.747902 6.215977 255 255 255 255
-2.710378 1.707274 5.701526 255 255 255 255
-2.032784 1.762070 5.772250 255 255 255 255
2.710378 1.707274 5.701526 255 255 255 255
0.618213 1.062116 0.169419 127 82 45 255
2.477101 0.125525 1.742394 204 156 89 255
-0.647238 1.989619 6.741343 255 255 255 255
-0.662416 1.951199 6.327520 255 255 255 255
0.003828 1.958818 4.018897 33 26 24 255
0.437072 1.958818 3.907187 43 30 28 255
0.357216 2.599402 3.977214 204 118 88 255
0.003828 2.599401 4.049267 196 115 84 255
2.446523 -2.751482 5.011378 47 37 23 255
2.566078 -2.513956 5.332694 164 125 72 255
2.666672 -1.845712 4.763356 255 235 141 255
2.531794 -2.127895 4.455040 122 94 55 255
0.632059 2.028039 7.155165 255 255 255 255
2.588951 1.788530 6.730428 255 255 255 255
2.649664 1.747902 6.215977 255 255 255 255
1.987248 1.824805 6.253158 255 255 255 255
1.941713 1.860128 6.734066 255 255 255 255
-0.705598 5.024423 2.479239 224 171 85 255
-0.429742 5.062116 2.197731 196 116 61 255
-0.796975 4.024423 1.525388 189 102 59 255
-1.072830 3.986729 1.806896 216 157 75 255
0.815022 4.529403 3.877535 255 242 138 255
0.143128 5.614513 3.741118 204 158 90 255
0.037339 5.526149 3.741118 187 139 81 255
-2.771092 1.666646 5.187075 255 255 255 255
2.054895 0.213857 3.131515 107 85 55 255
0.662416 1.796935 6.372377 255 255 255 255
0.677595 1.780823 5.936127 255 255 255 255
1.355189 1.735220 8.588804 171 171 171 255
0.677595 1.761920 8.551786 132 132 132 255
0.000000 1.576549 9.143719 160 160 160 255
2.649664 1.651655 8.420678 255 255 255 255
1.987248 1.776681 8.183153 255 255 255 255
2.032784 1.670753 8.729633 255 255 255 255
2.710378 1.606285 8.870461 255 255 255 255
-2.710378 1.606285 8.870461 255 255 255 255
-2.771092 1.560916 9.320244 255 255 255 255
2.078319 1.564824 9.276113 249 249 249 255
0.003828 1.843052 3.604186 22 19 19 255
-2.649664 1.651655 8.420678 255 255 255 255
-2.588951 1.740406 7.832778 255 255 255 255
0.710604 2.599402 3.905161 169 97 74 255
0.550894 3.239985 4.014844 229 144 107 255
0.277361 3.239985 4.047241 236 159 115 255
2.771092 1.560916 9.320244 255 255 255 255
-1.421544 -1.094781 0.978864 146 103 51 255
-0.543237 3.239985 4.014844 226 144 105 255
-0.603870 3.378913 3.711843 130 76 59 255
1.324832 1.780591 6.320244 255 255 255 255
1.355189 1.756307 5.857926 255 255 255 255
0.692773 1.764712 5.499876 255 255 255 255
1.987248 1.764246 6.268110 255 255 255 255
2.032784 1.731791 5.779726 255 255 255 255
-0.618213 2.062116 0.357000 157 98 47 255
-0.618213 1.062116 0.169419 173 109 53 255
-1.066133 1.077968 0.576294 124 71 45 255
-1.051244 2.077969 0.730610 114 63 39 255
-0.382443 -4.733882 3.234251 131 99 50 255
-0.530310 -4.263121 3.137245 158 124 66 255
-0.664502 3.517841 3.408842 64 48 31 255
-2.558422 -2.513956 5.332694 167 127 75 255
-2.033126 -3.360232 5.385508 150 114 68 255
1.288766 -4.262376 4.100071 255 252 150 255
-2.747365 0.196892 2.786641 249 209 124 255
0.264119 -4.913166 1.856225 53 40 32 255
0.199075 -4.800627 1.151945 72 45 37 255
-1.355189 1.816866 5.842974 255 255 255 255
-0.289814 5.882497 3.446350 216 201 80 255
-0.819249 4.915766 2.767377 255 251 107 255
-0.932901 4.807110 3.055515 241 211 153 255
-1.987439 3.018433 2.110677 253 218 123 255
-2.382811 -3.396107 5.674290 255 245 195 255
-2.339652 -2.068676 3.282070 20 16 11 255
-1.883162 -2.068676 3.282070 14 12 7 255
-1.348685 3.949035 2.088405 255 235 98 255
-1.624540 3.911341 2.369913 242 212 139 255
-2.944580 -1.485628 3.767225 255 188 123 255
-1.664804 -3.445201 3.405574 243 204 121 255
-1.885093 -2.840458 2.856202 202 161 103 255
-0.338365 6.062116 3.151582 193 146 61 255
-0.677595 1.684788 8.574215 101 101 101 255
-0.924110 3.051195 1.127999 148 84 50 255
-0.294711 -5.129793 3.147378 88 53 45 255
-0.709788 -4.964328 4.441130 244 218 135 255
-0.897414 -5.079551 4.794569 255 255 197 255
-1.281109 -4.262376 4.100071 255 255 154 255
-1.514053 1.093821 0.983168 103 75 41 255
-1.081021 0.077968 0.421977 132 73 49 255
0.987195 3.911341 1.931169 255 255 255 255
0.618057 4.807110 2.836143 255 255 255 255
0.372905 -2.886905 0.537795 186 115 56 255
2.425945 -2.119996 2.595274 221 172 110 255
0.618213 0.062116 -0.018162 127 80 44 255
0.512829 -1.168538 0.136975 138 86 47 255
0.407445 -2.399192 0.292113 145 90 47 255
-1.543829 0.093821 0.862116 109 78 41 255
-2.049223 1.727285 3.189476 90 70 42 255
-2.199780 1.731852 3.190576 161 121 71 255
-2.296914 0.970571 3.160495 86 67 40 255
-1.791600 0.970571 3.160495 58 48 27 255
0.003828 -2.954686 6.207826 167 151 132 255
-1.155074 -2.961617 5.319151 178 170 156 255
-2.093550 2.045627 3.497961 255 225 131 255
-2.244108 2.081127 3.492776 255 204 128 255
-1.248108 -2.936779 5.042839 119 104 86 255
-1.413478 -2.751482 5.011378 127 106 76 255
-1.201591 -2.949198 5.180995 160 153 143 255
-2.562085 0.149314 2.090477 235 168 124 255
-0.148538 1.169231 10.572259 220 115 72 255
-0.278760 1.312305 5.587182 220 115 72 255
-2.735848 -2.745097 5.017145 248 132 84 255
-2.855135 -2.581067 5.318246 255 187 132 255
-2.959501 -1.951332 4.693286 255 234 175 255
-2.825089 -2.180045 4.423789 255 161 115 255
0.210807 -5.525705 3.060505 68 37 37 255
0.201291 -5.733882 3.734251 115 56 56 255
1.798856 -4.375176 5.729233 255 224 169 255
-0.752000 -4.206509 5.137221 1 1 0 255
-1.549873 0.213857 3.131515 44 33 19 255
0.003828 0.213857 3.131515 60 50 15 255
2.417548 1.125525 1.796918 212 164 91 255
1.086940 -2.728262 5.611082 193 181 157 255
2.647287 -0.949657 2.864999 253 212 127 255
2.750412 -0.925869 3.213081 251 152 97 255
2.539553 -2.096207 2.943357 248 209 122 255
0.307677 3.378913 3.728041 134 79 62 255
0.611526 3.378913 3.711843 130 76 59 255
-1.638199 2.726111 3.608674 174 132 79 255
-1.420075 -2.410079 4.146724 96 74 25 255
-0.708124 -2.410079 4.146724 106 81 34 255
2.396915 -2.410079 4.146724 32 25 16 255
2.347308 -2.068676 3.282070 20 16 11 255
-0.330337 3.517841 3.408842 74 54 36 255
0.003828 3.517841 3.408842 89 65 41 255
-0.942678 1.843052 3.492477 33 23 23 255
-0.469425 1.843052 3.548332 26 23 19 255
0.003828 1.727286 3.189476 10 10 10 255
-1.507829 -4.206509 5.438322 131 98 59 255
1.274969 2.622563 3.299159 49 36 23 255
1.340488 3.517841 3.408842 86 66 40 255
1.006323 3.517841 3.408842 58 44 28 255
1.543616 1.727286 3.189476 67 53 34 255
-1.942993 2.010126 3.503146 210 157 96 255
1.967714 1.109673 1.390043 209 166 75 255
2.012379 0.109673 1.302255 192 153 71 255
1.995095 2.677964 3.131380 222 187 111 255
1.995095 2.629326 3.298909 245 146 95 255
-2.654725 0.173103 2.438559 226 181 118 255
-0.967187 -1.131660 0.557920 168 92 56 255
2.647710 -1.414994 3.872704 218 162 95 255
2.497509 -1.741835 3.577387 76 59 36 255
0.677595 1.857955 5.913698 255 255 255 255
2.899949 -0.632474 3.450974 255 186 115 255
2.799973 -1.450311 3.819964 255 245 144 255
-1.385546 1.249601 9.524265 255 255 255 255
0.000000 2.062116 0.357000 143 99 45 255
0.000000 1.716953 9.714182 255 255 255 255
-1.385546 1.676557 9.670074 255 255 255 255
-2.771092 1.747516 9.523983 255 255 255 255
0.000000 1.924731 9.523883 255 255 255 255
1.385546 1.249601 9.524265 255 255 255 255
2.771092 1.338208 9.524216 255 255 255 255
2.771092 1.449562 9.422230 255 255 255 255
-2.771092 1.654216 9.422113 255 255 255 255
2.825180 -0.779171 3.332027 255 124 88 255
2.862791 -2.581067 5.318246 255 184 130 255
-2.974423 -2.417037 5.619346 255 245 195 255
0.329164 -5.025705 2.560505 40 32 24 255
0.000640 9.533486 4.579953 183 183 91 255
0.001914 9.432900 4.753700 183 183 99 255
0.198311 9.432900 4.753700 183 183 99 255
0.225861 9.533486 4.579953 183 183 95 255
-1.934324 2.801681 3.600009 255 164 117 255
2.251764 2.081127 3.492776 255 208 134 255
1.657170 -4.290843 5.734327 255 255 196 255
-0.135472 5.614513 3.741118 216 169 99 255
1.486916 3.444293 4.013953 255 255 173 255
-2.137878 2.425837 3.793876 255 226 166 255
-0.807366 4.529403 3.877535 255 255 150 255
-1.479259 3.444293 4.013953 255 255 181 255
2.449784 -0.927409 3.206792 72 57 37 255
0.381742 -4.206509 5.137221 98 78 51 255
-0.681257 4.521995 3.574980 135 102 60 255
1.981004 -3.478995 5.074300 36 28 17 255
1.515485 -4.206509 5.137221 16 13 9 255
-1.973348 -3.478995 5.074300 36 28 18 255
2.755021 0.196892 2.786641 252 212 124 255
2.847661 0.220680 3.134723 246 166 102 255
-0.224581 9.533486 4.579953 183 183 95 255
-1.881209 2.974036 3.901110 255 220 160 255
0.342193 3.911341 1.492425 255 255 255 255
0.295556 4.807110 2.616771 251 251 251 255
1.679492 -2.910213 2.537938 128 92 71 255
0.000000 1.169231 10.572259 220 115 72 255
0.148538 1.169231 10.572259 220 115 72 255
-0.408982 0.556686 0.602105 220 115 72 255
-0.408982 1.006033 0.602105 220 115 72 255
0.000000 1.455379 0.602105 220 115 72 255
-0.408982 1.455379 0.602105 220 115 72 255
0.408982 1.455379 0.602105 220 115 72 255
0.000000 1.062116 0.169419 150 107 49 255
0.000000 1.312305 5.587182 220 115 72 255
0.278760 1.312305 5.587182 220 115 72 255
0.082904 -5.867373 0.569639 26 22 17 255
0.003188 9.332315 4.927446 183 183 138 255
0.000000 1.750640 9.333801 255 255 255 255
2.771092 1.666646 5.187075 255 255 255 255
4 0 1 2 3
4 4 5 6 7
4 8 9 10 11
4 12 13 14 15
4 13 16 17 18
4 19 20 21 22
4 23 24 25 26
4 27 28 29 30
4 29 31 32 33
4 34 35 36 37
3 38 39 40
4 39 41 42 40
4 43 44 45 46
4 47 48 49 50
4 51 52 53 54
4 55 56 57 58
4 59 60 61 62
4 63 64 65 66
4 67 68 69 70
3 71 72 73
3 18 17 74
4 75 76 77 78
4 79 80 81 82
4 83 84 85 86
3 87 88 89
4 90 91 92 93
4 22 94 95 96
4 97 98 39 38
4 99 100 101 102
4 0 103 104 1
4 105 106 107 108
4 109 110 111 112
4 113 114 115 116
4 117 118 119 120
4 71 73 94 22
3 26 25 121
4 122 123 88 87
3 124 66 125
4 126 124 125 127
4 128 129 130 123
4 108 107 131 128
4 132 133 134 135
4 136 137 138 139
4 140 141 142 143
4 144 91 145 146
3 147 148 149
4 150 151 99 152
4 153 154 155 156
4 157 158 159 160
4 161 162 163 164
4 81 165 166 82
3 167 168 169
4 170 171 172 173
4 174 175 176 177
4 55 178 179 56
4 180 181 182 183
3 184 185 186
4 187 188 189 190
4 191 192 138 193
4 194 195 180 196
4 8 197 198 9
4 199 200 201 202
4 201 203 204 202
4 205 200 199 198
4 203 201 200 206
4 206 200 205 207
4 208 209 210 211
3 209 212 210
4 213 214 40 215
4 216 164 163 212
3 217 136 139
3 218 219 220
4 221 222 223 224
4 30 225 226 227
4 228 163 162 229
3 162 230 229
4 231 232 233 234
4 235 236 237 238
4 239 240 241 242
3 243 244 245
4 246 247 248 249
3 60 59 250
3 251 240 252
4 241 240 251 253
4 254 255 256 257
3 258 259 260
3 261 262 263
4 264 265 266 267
3 268 269 270
4 59 269 271 250
4 271 269 268 246
4 272 273 274 275
4 62 276 277 269
3 212 278 210
3 279 280 281
4 282 283 284 285
4 286 287 288 289
4 290 291 35 34
4 53 292 293 294
4 295 270 296 297
4 298 299 142 300
4 243 245 61 60
4 301 302 56 282
3 283 303 284
4 96 95 304 305
3 306 307 181
4 308 309 310 244
4 118 117 311 312
4 50 49 313 314
3 100 315 140
4 316 317 318 319
3 320 321 322
4 323 324 325 326
4 327 328 329 330
3 331 332 321
4 333 328 327 318
4 301 334 239 335
3 336 337 338
4 339 340 341 342
3 343 344 345
4 346 347 348 349
4 193 137 208 350
4 351 352 353 158
4 354 355 356 357
4 358 359 360 361
4 362 363 310 364
4 365 366 214 213
4 367 368 369 370
4 371 372 373 374
4 95 178 375 304
4 218 376 377 378
4 379 380 381 382
4 291 383 384 385
3 309 188 187
4 386 387 388 389
3 390 391 392
3 393 394 395
4 396 397 398 399
4 400 391 390 401
4 402 403 46 404
4 405 406 407 408
4 409 410 411 412
4 395 394 413 414
4 415 416 417 418
4 419 420 421 422
4 418 417 422 232
4 292 423 424 293
4 425 415 418 426
3 427 428 429
3 419 430 431
4 432 433 424 434
4 250 435 436 60
4 437 438 439 440
3 441 442 443
4 444 445 446 447
4 184 448 449 450
4 47 451 452 48
4 453 454 47 50
3 455 445 456
3 457 458 459
3 460 461 462
4 397 463 464 398
4 48 465 466 49
4 172 467 468 469
4 462 461 470 471
4 68 472 473 69
4 474 475 476 477
4 478 160 84 83
4 479 480 481 482
4 310 309 187 364
4 426 418 232 231
4 42 483 129 215
4 385 384 133 132
4 484 485 472 486
4 487 488 352 351
4 157 160 478 489
4 106 370 490 107
4 491 114 113 492
4 493 159 494 495
4 496 497 498 499
4 500 501 344 338
4 502 503 504 505
4 265 506 507 266
4 86 85 76 75
4 388 492 480 479
4 349 505 265 264
4 508 509 510 511
4 353 512 513 494
4 488 514 515 352
4 409 487 351 410
4 516 517 518 519
4 520 396 399 521
4 344 520 521 338
4 287 522 508 288
4 523 524 91 90
4 525 526 527 528
4 529 530 531 532
4 390 392 533 534
4 177 176 535 536
4 537 538 79 539
4 540 541 542 543
4 382 381 52 51
4 544 173 545 546
4 152 99 102 218
3 173 544 170
4 456 445 547 548
4 94 303 178 95
4 448 549 457 459
4 550 451 468 467
3 471 465 462
3 462 452 460
4 183 551 196 180
3 452 451 460
3 47 454 451
3 468 451 454
3 550 460 451
3 552 553 554
3 555 552 554
3 556 550 552
3 459 449 448
3 557 444 449
4 547 558 559 548
3 544 444 557
3 559 558 313
3 547 444 558
4 558 444 544 546
4 266 507 560 561
4 560 543 562 561
3 563 530 529
4 464 463 541 540
4 77 464 540 78
4 389 388 479 564
4 565 367 370 106
4 463 356 566 541
4 541 566 567 542
4 568 569 570 571
4 572 573 574 575
4 576 177 536 355
4 577 578 579 580
4 581 582 583 584
4 585 284 586 587
3 561 267 588
4 294 293 589 222
4 579 529 532 175
4 590 503 502 591
4 592 593 321 320
4 593 516 594 321
4 595 596 597 598
3 338 599 600
4 597 592 320 601
4 602 404 569 568
4 289 288 596 595
4 288 508 511 596
4 603 499 500 599
4 596 511 592 597
4 398 464 77 604
4 570 605 606 607
3 598 601 608
4 312 311 102 101
4 609 486 472 68
4 280 228 229 256
4 519 518 396 520
4 604 496 499 603
4 289 595 488 487
4 286 289 487 409
4 393 395 610 611
4 595 598 514 488
4 512 321 594 513
4 515 320 321 512
4 352 515 512 353
4 612 590 591 613
4 613 591 614 531
4 591 502 348 614
4 578 615 616 563
4 616 613 531 530
4 286 409 412 577
4 577 412 615 578
4 412 411 612 615
4 617 618 619 620
4 62 61 307 276
4 121 25 93 92
4 621 622 145 524
4 392 393 611 623
4 247 624 274 625
4 376 626 366 365
4 627 307 245 363
4 628 629 130 483
4 102 311 219 218
3 598 601 514
4 630 346 349 264
4 76 85 497 496
4 631 632 633 66
4 84 160 159 493
4 85 84 493 497
4 497 493 495 498
4 166 190 634 82
4 635 275 295 297
4 475 105 108 476
4 503 478 83 504
4 571 570 607 408
4 636 637 435 250
4 410 157 489 411
4 411 489 590 612
4 509 354 517 510
4 632 638 639 633
4 122 477 476 123
4 306 181 195 640
4 641 192 551 642
4 484 92 144 485
3 583 582 12
3 581 643 582
4 522 174 177 576
4 74 17 96 305
4 498 495 644 501
4 645 620 538 537
4 32 646 523 33
4 647 648 139 649
4 620 619 650 538
4 618 5 651 619
4 375 652 653 178
4 79 82 634 539
4 287 580 174 522
4 3 654 87 23
4 370 369 655 490
4 656 482 474 657
4 657 474 477 658
4 619 651 659 650
4 564 479 482 656
4 387 491 492 388
4 580 579 175 174
4 473 135 134 361
4 660 661 662 663
4 173 172 469 545
4 469 453 664 545
4 364 187 190 166
4 49 466 559 313
4 466 665 548 559
4 465 471 665 466
4 661 666 667 244
3 668 470 669
3 455 670 668
4 671 165 81 70
3 461 669 470
4 204 203 672 673
3 445 444 547
4 674 675 676 677
4 218 220 626 376
4 678 98 97 679
4 103 484 486 104
4 680 118 312 299
4 18 74 387 386
4 445 455 429 446
4 450 449 444 447
4 644 513 594 343
4 447 446 279 281
4 446 429 681 279
4 558 546 314 313
4 440 439 442 682
4 439 425 683 442
4 683 425 426 432
4 410 351 158 157
4 435 440 682 436
4 433 231 234 589
4 684 116 380 379
4 171 685 467 172
3 430 460 556
4 557 449 459 458
4 686 687 150 688
4 432 426 231 433
4 689 607 606 690
4 293 424 433 589
4 534 262 691 401
4 692 693 438 437
4 416 460 430 417
4 693 416 415 438
4 422 421 233 232
4 421 694 695 233
4 636 246 249 637
4 417 430 419 422
4 669 461 693 692
4 679 37 31 678
4 610 395 414 407
4 407 414 571 408
4 414 413 568 571
4 583 645 537 584
4 562 630 264 267
4 108 128 123 476
4 406 611 610 407
4 696 623 611 406
4 697 696 406 405
4 404 46 45 569
4 363 245 244 310
4 405 408 607 689
4 698 394 393 392
3 43 46 403
4 465 48 452 462
4 602 568 413 699
4 700 602 699 443
4 443 699 698 391
4 44 690 606 605
4 43 148 690 44
4 625 274 273 701
3 533 392 623
4 43 702 703 704
4 403 705 253 702
4 706 235 238 666
4 480 707 708 481
4 507 75 78 560
4 52 381 57 709
4 52 709 710 53
3 308 188 309
4 576 355 354 509
4 504 83 86 506
3 214 38 40
4 622 385 132 146
4 455 456 665 670
4 578 563 529 579
4 367 565 684 379
4 711 627 363 362
3 551 192 196
4 152 378 688 150
4 371 38 214 366
4 358 642 551 183
4 514 601 320 515
3 218 378 152
4 38 371 374 290
4 156 648 647 373
4 155 217 648 156
4 651 712 609 659
4 707 684 565 708
4 482 481 475 474
4 118 680 230 119
3 291 385 622
4 543 542 630 562
4 401 691 235 706
4 348 502 505 349
4 505 504 506 265
4 361 360 69 473
4 360 671 70 69
4 356 355 536 566
4 517 354 357 518
4 518 357 397 396
4 694 575 713 714
4 522 576 509 508
4 357 356 463 397
4 151 315 100 99
4 532 531 614 715
4 175 532 715 176
4 176 715 347 535
4 700 402 404 602
4 716 224 713 717
4 378 377 655 688
4 342 341 323 326
4 339 342 718 331
4 719 14 386 389
4 720 721 341 340
4 722 324 721 345
4 345 721 720 723
4 720 340 328 333
4 721 324 323 341
4 322 723 720 333
4 328 340 339 329
4 724 329 339 331
4 725 330 329 724
4 316 319 726 608
4 319 318 327 330
4 337 325 727 600
4 336 326 325 337
4 319 330 725 726
4 144 146 135 485
3 315 728 716
4 643 581 632 631
3 729 140 143
4 78 540 543 560
4 194 677 640 195
4 350 635 675 674
3 299 729 143
4 350 208 211 635
4 715 614 348 347
3 675 635 730
4 506 86 75 507
4 731 628 483 41
4 100 140 729 101
3 195 181 180
4 315 151 687 728
3 276 307 306
3 301 282 285
3 335 302 301
4 552 550 467 685
4 495 494 513 644
4 732 733 734 735
3 179 303 283
3 736 188 308
3 667 308 244
4 335 737 710 302
3 527 526 188
3 525 66 526
3 635 297 730
4 298 738 680 299
4 158 353 494 159
3 676 277 640
4 141 140 717 713
4 141 574 300 142
4 297 296 676 730
3 717 140 315
4 676 296 269 277
3 525 739 66
4 284 585 740 285
4 585 259 258 740
4 678 28 731 98
4 666 238 741 667
4 468 454 453 469
4 261 263 742 743
3 586 284 303
4 525 742 168 739
3 210 272 211
4 229 230 738 256
3 716 717 315
4 526 633 189 188
4 147 689 690 148
4 24 227 226 25
3 142 299 143
4 697 405 689 147
3 694 714 695
3 572 575 694
4 268 270 624 247
3 714 744 695
3 223 222 744
3 624 270 295
4 115 375 55 58
4 539 634 639 638
3 573 257 300
4 35 291 621 646
4 185 184 450 745
3 263 746 168
4 260 259 149 703
4 4 1 104 712
3 259 587 149
4 747 748 255 254
3 247 625 749
4 254 257 573 572
3 401 706 660
4 703 253 251 260
4 260 251 252 258
4 646 621 524 523
4 457 553 685 171
4 485 135 473 472
3 250 271 636
4 736 308 667 741
4 750 751 687 686
4 752 732 20 109
4 637 249 692 437
3 61 245 307
4 54 294 222 221
4 594 516 519 343
4 567 535 347 346
4 737 242 292 53
4 242 241 423 292
4 238 237 753 741
4 753 237 743 528
4 237 236 261 743
4 262 534 746 263
4 589 234 744 222
4 234 233 695 744
4 652 754 755 653
3 230 680 738
4 280 273 278 228
4 228 278 212 163
4 511 510 593 592
4 16 19 22 17
4 334 252 240 239
4 5 4 712 651
4 751 221 224 716
3 277 276 640
4 365 213 131 756
3 220 120 154
3 139 138 192
4 219 117 120 220
4 217 155 164 216
4 154 161 164 155
4 615 612 613 616
4 662 243 60 436
4 668 670 471 470
4 400 660 663 441
4 423 705 434 424
4 278 273 272 210
3 136 216 209
3 119 162 161
3 120 161 154
4 137 136 209 208
4 757 206 207 758
4 672 203 206 757
4 11 10 759 760
4 761 11 760 762
4 763 8 11 761
4 764 564 656 6
4 198 199 10 9
4 761 765 766 763
4 672 757 765 673
4 760 204 673 762
4 202 204 760 759
4 20 732 735 21
4 673 765 761 762
4 438 415 425 439
4 10 199 202 759
4 197 207 205 198
4 758 207 197 766
4 766 197 8 763
4 196 192 191 194
4 194 191 674 677
3 219 311 117
4 193 350 674 191
3 54 221 751
3 53 294 54
4 661 244 243 662
4 359 711 671 360
4 7 657 658 2
4 181 307 627 182
3 189 633 639
3 526 66 633
4 664 453 50 314
4 659 609 68 67
4 634 190 189 639
3 179 178 303
3 55 375 178
3 167 587 586
3 63 586 303
3 63 739 167
4 569 45 605 570
4 711 362 165 671
4 368 367 379 382
4 32 36 35 646
4 372 371 366 626
4 153 372 626 220
4 368 750 686 369
4 369 686 688 655
4 182 627 711 359
4 372 153 156 373
4 749 427 429 455
4 374 383 291 290
3 193 138 137
4 399 398 604 603
3 129 483 130
3 42 41 483
3 145 91 524
3 144 92 91
4 527 188 736 753
4 133 641 642 134
4 361 134 642 358
4 383 647 649 384
4 131 215 129 128
4 461 460 416 693
4 639 633 124 126
4 170 544 557 458
4 299 312 101 729
3 633 66 124
4 458 457 171 170
3 88 123 130
4 26 121 484 103
4 88 130 629 89
3 25 226 93
4 734 72 71 21
3 109 112 752
3 643 110 109
4 149 169 746 697
4 555 457 549 431
4 663 662 436 682
4 114 304 375 115
4 712 104 486 609
4 732 752 112 733
4 211 272 275 635
4 537 539 638 584
4 492 113 707 480
4 708 565 106 105
4 481 708 105 475
4 501 644 343 344
4 581 584 638 632
4 546 545 664 314
3 26 103 0
4 499 498 501 500
3 225 93 226
3 33 90 225
4 98 731 41 39
4 15 617 620 645
4 431 430 556 555
4 654 658 477 122
3 28 628 731
3 27 629 628
4 542 567 346 630
4 12 15 645 583
4 373 647 383 374
3 89 629 767
4 335 239 242 737
4 74 305 491 387
4 510 517 516 593
4 637 437 440 435
4 80 67 70 81
4 650 659 67 80
4 491 305 304 114
4 442 683 700 443
4 566 536 535 567
4 538 650 80 79
4 286 577 580 287
3 17 22 96
3 94 73 303
4 317 322 333 318
4 113 116 684 707
4 745 450 447 281
4 733 768 72 734
4 733 112 111 768
4 72 768 64 73
4 31 37 36 32
4 73 64 63 303
4 376 365 756 377
4 77 76 496 604
4 756 131 107 490
4 743 742 525 528
4 115 58 380 116
4 58 57 381 380
4 660 706 666 661
4 368 382 51 750
4 750 51 54 751
4 377 756 490 655
4 384 649 641 133
4 649 139 192 641
4 343 519 520 344
3 43 704 148
3 403 702 43
3 145 622 146
3 621 291 622
3 40 42 215
4 749 625 701 427
4 679 97 34 37
4 97 38 290 34
4 179 283 282 56
4 765 757 758 766
4 64 768 111 65
4 678 31 29 28
4 767 27 30 227
4 29 33 225 30
4 420 572 694 421
4 767 227 24 89
4 257 256 738 298
4 89 24 23 87
4 249 248 669 692
4 342 326 336 718
4 109 20 19 643
4 582 16 13 12
4 643 19 16 582
4 258 252 334 740
4 15 14 719 617
4 14 13 18 386
4 643 631 65 110
4 618 764 6 5
4 617 719 764 618
4 324 722 727 325
4 1 4 7 2
4 6 656 657 7
4 183 182 359 358
4 26 0 3 23
4 2 658 654 3
4 740 334 301 285
3 705 423 253
3 220 154 153
3 135 146 132
3 121 92 484
3 631 66 65
3 213 215 131
3 704 703 149
3 149 587 169
3 169 168 746
3 746 534 533
3 623 696 746
3 696 697 746
4 699 413 394 698
3 746 533 623
3 148 704 149
3 697 147 149
3 167 739 168
3 186 748 184
4 165 362 364 166
3 747 572 420
3 420 419 747
3 419 549 747
3 549 448 747
3 209 216 212
4 441 663 682 442
3 691 236 235
3 575 574 713
3 224 223 713
3 280 256 185
3 256 255 186
3 185 256 186
3 255 748 186
3 185 745 280
3 745 281 280
3 273 280 681
3 273 428 701
3 428 427 701
3 428 273 681
3 279 681 280
3 742 263 168
3 296 270 269
3 275 274 295
3 753 528 527
3 302 710 56
3 677 676 640
3 728 687 751
3 321 594 769
3 769 723 321
3 723 322 321
3 322 317 601
3 317 316 601
3 316 608 601
3 601 320 322
3 332 594 321
3 321 320 724
3 320 601 724
3 601 608 726
3 726 725 601
3 725 724 601
3 724 331 321
3 337 600 338
3 338 344 718
3 344 343 718
3 343 594 332
3 332 331 343
3 331 718 343
3 718 336 338
3 338 600 727
3 727 722 338
3 722 345 338
3 345 723 343
3 723 769 343
3 769 594 343
3 344 338 345
3 709 57 56
3 428 681 429
4 448 184 748 747
3 455 668 749
3 668 669 749
3 669 248 749
3 248 247 749
3 434 403 402
4 683 432 402 700
3 443 391 441
3 434 402 432
4 489 478 503 590
4 521 399 603 599
4 262 261 236 691
3 549 419 431
4 223 744 714 713
3 555 554 457
3 554 553 457
3 456 548 665
3 552 685 553
3 555 556 552
3 556 460 550
3 563 770 530
3 561 562 267
3 338 521 599
3 598 597 601
3 599 500 338
3 267 266 561
3 563 616 530
3 670 665 471
3 441 391 400
3 44 605 45
3 392 391 698
3 534 401 390
3 401 660 400
3 710 709 56
3 716 728 751
3 151 150 687
3 675 730 676
3 640 276 306
3 737 53 710
3 741 753 736
3 713 574 141
3 587 259 585
3 300 257 298
3 573 300 574
3 247 246 268
3 246 636 271
3 572 747 254
3 624 295 274
3 253 423 241
3 269 59 62
3 705 403 434
3 136 217 216
3 119 230 162
3 120 119 161
3 167 169 587
3 63 167 586
3 63 66 739
3 648 217 139
3 303 653 755
3 303 178 653
3 87 654 122
3 110 65 111
3 225 90 93
3 33 523 90
3 28 27 628
3 27 767 629
3 22 21 71
3 21 735 734
3 702 253 703
4 719 389 564 764
