ply
format ascii 1.0
comment Created by Blender 2.80 (sub 75) - www.blender.org, source file: 'ship-1.blend'
element vertex 242
property float x
property float y
property float z
property uchar red
property uchar green
property uchar blue
property uchar alpha
element face 382
property list uchar uint vertex_indices
end_header
-0.607690 0.057093 -0.018467 185 118 59 255
0.000000 0.062116 -0.018162 157 111 49 255
0.000000 -1.168538 0.136975 184 131 53 255
0.000000 6.062116 3.151582 186 131 53 255
0.225370 9.533486 4.579954 183 183 95 255
0.340041 6.009043 3.118542 190 141 58 255
0.364727 -4.734743 3.730871 164 118 77 255
0.367146 -4.931859 2.753557 76 56 33 255
0.735838 -3.797783 2.595263 113 91 50 255
0.558941 3.242451 4.009293 229 144 107 255
0.868173 1.954763 3.803273 48 32 28 255
1.032369 1.734272 3.190010 46 39 27 255
0.003660 5.581315 3.739612 185 140 82 255
-0.164737 9.332315 4.927446 183 183 116 255
-0.241262 5.702878 3.741118 212 190 126 255
-0.393595 -4.820181 2.724602 97 75 41 255
-0.314483 -3.723189 1.745220 172 128 63 255
-0.108557 -5.715887 1.069508 39 30 27 255
0.824034 4.915766 2.767377 243 226 91 255
1.236582 4.048943 2.026793 250 217 99 255
0.173535 -5.732974 3.734017 115 56 56 255
1.786487 -4.390987 5.129413 255 180 101 255
1.817157 -4.345099 5.724270 243 203 144 255
1.080871 -5.194833 5.143419 231 194 133 255
0.321017 -3.724906 1.742796 172 126 64 255
0.726947 -2.956971 1.183956 182 111 61 255
2.205115 -2.134469 1.898656 124 96 55 255
-0.731177 -3.777139 2.540298 124 99 52 255
-0.345693 -4.733291 3.733058 164 118 76 255
-2.744357 -2.728821 5.035667 248 136 83 255
-1.946265 -3.404517 3.747495 255 226 119 255
-1.778971 -4.392475 5.132883 255 204 111 255
0.148538 0.842835 10.572259 220 115 72 255
0.000000 0.556686 0.602105 220 115 72 255
0.408982 0.556686 0.602105 220 115 72 255
2.076589 1.736012 3.191175 87 66 40 255
1.840138 2.301952 3.817076 255 244 151 255
1.360595 3.345635 4.016921 235 209 123 255
-2.433084 -2.754805 4.999186 47 37 23 255
-2.638685 -1.404961 3.857435 218 163 95 255
-2.681695 -2.279951 5.653839 255 255 194 255
-2.340065 -2.068728 3.282137 20 16 11 255
-2.552651 0.236681 3.131463 146 83 30 255
-1.506801 -4.206502 5.739682 255 255 177 255
-1.842728 -4.295669 5.721074 231 193 131 255
-2.976711 -2.412459 5.620200 255 245 195 255
1.817157 -4.345099 5.724270 243 203 144 255
2.983896 -2.409699 5.621531 255 244 195 255
2.687676 -2.277888 5.653026 255 255 189 255
1.625982 3.525090 3.447569 237 154 102 255
0.248918 5.702878 3.741118 208 178 121 255
1.625378 3.538180 4.009871 255 210 138 255
-1.623541 3.513088 3.452986 234 159 105 255
-2.450393 1.509053 2.968372 214 185 108 255
-2.344618 1.759852 3.192591 215 154 91 255
-0.857129 -2.681146 5.930188 185 175 156 255
-0.642637 -3.049695 5.913436 177 170 156 255
0.004768 -2.958056 6.206485 167 151 132 255
1.385546 1.568733 9.231981 251 251 251 255
0.692773 1.572641 9.187851 225 225 225 255
2.771092 1.747516 9.523983 255 255 255 255
1.840138 2.301952 3.817076 255 244 151 255
2.151128 2.409087 3.791301 255 230 172 255
-0.692773 1.572641 9.187851 236 236 236 255
-1.385546 1.568733 9.231981 255 255 255 255
-2.771092 1.747516 9.523983 255 255 255 255
2.076589 1.736012 3.191175 87 66 40 255
2.564711 0.239970 3.132939 147 85 34 255
2.368813 1.758716 3.191046 214 155 92 255
2.360927 2.112741 1.865402 216 168 89 255
0.658257 2.128677 0.382965 128 81 45 255
-2.621030 1.820922 7.214612 255 255 255 255
0.000000 1.828098 7.822829 255 255 255 255
-2.205414 1.736899 8.119568 255 255 255 255
-1.385546 1.568733 9.231981 255 255 255 255
-2.078319 1.564824 9.276113 255 255 255 255
-1.254171 1.886212 8.039219 255 255 255 255
-1.026772 1.737135 3.190234 18 15 11 255
-0.656168 3.515854 3.408581 64 48 31 255
-1.332832 3.517841 3.408842 88 67 40 255
2.599112 -2.115020 3.159655 245 173 106 255
2.747834 -2.735724 5.034667 247 131 83 255
1.800594 -3.776672 4.049247 255 238 136 255
0.007881 -2.751313 5.010894 171 107 57 255
0.004056 -2.584065 6.304793 174 154 132 255
0.858070 -2.680205 5.934473 185 173 156 255
0.000000 3.062116 0.800440 181 122 53 255
-0.630536 2.073354 0.362052 157 98 47 255
-0.517246 4.070934 1.250610 195 116 57 255
0.000000 4.062116 1.243880 216 145 56 255
0.648659 -3.049229 5.915489 177 170 156 255
1.086134 -3.109721 5.071144 81 67 52 255
1.004268 -3.146199 5.364946 163 157 150 255
-1.627734 1.734857 5.506595 255 255 255 255
-2.710378 1.707274 5.701526 255 255 255 255
-1.273127 1.886202 6.181258 255 255 255 255
2.710378 1.707274 5.701526 255 255 255 255
2.078319 1.699335 5.291342 255 255 255 255
1.273127 1.886202 6.181258 255 255 255 255
-0.002116 1.966484 4.017251 33 26 24 255
0.868173 1.954763 3.803273 48 32 28 255
0.005725 3.230103 4.094903 229 153 109 255
-2.078319 1.699335 5.291342 255 255 255 255
-2.771092 1.666646 5.187075 255 255 255 255
1.254171 1.886212 8.039219 255 255 255 255
2.205414 1.736899 8.119568 255 255 255 255
2.710378 1.606285 8.870461 255 255 255 255
-2.710378 1.606285 8.870461 255 255 255 255
-2.771092 1.560916 9.320244 255 255 255 255
2.078319 1.564824 9.276113 255 255 255 255
2.771092 1.560916 9.320244 255 255 255 255
-0.858991 1.954358 3.802451 51 32 31 255
-0.543237 3.239985 4.014844 226 144 105 255
2.621030 1.820922 7.214612 255 255 255 255
1.627734 1.734857 5.506595 255 255 255 255
-2.839693 0.205890 3.134650 245 157 90 255
-2.946617 -1.496408 3.783602 255 188 123 255
0.605210 0.039868 -0.018632 127 80 44 255
0.421311 -2.426336 0.303667 147 91 47 255
-1.162343 4.051117 1.960588 241 209 91 255
-1.624540 3.911341 2.369913 242 212 139 255
-0.932901 4.807110 3.055515 241 211 153 255
-2.562139 -2.173179 3.118202 245 189 112 255
-1.238887 -3.496259 2.838324 166 125 87 255
-0.349984 5.893658 3.029581 192 143 60 255
-2.300969 2.204754 1.852812 255 226 131 255
1.632196 3.911341 2.369913 203 167 116 255
0.342193 3.911341 1.492425 255 255 255 255
0.940557 4.807110 3.055515 231 196 146 255
-2.189702 -2.154381 1.899468 198 153 85 255
-2.066433 1.730998 3.190352 90 70 42 255
-1.026772 1.737135 3.190234 18 15 11 255
-1.310076 -2.776547 5.282003 171 153 132 255
-1.093203 -3.140577 5.091862 80 70 56 255
-1.409573 -2.751585 5.011564 157 97 47 255
-0.148538 0.842835 10.572259 220 115 72 255
-0.148538 1.169231 10.572259 220 115 72 255
-0.408982 1.455379 0.602105 220 115 72 255
-0.748806 -3.021932 1.341076 194 123 61 255
-1.299259 -2.283382 1.095612 174 121 58 255
-0.438786 -2.536753 0.343274 252 158 73 255
1.516673 -4.206512 5.137082 16 13 9 255
-1.516179 -4.206517 5.136985 18 14 10 255
1.417805 -2.751532 5.011492 147 87 36 255
1.323769 -2.773899 5.274789 185 175 155 255
0.671844 3.513705 3.408213 62 46 31 255
1.032369 1.734272 3.190010 46 39 27 255
-1.340952 3.357619 4.018487 255 232 140 255
-0.185925 -5.733761 3.734180 115 60 56 255
0.000000 -5.317291 2.389154 24 18 17 255
2.371248 1.847365 2.614824 206 166 106 255
1.625982 3.525090 3.447569 237 154 102 255
1.723838 -2.958476 2.723679 177 141 92 255
-2.484103 0.261562 1.749096 253 217 127 255
0.000000 2.098623 6.912137 255 255 255 255
2.955478 -1.487342 3.778613 255 188 123 255
2.646685 -1.409095 3.868156 218 162 95 255
0.000000 1.924731 9.523884 255 255 255 255
-2.771092 1.524808 9.727955 255 255 255 255
0.000000 1.509175 9.904480 255 255 255 255
2.771092 1.524808 9.727955 255 255 255 255
-2.143471 2.409087 3.791301 255 225 165 255
-1.621576 3.531133 4.009328 255 224 162 255
0.003660 5.581315 3.739612 185 140 82 255
0.003660 5.581315 3.739612 185 140 82 255
-1.420213 -4.681176 5.749267 231 201 141 255
2.441781 -2.750699 4.998449 97 56 22 255
2.646685 -1.409095 3.868156 218 162 95 255
2.347625 -2.068687 3.282080 18 13 8 255
1.336621 3.523677 3.409647 86 66 40 255
2.564711 0.239970 3.132939 147 85 34 255
2.843788 0.137749 3.149884 247 158 95 255
-0.148538 0.842835 10.572259 220 115 72 255
0.000000 1.169231 10.572259 220 115 72 255
-0.148538 1.169231 10.572259 220 115 72 255
0.000000 1.455379 0.602105 220 115 72 255
0.408982 1.455379 0.602105 220 115 72 255
0.148538 1.169231 10.572259 220 115 72 255
0.248918 5.702878 3.741118 208 178 121 255
-0.233537 -5.319616 2.396628 45 33 26 255
-1.083514 -5.187874 5.152946 231 194 131 255
-0.334537 3.911342 1.492425 255 255 255 255
0.336314 -3.304231 0.774736 187 109 62 255
-0.223973 9.533484 4.579954 183 183 95 255
-0.692773 1.572641 9.187851 255 255 255 255
-0.336344 -3.303758 0.774775 207 124 68 255
0.517246 4.070934 1.250610 234 133 66 255
0.171046 9.332315 4.927446 183 183 116 255
-1.832482 2.301952 3.817076 255 239 150 255
2.500493 0.300397 1.770253 207 160 95 255
2.371248 1.847365 2.614824 206 166 106 255
2.843788 0.137749 3.149884 246 161 100 255
0.074676 -5.866512 0.571351 26 22 17 255
0.000000 -5.867373 0.569639 26 22 22 255
1.514475 -4.206507 5.739599 255 249 156 255
0.000000 2.062116 0.357000 143 99 45 255
1.514475 -4.206507 5.739599 255 249 156 255
0.000000 1.576549 9.143719 230 230 230 255
0.000000 1.924731 9.523884 255 255 255 255
0.000000 1.160993 9.524317 255 255 255 255
0.000000 1.576549 9.143719 255 255 255 255
0.692773 1.572641 9.187851 255 255 255 255
1.385546 1.568733 9.231981 255 255 255 255
2.771092 1.338208 9.524216 255 255 255 255
2.078319 1.564824 9.276113 255 255 255 255
-2.771092 1.338208 9.524216 255 255 255 255
-2.078319 1.564824 9.276113 255 255 255 255
-2.771092 1.560916 9.320244 255 255 255 255
2.771092 1.666646 5.187075 255 255 255 255
2.078319 1.699335 5.291342 255 255 255 255
2.599112 -2.115020 3.159655 245 173 106 255
1.405789 -4.682658 5.749862 220 175 110 255
-0.082904 -5.867373 0.569639 26 22 22 255
0.000000 -3.374618 0.783476 189 123 61 255
0.000000 -4.620996 0.676558 76 49 42 255
0.000000 5.062116 2.197731 204 143 56 255
-0.148538 0.842835 10.572259 220 115 72 255
2.687676 -2.277888 5.653026 255 255 189 255
-2.771092 1.524808 9.727955 255 255 255 255
-2.771092 1.338208 9.524216 255 255 255 255
0.000000 1.160993 9.524317 255 255 255 255
0.000000 1.509175 9.904480 255 255 255 255
0.000000 1.795374 5.590899 255 255 255 255
1.627734 1.734857 5.506595 255 255 255 255
0.000000 2.002603 7.873992 240 240 240 255
0.000000 2.098623 6.912137 255 255 255 255
0.000000 1.828098 7.822829 255 255 255 255
0.000000 -2.643048 0.414954 220 153 58 255
-0.858991 1.954358 3.802451 51 32 31 255
0.000000 2.002603 7.873992 240 240 240 255
-2.771092 1.747516 9.523983 255 255 255 255
-2.771092 1.338208 9.524216 255 255 255 255
-2.771092 1.524808 9.727955 255 255 255 255
0.000000 1.795374 5.590899 255 255 255 255
1.360595 3.345635 4.016921 235 209 123 255
-0.408982 1.455379 0.602105 220 115 72 255
0.000000 0.556686 0.602105 220 115 72 255
0.000000 1.312305 5.587182 220 115 72 255
0.000000 1.169231 10.572259 220 115 72 255
0.000000 1.455379 0.602105 220 115 72 255
0.000000 0.556686 0.602105 220 115 72 255
2.368813 1.758716 3.191046 214 155 92 255
3 0 1 2
3 3 4 5
3 6 7 8
3 9 10 11
3 12 13 14
3 15 16 17
3 5 18 19
3 20 7 6
3 21 22 23
3 24 25 26
3 15 27 16
3 6 23 28
3 29 30 31
3 32 33 34
3 35 36 37
3 38 39 40
3 39 41 42
3 43 40 44
3 40 39 45
3 46 47 48
3 49 50 51
3 52 53 54
3 55 56 57
3 58 59 60
3 51 61 62
3 63 64 65
3 66 67 68
3 19 69 70
3 71 72 73
3 73 74 75
3 74 76 75
3 77 78 79
3 80 81 82
3 83 84 85
3 55 84 83
3 86 87 88
3 86 88 89
3 90 91 92
3 93 71 94
3 71 95 94
3 96 97 98
3 99 100 101
3 94 102 103
3 104 59 58
3 105 104 106
3 75 107 108
3 104 58 109
3 100 9 101
3 106 109 110
3 111 112 78
3 113 114 96
3 42 115 116
3 27 15 28
3 81 21 82
3 106 109 105
3 117 26 118
3 119 120 121
3 30 122 123
3 119 124 88
3 87 125 119
3 87 0 125
3 126 127 128
3 129 123 122
3 130 42 131
3 53 52 125
3 132 133 56
3 83 134 132
3 135 136 137
3 138 139 140
3 141 91 142
3 91 57 56
3 143 83 144
3 101 9 145
3 146 42 67
3 79 147 130
3 20 148 149
3 112 111 101
3 111 99 101
3 95 93 102
3 78 112 101
3 145 78 101
3 11 145 9
3 40 43 142
3 150 151 68
3 82 152 80
3 28 123 27
3 122 153 129
3 71 154 95
3 155 47 81
3 131 146 99
3 67 156 155
3 152 26 80
3 157 158 159
3 60 157 160
3 116 115 122
3 62 151 51
3 161 52 54
3 162 14 52
3 156 47 155
3 162 163 14
3 147 163 162
3 164 51 50
3 165 43 44
3 166 167 168
3 163 169 37
3 169 35 37
3 61 66 68
3 79 163 147
3 42 168 170
3 171 67 155
3 172 173 174
3 34 175 176
3 1 0 117
3 177 32 176
3 68 67 171
3 52 121 120
3 52 14 121
3 0 129 153
3 125 52 120
3 151 128 178
3 151 126 128
3 179 148 28
3 38 142 133
3 28 180 123
3 83 168 134
3 121 14 181
3 182 25 24
3 124 13 183
3 19 126 69
3 73 184 74
3 185 138 140
3 179 15 17
3 186 19 70
3 0 153 125
3 186 5 19
3 5 187 178
3 130 188 54
3 189 190 191
3 184 76 74
3 11 169 145
3 20 6 148
3 192 149 193
3 48 194 46
3 195 0 87
3 1 117 2
3 82 23 6
3 129 27 123
3 185 16 138
3 124 14 13
3 163 79 78
3 78 145 163
3 145 169 163
3 143 91 166
3 43 196 141
3 43 141 142
3 59 197 198
3 198 60 59
3 60 110 109
3 109 58 60
3 199 200 201
3 201 202 203
3 202 204 203
3 204 110 203
3 203 199 201
3 205 108 75
3 75 74 205
3 74 184 205
3 184 200 199
3 199 205 184
3 206 207 65
3 65 198 63
3 198 197 63
3 64 206 65
3 141 166 91
3 133 134 38
3 42 146 131
3 76 73 107
3 168 167 170
3 96 208 97
3 94 95 102
3 75 76 107
3 106 104 109
3 107 73 75
3 102 93 94
3 96 114 209
3 79 130 77
3 155 210 171
3 62 68 151
3 161 162 52
3 156 48 47
3 23 22 211
3 178 128 127
3 182 118 25
3 149 192 7
3 5 4 187
3 11 35 169
3 212 185 213
3 212 213 214
3 89 215 186
3 212 193 149
3 212 149 17
3 149 148 179
3 31 30 180
3 80 155 81
3 29 116 122
3 33 32 216
3 196 217 166
3 196 166 141
3 41 38 134
3 218 219 220
3 218 220 221
3 41 39 38
3 42 116 39
3 6 28 148
3 222 93 95
3 222 95 154
3 126 19 18
3 126 18 128
3 139 138 16
3 139 16 129
3 189 69 190
3 66 146 67
3 41 168 42
3 91 133 142
3 90 85 84
3 7 24 8
3 128 18 5
3 128 5 178
3 98 97 223
3 197 59 104
3 197 104 224
3 91 143 92
3 133 91 56
3 91 90 57
3 166 217 167
3 113 98 225
3 197 226 105
3 197 105 59
3 99 146 100
3 105 113 104
3 0 139 129
3 196 165 211
3 17 16 185
3 17 185 212
3 105 58 59
3 121 14 124
3 121 124 119
3 77 111 78
3 152 82 8
3 7 192 24
3 71 93 222
3 71 222 226
3 44 40 45
3 224 104 113
3 224 113 225
3 182 213 227
3 182 227 118
3 179 28 15
3 200 184 73
3 200 73 72
3 130 54 42
3 90 84 57
3 55 132 56
3 54 188 161
3 29 45 116
3 149 7 20
3 85 90 92
3 85 92 144
3 189 117 70
3 189 70 69
3 41 134 168
3 168 83 143
3 88 87 119
3 26 25 118
3 53 115 54
3 132 55 83
3 131 99 228
3 71 76 229
3 71 229 154
3 133 132 134
3 113 96 98
3 153 115 53
3 105 109 58
3 23 180 28
3 130 147 188
3 220 203 160
3 220 160 221
3 195 86 70
3 230 158 157
3 157 159 160
3 203 110 60
3 203 60 160
3 65 207 231
3 65 231 232
3 233 225 98
3 233 98 223
3 27 129 16
3 44 45 29
3 76 184 200
3 76 200 229
3 144 83 85
3 4 13 187
3 113 105 226
3 45 39 116
3 51 164 234
3 211 46 196
3 214 193 212
3 69 126 151
3 119 125 120
3 162 161 188
3 162 188 147
3 62 61 68
3 5 186 215
3 5 215 3
3 196 43 165
3 165 44 31
3 165 31 180
3 51 234 61
3 8 26 152
3 21 23 82
3 180 23 165
3 23 211 165
3 177 173 172
3 177 172 32
3 235 175 34
3 235 34 236
3 237 137 136
3 237 136 238
3 239 237 176
3 118 227 2
3 118 2 117
3 240 135 137
3 137 237 239
3 176 32 34
3 122 30 29
3 31 44 29
3 54 115 42
3 80 26 189
3 80 189 191
3 57 84 55
3 153 53 125
3 6 8 82
3 81 47 22
3 81 22 21
3 76 71 73
3 8 24 26
3 120 121 181
3 12 178 187
3 12 187 13
3 182 24 192
3 144 92 143
3 0 140 139
3 4 183 13
3 117 189 26
3 177 176 237
3 177 237 238
3 69 151 190
3 191 190 241
3 123 180 30
3 38 40 142
3 213 182 192
3 213 192 214
3 149 179 17
3 143 166 168
3 192 193 214
3 3 124 183
3 3 183 4
3 215 88 124
3 215 124 3
3 88 215 89
3 186 70 86
3 186 86 89
3 87 86 195
3 2 227 140
3 140 0 2
3 227 213 185
3 227 185 140
3 122 115 153
3 222 114 113
3 222 113 226
3 0 195 70
3 0 70 117
