ply
format ascii 1.0
comment Created by Blender 2.80 (sub 75) - www.blender.org, source file: 'skull.blend'
element vertex 434
property float x
property float y
property float z
property uchar red
property uchar green
property uchar blue
property uchar alpha
element face 890
property list uchar uint vertex_indices
end_header
0.439359 -4.392548 -0.704003 84 82 82 255
1.034796 -4.031690 -0.083264 89 87 84 255
0.560875 -4.443134 0.407068 255 250 249 255
-1.056097 -2.518997 -0.300021 181 181 109 255
-0.943807 -3.292876 -0.969540 110 108 108 255
-0.770169 -3.432952 -0.147325 254 249 249 255
-0.225261 -1.115967 2.362476 97 95 84 255
0.116738 -0.796242 2.499947 250 249 188 255
-0.514245 -0.545951 2.538473 140 140 102 255
-0.437965 -0.960906 2.172094 84 82 82 255
-0.701218 -0.476631 1.998357 84 82 82 255
-0.581736 -1.196822 1.698226 84 82 82 255
0.787238 -2.468211 -0.327994 84 82 82 255
0.601448 -2.644174 0.300600 85 83 82 255
0.647900 -1.898815 0.121448 84 82 82 255
1.874581 -0.804990 1.414831 85 83 82 255
1.595736 -1.542857 0.934904 211 211 111 255
1.923135 -1.429260 0.295805 247 248 118 255
2.258989 -0.671378 1.037414 212 212 109 255
-1.648988 -1.278745 0.919066 146 145 94 255
-2.017889 -0.768112 1.425459 85 83 83 255
-2.168070 -0.868806 0.901888 185 185 102 255
1.623546 0.138224 2.593537 158 157 96 255
1.106170 0.721784 2.643912 243 243 164 255
0.746736 0.011628 2.796785 254 250 235 255
-2.497483 -1.147828 0.003322 247 248 119 255
-1.748299 -1.604730 0.024087 253 254 120 255
-2.275422 -1.131881 0.388203 207 207 108 255
-2.333916 -0.677758 -0.088157 150 150 94 255
-2.419337 -0.810604 0.282449 195 196 104 255
-1.899918 -0.538069 0.551384 122 122 88 255
1.852443 0.347399 2.097010 84 82 82 255
1.349179 0.923917 2.019323 155 155 95 255
-1.505906 0.414739 1.106817 85 83 82 255
-1.718303 0.158055 0.800921 84 82 82 255
-1.734294 0.133075 1.349687 167 167 98 255
-1.853625 -1.161834 -0.506028 130 129 91 255
-1.957416 -1.032957 -0.543569 151 150 96 255
-1.790933 -1.108346 -0.714930 89 87 83 255
1.643200 0.266719 0.901259 84 82 82 255
1.404800 0.227381 0.957948 84 82 82 255
1.599229 0.265238 1.303556 84 82 82 255
-1.798294 0.633386 0.519902 84 82 82 255
-1.833661 -0.049337 0.306317 84 82 82 255
1.180491 -0.006231 0.400259 84 82 82 255
1.104167 0.256082 0.707171 84 82 82 255
1.510299 0.111953 0.629469 84 82 82 255
1.652399 -0.200736 0.235969 85 83 82 255
1.889324 0.130037 -0.304794 84 82 82 255
1.775127 -0.150392 -0.135473 84 82 82 255
1.957259 -0.480783 -0.016630 96 95 85 255
0.252875 -1.137991 0.157062 84 82 82 255
0.458055 -0.048961 0.192291 84 82 82 255
1.007283 -0.553593 -0.302071 86 84 83 255
0.805339 -1.128867 -0.115687 84 82 82 255
-1.493389 -1.232519 -1.007958 85 83 82 255
-1.091501 -1.462940 -0.971033 84 82 82 255
-1.220478 -1.397240 -1.549617 84 82 82 255
1.779471 -0.069236 0.575687 84 82 82 255
-0.933386 -0.876847 -0.597204 84 82 82 255
-1.440692 -1.027146 -0.735331 84 82 82 255
-1.250169 -0.444905 -0.297596 84 82 82 255
1.817038 -1.771303 -2.322051 216 216 110 255
1.847643 -0.982726 -2.444089 85 83 82 255
1.794597 -1.792085 -1.816908 216 216 110 255
-1.598195 0.640365 0.836548 84 82 82 255
-0.480454 1.018088 0.345045 84 82 82 255
-0.171345 0.682768 0.462059 84 82 82 255
-0.542083 0.397070 0.146511 84 82 82 255
-1.591366 0.416391 -0.069554 84 82 82 255
-1.672698 0.681758 -0.257096 84 82 82 255
-1.357881 0.682265 0.053883 84 82 82 255
-1.652071 0.163399 -0.361371 84 82 82 255
-1.800890 0.381511 -0.270545 85 83 82 255
1.602627 -0.429493 -1.537870 84 82 82 255
1.727425 0.471967 -1.305961 84 82 82 255
1.746817 0.078912 -2.120441 84 82 82 255
1.083090 2.137613 0.293617 84 82 82 255
1.397081 1.762033 -0.017361 86 84 83 255
0.774670 1.430873 0.353902 84 82 82 255
1.602830 1.771494 -0.515942 84 82 82 255
1.801337 1.424643 -1.312557 84 82 82 255
1.775280 1.154379 -0.670291 84 82 82 255
-1.544612 1.396997 -0.890615 84 82 82 255
-1.765991 0.797020 -0.543268 84 82 82 255
-1.665314 0.298676 -0.873271 84 82 82 255
-1.834212 0.513277 -1.652256 84 82 82 255
2.188215 1.723359 -0.411828 92 90 84 255
2.542895 1.742530 -0.121368 247 248 118 255
2.112037 1.801404 0.116023 86 84 83 255
-1.457706 1.162021 -0.387784 84 82 82 255
-1.150654 1.499550 -0.426500 85 83 83 255
1.956067 3.073505 0.888529 216 216 110 255
1.925678 2.296494 0.818040 89 87 83 255
2.536401 2.347152 0.136301 216 216 110 255
-0.763155 2.894881 -0.575820 84 82 82 255
-0.193266 2.826044 -0.480243 84 82 82 255
-0.001037 2.496012 -0.029342 84 82 82 255
-1.955992 1.392898 -1.447204 84 82 82 255
-2.326643 1.880000 -0.740358 84 82 82 255
-1.894014 2.172133 -0.743743 84 82 82 255
2.418036 2.593515 -0.101460 84 82 82 255
2.838467 1.540296 -0.286344 195 194 104 255
2.329193 2.132906 -0.406853 84 82 82 255
2.148908 2.500043 -0.350271 84 82 82 255
-0.096788 3.054593 -0.446701 84 82 82 255
0.298514 3.070209 -0.317262 84 82 82 255
1.896636 3.595282 -0.050388 84 82 82 255
2.108509 3.259346 0.027089 85 83 82 255
1.367024 3.313484 -0.116163 84 82 82 255
1.679796 2.687553 -0.047274 84 82 82 255
-1.216461 2.544065 -0.662144 84 82 82 255
-1.257265 3.471750 -0.565366 84 82 82 255
-0.918806 3.281367 -0.712859 84 82 82 255
-0.651725 3.181252 -0.772920 84 82 82 255
0.687235 -1.737162 1.653789 84 82 82 255
0.816232 -0.896461 1.563680 84 82 82 255
0.418037 -0.983536 2.040144 84 82 82 255
-1.919191 -0.396896 -0.118953 84 82 82 255
-1.977165 0.264310 -0.720922 84 82 82 255
-2.055053 -0.685924 -0.406507 87 85 83 255
1.444734 -0.273426 -0.157807 84 82 82 255
1.571046 2.196055 -0.338264 84 82 82 255
-1.707649 2.798200 -0.624546 84 82 82 255
-1.858448 3.636080 -0.514307 84 82 82 255
-0.572262 3.699710 -0.501813 84 82 82 255
-0.724315 4.195687 -0.122733 84 82 82 255
-0.334390 4.521037 -0.060923 84 82 82 255
-2.202321 1.499879 -0.933553 84 82 82 255
-2.119840 1.040908 -1.371119 85 83 82 255
-2.053797 1.100269 -0.631445 84 82 82 255
-2.498983 1.229803 -0.640777 84 82 82 255
-2.908877 -0.310506 -0.048388 242 243 117 255
-2.116762 -0.451710 1.222015 185 185 102 255
-1.901253 1.016234 -0.049727 84 82 82 255
-1.853119 1.491531 0.908116 160 160 96 255
-2.254463 1.486301 0.021356 106 105 85 255
-2.398624 1.142055 -0.362333 99 97 85 255
-2.782039 0.617237 -0.339081 254 255 120 255
-2.773779 0.236297 -0.506371 254 255 120 255
-2.951241 0.151990 -0.481036 250 251 120 255
-2.467791 -0.946990 -0.403148 243 244 118 255
-2.846732 -0.645357 -0.038413 248 249 118 255
-3.085589 0.280451 -0.195239 249 250 119 255
-1.543027 0.812500 1.557330 167 167 98 255
-1.530556 0.857742 1.043256 85 83 83 255
-1.719223 1.047280 0.693428 85 83 82 255
-2.368967 2.134089 0.173098 146 147 93 255
-1.858724 2.490526 1.236604 181 181 102 255
-2.412012 2.705306 -0.022015 84 82 82 255
-2.159121 2.907513 0.492596 185 185 102 255
-2.234024 3.546325 0.153021 208 209 108 255
-2.039924 4.311166 -0.036240 112 111 87 255
-2.213260 3.137863 -0.304607 84 82 82 255
-1.700750 4.204382 -0.266098 84 82 82 255
-1.465550 4.861853 0.229531 115 114 87 255
-1.217384 4.373690 -0.024600 84 82 82 255
-0.399978 3.153385 -0.685067 84 82 82 255
-0.056943 3.621194 -0.313971 84 82 82 255
-0.109125 4.142199 -0.289958 84 82 82 255
-0.362832 3.354552 -0.481105 84 82 82 255
-0.706914 4.828635 0.326538 84 82 82 255
0.391129 3.932078 -0.162464 84 82 82 255
0.087083 4.713751 0.225003 84 82 82 255
0.876105 4.679692 0.313327 84 82 82 255
1.648351 4.392285 0.329392 84 82 82 255
1.430200 3.976519 0.059562 84 82 82 255
0.936593 4.055614 -0.056331 84 82 82 255
0.569211 3.454266 -0.503497 84 82 82 255
0.765193 3.233356 -0.425867 84 82 82 255
1.004471 3.615254 -0.331400 84 82 82 255
1.071525 2.689640 0.236795 84 82 82 255
0.761986 2.954415 -0.002280 84 82 82 255
-0.134955 -2.810415 0.110394 84 82 82 255
0.322728 -2.859510 -0.058826 85 83 82 255
0.416069 -2.853070 -0.492909 84 82 82 255
-0.336718 -2.583733 -0.366877 84 82 82 255
1.704554 2.002442 -0.797400 84 82 82 255
1.017289 1.124340 0.258334 84 82 82 255
0.877037 0.480978 0.354048 84 82 82 255
1.085255 0.714959 0.497015 84 82 82 255
1.689781 1.401292 0.289305 84 82 82 255
1.698632 0.951175 0.438838 84 82 82 255
1.430301 1.075964 0.361795 84 82 82 255
2.819356 1.113874 -0.133103 254 255 120 255
2.850247 1.487433 0.019057 254 255 120 255
2.855467 0.257375 -0.055907 254 255 120 255
3.052816 0.529869 -0.055263 216 216 110 255
2.787555 -0.407659 0.061537 216 216 110 255
2.135356 -0.426244 1.836696 87 85 83 255
2.142215 -0.195537 1.639763 84 82 82 255
1.314114 0.917858 1.531213 85 83 82 255
1.380438 1.603649 1.657949 195 194 104 255
1.508569 2.484745 1.618136 216 214 185 255
0.944792 1.809833 2.445159 238 233 233 255
1.123563 3.043564 1.888898 241 237 237 255
0.294203 2.187340 2.798141 255 250 250 255
1.025624 3.882394 1.562458 255 250 250 255
0.252415 3.323300 2.289381 255 250 250 255
0.293141 4.590575 1.430846 255 250 250 255
-0.381822 5.078781 1.165182 255 251 239 255
-0.820644 5.200025 0.653316 95 93 84 255
-1.069198 5.005336 0.814405 254 255 120 255
-1.610968 4.921069 0.428710 226 226 112 255
-0.288036 5.108721 0.462954 84 82 82 255
1.362481 0.784160 0.682366 84 82 82 255
1.230338 0.559328 0.972215 84 82 82 255
1.336716 0.985017 1.042617 84 82 82 255
1.280721 4.475325 0.968314 245 246 122 255
1.443184 -2.390084 0.394399 255 250 250 255
-0.366603 1.576419 3.076353 255 250 250 255
-1.149479 0.687309 2.759278 254 255 120 255
-0.257930 0.137005 2.857667 255 250 250 255
0.363406 1.066365 2.985696 255 250 250 255
-0.319135 4.489773 1.728405 255 250 250 255
-0.286280 3.693175 2.277189 255 250 250 255
2.088240 -0.049626 2.231675 84 82 82 255
1.686217 -0.181327 2.444899 122 121 88 255
1.890166 -0.358321 2.005924 85 83 82 255
1.614340 -0.243771 1.873782 84 82 82 255
1.459674 -0.653425 1.513093 84 82 82 255
1.303664 -1.276133 1.350275 84 82 82 255
0.965542 -0.203984 2.597962 203 203 109 255
0.472050 -0.506219 2.483000 193 191 170 255
1.498285 -0.135987 2.302003 104 104 85 255
1.010786 -0.077539 2.248952 85 83 82 255
1.002475 -0.304602 1.821321 84 82 82 255
0.557586 -0.426372 2.077979 84 82 82 255
-0.196416 2.567806 2.919105 255 250 250 255
-0.525480 2.636348 2.828068 254 251 234 255
-1.764781 4.409151 0.470653 254 255 120 255
-1.792484 3.670671 0.817682 240 235 235 255
-1.448643 3.491678 1.449080 246 241 241 255
-1.026739 4.482838 1.136766 254 251 229 255
-0.773159 3.724043 1.954431 255 250 250 255
0.259586 -1.697286 2.120561 110 108 86 255
1.144165 -2.104276 1.155068 253 254 137 255
2.402415 -0.957669 0.077399 238 238 115 255
2.620493 -0.616692 0.449320 216 216 110 255
2.745148 0.131939 0.157647 254 255 120 255
2.959373 0.656085 0.207155 254 255 120 255
2.241346 3.436490 0.367935 160 159 96 255
2.050231 3.890831 0.172357 90 88 83 255
1.733112 4.428537 0.581424 85 83 82 255
0.766952 5.044014 0.862510 99 98 85 255
1.270506 4.874218 0.524928 86 84 82 255
0.366256 5.202644 0.627139 84 82 82 255
-0.296563 5.388774 0.778829 85 83 82 255
1.700210 3.801153 1.008775 216 213 188 255
1.635265 1.361021 0.719497 84 82 82 255
1.622937 0.781859 0.792394 84 82 82 255
1.771592 0.797859 0.683122 84 82 82 255
1.830508 -0.286154 0.909127 85 83 82 255
2.112334 -0.471123 1.073580 175 175 99 255
2.267742 -0.446274 0.511769 138 137 91 255
2.428566 -0.491693 0.122456 254 255 120 255
2.745862 -0.106176 0.356623 216 216 110 255
2.530349 1.747577 -0.296101 87 85 83 255
1.961589 2.312498 -0.499712 84 82 82 255
2.100533 2.020905 -0.733917 84 82 82 255
2.007641 1.484815 -1.143557 96 94 85 255
1.760971 1.510435 -0.313377 84 82 82 255
1.904734 1.570195 -0.162115 86 84 82 255
1.846613 0.732305 -2.209264 84 82 82 255
1.918157 1.027831 -0.467621 87 85 83 255
1.782916 0.493091 -0.593743 84 82 82 255
1.855575 -0.010967 -2.608391 90 89 83 255
1.681892 -0.880551 -2.401464 84 82 82 255
1.260620 -3.433193 -0.380848 84 82 82 255
1.102168 -3.672196 -1.064975 98 97 85 255
1.353869 -2.999072 -1.400513 216 216 110 255
0.757415 -4.104956 -1.257863 111 110 86 255
1.518922 -2.460060 -2.252929 216 216 110 255
1.492008 -1.323201 -1.959959 85 83 82 255
1.644782 -0.111159 -0.895153 84 82 82 255
1.726916 0.084509 -0.412348 102 101 84 255
1.997358 -0.882682 -1.493643 191 191 104 255
1.734584 -1.155987 -1.058045 84 82 82 255
1.847720 -0.499860 -0.891492 111 111 87 255
1.717453 -0.230329 -0.463204 85 83 82 255
2.018718 -1.084621 -0.071015 252 253 119 255
0.817633 0.131232 0.111078 84 82 82 255
0.637362 0.772105 0.375237 84 82 82 255
0.289333 0.652859 0.500053 84 82 82 255
0.345417 1.744897 0.412038 84 82 82 255
-0.399464 1.771902 0.151170 84 82 82 255
-0.710745 2.421217 -0.297128 84 82 82 255
-2.617296 2.033719 -0.281017 84 82 82 255
-2.870282 1.361811 -0.211839 122 121 88 255
-2.642171 1.266013 -0.208427 185 185 102 255
-2.823845 -0.064752 -0.274306 254 255 120 255
-1.180651 -1.120282 1.260534 84 82 82 255
-1.600895 -0.479968 1.546130 84 82 82 255
-1.945845 -0.421635 1.967201 84 82 82 255
-2.220894 -0.431888 1.769689 100 99 85 255
-1.630871 0.547749 2.165591 195 195 104 255
-2.036439 0.005604 1.854034 185 185 102 255
-1.806377 -0.088363 2.400248 201 201 106 255
-1.533255 1.485249 2.090512 195 195 105 255
-1.404023 2.658521 1.969221 223 222 188 255
-1.069614 2.086067 2.611407 254 255 120 255
-1.523613 -0.096829 2.097523 84 82 82 255
-1.101750 -0.500830 1.573119 84 82 82 255
-1.167130 -0.079263 1.993741 84 82 82 255
-0.822644 -0.865435 1.516484 84 82 82 255
-0.205519 -1.858970 2.039644 232 233 115 255
0.270862 -2.625021 1.993997 234 231 218 255
-0.254332 -2.900860 1.901555 175 173 164 255
0.070545 -3.167887 1.823179 145 142 142 255
-0.193674 -4.406475 0.206770 254 255 120 255
-0.435546 -4.081778 0.688148 241 242 116 255
-0.685829 -3.855375 0.240496 254 250 226 255
-0.724099 -3.136866 0.950273 202 198 198 255
-0.609569 -4.041390 -0.487588 84 82 82 255
-1.566585 -1.622534 -0.510253 101 99 84 255
-1.456096 -1.500563 -0.831078 84 82 82 255
-1.329147 -2.126177 -0.869513 84 82 82 255
1.215587 -3.282031 0.559936 253 248 248 255
0.608174 -3.208606 1.467277 167 166 124 255
0.058464 -4.458748 0.709931 252 249 230 255
0.419556 -4.557893 0.706488 254 249 248 255
0.362247 -4.129161 1.035060 187 184 184 255
0.887766 -3.989724 0.712828 241 236 236 255
1.303797 -3.091718 -0.063485 170 170 99 255
1.413835 -2.523253 -0.436085 85 84 82 255
1.694419 -1.239787 -0.393079 175 174 100 255
1.527005 -0.734239 -0.628727 84 82 82 255
1.713511 -0.552091 -0.384940 84 82 82 255
1.636417 -0.604315 -0.980580 86 84 82 255
1.556761 -2.199282 -1.135371 98 96 84 255
1.043765 -3.422402 -2.033922 190 190 104 255
1.406316 -0.791281 -0.889281 84 82 82 255
1.188364 -1.187437 -0.733051 84 82 82 255
1.258846 -1.629813 -1.394744 84 82 82 255
1.010791 -1.762663 -0.564418 84 82 82 255
1.056874 -2.285809 -1.061541 84 82 82 255
0.639780 -3.377031 -2.179507 99 98 85 255
0.471592 -3.909391 -2.064679 191 191 103 255
-0.180302 -4.294826 -1.408256 182 182 101 255
-0.847219 -3.626040 -1.697706 182 182 101 255
-0.012189 -4.009011 -1.854568 185 185 102 255
-0.168076 -4.416578 -0.519897 84 82 82 255
1.387058 -1.056891 -1.287114 84 82 82 255
1.337118 -2.215556 -2.352723 84 82 82 255
0.814347 -2.914717 -1.872413 84 82 82 255
1.138825 -2.303854 -1.737272 84 82 82 255
-1.511286 -2.423749 -1.586625 185 185 102 255
-1.758275 -1.532095 -1.099258 87 85 83 255
-2.168544 -0.944367 -0.403131 198 199 105 255
-2.588683 -0.513199 -0.345872 254 255 120 255
-2.975139 0.455765 -0.165476 240 241 117 255
-2.864874 1.227347 -0.487325 84 82 82 255
-2.025468 2.656817 -0.419005 84 82 82 255
-2.281611 2.440553 -0.386428 84 82 82 255
-1.477557 2.109026 -0.785289 84 82 82 255
-0.980187 1.966019 -0.467709 84 82 82 255
-0.772864 1.449742 -0.013945 84 82 82 255
-1.025931 1.189731 -0.123852 84 82 82 255
-1.222831 1.050264 -0.084637 84 82 82 255
-0.931421 0.580015 0.045579 84 82 82 255
-0.858067 0.110681 -0.139448 84 82 82 255
0.254482 -2.550624 0.409278 84 82 82 255
0.536527 -2.897354 0.171445 86 84 82 255
0.720613 -2.894306 -1.069495 84 82 82 255
0.373372 -3.150401 -0.823301 84 82 82 255
0.198016 -3.294993 -1.177948 84 82 82 255
0.305336 -3.313953 -1.742599 84 82 82 255
-0.169864 -3.408556 -2.145245 85 83 83 255
-0.260335 -3.156719 -1.685235 84 82 82 255
-1.201759 -2.335242 -2.380377 108 107 86 255
-1.221086 -1.229345 -0.837034 84 82 82 255
-2.001316 -0.889159 -0.781404 138 137 91 255
-1.939714 -1.492610 -1.662878 189 189 102 255
-2.113674 -0.247106 -1.601042 216 216 110 255
-1.661718 1.831820 -1.056484 84 82 82 255
-2.201714 0.431248 -2.234698 85 83 83 255
-1.985176 -0.904780 -2.386662 84 82 82 255
-0.918673 -2.346789 -2.100099 84 82 82 255
-0.254091 -3.050721 -0.921833 84 82 82 255
-0.637002 -2.562412 -1.370648 85 83 82 255
-1.584550 -2.286034 -2.191575 185 185 102 255
-2.079248 0.834711 -2.296984 84 82 82 255
-2.090687 0.060946 -2.646014 84 82 82 255
-1.970783 0.685438 -2.179756 84 82 82 255
-1.619635 -1.007794 -2.310555 84 82 82 255
0.403766 -3.011320 0.429261 84 82 82 255
-0.390888 -1.755724 -0.084967 84 82 82 255
-0.763185 -1.990750 -0.845015 86 84 82 255
-0.748641 -1.376366 -0.568991 84 82 82 255
-2.003212 0.451626 -2.633516 84 82 82 255
-1.900474 -0.065242 -2.410938 84 82 82 255
-1.645091 -0.416867 -1.600861 84 82 82 255
-0.818832 -0.445527 -0.318593 84 82 82 255
-1.007825 -0.154942 -0.128850 84 82 82 255
-1.156003 0.132167 0.031249 84 82 82 255
-1.501514 0.008701 -0.072642 84 82 82 255
-1.567561 -0.357138 -0.534095 84 82 82 255
-1.551712 -0.718679 -1.075015 84 82 82 255
-0.583142 -2.577205 -0.846820 84 82 82 255
0.173177 -3.069740 0.272473 84 82 82 255
-0.008628 -0.260241 0.246276 84 82 82 255
-0.353682 -0.304605 0.091346 84 82 82 255
-0.429432 -0.942640 -0.127781 84 82 82 255
-0.752660 0.860212 0.204864 84 82 82 255
-0.857499 -2.903163 0.212523 251 246 244 255
-0.932847 -2.041881 0.975155 251 246 246 255
1.935274 0.283265 -0.934734 92 90 83 255
1.989592 1.467188 -1.794912 84 82 82 255
2.105160 1.299417 -1.932031 205 206 107 255
2.058538 1.329136 -2.425844 103 101 85 255
1.999924 0.668296 -1.646771 181 182 101 255
2.102387 0.773930 -2.280667 215 215 110 255
2.157133 1.241724 -2.432398 216 216 110 255
2.004161 -0.186939 -1.900082 216 216 110 255
2.077686 0.815203 -2.734728 92 90 83 255
2.028337 -0.435205 -1.086027 170 170 98 255
2.014721 0.042707 -2.557260 87 85 83 255
1.902639 1.232432 -2.138476 84 82 82 255
1.936716 0.824900 -2.707896 87 85 82 255
3.038214 1.367630 0.102273 216 216 110 255
-1.018619 -0.094939 2.384479 84 82 82 255
-1.531716 -0.216896 2.441175 126 125 90 255
-1.046651 -0.135727 2.716124 152 151 94 255
-0.183147 -2.389686 0.214530 84 82 82 255
1.812970 0.362156 0.536351 84 82 82 255
1.616073 0.602196 0.533110 84 82 82 255
0.664285 2.679636 0.143250 84 82 82 255
3.050191 0.449264 0.217911 216 216 110 255
2.998478 1.609598 -0.083702 213 214 109 255
1.777580 0.367841 0.780869 84 82 82 255
1.965716 -0.318658 -0.540586 99 97 84 255
-0.248775 -3.636282 1.359858 141 139 139 255
0.079302 -3.011647 0.435681 84 82 82 255
-0.458139 -2.491960 1.712527 221 222 112 255
3 0 1 2
3 3 4 5
3 6 7 8
3 9 10 11
3 12 13 14
3 15 16 17
3 17 18 15
3 19 20 21
3 22 23 24
3 25 26 27
3 28 29 30
3 31 32 23
3 33 34 35
3 36 37 38
3 39 40 41
3 42 43 34
3 44 45 46
3 47 44 46
3 48 49 50
3 51 52 53
3 53 54 51
3 55 56 57
3 46 58 47
3 59 60 61
3 62 63 64
3 34 33 65
3 66 67 68
3 69 70 71
3 69 72 70
3 72 73 70
3 74 75 76
3 77 78 79
3 80 81 82
3 83 84 85
3 86 83 85
3 87 88 89
3 90 83 91
3 92 93 94
3 95 96 97
3 98 99 100
3 101 102 103
3 103 104 101
3 105 106 96
3 107 108 109
3 109 108 110
3 111 112 95
3 112 113 95
3 95 113 114
3 115 116 117
3 118 119 120
3 44 47 121
3 122 80 78
3 123 124 112
3 125 126 127
3 28 118 120
3 119 73 84
3 128 129 130
3 131 99 128
3 132 29 28
3 133 30 21
3 35 30 133
3 42 34 65
3 42 73 43
3 73 42 134
3 134 135 136
3 134 136 137
3 138 139 137
3 140 141 142
3 25 142 141
3 142 25 27
3 27 29 142
3 142 143 140
3 140 131 139
3 137 131 130
3 35 144 33
3 144 145 33
3 146 65 145
3 146 135 134
3 147 135 148
3 149 150 151
3 152 153 151
3 154 124 152
3 155 156 154
3 114 157 96
3 157 105 96
3 158 125 159
3 125 113 112
3 125 160 157
3 126 112 156
3 127 126 161
3 159 162 158
3 163 164 162
3 164 165 166
3 166 167 164
3 168 169 106
3 170 169 168
3 170 109 169
3 109 171 172
3 173 174 175
3 173 175 176
3 177 80 122
3 178 79 78
3 179 178 180
3 179 180 45
3 40 39 46
3 181 182 183
3 89 94 93
3 89 88 94
3 88 184 185
3 186 187 188
3 18 189 15
3 190 189 18
3 191 192 32
3 192 193 194
3 195 196 194
3 195 197 198
3 197 199 198
3 200 201 202
3 203 202 201
3 155 203 201
3 161 156 155
3 204 127 161
3 110 108 101
3 81 80 177
3 183 205 180
3 180 206 45
3 206 41 40
3 206 191 41
3 207 191 206
3 191 207 192
3 199 197 208
3 16 209 17
3 6 8 9
3 210 211 212
3 212 213 210
3 148 150 147
3 152 203 155
3 199 214 215
3 198 199 215
3 23 32 194
3 190 31 216
3 189 217 218
3 219 220 15
3 15 218 219
3 116 115 221
3 222 24 223
3 218 224 219
3 222 217 24
3 224 222 225
3 224 225 219
3 221 15 220
3 220 116 221
3 116 220 226
3 226 225 227
3 227 117 116
3 215 228 198
3 215 229 228
3 203 152 230
3 231 232 233
3 233 230 231
3 232 234 233
3 234 229 215
3 8 7 212
3 117 235 115
3 221 236 16
3 237 188 238
3 239 184 186
3 184 240 185
3 241 242 243
3 242 165 243
3 244 243 245
3 245 164 246
3 246 204 247
3 200 199 244
3 244 208 243
3 241 243 248
3 92 94 241
3 249 250 251
3 251 182 249
3 250 207 205
3 252 253 254
3 254 58 252
3 58 50 47
3 254 239 255
3 256 240 239
3 102 257 103
3 258 259 177
3 260 81 177
3 261 80 82
3 261 78 80
3 78 261 262
3 184 257 102
3 252 58 41
3 41 31 190
3 238 256 254
3 187 186 102
3 263 75 81
3 264 82 265
3 264 261 82
3 262 264 87
3 87 103 257
3 87 259 103
3 266 267 76
3 268 269 270
3 1 271 269
3 1 0 271
3 272 64 270
3 273 74 267
3 274 265 75
3 275 48 265
3 264 265 48
3 63 267 266
3 64 63 276
3 277 276 278
3 278 279 274
3 255 280 50
3 49 121 47
3 281 179 44
3 179 282 178
3 97 96 106
3 79 283 284
3 281 53 52
3 67 285 284
3 284 283 67
3 67 66 285
3 97 284 285
3 285 286 97
3 111 123 112
3 149 151 153
3 287 147 149
3 288 289 147
3 138 290 139
3 139 141 140
3 141 26 25
3 19 27 26
3 21 27 19
3 291 292 19
3 293 294 20
3 295 296 297
3 144 298 135
3 298 299 148
3 148 135 298
3 298 211 300
3 293 292 301
3 302 303 292
3 303 302 10
3 10 304 11
3 10 302 304
3 305 9 11
3 9 305 6
3 235 305 306
3 307 308 306
3 309 310 311
3 312 5 311
3 311 5 313
3 314 315 316
3 317 236 318
3 319 320 321
3 320 2 321
3 317 318 322
3 323 209 317
3 209 323 324
3 324 17 209
3 17 324 325
3 17 325 280
3 325 277 326
3 326 327 325
3 326 277 328
3 64 277 329
3 329 270 64
3 324 268 270
3 268 324 323
3 317 1 268
3 330 270 269
3 74 274 75
3 331 326 328
3 121 326 53
3 331 332 53
3 332 333 334
3 335 334 333
3 336 330 337
3 338 339 340
3 4 339 313
3 341 338 0
3 340 271 0
3 333 342 273
3 342 333 332
3 343 344 345
3 4 316 346
3 316 347 346
3 314 36 60
3 36 38 60
3 26 141 314
3 141 348 36
3 36 314 141
3 36 348 37
3 348 349 28
3 30 43 118
3 132 28 290
3 290 350 132
3 350 143 132
3 351 287 99
3 352 100 353
3 352 123 100
3 352 153 123
3 138 289 350
3 139 290 349
3 350 288 143
3 351 288 287
3 149 153 353
3 153 352 353
3 123 111 354
3 83 354 355
3 285 356 355
3 91 355 356
3 356 357 91
3 91 357 90
3 358 90 357
3 358 71 90
3 359 68 360
3 361 14 13
3 362 12 174
3 12 175 174
3 363 364 175
3 365 364 363
3 363 366 365
3 366 367 368
3 369 367 340
3 55 315 370
3 347 371 372
3 128 98 129
3 128 99 98
3 373 119 129
3 354 83 374
3 373 375 376
3 377 368 367
3 367 369 377
3 365 366 368
3 364 365 378
3 365 368 378
3 378 368 379
3 368 377 379
3 376 369 380
3 381 382 375
3 383 98 86
3 377 369 384
3 361 13 385
3 386 176 387
3 387 388 386
3 389 390 382
3 389 383 390
3 391 390 86
3 56 55 370
3 370 59 388
3 392 393 360
3 393 394 360
3 70 90 71
3 84 90 70
3 71 394 395
3 61 396 395
3 396 72 395
3 72 69 395
3 72 85 73
3 397 391 85
3 85 396 397
3 389 381 383
3 391 57 384
3 378 379 398
3 398 176 378
3 174 399 362
3 381 129 98
3 347 55 38
3 345 344 363
3 334 335 12
3 334 54 332
3 400 283 52
3 401 68 67
3 400 401 67
3 51 386 402
3 54 14 51
3 54 334 14
3 403 66 68
3 356 66 403
3 359 357 403
3 359 358 357
3 402 392 401
3 335 363 12
3 366 363 344
3 336 367 366
3 3 26 314
3 304 291 11
3 312 404 5
3 3 405 26
3 19 26 405
3 311 310 312
3 297 211 295
3 211 298 295
3 35 296 295
3 121 49 279
3 49 48 275
3 406 260 264
3 407 408 409
3 410 260 406
3 408 260 410
3 408 411 412
3 412 409 408
3 413 410 406
3 413 411 410
3 410 411 408
3 411 414 412
3 406 415 413
3 415 278 276
3 413 276 63
3 413 63 416
3 417 418 263
3 276 277 64
3 266 76 263
3 184 88 257
3 206 180 205
3 250 249 207
3 93 193 192
3 193 93 92
3 92 195 193
3 208 197 248
3 197 195 248
3 101 108 241
3 94 185 419
3 420 421 301
3 212 422 8
3 300 234 299
3 232 231 148
3 234 300 229
3 299 232 148
3 200 233 234
3 234 215 214
3 214 200 234
3 217 189 216
3 210 229 300
3 317 209 236
3 201 200 247
3 124 154 112
3 147 136 135
3 145 144 135
3 35 34 30
3 158 162 106
3 326 121 327
3 49 47 50
3 55 60 38
3 371 37 348
3 348 28 120
3 309 311 313
3 313 341 309
3 2 1 322
3 306 318 115
3 11 405 305
3 170 168 162
3 170 162 167
3 3 5 404
3 423 173 176
3 423 176 386
3 14 334 12
3 297 421 422
3 422 211 297
3 387 56 388
3 30 118 28
3 30 29 21
3 280 325 50
3 46 45 40
3 121 53 281
3 279 327 121
3 61 392 59
3 275 274 279
3 424 182 251
3 424 425 182
3 73 134 70
3 84 73 85
3 249 182 181
3 78 181 183
3 136 289 137
3 81 75 82
3 78 77 110
3 78 110 122
3 91 83 355
3 147 150 149
3 99 131 351
3 97 286 95
3 100 354 374
3 374 98 100
3 426 172 171
3 110 171 109
3 95 286 111
3 168 106 162
3 188 187 427
3 188 427 238
3 126 125 112
3 170 166 109
3 303 420 301
3 325 327 50
3 43 73 118
3 121 281 44
3 394 359 360
3 172 97 106
3 172 106 169
3 106 105 158
3 120 119 371
3 84 130 119
3 143 351 140
3 143 142 132
3 132 142 29
3 133 296 35
3 145 65 33
3 134 84 70
3 134 130 84
3 134 137 130
3 289 138 137
3 139 131 137
3 29 27 21
3 140 351 131
3 131 128 130
3 146 42 65
3 134 42 146
3 146 145 135
3 153 152 124
3 96 95 114
3 105 160 158
3 125 114 113
3 125 157 114
3 125 158 160
3 159 125 127
3 156 112 154
3 126 156 161
3 159 163 162
3 163 159 127
3 164 167 162
3 166 170 167
3 169 109 172
3 110 77 171
3 110 258 122
3 122 258 177
3 178 183 180
3 425 183 182
3 89 181 262
3 184 102 186
3 7 6 305
3 7 305 235
3 152 155 154
3 204 246 163
3 246 164 163
3 164 245 165
3 166 242 107
3 107 109 166
3 110 101 104
3 104 258 110
3 78 183 178
3 45 206 40
3 201 247 204
3 201 161 155
3 161 201 204
3 242 166 165
3 107 242 108
3 101 428 102
3 428 101 94
3 419 185 240
3 239 186 255
3 255 188 237
3 237 280 255
3 17 280 237
3 236 115 318
3 223 227 225
3 223 225 222
3 8 10 9
3 8 420 10
3 420 303 10
3 301 421 293
3 422 212 211
3 211 210 300
3 148 231 150
3 150 231 151
3 230 152 151
3 233 200 202
3 198 196 195
3 194 32 192
3 23 194 213
3 31 22 216
3 216 189 190
3 189 218 15
3 217 216 22
3 22 31 23
3 16 15 221
3 227 223 117
3 223 24 7
3 24 217 22
3 224 218 217
3 222 224 217
3 200 244 246
3 200 246 247
3 226 227 116
3 226 219 225
3 226 220 219
3 24 213 212
3 196 210 213
3 196 198 228
3 210 196 228
3 212 7 24
3 115 236 221
3 238 18 17
3 184 239 240
3 88 185 94
3 94 101 241
3 108 242 241
3 243 165 245
3 244 245 246
3 39 250 425
3 39 425 46
3 243 208 248
3 241 248 92
3 93 249 89
3 251 429 424
3 58 425 424
3 58 46 425
3 424 429 58
3 251 250 429
3 425 250 205
3 190 253 252
3 190 252 41
3 39 429 250
3 39 58 429
3 58 39 41
3 58 254 50
3 50 254 255
3 254 256 239
3 240 427 419
3 103 258 104
3 177 259 260
3 265 82 75
3 261 264 262
3 262 87 89
3 87 257 88
3 187 102 428
3 238 427 256
3 18 238 254
3 171 284 97
3 171 97 426
3 253 18 254
3 32 31 41
3 32 41 191
3 190 18 253
3 240 256 427
3 427 428 419
3 428 427 187
3 259 258 103
3 81 260 407
3 417 263 81
3 263 76 75
3 259 87 260
3 417 81 407
3 76 267 74
3 1 269 268
3 272 62 64
3 272 63 62
3 63 272 343
3 343 267 63
3 274 275 265
3 260 87 264
3 408 407 260
3 417 407 409
3 63 266 416
3 277 278 328
3 278 274 328
3 327 279 430
3 430 50 327
3 50 430 48
3 179 45 44
3 178 282 79
3 77 79 284
3 284 171 77
3 97 172 426
3 277 325 324
3 277 324 329
3 79 282 283
3 282 281 52
3 52 283 282
3 356 285 66
3 286 355 111
3 123 153 124
3 287 288 147
3 139 349 141
3 19 292 20
3 292 293 20
3 296 294 297
3 295 298 144
3 298 300 299
3 297 293 421
3 302 292 291
3 302 291 304
3 306 305 307
3 308 431 318
3 3 314 316
3 3 316 4
3 4 313 5
3 309 319 310
3 431 310 319
3 319 321 431
3 321 318 431
3 318 306 308
3 318 321 322
3 2 309 341
3 2 341 0
3 270 329 324
3 268 323 317
3 2 320 319
3 2 319 309
3 1 317 322
3 322 321 2
3 313 339 338
3 313 338 341
3 269 271 330
3 330 272 270
3 267 343 273
3 273 342 74
3 74 331 328
3 74 328 274
3 53 326 331
3 335 333 345
3 337 367 336
3 337 340 367
3 338 340 0
3 271 337 330
3 330 343 272
3 343 330 336
3 331 74 342
3 342 332 331
3 273 345 333
3 401 392 360
3 401 360 68
3 340 337 271
3 344 343 336
3 345 273 343
3 4 346 339
3 316 315 347
3 314 60 315
3 60 370 315
3 348 141 349
3 43 30 34
3 99 287 353
3 353 100 99
3 288 350 289
3 290 138 350
3 290 28 349
3 351 143 288
3 287 149 353
3 354 100 123
3 111 355 354
3 285 355 286
3 71 359 394
3 380 369 340
3 380 340 339
3 402 59 392
3 402 386 388
3 423 386 51
3 51 361 423
3 385 13 362
3 12 363 175
3 175 364 378
3 175 378 176
3 346 380 339
3 346 347 372
3 55 347 315
3 347 38 371
3 371 119 373
3 130 129 119
3 372 371 373
3 373 376 372
3 375 373 129
3 374 83 98
3 98 83 86
3 380 372 376
3 266 418 414
3 266 414 416
3 376 384 369
3 376 375 382
3 98 383 381
3 389 382 381
3 384 376 382
3 174 173 399
3 399 173 432
3 362 399 385
3 432 385 399
3 387 176 398
3 387 379 57
3 57 56 387
3 57 377 384
3 384 382 390
3 57 391 397
3 57 397 55
3 384 390 391
3 86 390 383
3 396 61 60
3 60 397 396
3 370 388 56
3 59 402 388
3 392 61 393
3 393 61 394
3 61 395 394
3 90 84 83
3 69 71 395
3 391 86 85
3 85 72 396
3 59 370 60
3 377 57 379
3 379 387 398
3 361 385 432
3 432 423 361
3 432 173 423
3 381 375 129
3 380 346 372
3 344 336 366
3 345 363 335
3 54 53 332
3 51 402 400
3 51 400 52
3 400 67 283
3 401 400 402
3 51 14 361
3 362 13 12
3 356 403 357
3 359 403 68
3 359 71 358
3 11 291 405
3 405 433 305
3 431 308 307
3 307 312 431
3 312 405 404
3 404 405 3
3 19 405 291
3 433 307 305
3 312 307 433
3 312 433 405
3 310 431 312
3 297 294 293
3 144 35 295
3 21 20 294
3 133 294 296
3 133 21 294
3 289 136 147
3 179 281 282
3 279 49 275
3 417 409 418
3 415 276 413
3 415 430 278
3 278 430 279
3 430 406 48
3 264 48 406
3 412 414 409
3 411 416 414
3 430 415 406
3 411 413 416
3 414 418 409
3 418 266 263
3 205 207 206
3 249 192 207
3 92 248 195
3 199 208 244
3 249 93 192
3 94 419 428
3 188 255 186
3 237 238 17
3 16 236 209
3 117 7 235
3 7 117 223
3 422 420 8
3 420 422 421
3 231 230 151
3 232 299 234
3 228 229 210
3 230 202 203
3 233 202 230
3 194 196 213
3 213 24 23
3 301 292 303
3 306 115 235
3 200 214 199
3 193 195 194
3 249 181 89
3 205 183 425
3 127 204 163
3 105 157 160
3 119 118 73
3 262 181 78
3 397 60 55
