ply
format ascii 1.0
comment Created by Blender 2.80 (sub 75) - www.blender.org, source file: 'skull.blend'
element vertex 434
property float x
property float y
property float z
property uchar red
property uchar green
property uchar blue
property uchar alpha
element face 890
property list uchar uint vertex_indices
end_header
0.880344 -8.534607 2.676692 5 5 5 255
2.073421 -7.983890 4.005786 1 1 1 255
1.056552 -8.846848 4.861342 174 171 149 255
-2.116103 -4.922059 3.979576 90 89 63 255
-1.891108 -6.279918 2.443244 2 2 2 255
-1.543190 -6.777797 4.038569 111 110 98 255
-0.451355 -2.847399 9.641690 94 94 70 255
0.233907 -2.249223 10.000120 123 121 105 255
-1.030394 -1.762489 10.143507 3 3 2 255
-0.877551 -2.488603 9.305066 16 16 16 255
-1.405032 -1.480502 9.089468 0 0 0 255
-1.165626 -2.830458 8.301016 0 0 0 255
1.577391 -4.813732 3.937598 27 26 26 255
1.204932 -5.330888 5.138516 15 15 14 255
1.298198 -3.803125 4.982256 26 25 25 255
3.756101 -1.976628 7.842955 72 71 51 255
3.197378 -3.313637 6.692739 107 107 64 255
3.853389 -2.917275 5.453971 131 131 70 255
4.526340 -1.610445 7.129183 109 109 66 255
-3.304080 -2.784931 6.731865 93 92 62 255
-4.043247 -1.906234 7.873915 77 77 62 255
-4.344166 -1.966282 6.807299 106 106 65 255
3.253101 -0.418567 10.435680 158 157 131 255
2.216434 0.726807 10.691657 181 181 122 255
1.496237 -0.724274 10.805462 156 153 137 255
-5.004211 -2.280248 4.948363 176 176 93 255
-3.503069 -3.193115 4.867503 146 145 84 255
-4.559267 -2.351428 5.716921 147 147 79 255
-4.676472 -1.322337 4.892317 57 57 36 255
-4.847629 -1.685177 5.592767 111 111 61 255
-3.806870 -1.215842 6.199647 56 56 40 255
3.711743 0.129496 9.505573 96 96 79 255
2.703352 1.295107 9.505360 102 101 84 255
-3.017386 0.527824 7.557239 43 42 31 255
-3.442966 0.099841 6.881200 33 33 33 255
-3.475008 -0.096406 7.964265 73 73 45 255
-3.714112 -2.171951 3.933151 69 69 48 255
-3.922078 -1.905995 3.893042 68 67 43 255
-3.588495 -2.009910 3.532607 44 43 41 255
3.292483 0.288814 7.109488 45 44 44 255
2.814801 0.195549 7.211549 29 29 29 255
3.204378 0.178370 7.907975 39 38 38 255
-3.603244 1.118850 6.450170 42 41 41 255
-3.674109 -0.179828 5.843594 38 37 37 255
2.365351 -0.119331 6.041662 35 34 34 255
2.212422 0.319556 6.721225 26 25 25 255
3.026190 0.054109 6.528409 32 31 31 255
3.310914 -0.461679 5.663438 39 38 38 255
3.785642 0.339675 4.677979 59 58 58 255
3.556825 -0.262448 4.939282 54 52 52 255
3.921764 -0.950297 5.086992 55 54 49 255
0.506685 -2.301796 5.256288 33 32 32 255
0.917805 -0.148611 5.617261 41 40 40 255
2.018295 -1.018606 4.500706 45 43 43 255
1.613659 -2.210793 4.717101 36 35 35 255
-2.992305 -2.178190 2.917529 45 44 43 255
-2.187042 -2.645628 2.929280 44 43 43 255
-2.445474 -2.360550 1.797883 43 42 42 255
3.565529 -0.291326 6.373191 48 47 45 255
-1.870227 -1.581659 3.828249 50 49 49 255
-2.886717 -1.843211 3.513792 41 40 40 255
-2.504966 -0.803970 4.538636 36 35 35 255
3.640801 -2.896953 0.164024 156 155 85 255
3.702125 -1.298384 0.132407 139 138 80 255
3.595838 -3.073209 1.161585 155 155 79 255
-3.202305 1.048093 7.080831 36 35 33 255
-0.962687 1.929518 6.205740 30 30 30 255
-0.343324 1.232370 6.348502 30 29 29 255
-1.086172 0.749351 5.645540 38 37 37 255
-3.188623 0.845457 5.221640 23 23 23 255
-3.351588 1.422539 4.920130 32 31 31 255
-2.720788 1.340446 5.537809 23 23 23 255
-3.310257 0.421044 4.574544 33 32 32 255
-3.608447 0.829902 4.813190 42 41 41 255
3.211186 -0.441934 2.079816 49 47 47 255
3.461244 1.286216 2.781231 50 49 49 255
3.500100 0.723335 1.058802 56 55 55 255
2.170189 4.166417 6.402776 33 32 32 255
2.799333 3.503689 5.684873 48 47 46 255
1.552208 2.746860 6.333633 37 36 36 255
3.211594 3.655709 4.697317 58 57 57 255
3.609341 3.179804 3.022709 59 58 58 255
3.557132 2.471486 4.225902 52 51 51 255
-3.094941 3.012153 3.853215 50 48 48 255
-3.538519 1.727897 4.382651 40 39 39 255
-3.336792 0.826470 3.594160 41 40 40 255
-3.675214 1.460787 2.104597 51 49 49 255
4.384530 3.532301 4.891204 58 56 53 255
5.095203 3.492752 5.473124 127 128 61 255
4.231893 3.546228 5.960266 74 73 48 255
-2.920809 2.411168 4.788947 35 34 34 255
-2.305567 3.091782 4.802261 45 44 44 255
3.919375 5.865939 7.834246 145 145 74 255
3.858485 4.341784 7.486634 106 105 67 255
5.082190 4.624559 6.146371 145 145 74 255
-1.529136 5.902535 4.878606 58 57 57 255
-0.387248 5.740298 5.050007 59 58 58 255
-0.002077 4.964428 5.857216 41 40 40 255
-3.919225 3.152747 2.746844 58 57 57 255
-4.661899 3.931150 4.280667 66 65 57 255
-3.795038 4.512172 4.352009 55 53 52 255
4.845022 5.177322 5.740059 64 62 62 255
5.687442 3.135242 5.091472 141 140 75 255
4.667008 4.344252 5.010525 62 61 61 255
4.305771 5.058193 5.220992 60 58 58 255
-0.193933 6.185187 5.177689 51 50 50 255
0.598133 6.181610 5.438903 54 53 53 255
3.800293 7.152986 6.109173 61 60 60 255
4.224823 6.465179 6.173257 64 62 62 255
2.739108 6.610968 5.903255 51 50 50 255
3.365811 5.349584 5.872790 52 50 50 255
-2.437425 5.228951 4.613437 51 50 50 255
-2.519184 7.045289 5.053517 56 55 55 255
-1.841014 6.706640 4.709751 65 63 63 255
-1.305863 6.523880 4.563729 69 67 67 255
1.377014 -3.891593 8.068381 20 20 18 255
1.635485 -2.198047 8.114096 0 0 0 255
0.837622 -2.498282 9.036993 11 10 10 255
-3.845486 -0.756370 4.906214 33 32 32 255
-3.961649 0.717515 3.887512 56 55 41 255
-4.117712 -1.253482 4.257955 35 34 33 255
2.894817 -0.500801 4.862051 45 44 44 255
3.147908 4.451325 5.163603 60 59 59 255
-3.421618 5.723566 4.756010 53 52 52 255
-3.723776 7.357972 5.198824 67 65 65 255
-1.146643 7.480991 5.240638 58 57 57 255
-1.451312 8.364603 6.125952 48 47 47 255
-0.670018 8.994167 6.335636 52 50 50 255
-4.412795 3.227931 3.795441 50 49 49 255
-4.247527 2.433433 2.803874 77 76 58 255
-4.115196 2.353654 4.288583 40 39 39 255
-5.007217 2.613376 4.304667 82 82 56 255
-5.828522 -0.603674 5.069429 139 139 71 255
-4.241359 -1.223557 7.554464 120 120 66 255
-3.809543 2.031328 5.421304 39 38 38 255
-3.713097 2.719217 7.450403 68 68 52 255
-4.517272 2.945794 5.688075 60 60 42 255
-4.806128 2.364720 4.834153 75 75 45 255
-5.574376 1.316321 4.740083 99 100 53 255
-5.557825 0.604554 4.306084 105 105 59 255
-5.913406 0.430366 4.333865 154 153 86 255
-4.944717 -1.772804 4.194861 121 121 69 255
-5.704001 -1.271287 4.999757 185 186 93 255
-6.182599 0.609093 4.935728 196 196 98 255
-3.091766 1.197310 8.558160 67 67 46 255
-3.066778 1.424525 7.549400 34 34 30 255
-3.444811 1.894392 6.905360 45 44 40 255
-4.746703 4.191623 6.162507 94 93 69 255
-3.724328 4.615245 8.369669 122 121 101 255
-4.832952 5.378087 5.927695 76 75 60 255
-4.326235 5.642114 7.003644 121 121 89 255
-4.476317 7.001412 6.500022 117 117 94 255
-4.087399 8.570810 6.328569 95 94 74 255
-4.434714 6.312575 5.482111 60 59 59 255
-3.407796 8.420181 5.843580 65 63 63 255
-2.936525 9.593345 7.003494 86 84 71 255
-2.439274 8.691859 6.368392 51 50 50 255
-0.801436 6.445066 4.730741 60 59 59 255
-0.114097 7.274878 5.592673 47 46 46 255
-0.218653 8.303074 5.779583 52 51 51 255
-0.727007 6.790040 5.189526 48 47 47 255
-1.416444 9.501458 7.187255 54 53 53 255
0.783706 7.851746 5.976613 54 53 53 255
0.174488 9.300452 6.954926 57 55 55 255
1.755453 9.209216 7.121219 56 55 55 255
3.302804 8.634190 7.076318 67 65 65 255
2.865693 7.880666 6.429387 60 58 58 255
1.876652 8.068702 6.220383 51 50 50 255
1.140529 6.994037 5.171705 67 65 65 255
1.533218 6.534609 5.266831 62 60 60 255
2.012660 7.267739 5.556475 64 62 62 255
2.147016 5.277818 6.437453 33 32 32 255
1.526793 5.867494 6.033451 43 42 42 255
-0.270409 -5.610430 4.716704 12 11 11 255
0.646650 -5.662703 4.367548 20 20 19 255
0.833679 -5.533918 3.507266 29 28 28 255
-0.674682 -5.032746 3.829514 26 25 25 255
3.415417 4.189538 4.200110 67 65 65 255
2.038343 2.163685 6.061943 44 43 43 255
1.757320 0.860518 6.080089 37 36 36 255
2.174527 1.286954 6.426518 36 35 35 255
3.385818 2.705381 6.197452 55 53 47 255
3.403553 1.771578 6.374113 58 56 56 255
2.865896 2.039972 6.254468 50 49 49 255
5.649149 2.247501 5.281827 145 146 69 255
5.711044 2.948657 5.683811 152 153 72 255
5.721504 0.526036 5.206247 175 176 83 255
6.116932 1.066982 5.280344 186 186 95 255
5.585428 -0.825974 5.261757 174 174 89 255
4.278616 -1.337244 8.781904 77 76 68 255
4.292359 -0.826480 8.452486 83 82 65 255
2.633092 1.413510 8.534451 52 51 37 255
2.765987 2.741489 8.969383 92 91 65 255
3.022722 4.501810 9.125771 132 131 107 255
1.893081 2.940569 10.587725 155 152 152 255
2.251284 5.539161 9.812780 154 151 139 255
0.589494 3.595899 11.389555 184 181 181 255
2.055045 7.292144 9.388689 149 147 137 255
0.505763 5.987643 10.682814 176 173 173 255
0.587366 8.733620 9.316577 163 161 151 255
-0.765057 9.774093 8.919481 161 159 147 255
-1.644326 10.151641 7.935415 79 78 70 255
-2.142354 9.721983 8.203280 168 167 127 255
-3.227900 9.657711 7.414848 132 130 103 255
-0.577139 10.021199 7.532994 64 62 62 255
2.730005 1.374844 6.813081 41 40 40 255
2.465231 0.850916 7.328584 28 27 27 255
2.678379 1.677439 7.582143 55 55 40 255
2.566183 8.628356 8.367281 160 159 118 255
2.891711 -4.851628 5.393005 119 119 68 255
-0.734563 2.308384 11.778777 188 185 176 255
-2.303213 0.627518 10.911539 169 167 131 255
-0.516815 -0.491569 10.959866 186 183 178 255
0.728158 1.319744 11.462453 185 182 182 255
-0.639452 8.453934 9.880533 171 168 159 255
-0.573619 6.725399 10.757441 178 175 171 255
4.184210 -0.694902 9.666897 105 105 79 255
3.378675 -1.013412 10.055124 99 98 86 255
3.787328 -1.247584 9.136109 47 46 44 255
3.234657 -0.984798 8.904311 0 0 0 255
2.924752 -1.701907 8.078586 0 0 0 255
2.612154 -2.894974 7.588860 16 15 15 255
1.934659 -1.099307 10.353023 88 87 72 255
0.945847 -1.668765 10.043966 96 95 83 255
3.002116 -0.885191 9.783477 0 0 0 255
2.025314 -0.754948 9.693747 0 0 0 255
2.008660 -1.091578 8.783879 0 0 0 255
1.117235 -1.401975 9.261011 0 0 0 255
-0.393558 4.319103 11.731436 191 187 187 255
-1.052904 4.479543 11.568969 190 186 178 255
-3.536095 8.629933 7.361341 148 147 118 255
-3.591603 7.070725 7.853135 140 138 115 255
-2.902648 6.546557 9.059134 147 144 131 255
-2.057278 8.598262 8.703801 153 151 134 255
-1.549180 6.872945 10.124756 176 172 163 255
0.520133 -3.937138 9.005953 109 108 78 255
2.292566 -4.487337 6.979918 144 144 80 255
4.813723 -1.922424 5.146279 182 182 88 255
5.250687 -1.344697 5.975958 163 163 83 255
5.500459 0.219878 5.596805 129 129 62 255
5.929702 1.247499 5.835182 157 157 75 255
4.490989 6.725871 6.897448 125 124 75 255
4.108052 7.680365 6.630479 73 71 67 255
3.472639 8.638830 7.586492 71 69 68 255
1.536744 9.785934 8.309142 130 128 114 255
2.545716 9.538961 7.593399 72 70 68 255
0.733867 10.163837 7.884132 67 66 66 255
-0.594224 10.492920 8.235098 75 74 73 255
3.406713 7.278772 8.267475 156 154 136 255
3.276584 2.510453 7.040967 75 75 53 255
3.251881 1.340872 7.030961 52 50 50 255
3.549742 1.401845 6.818244 65 64 64 255
3.667791 -0.811185 6.977372 32 31 30 255
4.232488 -1.222443 7.254515 77 77 48 255
4.543879 -1.022969 6.145509 71 71 47 255
4.866121 -1.009128 5.360273 162 162 76 255
5.501887 -0.306142 5.928301 141 141 72 255
5.070065 3.549469 5.127487 50 49 48 255
3.930440 4.725700 4.874115 66 64 64 255
4.208842 4.209239 4.331110 64 62 62 255
4.022713 3.254134 3.374391 70 68 62 255
3.528461 3.083168 5.029809 51 50 50 255
3.816519 3.161418 5.346156 50 48 47 255
3.700061 2.044579 1.057019 62 60 60 255
3.843415 2.166029 4.594548 55 54 52 255
3.572431 1.137843 4.201201 59 58 58 255
3.718019 0.675244 0.065811 100 99 72 255
3.370009 -1.106875 0.244356 81 79 63 255
2.525907 -6.715872 3.574775 0 0 0 255
2.208416 -7.007672 2.152366 71 71 62 255
2.712749 -5.581315 1.665928 0 0 0 255
1.517633 -7.815502 1.653686 130 129 85 255
3.043466 -4.283159 0.117235 158 158 85 255
2.989538 -2.103871 1.002810 52 50 50 255
3.295653 0.018466 3.441191 51 50 50 255
3.460224 0.278007 4.452232 73 72 60 255
4.002109 -1.353696 2.046538 131 131 71 255
3.475590 -2.012829 2.838517 1 1 1 255
3.702279 -0.754397 3.344590 74 74 58 255
3.441263 -0.333609 4.267110 57 56 55 255
4.044909 -2.134866 4.817635 154 154 73 255
1.638293 0.230918 5.504138 44 43 43 255
1.277083 1.432975 6.199963 43 42 42 255
0.579736 1.162823 6.415956 32 31 31 255
0.692112 3.354915 6.532995 27 27 27 255
-0.800406 3.478251 6.022179 33 32 32 255
-1.424121 4.887459 5.305459 44 43 43 255
-5.244281 4.113659 5.233905 81 80 66 255
-5.751189 2.760896 5.191728 96 96 66 255
-5.294123 2.569748 5.172905 99 99 55 255
-5.658143 -0.055284 4.686471 105 106 55 255
-2.365672 -2.561502 7.452300 0 0 0 255
-3.207717 -1.366283 8.190542 0 0 0 255
-3.898893 -1.362965 9.042294 63 62 57 255
-4.450010 -1.330546 8.647334 83 82 70 255
-3.267779 0.509026 9.695301 126 125 80 255
-4.080417 -0.484311 8.931736 138 138 78 255
-3.619441 -0.816874 9.991299 138 137 93 255
-3.072185 2.390779 9.796728 124 123 80 255
-2.813244 4.753078 9.869394 149 147 125 255
-2.143188 3.444690 10.991675 169 167 146 255
-3.052866 -0.752789 9.387883 2 2 2 255
-2.207579 -1.414922 8.238562 0 0 0 255
-2.338579 -0.690174 9.186487 0 0 0 255
-1.648334 -2.123822 8.028666 0 0 0 255
-0.411798 -4.236587 8.802063 167 168 83 255
0.542727 -5.745617 8.506710 131 130 98 255
-0.487744 -6.229545 8.160502 137 136 123 255
0.289016 -6.484841 7.548960 134 132 109 255
-0.388072 -8.805579 4.481583 148 147 116 255
-0.861645 -8.274668 5.521864 150 149 117 255
-1.374197 -7.720281 4.695825 132 130 106 255
-1.107242 -6.494014 6.067184 138 137 112 255
-1.221395 -7.895109 3.200287 0 0 0 255
-3.138968 -3.085682 3.801651 54 53 45 255
-2.917581 -2.757739 3.197150 44 43 43 255
-2.663213 -3.989814 2.953648 0 0 0 255
2.431457 -6.662334 5.479326 120 119 84 255
1.169887 -6.416761 6.876725 123 123 92 255
0.142202 -8.912779 5.476914 178 177 132 255
0.641343 -8.747170 5.512756 180 179 150 255
0.726042 -8.475039 6.199327 157 156 136 255
1.778819 -8.113290 5.597881 169 167 153 255
2.612419 -6.122577 4.296246 102 102 60 255
2.832903 -4.894152 3.708243 47 46 45 255
3.395111 -2.356934 4.136616 94 93 53 255
3.059663 -1.290043 3.803759 44 43 43 255
3.433365 -0.993479 4.336546 48 47 47 255
3.278892 -0.938018 3.139767 48 47 46 255
3.119285 -4.063942 2.406170 0 0 0 255
2.091393 -6.252705 0.294979 156 156 86 255
2.817837 -1.333692 3.271106 44 43 43 255
2.381126 -2.162128 3.475487 42 41 41 255
2.522351 -2.863779 2.043282 40 39 39 255
2.025324 -3.349476 3.656645 34 33 33 255
2.117661 -4.255497 2.529661 35 34 34 255
1.281927 -6.123703 0.018000 102 101 69 255
0.944929 -7.211550 0.103768 170 170 92 255
-0.361272 -8.152358 1.304298 155 155 86 255
-1.697574 -6.746935 0.908222 143 143 79 255
-0.024424 -7.465523 0.494387 134 134 83 255
-0.336774 -8.631523 3.035869 0 0 0 255
2.779250 -1.754831 2.410111 44 43 43 255
2.679186 -3.770956 -0.015598 100 99 67 255
1.631709 -5.287700 0.751369 47 45 45 255
2.281865 -4.110760 1.182970 42 41 41 255
-3.028167 -4.389105 1.450085 128 128 71 255
-3.523058 -2.748692 2.656172 47 46 45 255
-4.345115 -1.767601 4.195598 77 77 45 255
-5.186948 -0.926687 4.424520 88 88 50 255
-5.961291 0.949277 5.041680 137 137 70 255
-5.740353 2.567493 4.608736 83 81 69 255
-4.058433 5.387883 5.126392 47 46 46 255
-4.571668 4.949718 5.133295 53 52 52 255
-2.960584 4.397956 4.252642 55 53 53 255
-1.964003 4.029108 4.845079 46 44 44 255
-1.548590 2.882628 5.608205 37 36 36 255
-2.055660 2.395667 5.320470 35 34 34 255
-2.450189 2.108233 5.361075 29 28 28 255
-1.866290 1.139615 5.493996 34 34 34 255
-1.719310 0.257055 5.001153 45 44 44 255
0.509905 -5.174404 5.379653 11 11 11 255
1.074516 -5.798769 4.814465 12 12 12 255
1.443893 -5.461728 2.351260 28 27 27 255
0.748127 -6.036070 2.771720 19 18 18 255
0.396766 -6.228432 2.028821 19 18 18 255
0.611802 -6.115195 0.902471 40 39 39 255
-0.340358 -6.195460 0.077614 90 89 64 255
-0.521633 -5.818287 1.058400 34 34 34 255
-2.407967 -4.001238 -0.102497 88 88 70 255
-2.446692 -2.217561 3.257798 47 46 46 255
-4.010040 -1.556884 3.459173 74 74 49 255
-3.886609 -2.519670 1.547484 138 138 74 255
-4.235172 -0.062870 2.003107 148 148 75 255
-3.329588 3.919950 3.640027 58 56 56 255
-4.411577 1.453535 0.926062 74 72 72 255
-3.977700 -1.158944 0.267274 83 81 70 255
-1.840747 -4.099065 0.450993 53 52 52 255
-0.509123 -5.811796 2.602690 23 22 22 255
-1.276363 -4.722176 1.841920 36 35 35 255
-3.174966 -3.953973 0.285577 149 149 84 255
-4.166193 2.271379 0.910187 76 74 74 255
-4.189114 0.828102 0.010316 78 76 76 255
-3.948861 1.943626 1.103091 69 67 67 255
-3.245265 -1.383847 0.390880 62 61 61 255
0.762524 -5.976556 5.242248 0 0 0 255
-0.783222 -3.463816 4.610594 34 33 33 255
-1.529195 -3.727429 3.038485 40 39 38 255
-1.500054 -2.581144 3.750792 46 45 45 255
-4.013840 1.600576 0.139534 79 77 77 255
-3.807984 0.514699 0.443410 63 61 61 255
-3.296272 -0.400028 1.958101 47 46 46 255
-1.640694 -0.799594 4.496774 48 47 47 255
-2.019380 -0.273253 4.951218 42 41 41 255
-2.316284 0.254108 5.345864 29 28 28 255
-3.008587 0.036690 5.106565 20 20 20 255
-3.140925 -0.566483 4.092448 34 33 33 255
-3.109169 -1.139886 2.921677 40 39 39 255
-1.168443 -4.891531 2.878186 30 30 29 255
0.348081 -6.165815 4.968588 4 4 4 255
-0.017288 -0.582598 5.668006 32 32 32 255
-0.708674 -0.629296 5.348488 41 40 40 255
-0.860454 -1.837752 4.742849 44 43 43 255
-1.508106 1.653468 5.885179 37 36 36 255
-1.718112 -5.821700 4.895023 97 97 77 255
-1.869147 -4.315357 6.639320 104 102 78 255
3.877712 0.812290 3.467989 65 63 58 255
3.986548 3.393188 2.076218 86 85 70 255
4.218113 3.096668 1.759093 129 128 77 255
4.124696 3.287643 0.786420 121 119 86 255
4.007250 1.767159 2.156914 99 98 58 255
4.212557 2.146319 0.926348 127 126 76 255
4.322251 3.115812 0.750046 140 139 89 255
4.015741 0.136522 1.425349 145 145 74 255
4.163064 2.349615 0.035702 134 132 90 255
4.064183 -0.574020 2.975559 115 115 67 255
4.036900 0.768166 0.181691 133 133 80 255
3.812320 3.018817 1.331234 75 73 71 255
3.880602 2.361701 0.091576 99 98 79 255
6.087675 2.688514 5.817049 162 162 82 255
-2.041008 -0.825718 9.958227 0 0 0 255
-3.069101 -1.083050 10.038223 77 76 61 255
-2.097175 -0.995338 10.605907 120 119 95 255
-0.366971 -4.802773 5.035928 17 16 16 255
3.632650 0.575846 6.410356 64 63 63 255
3.238129 1.053384 6.468065 53 52 52 255
1.331030 5.282949 6.249018 30 30 30 255
6.111673 0.833918 5.801274 177 177 90 255
6.008056 3.218712 5.512399 180 181 92 255
3.561741 0.521793 6.897439 63 61 61 255
3.938709 -0.488334 4.089842 66 65 56 255
-0.018498 -7.326807 6.550211 137 135 118 255
0.160089 -6.079583 5.301310 3 3 3 255
-0.917974 -5.406168 7.983322 145 144 113 255
3 0 1 2
3 3 4 5
3 6 7 8
3 9 10 11
3 12 13 14
3 15 16 17
3 17 18 15
3 19 20 21
3 22 23 24
3 25 26 27
3 28 29 30
3 31 32 23
3 33 34 35
3 36 37 38
3 39 40 41
3 42 43 34
3 44 45 46
3 47 44 46
3 48 49 50
3 51 52 53
3 53 54 51
3 55 56 57
3 46 58 47
3 59 60 61
3 62 63 64
3 34 33 65
3 66 67 68
3 69 70 71
3 69 72 70
3 72 73 70
3 74 75 76
3 77 78 79
3 80 81 82
3 83 84 85
3 86 83 85
3 87 88 89
3 90 83 91
3 92 93 94
3 95 96 97
3 98 99 100
3 101 102 103
3 103 104 101
3 105 106 96
3 107 108 109
3 109 108 110
3 111 112 95
3 112 113 95
3 95 113 114
3 115 116 117
3 118 119 120
3 44 47 121
3 122 80 78
3 123 124 112
3 125 126 127
3 28 118 120
3 119 73 84
3 128 129 130
3 131 99 128
3 132 29 28
3 133 30 21
3 35 30 133
3 42 34 65
3 42 73 43
3 73 42 134
3 134 135 136
3 134 136 137
3 138 139 137
3 140 141 142
3 25 142 141
3 142 25 27
3 27 29 142
3 142 143 140
3 140 131 139
3 137 131 130
3 35 144 33
3 144 145 33
3 146 65 145
3 146 135 134
3 147 135 148
3 149 150 151
3 152 153 151
3 154 124 152
3 155 156 154
3 114 157 96
3 157 105 96
3 158 125 159
3 125 113 112
3 125 160 157
3 126 112 156
3 127 126 161
3 159 162 158
3 163 164 162
3 164 165 166
3 166 167 164
3 168 169 106
3 170 169 168
3 170 109 169
3 109 171 172
3 173 174 175
3 173 175 176
3 177 80 122
3 178 79 78
3 179 178 180
3 179 180 45
3 40 39 46
3 181 182 183
3 89 94 93
3 89 88 94
3 88 184 185
3 186 187 188
3 18 189 15
3 190 189 18
3 191 192 32
3 192 193 194
3 195 196 194
3 195 197 198
3 197 199 198
3 200 201 202
3 203 202 201
3 155 203 201
3 161 156 155
3 204 127 161
3 110 108 101
3 81 80 177
3 183 205 180
3 180 206 45
3 206 41 40
3 206 191 41
3 207 191 206
3 191 207 192
3 199 197 208
3 16 209 17
3 6 8 9
3 210 211 212
3 212 213 210
3 148 150 147
3 152 203 155
3 199 214 215
3 198 199 215
3 23 32 194
3 190 31 216
3 189 217 218
3 219 220 15
3 15 218 219
3 116 115 221
3 222 24 223
3 218 224 219
3 222 217 24
3 224 222 225
3 224 225 219
3 221 15 220
3 220 116 221
3 116 220 226
3 226 225 227
3 227 117 116
3 215 228 198
3 215 229 228
3 203 152 230
3 231 232 233
3 233 230 231
3 232 234 233
3 234 229 215
3 8 7 212
3 117 235 115
3 221 236 16
3 237 188 238
3 239 184 186
3 184 240 185
3 241 242 243
3 242 165 243
3 244 243 245
3 245 164 246
3 246 204 247
3 200 199 244
3 244 208 243
3 241 243 248
3 92 94 241
3 249 250 251
3 251 182 249
3 250 207 205
3 252 253 254
3 254 58 252
3 58 50 47
3 254 239 255
3 256 240 239
3 102 257 103
3 258 259 177
3 260 81 177
3 261 80 82
3 261 78 80
3 78 261 262
3 184 257 102
3 252 58 41
3 41 31 190
3 238 256 254
3 187 186 102
3 263 75 81
3 264 82 265
3 264 261 82
3 262 264 87
3 87 103 257
3 87 259 103
3 266 267 76
3 268 269 270
3 1 271 269
3 1 0 271
3 272 64 270
3 273 74 267
3 274 265 75
3 275 48 265
3 264 265 48
3 63 267 266
3 64 63 276
3 277 276 278
3 278 279 274
3 255 280 50
3 49 121 47
3 281 179 44
3 179 282 178
3 97 96 106
3 79 283 284
3 281 53 52
3 67 285 284
3 284 283 67
3 67 66 285
3 97 284 285
3 285 286 97
3 111 123 112
3 149 151 153
3 287 147 149
3 288 289 147
3 138 290 139
3 139 141 140
3 141 26 25
3 19 27 26
3 21 27 19
3 291 292 19
3 293 294 20
3 295 296 297
3 144 298 135
3 298 299 148
3 148 135 298
3 298 211 300
3 293 292 301
3 302 303 292
3 303 302 10
3 10 304 11
3 10 302 304
3 305 9 11
3 9 305 6
3 235 305 306
3 307 308 306
3 309 310 311
3 312 5 311
3 311 5 313
3 314 315 316
3 317 236 318
3 319 320 321
3 320 2 321
3 317 318 322
3 323 209 317
3 209 323 324
3 324 17 209
3 17 324 325
3 17 325 280
3 325 277 326
3 326 327 325
3 326 277 328
3 64 277 329
3 329 270 64
3 324 268 270
3 268 324 323
3 317 1 268
3 330 270 269
3 74 274 75
3 331 326 328
3 121 326 53
3 331 332 53
3 332 333 334
3 335 334 333
3 336 330 337
3 338 339 340
3 4 339 313
3 341 338 0
3 340 271 0
3 333 342 273
3 342 333 332
3 343 344 345
3 4 316 346
3 316 347 346
3 314 36 60
3 36 38 60
3 26 141 314
3 141 348 36
3 36 314 141
3 36 348 37
3 348 349 28
3 30 43 118
3 132 28 290
3 290 350 132
3 350 143 132
3 351 287 99
3 352 100 353
3 352 123 100
3 352 153 123
3 138 289 350
3 139 290 349
3 350 288 143
3 351 288 287
3 149 153 353
3 153 352 353
3 123 111 354
3 83 354 355
3 285 356 355
3 91 355 356
3 356 357 91
3 91 357 90
3 358 90 357
3 358 71 90
3 359 68 360
3 361 14 13
3 362 12 174
3 12 175 174
3 363 364 175
3 365 364 363
3 363 366 365
3 366 367 368
3 369 367 340
3 55 315 370
3 347 371 372
3 128 98 129
3 128 99 98
3 373 119 129
3 354 83 374
3 373 375 376
3 377 368 367
3 367 369 377
3 365 366 368
3 364 365 378
3 365 368 378
3 378 368 379
3 368 377 379
3 376 369 380
3 381 382 375
3 383 98 86
3 377 369 384
3 361 13 385
3 386 176 387
3 387 388 386
3 389 390 382
3 389 383 390
3 391 390 86
3 56 55 370
3 370 59 388
3 392 393 360
3 393 394 360
3 70 90 71
3 84 90 70
3 71 394 395
3 61 396 395
3 396 72 395
3 72 69 395
3 72 85 73
3 397 391 85
3 85 396 397
3 389 381 383
3 391 57 384
3 378 379 398
3 398 176 378
3 174 399 362
3 381 129 98
3 347 55 38
3 345 344 363
3 334 335 12
3 334 54 332
3 400 283 52
3 401 68 67
3 400 401 67
3 51 386 402
3 54 14 51
3 54 334 14
3 403 66 68
3 356 66 403
3 359 357 403
3 359 358 357
3 402 392 401
3 335 363 12
3 366 363 344
3 336 367 366
3 3 26 314
3 304 291 11
3 312 404 5
3 3 405 26
3 19 26 405
3 311 310 312
3 297 211 295
3 211 298 295
3 35 296 295
3 121 49 279
3 49 48 275
3 406 260 264
3 407 408 409
3 410 260 406
3 408 260 410
3 408 411 412
3 412 409 408
3 413 410 406
3 413 411 410
3 410 411 408
3 411 414 412
3 406 415 413
3 415 278 276
3 413 276 63
3 413 63 416
3 417 418 263
3 276 277 64
3 266 76 263
3 184 88 257
3 206 180 205
3 250 249 207
3 93 193 192
3 193 93 92
3 92 195 193
3 208 197 248
3 197 195 248
3 101 108 241
3 94 185 419
3 420 421 301
3 212 422 8
3 300 234 299
3 232 231 148
3 234 300 229
3 299 232 148
3 200 233 234
3 234 215 214
3 214 200 234
3 217 189 216
3 210 229 300
3 317 209 236
3 201 200 247
3 124 154 112
3 147 136 135
3 145 144 135
3 35 34 30
3 158 162 106
3 326 121 327
3 49 47 50
3 55 60 38
3 371 37 348
3 348 28 120
3 309 311 313
3 313 341 309
3 2 1 322
3 306 318 115
3 11 405 305
3 170 168 162
3 170 162 167
3 3 5 404
3 423 173 176
3 423 176 386
3 14 334 12
3 297 421 422
3 422 211 297
3 387 56 388
3 30 118 28
3 30 29 21
3 280 325 50
3 46 45 40
3 121 53 281
3 279 327 121
3 61 392 59
3 275 274 279
3 424 182 251
3 424 425 182
3 73 134 70
3 84 73 85
3 249 182 181
3 78 181 183
3 136 289 137
3 81 75 82
3 78 77 110
3 78 110 122
3 91 83 355
3 147 150 149
3 99 131 351
3 97 286 95
3 100 354 374
3 374 98 100
3 426 172 171
3 110 171 109
3 95 286 111
3 168 106 162
3 188 187 427
3 188 427 238
3 126 125 112
3 170 166 109
3 303 420 301
3 325 327 50
3 43 73 118
3 121 281 44
3 394 359 360
3 172 97 106
3 172 106 169
3 106 105 158
3 120 119 371
3 84 130 119
3 143 351 140
3 143 142 132
3 132 142 29
3 133 296 35
3 145 65 33
3 134 84 70
3 134 130 84
3 134 137 130
3 289 138 137
3 139 131 137
3 29 27 21
3 140 351 131
3 131 128 130
3 146 42 65
3 134 42 146
3 146 145 135
3 153 152 124
3 96 95 114
3 105 160 158
3 125 114 113
3 125 157 114
3 125 158 160
3 159 125 127
3 156 112 154
3 126 156 161
3 159 163 162
3 163 159 127
3 164 167 162
3 166 170 167
3 169 109 172
3 110 77 171
3 110 258 122
3 122 258 177
3 178 183 180
3 425 183 182
3 89 181 262
3 184 102 186
3 7 6 305
3 7 305 235
3 152 155 154
3 204 246 163
3 246 164 163
3 164 245 165
3 166 242 107
3 107 109 166
3 110 101 104
3 104 258 110
3 78 183 178
3 45 206 40
3 201 247 204
3 201 161 155
3 161 201 204
3 242 166 165
3 107 242 108
3 101 428 102
3 428 101 94
3 419 185 240
3 239 186 255
3 255 188 237
3 237 280 255
3 17 280 237
3 236 115 318
3 223 227 225
3 223 225 222
3 8 10 9
3 8 420 10
3 420 303 10
3 301 421 293
3 422 212 211
3 211 210 300
3 148 231 150
3 150 231 151
3 230 152 151
3 233 200 202
3 198 196 195
3 194 32 192
3 23 194 213
3 31 22 216
3 216 189 190
3 189 218 15
3 217 216 22
3 22 31 23
3 16 15 221
3 227 223 117
3 223 24 7
3 24 217 22
3 224 218 217
3 222 224 217
3 200 244 246
3 200 246 247
3 226 227 116
3 226 219 225
3 226 220 219
3 24 213 212
3 196 210 213
3 196 198 228
3 210 196 228
3 212 7 24
3 115 236 221
3 238 18 17
3 184 239 240
3 88 185 94
3 94 101 241
3 108 242 241
3 243 165 245
3 244 245 246
3 39 250 425
3 39 425 46
3 243 208 248
3 241 248 92
3 93 249 89
3 251 429 424
3 58 425 424
3 58 46 425
3 424 429 58
3 251 250 429
3 425 250 205
3 190 253 252
3 190 252 41
3 39 429 250
3 39 58 429
3 58 39 41
3 58 254 50
3 50 254 255
3 254 256 239
3 240 427 419
3 103 258 104
3 177 259 260
3 265 82 75
3 261 264 262
3 262 87 89
3 87 257 88
3 187 102 428
3 238 427 256
3 18 238 254
3 171 284 97
3 171 97 426
3 253 18 254
3 32 31 41
3 32 41 191
3 190 18 253
3 240 256 427
3 427 428 419
3 428 427 187
3 259 258 103
3 81 260 407
3 417 263 81
3 263 76 75
3 259 87 260
3 417 81 407
3 76 267 74
3 1 269 268
3 272 62 64
3 272 63 62
3 63 272 343
3 343 267 63
3 274 275 265
3 260 87 264
3 408 407 260
3 417 407 409
3 63 266 416
3 277 278 328
3 278 274 328
3 327 279 430
3 430 50 327
3 50 430 48
3 179 45 44
3 178 282 79
3 77 79 284
3 284 171 77
3 97 172 426
3 277 325 324
3 277 324 329
3 79 282 283
3 282 281 52
3 52 283 282
3 356 285 66
3 286 355 111
3 123 153 124
3 287 288 147
3 139 349 141
3 19 292 20
3 292 293 20
3 296 294 297
3 295 298 144
3 298 300 299
3 297 293 421
3 302 292 291
3 302 291 304
3 306 305 307
3 308 431 318
3 3 314 316
3 3 316 4
3 4 313 5
3 309 319 310
3 431 310 319
3 319 321 431
3 321 318 431
3 318 306 308
3 318 321 322
3 2 309 341
3 2 341 0
3 270 329 324
3 268 323 317
3 2 320 319
3 2 319 309
3 1 317 322
3 322 321 2
3 313 339 338
3 313 338 341
3 269 271 330
3 330 272 270
3 267 343 273
3 273 342 74
3 74 331 328
3 74 328 274
3 53 326 331
3 335 333 345
3 337 367 336
3 337 340 367
3 338 340 0
3 271 337 330
3 330 343 272
3 343 330 336
3 331 74 342
3 342 332 331
3 273 345 333
3 401 392 360
3 401 360 68
3 340 337 271
3 344 343 336
3 345 273 343
3 4 346 339
3 316 315 347
3 314 60 315
3 60 370 315
3 348 141 349
3 43 30 34
3 99 287 353
3 353 100 99
3 288 350 289
3 290 138 350
3 290 28 349
3 351 143 288
3 287 149 353
3 354 100 123
3 111 355 354
3 285 355 286
3 71 359 394
3 380 369 340
3 380 340 339
3 402 59 392
3 402 386 388
3 423 386 51
3 51 361 423
3 385 13 362
3 12 363 175
3 175 364 378
3 175 378 176
3 346 380 339
3 346 347 372
3 55 347 315
3 347 38 371
3 371 119 373
3 130 129 119
3 372 371 373
3 373 376 372
3 375 373 129
3 374 83 98
3 98 83 86
3 380 372 376
3 266 418 414
3 266 414 416
3 376 384 369
3 376 375 382
3 98 383 381
3 389 382 381
3 384 376 382
3 174 173 399
3 399 173 432
3 362 399 385
3 432 385 399
3 387 176 398
3 387 379 57
3 57 56 387
3 57 377 384
3 384 382 390
3 57 391 397
3 57 397 55
3 384 390 391
3 86 390 383
3 396 61 60
3 60 397 396
3 370 388 56
3 59 402 388
3 392 61 393
3 393 61 394
3 61 395 394
3 90 84 83
3 69 71 395
3 391 86 85
3 85 72 396
3 59 370 60
3 377 57 379
3 379 387 398
3 361 385 432
3 432 423 361
3 432 173 423
3 381 375 129
3 380 346 372
3 344 336 366
3 345 363 335
3 54 53 332
3 51 402 400
3 51 400 52
3 400 67 283
3 401 400 402
3 51 14 361
3 362 13 12
3 356 403 357
3 359 403 68
3 359 71 358
3 11 291 405
3 405 433 305
3 431 308 307
3 307 312 431
3 312 405 404
3 404 405 3
3 19 405 291
3 433 307 305
3 312 307 433
3 312 433 405
3 310 431 312
3 297 294 293
3 144 35 295
3 21 20 294
3 133 294 296
3 133 21 294
3 289 136 147
3 179 281 282
3 279 49 275
3 417 409 418
3 415 276 413
3 415 430 278
3 278 430 279
3 430 406 48
3 264 48 406
3 412 414 409
3 411 416 414
3 430 415 406
3 411 413 416
3 414 418 409
3 418 266 263
3 205 207 206
3 249 192 207
3 92 248 195
3 199 208 244
3 249 93 192
3 94 419 428
3 188 255 186
3 237 238 17
3 16 236 209
3 117 7 235
3 7 117 223
3 422 420 8
3 420 422 421
3 231 230 151
3 232 299 234
3 228 229 210
3 230 202 203
3 233 202 230
3 194 196 213
3 213 24 23
3 301 292 303
3 306 115 235
3 200 214 199
3 193 195 194
3 249 181 89
3 205 183 425
3 127 204 163
3 105 157 160
3 119 118 73
3 262 181 78
3 397 60 55
