ply
format ascii 1.0
comment Created by Blender 2.80 (sub 75) - www.blender.org, source file: 'skull.blend'
element vertex 434
property float x
property float y
property float z
property uchar red
property uchar green
property uchar blue
property uchar alpha
element face 890
property list uchar uint vertex_indices
end_header
0.441101 -4.276312 -0.802412 11 11 11 0
1.038899 -4.000373 -0.136462 2 2 2 0
0.529391 -4.432763 0.292219 255 255 255 0
-1.060285 -2.466225 -0.149595 199 197 139 0
-0.947550 -3.146588 -0.919383 4 4 4 0
-0.773224 -3.396054 -0.120036 245 243 217 0
-0.226154 -1.426705 2.687439 208 208 155 0
0.117201 -1.126986 2.867033 255 255 232 0
-0.516285 -0.883105 2.938877 7 7 4 0
-0.439702 -1.246929 2.518772 35 35 35 0
-0.703999 -0.741814 2.410745 0 0 0 0
-0.584043 -1.418217 2.015687 0 0 0 0
0.790360 -2.411948 -0.170628 60 57 57 0
0.603738 -2.671071 0.431099 33 33 31 0
0.650469 -1.905577 0.352804 57 55 55 0
1.882015 -0.990400 1.786173 159 157 113 0
1.602064 -1.660316 1.209851 236 236 141 0
1.930762 -1.461717 0.589159 255 255 155 0
2.267947 -0.806923 1.428533 241 241 146 0
-1.655528 -1.395405 1.229455 206 203 137 0
-2.025892 -0.955129 1.801685 170 170 137 0
-2.176668 -0.985217 1.267251 234 234 144 0
1.629984 -0.209725 3.085273 255 255 255 0
1.110557 0.364171 3.213531 255 255 255 0
0.749698 -0.362902 3.270553 255 255 255 0
-2.507388 -1.142531 0.335821 255 255 206 0
-1.755232 -1.599928 0.295306 255 255 186 0
-2.284446 -1.178196 0.720912 255 255 175 0
-2.343172 -0.662564 0.307739 126 126 80 0
-2.428931 -0.844367 0.658703 245 245 135 0
-1.907453 -0.609204 0.962784 124 124 88 0
1.859789 0.064885 2.619237 212 212 175 0
1.354529 0.648920 2.619130 225 223 186 0
-1.511878 0.264469 1.643013 95 93 69 0
-1.725117 0.050026 1.304280 73 73 73 0
-1.741172 -0.048305 1.846956 161 161 99 0
-1.860976 -1.088268 -0.172856 152 152 106 0
-1.965179 -0.955009 -0.192953 150 148 95 0
-1.798035 -1.007077 -0.373551 97 95 91 0
1.649717 0.144712 1.418665 99 97 97 0
1.410372 0.097981 1.469803 64 64 64 0
1.605571 0.089373 1.818752 86 84 84 0
-1.805426 0.560606 1.088310 93 91 91 0
-1.840933 -0.090104 0.784382 84 82 82 0
1.185172 -0.059792 0.883625 77 75 75 0
1.108546 0.160115 1.224124 57 55 55 0
1.516289 0.027111 1.127512 71 69 69 0
1.658952 -0.231327 0.694113 86 84 84 0
1.896817 0.170196 0.200344 130 128 128 0
1.782167 -0.131501 0.331271 119 115 115 0
1.965022 -0.476152 0.405282 122 119 108 0
0.253877 -1.153328 0.490109 73 71 71 0
0.459871 -0.074463 0.670976 91 88 88 0
1.011278 -0.510378 0.111520 99 95 95 0
0.808533 -1.107730 0.219946 80 77 77 0
-1.499311 -1.091394 -0.681740 99 97 95 0
-1.095830 -1.325607 -0.675852 97 95 95 0
-1.225318 -1.182767 -1.242744 95 93 93 0
1.786528 -0.145970 1.049739 106 104 99 0
-0.937088 -0.792499 -0.225418 111 108 108 0
-1.446406 -0.923551 -0.382979 91 88 88 0
-1.255127 -0.402833 0.130525 80 77 77 0
1.824244 -1.451535 -2.061399 255 255 188 0
1.854970 -0.650563 -2.077241 255 255 177 0
1.801714 -1.539848 -1.561565 255 255 175 0
-1.604533 0.525153 1.404306 80 77 73 0
-0.482359 0.966796 0.965837 66 66 66 0
-0.172024 0.617486 1.037369 66 64 64 0
-0.544233 0.375467 0.685145 84 82 82 0
-1.597677 0.423621 0.472748 51 51 51 0
-1.679332 0.712771 0.321675 71 69 69 0
-1.363266 0.671638 0.631166 51 51 51 0
-1.658623 0.210967 0.148517 73 71 71 0
-1.808032 0.415827 0.268092 93 91 91 0
1.608983 -0.221434 -1.101480 108 104 104 0
1.734276 0.644466 -0.750032 111 108 108 0
1.753745 0.362431 -1.613065 124 122 122 0
1.087385 2.087607 1.064563 73 71 71 0
1.402621 1.755543 0.704854 106 104 102 0
0.777742 1.376330 1.029919 82 80 80 0
1.609187 1.831714 0.210033 128 126 126 0
1.808481 1.593259 -0.629038 130 128 128 0
1.782321 1.238352 -0.026172 115 113 113 0
-1.550738 1.509256 -0.212909 111 106 106 0
-1.772995 0.865773 0.052368 88 86 86 0
-1.671918 0.414107 -0.342710 91 88 88 0
-1.841486 0.731935 -1.089064 113 108 108 0
2.196893 1.769880 0.307181 128 124 117 0
2.552980 1.750063 0.598755 255 255 135 0
2.120413 1.776858 0.842841 164 161 106 0
-1.463488 1.208130 0.255945 77 75 75 0
-1.155217 1.549155 0.262616 99 97 97 0
1.963825 2.939161 1.781809 255 255 164 0
1.933315 2.175475 1.607636 234 232 148 0
2.546459 2.317161 0.936090 255 255 164 0
-0.766182 2.957498 0.300869 128 126 126 0
-0.194033 2.876209 0.386751 130 128 128 0
-0.001041 2.487454 0.791207 91 88 88 0
-1.963750 1.579702 -0.767262 128 126 126 0
-2.335870 1.969725 0.001268 146 144 126 0
-1.901525 2.260849 0.037015 122 117 115 0
2.427625 2.594126 0.732505 141 137 137 0
2.849724 1.570931 0.407527 255 255 166 0
2.338430 2.176712 0.366968 137 135 135 0
2.157430 2.534436 0.472423 133 128 128 0
-0.097171 3.099123 0.450726 113 111 111 0
0.299698 3.097330 0.581609 119 117 117 0
1.904158 3.584044 0.917451 135 133 133 0
2.116871 3.239414 0.949561 141 137 137 0
1.372445 3.312462 0.814275 113 111 111 0
1.686458 2.680439 0.799011 115 111 111 0
-1.221285 2.619995 0.168005 113 111 111 0
-1.262251 3.530082 0.388509 124 122 122 0
-0.922450 3.360399 0.216263 144 139 139 0
-0.654310 3.268827 0.143098 152 148 148 0
0.689961 -1.949904 1.899124 44 44 40 0
0.819469 -1.101344 1.922030 0 0 0 0
0.419695 -1.251778 2.384452 24 22 22 0
-1.926802 -0.378983 0.314702 73 71 71 0
-1.985006 0.359515 -0.195724 124 122 91 0
-2.063203 -0.628064 -0.010112 77 75 73 0
1.450464 -0.250929 0.292574 99 97 97 0
1.577277 2.230361 0.443669 133 130 130 0
-1.714421 2.867825 0.239441 117 115 115 0
-1.865819 3.686753 0.461316 148 144 144 0
-0.574532 3.748393 0.482267 128 126 126 0
-0.727188 4.191132 0.925859 106 104 104 0
-0.335716 4.506578 1.030922 115 111 111 0
-2.211055 1.617373 -0.241857 111 108 108 0
-2.128247 1.219285 -0.738687 170 168 128 0
-2.061942 1.179312 0.005235 88 86 86 0
-2.508894 1.309447 0.013293 181 181 124 0
-2.920413 -0.302474 0.396482 255 255 157 0
-2.125156 -0.613070 1.641623 255 255 146 0
-1.908793 1.017808 0.572791 86 84 84 0
-1.860468 1.362479 1.589482 150 150 115 0
-2.263404 1.476007 0.706458 133 133 93 0
-2.408137 1.184856 0.278596 166 166 99 0
-2.793072 0.659550 0.231461 219 221 117 0
-2.784779 0.302915 0.014004 232 232 130 0
-2.962945 0.215637 0.027924 255 255 190 0
-2.477578 -0.888274 -0.041725 255 255 152 0
-2.858021 -0.636985 0.361573 255 255 206 0
-3.097826 0.305189 0.329490 255 255 217 0
-1.549146 0.599919 2.144530 148 148 102 0
-1.536626 0.713766 1.639086 75 75 66 0
-1.726042 0.949195 1.316386 99 97 88 0
-2.378362 2.100236 0.944175 208 206 152 0
-1.866095 2.312495 2.050086 255 255 223 0
-2.421577 2.694721 0.826521 168 166 133 0
-2.167684 2.827013 1.365631 255 255 197 0
-2.242883 3.508097 1.113288 255 255 208 0
-2.048014 4.294452 1.027381 210 208 164 0
-2.222038 3.162951 0.603258 133 130 130 0
-1.707495 4.218979 0.784375 144 139 139 0
-1.471362 4.806799 1.365556 190 186 157 0
-1.222212 4.355105 1.047335 113 111 111 0
-0.401564 3.229337 0.226780 133 130 130 0
-0.057169 3.645118 0.658656 104 102 102 0
-0.109557 4.160302 0.752309 115 113 113 0
-0.364271 3.402188 0.456657 106 104 104 0
-0.709717 4.760759 1.457630 119 117 117 0
0.392680 3.934161 0.851032 119 117 117 0
0.087428 4.660044 1.341221 126 122 122 0
0.879580 4.614329 1.424543 124 122 122 0
1.654889 4.326210 1.402045 148 144 144 0
1.435871 3.948652 1.077896 133 128 128 0
0.940307 4.042869 0.973174 113 111 111 0
0.571468 3.504401 0.447728 148 144 144 0
0.768227 3.274203 0.495392 137 133 133 0
1.008454 3.641541 0.640519 141 137 137 0
1.075774 2.644480 1.081938 73 71 71 0
0.765008 2.939941 0.879511 95 93 93 0
-0.135490 -2.811137 0.219747 27 24 24 0
0.324007 -2.837329 0.044801 44 44 42 0
0.417720 -2.772801 -0.386249 64 62 62 0
-0.338053 -2.521686 -0.224785 57 55 55 0
1.711314 2.099192 -0.039095 148 144 144 0
1.021323 1.084127 0.893786 97 95 95 0
0.880515 0.431167 0.902879 82 80 80 0
1.089559 0.644835 1.076459 80 77 77 0
1.696483 1.355546 0.961684 122 117 104 0
1.705369 0.887659 1.050201 128 124 124 0
1.435973 1.022140 0.990253 111 108 108 0
2.830538 1.126123 0.502905 255 255 152 0
2.861551 1.477441 0.704322 255 255 159 0
2.866791 0.263573 0.465036 255 255 183 0
3.064923 0.534617 0.502162 255 255 210 0
2.798610 -0.413859 0.492849 255 255 197 0
2.143825 -0.670034 2.256639 170 168 150 0
2.150710 -0.414113 2.091582 183 181 144 0
1.319325 0.708247 2.132651 115 113 82 0
1.385913 1.373638 2.350576 203 201 144 0
1.514551 2.255657 2.428935 255 255 236 0
0.948539 1.473389 3.161455 255 255 255 0
1.128019 2.775428 2.773165 255 255 255 0
0.295369 1.801745 3.563216 255 255 255 0
1.029692 3.653769 2.560672 255 255 255 0
0.253416 3.000142 3.209100 255 255 255 0
0.294303 4.376029 2.524539 255 255 255 0
-0.383336 4.897364 2.325572 255 255 255 0
-0.823899 5.086537 1.832500 175 172 155 0
-1.073439 4.871254 1.966716 255 255 255 0
-1.617357 4.839050 1.571667 255 255 228 0
-0.289179 5.021178 1.630865 141 137 137 0
1.367884 0.688873 1.270149 91 88 88 0
1.235218 0.426356 1.528444 62 60 60 0
1.342017 0.840490 1.655492 122 122 88 0
1.285800 4.323286 2.048889 255 255 255 0
1.448908 -2.430935 0.558612 255 255 150 0
-0.368057 1.156629 3.758239 255 255 255 0
-1.154038 0.314422 3.323704 255 255 255 0
-0.258953 -0.246304 3.347918 255 255 255 0
0.364848 0.661265 3.599742 255 255 255 0
-0.320401 4.235891 2.807113 255 255 255 0
-0.287415 3.369799 3.246492 255 255 255 0
2.096522 -0.348185 2.700070 232 232 175 0
1.692904 -0.507776 2.894593 219 217 190 0
1.897662 -0.625109 2.434115 104 102 97 0
1.620743 -0.493438 2.317971 0 0 0 0
1.465463 -0.852750 1.904237 0 0 0 0
1.308834 -1.450543 1.658857 35 33 33 0
0.969372 -0.550814 3.043856 194 192 159 0
0.473922 -0.836144 2.889002 212 210 183 0
1.504227 -0.443530 2.758482 0 0 0 0
1.014795 -0.378271 2.713522 0 0 0 0
1.006450 -0.546941 2.257628 0 0 0 0
0.559797 -0.702467 2.496697 0 0 0 0
-0.197195 2.164111 3.734518 255 255 255 0
-0.527564 2.244500 3.653113 255 255 255 0
-1.771780 4.324077 1.544858 255 255 255 0
-1.799593 3.542827 1.791274 255 255 254 0
-1.454388 3.280189 2.395546 255 255 255 0
-1.030810 4.308208 2.217505 255 255 255 0
-0.776225 3.443727 2.929482 255 255 255 0
0.260616 -1.972725 2.368899 241 239 172 0
1.148703 -2.248406 1.353743 255 255 177 0
2.411942 -0.963241 0.434988 255 255 194 0
2.630886 -0.673768 0.850703 255 255 183 0
2.756035 0.110171 0.660727 255 255 137 0
2.971110 0.625067 0.780167 255 255 166 0
2.250235 3.370035 1.312421 255 255 166 0
2.058362 3.848290 1.178655 161 157 148 0
1.739985 4.328535 1.657670 157 152 150 0
0.769994 4.903297 2.019758 255 255 252 0
1.275545 4.779550 1.661131 159 155 150 0
0.367708 5.092648 1.806805 148 146 146 0
-0.297739 5.257536 1.982658 166 164 161 0
1.706952 3.647070 1.998881 255 255 255 0
1.641751 1.257877 1.384332 166 166 117 0
1.629373 0.671851 1.379318 115 111 111 0
1.778618 0.702402 1.272735 144 141 141 0
1.837767 -0.406449 1.352468 71 69 66 0
2.120712 -0.612512 1.491332 170 170 106 0
2.276736 -0.512564 0.935658 157 157 104 0
2.438197 -0.505629 0.542211 255 255 168 0
2.756751 -0.153394 0.826825 255 255 159 0
2.540384 1.778481 0.425572 111 108 106 0
1.969369 2.367838 0.298619 146 141 141 0
2.108864 2.109063 0.026543 141 137 137 0
2.015603 1.630502 -0.452827 155 150 137 0
1.767955 1.544838 0.376630 113 111 111 0
1.912288 1.584046 0.535137 111 106 104 0
1.853936 1.024448 -1.613959 137 133 133 0
1.925764 1.085301 0.158540 122 119 115 0
1.789986 0.570123 -0.038549 130 128 128 0
1.862934 0.338335 -2.110609 221 219 159 0
1.688562 -0.554606 -2.021148 179 175 139 0
1.265620 -3.365026 -0.352423 0 0 0 0
1.106539 -3.511233 -1.065129 157 157 137 0
1.359238 -2.796549 -1.308861 0 0 0 0
0.760419 -3.916001 -1.314995 255 255 188 0
1.524945 -2.146101 -2.084843 255 255 188 0
1.497925 -1.054156 -1.641120 115 111 111 0
1.651305 0.009252 -0.419356 113 111 111 0
1.733765 0.139297 0.087232 161 159 133 0
2.005279 -0.678277 -1.118155 255 255 157 0
1.741464 -1.008539 -0.721329 2 2 2 0
1.855048 -0.377995 -0.467758 164 164 128 0
1.724264 -0.167157 -0.005524 126 124 122 0
2.026724 -1.069687 0.270319 255 255 161 0
0.820876 0.115703 0.614295 97 95 95 0
0.639889 0.718000 0.962942 95 93 93 0
0.290480 0.582639 1.071167 71 69 69 0
0.346787 1.680999 1.129810 60 60 60 0
-0.401048 1.742797 0.873863 73 71 71 0
-0.713564 2.448889 0.514746 97 95 95 0
-2.627676 2.061172 0.478893 179 177 146 0
-2.881665 1.383362 0.457761 212 212 146 0
-2.652650 1.287587 0.448329 219 219 122 0
-2.835044 -0.027700 0.204599 232 234 122 0
-1.185333 -1.283455 1.590433 0 0 0 0
-1.607244 -0.684584 1.960334 0 0 0 0
-1.953562 -0.682921 2.387108 139 137 126 0
-2.229702 -0.666677 2.189212 183 181 155 0
-1.637339 0.255050 2.714301 255 255 177 0
-2.044515 -0.242667 2.331712 255 255 172 0
-1.813541 -0.409299 2.862612 255 255 206 0
-1.539335 1.197913 2.765122 255 255 177 0
-1.409591 2.381557 2.801531 255 255 255 0
-1.073856 1.725981 3.363857 255 255 255 0
-1.529656 -0.377189 2.560268 4 4 4 0
-1.106120 -0.708955 1.984394 0 0 0 0
-1.171758 -0.345816 2.459357 0 0 0 0
-0.825907 -1.064153 1.879224 0 0 0 0
-0.206334 -2.122765 2.266739 255 255 183 0
0.271936 -2.878873 2.118751 255 255 217 0
-0.244387 -3.121349 1.945282 255 255 255 0
0.144813 -3.249266 1.638865 255 255 241 0
-0.194446 -4.412086 0.101938 255 255 255 0
-0.431732 -4.146069 0.623177 255 255 255 0
-0.688549 -3.868290 0.209286 255 255 234 0
-0.554790 -3.253862 0.896413 255 255 248 0
-0.611987 -3.955889 -0.540062 0 0 0 0
-1.572798 -1.546098 -0.238745 119 117 99 0
-1.461870 -1.381781 -0.541634 97 95 95 0
-1.334418 -1.999119 -0.663642 0 0 0 0
1.218295 -3.338200 0.601863 255 255 186 0
0.586178 -3.215154 1.302038 255 255 203 0
0.071251 -4.465797 0.600655 255 255 255 0
0.321349 -4.382819 0.618614 255 255 255 0
0.363787 -4.246466 0.962624 255 255 255 0
0.891287 -4.065209 0.661266 255 255 255 0
1.308967 -3.067752 0.009074 225 225 133 0
1.419442 -2.452242 -0.285548 104 102 99 0
1.701139 -1.180955 -0.070909 208 206 117 0
1.533061 -0.646383 -0.237689 97 95 95 0
1.720307 -0.497788 0.029267 106 104 104 0
1.642907 -0.469999 -0.570386 106 104 102 0
1.562935 -2.036261 -0.937959 0 0 0 0
1.047904 -3.132953 -1.995783 255 255 190 0
1.411893 -0.668254 -0.504578 97 95 95 0
1.193076 -1.083347 -0.402171 93 91 91 0
1.263838 -1.434913 -1.119786 88 86 86 0
1.014800 -1.678273 -0.311401 75 73 73 0
1.061066 -2.132241 -0.876083 77 75 75 0
0.642317 -3.068316 -2.134565 225 223 152 0
0.473462 -3.613387 -2.091590 255 255 203 0
-0.181017 -4.084785 -1.490058 255 255 190 0
-0.850579 -3.380589 -1.688514 255 255 175 0
-0.012238 -3.740642 -1.895869 255 255 183 0
-0.168743 -4.324873 -0.622445 0 0 0 0
1.392559 -0.879268 -0.935984 97 95 95 0
1.342421 -1.889459 -2.151400 221 219 148 0
0.817577 -2.649432 -1.767106 104 99 99 0
1.143341 -2.059720 -1.550850 93 91 91 0
-1.517280 -2.199186 -1.417011 255 255 157 0
-1.765248 -1.377248 -0.812694 104 102 99 0
-2.177144 -0.885666 -0.041356 170 170 99 0
-2.598949 -0.464322 0.073347 194 194 111 0
-2.986938 0.475641 0.382578 255 255 155 0
-2.876236 1.286457 0.165649 183 179 152 0
-2.033500 2.699629 0.425024 104 102 102 0
-2.290659 2.480084 0.428482 117 115 115 0
-1.483417 2.203621 -0.012774 122 117 117 0
-0.984074 2.018807 0.284070 102 97 97 0
-0.775929 1.444357 0.666439 82 80 80 0
-1.030000 1.200362 0.522267 77 75 75 0
-1.227681 1.056342 0.542613 64 62 62 0
-0.935115 0.571010 0.609214 75 75 75 0
-0.861470 0.128799 0.362272 99 97 97 0
0.255491 -2.592664 0.551921 24 24 24 0
0.538392 -2.905506 0.268731 27 27 27 0
0.723471 -2.736629 -0.965472 62 60 60 0
0.374853 -3.024407 -0.754798 42 40 40 0
0.198802 -3.120790 -1.127032 42 40 40 0
0.306547 -3.064053 -1.691396 88 86 86 0
-0.170538 -3.104270 -2.104695 199 197 141 0
-0.261367 -2.915286 -1.613266 75 75 75 0
-1.206525 -2.004843 -2.194941 194 194 155 0
-1.225929 -1.111121 -0.511246 104 102 102 0
-2.009253 -0.780086 -0.410346 164 164 108 0
-1.947407 -1.262495 -1.368208 255 255 164 0
-2.122056 -0.031501 -1.139916 255 255 166 0
-1.668308 1.964113 -0.319728 128 124 124 0
-2.210445 0.728302 -1.679575 164 159 159 0
-1.993049 -0.580695 -2.009664 183 179 155 0
-0.922317 -2.053859 -1.917611 117 115 115 0
-0.255099 -2.912033 -0.839492 51 49 49 0
-0.639529 -2.366073 -1.220680 80 77 77 0
-1.590834 -1.981160 -2.000494 255 255 186 0
-2.087494 1.138087 -1.687529 168 164 164 0
-2.098979 0.414925 -2.138415 172 168 168 0
-1.978599 0.973865 -1.590874 152 148 148 0
-1.626058 -0.693384 -1.947731 137 135 135 0
0.382067 -2.994587 0.483074 0 0 0 0
-0.392438 -1.735564 0.166580 75 73 73 0
-0.766212 -1.867649 -0.621134 88 86 84 0
-0.751610 -1.293296 -0.264228 102 99 99 0
-2.011157 0.801978 -2.073669 175 170 170 0
-1.908011 0.257893 -1.921411 139 135 135 0
-1.651615 -0.200436 -1.162466 104 102 102 0
-0.822079 -0.400641 0.109550 106 104 104 0
-1.011822 -0.136915 0.337251 93 91 91 0
-1.160587 0.127322 0.534991 64 62 62 0
-1.507469 0.018384 0.415089 44 44 44 0
-1.573778 -0.283840 -0.093040 75 73 73 0
-1.557866 -0.571146 -0.679661 88 86 86 0
-0.585455 -2.450929 -0.701453 66 66 64 0
0.174408 -3.089416 0.345955 9 9 9 0
-0.008662 -0.291914 0.696402 71 71 71 0
-0.355085 -0.315312 0.536306 91 88 88 0
-0.431135 -0.920816 0.232847 97 95 95 0
-0.755645 0.828479 0.805218 82 80 80 0
-0.860870 -2.916995 0.309095 214 214 170 0
-0.936547 -2.162234 1.183085 230 225 172 0
1.942949 0.407003 -0.405928 144 139 128 0
1.997482 1.700176 -1.103283 190 188 155 0
2.113509 1.551603 -1.262180 255 255 170 0
2.066702 1.647292 -1.749543 255 255 190 0
2.007855 0.885445 -1.062850 219 217 128 0
2.110725 1.075425 -1.679432 255 255 168 0
2.165688 1.561195 -1.767769 255 255 197 0
2.012110 0.068405 -1.429405 255 255 164 0
2.085926 1.177288 -2.125695 255 255 199 0
2.036381 -0.287616 -0.652663 254 254 148 0
2.022711 0.384894 -2.052546 255 255 177 0
1.910184 1.512595 -1.476562 166 161 157 0
1.944397 1.183344 -2.097699 219 217 175 0
3.050263 1.347095 0.771081 255 255 181 0
-1.022658 -0.413730 2.846041 0 0 0 0
-1.537790 -0.542668 2.886125 170 168 135 0
-1.050801 -0.498720 3.170566 255 255 210 0
-0.183873 -2.406456 0.379696 38 35 35 0
1.820160 0.288531 1.068361 141 139 139 0
1.622483 0.527804 1.097276 117 115 115 0
0.666920 2.647052 0.987522 66 66 66 0
3.062288 0.417839 0.763177 255 255 199 0
3.010370 1.612754 0.618434 255 255 203 0
1.784630 0.261448 1.312417 139 135 135 0
1.973512 -0.244683 -0.094346 146 144 124 0
-0.009268 -3.671138 1.138436 255 255 255 0
0.080213 -3.046209 0.512667 7 7 7 0
-0.459956 -2.708791 1.856505 255 255 250 0
3 0 1 2
3 3 4 5
3 6 7 8
3 9 10 11
3 12 13 14
3 15 16 17
3 17 18 15
3 19 20 21
3 22 23 24
3 25 26 27
3 28 29 30
3 31 32 23
3 33 34 35
3 36 37 38
3 39 40 41
3 42 43 34
3 44 45 46
3 47 44 46
3 48 49 50
3 51 52 53
3 53 54 51
3 55 56 57
3 46 58 47
3 59 60 61
3 62 63 64
3 34 33 65
3 66 67 68
3 69 70 71
3 69 72 70
3 72 73 70
3 74 75 76
3 77 78 79
3 80 81 82
3 83 84 85
3 86 83 85
3 87 88 89
3 90 83 91
3 92 93 94
3 95 96 97
3 98 99 100
3 101 102 103
3 103 104 101
3 105 106 96
3 107 108 109
3 109 108 110
3 111 112 95
3 112 113 95
3 95 113 114
3 115 116 117
3 118 119 120
3 44 47 121
3 122 80 78
3 123 124 112
3 125 126 127
3 28 118 120
3 119 73 84
3 128 129 130
3 131 99 128
3 132 29 28
3 133 30 21
3 35 30 133
3 42 34 65
3 42 73 43
3 73 42 134
3 134 135 136
3 134 136 137
3 138 139 137
3 140 141 142
3 25 142 141
3 142 25 27
3 27 29 142
3 142 143 140
3 140 131 139
3 137 131 130
3 35 144 33
3 144 145 33
3 146 65 145
3 146 135 134
3 147 135 148
3 149 150 151
3 152 153 151
3 154 124 152
3 155 156 154
3 114 157 96
3 157 105 96
3 158 125 159
3 125 113 112
3 125 160 157
3 126 112 156
3 127 126 161
3 159 162 158
3 163 164 162
3 164 165 166
3 166 167 164
3 168 169 106
3 170 169 168
3 170 109 169
3 109 171 172
3 173 174 175
3 173 175 176
3 177 80 122
3 178 79 78
3 179 178 180
3 179 180 45
3 40 39 46
3 181 182 183
3 89 94 93
3 89 88 94
3 88 184 185
3 186 187 188
3 18 189 15
3 190 189 18
3 191 192 32
3 192 193 194
3 195 196 194
3 195 197 198
3 197 199 198
3 200 201 202
3 203 202 201
3 155 203 201
3 161 156 155
3 204 127 161
3 110 108 101
3 81 80 177
3 183 205 180
3 180 206 45
3 206 41 40
3 206 191 41
3 207 191 206
3 191 207 192
3 199 197 208
3 16 209 17
3 6 8 9
3 210 211 212
3 212 213 210
3 148 150 147
3 152 203 155
3 199 214 215
3 198 199 215
3 23 32 194
3 190 31 216
3 189 217 218
3 219 220 15
3 15 218 219
3 116 115 221
3 222 24 223
3 218 224 219
3 222 217 24
3 224 222 225
3 224 225 219
3 221 15 220
3 220 116 221
3 116 220 226
3 226 225 227
3 227 117 116
3 215 228 198
3 215 229 228
3 203 152 230
3 231 232 233
3 233 230 231
3 232 234 233
3 234 229 215
3 8 7 212
3 117 235 115
3 221 236 16
3 237 188 238
3 239 184 186
3 184 240 185
3 241 242 243
3 242 165 243
3 244 243 245
3 245 164 246
3 246 204 247
3 200 199 244
3 244 208 243
3 241 243 248
3 92 94 241
3 249 250 251
3 251 182 249
3 250 207 205
3 252 253 254
3 254 58 252
3 58 50 47
3 254 239 255
3 256 240 239
3 102 257 103
3 258 259 177
3 260 81 177
3 261 80 82
3 261 78 80
3 78 261 262
3 184 257 102
3 252 58 41
3 41 31 190
3 238 256 254
3 187 186 102
3 263 75 81
3 264 82 265
3 264 261 82
3 262 264 87
3 87 103 257
3 87 259 103
3 266 267 76
3 268 269 270
3 1 271 269
3 1 0 271
3 272 64 270
3 273 74 267
3 274 265 75
3 275 48 265
3 264 265 48
3 63 267 266
3 64 63 276
3 277 276 278
3 278 279 274
3 255 280 50
3 49 121 47
3 281 179 44
3 179 282 178
3 97 96 106
3 79 283 284
3 281 53 52
3 67 285 284
3 284 283 67
3 67 66 285
3 97 284 285
3 285 286 97
3 111 123 112
3 149 151 153
3 287 147 149
3 288 289 147
3 138 290 139
3 139 141 140
3 141 26 25
3 19 27 26
3 21 27 19
3 291 292 19
3 293 294 20
3 295 296 297
3 144 298 135
3 298 299 148
3 148 135 298
3 298 211 300
3 293 292 301
3 302 303 292
3 303 302 10
3 10 304 11
3 10 302 304
3 305 9 11
3 9 305 6
3 235 305 306
3 307 308 306
3 309 310 311
3 312 5 311
3 311 5 313
3 314 315 316
3 317 236 318
3 319 320 321
3 320 2 321
3 317 318 322
3 323 209 317
3 209 323 324
3 324 17 209
3 17 324 325
3 17 325 280
3 325 277 326
3 326 327 325
3 326 277 328
3 64 277 329
3 329 270 64
3 324 268 270
3 268 324 323
3 317 1 268
3 330 270 269
3 74 274 75
3 331 326 328
3 121 326 53
3 331 332 53
3 332 333 334
3 335 334 333
3 336 330 337
3 338 339 340
3 4 339 313
3 341 338 0
3 340 271 0
3 333 342 273
3 342 333 332
3 343 344 345
3 4 316 346
3 316 347 346
3 314 36 60
3 36 38 60
3 26 141 314
3 141 348 36
3 36 314 141
3 36 348 37
3 348 349 28
3 30 43 118
3 132 28 290
3 290 350 132
3 350 143 132
3 351 287 99
3 352 100 353
3 352 123 100
3 352 153 123
3 138 289 350
3 139 290 349
3 350 288 143
3 351 288 287
3 149 153 353
3 153 352 353
3 123 111 354
3 83 354 355
3 285 356 355
3 91 355 356
3 356 357 91
3 91 357 90
3 358 90 357
3 358 71 90
3 359 68 360
3 361 14 13
3 362 12 174
3 12 175 174
3 363 364 175
3 365 364 363
3 363 366 365
3 366 367 368
3 369 367 340
3 55 315 370
3 347 371 372
3 128 98 129
3 128 99 98
3 373 119 129
3 354 83 374
3 373 375 376
3 377 368 367
3 367 369 377
3 365 366 368
3 364 365 378
3 365 368 378
3 378 368 379
3 368 377 379
3 376 369 380
3 381 382 375
3 383 98 86
3 377 369 384
3 361 13 385
3 386 176 387
3 387 388 386
3 389 390 382
3 389 383 390
3 391 390 86
3 56 55 370
3 370 59 388
3 392 393 360
3 393 394 360
3 70 90 71
3 84 90 70
3 71 394 395
3 61 396 395
3 396 72 395
3 72 69 395
3 72 85 73
3 397 391 85
3 85 396 397
3 389 381 383
3 391 57 384
3 378 379 398
3 398 176 378
3 174 399 362
3 381 129 98
3 347 55 38
3 345 344 363
3 334 335 12
3 334 54 332
3 400 283 52
3 401 68 67
3 400 401 67
3 51 386 402
3 54 14 51
3 54 334 14
3 403 66 68
3 356 66 403
3 359 357 403
3 359 358 357
3 402 392 401
3 335 363 12
3 366 363 344
3 336 367 366
3 3 26 314
3 304 291 11
3 312 404 5
3 3 405 26
3 19 26 405
3 311 310 312
3 297 211 295
3 211 298 295
3 35 296 295
3 121 49 279
3 49 48 275
3 406 260 264
3 407 408 409
3 410 260 406
3 408 260 410
3 408 411 412
3 412 409 408
3 413 410 406
3 413 411 410
3 410 411 408
3 411 414 412
3 406 415 413
3 415 278 276
3 413 276 63
3 413 63 416
3 417 418 263
3 276 277 64
3 266 76 263
3 184 88 257
3 206 180 205
3 250 249 207
3 93 193 192
3 193 93 92
3 92 195 193
3 208 197 248
3 197 195 248
3 101 108 241
3 94 185 419
3 420 421 301
3 212 422 8
3 300 234 299
3 232 231 148
3 234 300 229
3 299 232 148
3 200 233 234
3 234 215 214
3 214 200 234
3 217 189 216
3 210 229 300
3 317 209 236
3 201 200 247
3 124 154 112
3 147 136 135
3 145 144 135
3 35 34 30
3 158 162 106
3 326 121 327
3 49 47 50
3 55 60 38
3 371 37 348
3 348 28 120
3 309 311 313
3 313 341 309
3 2 1 322
3 306 318 115
3 11 405 305
3 170 168 162
3 170 162 167
3 3 5 404
3 423 173 176
3 423 176 386
3 14 334 12
3 297 421 422
3 422 211 297
3 387 56 388
3 30 118 28
3 30 29 21
3 280 325 50
3 46 45 40
3 121 53 281
3 279 327 121
3 61 392 59
3 275 274 279
3 424 182 251
3 424 425 182
3 73 134 70
3 84 73 85
3 249 182 181
3 78 181 183
3 136 289 137
3 81 75 82
3 78 77 110
3 78 110 122
3 91 83 355
3 147 150 149
3 99 131 351
3 97 286 95
3 100 354 374
3 374 98 100
3 426 172 171
3 110 171 109
3 95 286 111
3 168 106 162
3 188 187 427
3 188 427 238
3 126 125 112
3 170 166 109
3 303 420 301
3 325 327 50
3 43 73 118
3 121 281 44
3 394 359 360
3 172 97 106
3 172 106 169
3 106 105 158
3 120 119 371
3 84 130 119
3 143 351 140
3 143 142 132
3 132 142 29
3 133 296 35
3 145 65 33
3 134 84 70
3 134 130 84
3 134 137 130
3 289 138 137
3 139 131 137
3 29 27 21
3 140 351 131
3 131 128 130
3 146 42 65
3 134 42 146
3 146 145 135
3 153 152 124
3 96 95 114
3 105 160 158
3 125 114 113
3 125 157 114
3 125 158 160
3 159 125 127
3 156 112 154
3 126 156 161
3 159 163 162
3 163 159 127
3 164 167 162
3 166 170 167
3 169 109 172
3 110 77 171
3 110 258 122
3 122 258 177
3 178 183 180
3 425 183 182
3 89 181 262
3 184 102 186
3 7 6 305
3 7 305 235
3 152 155 154
3 204 246 163
3 246 164 163
3 164 245 165
3 166 242 107
3 107 109 166
3 110 101 104
3 104 258 110
3 78 183 178
3 45 206 40
3 201 247 204
3 201 161 155
3 161 201 204
3 242 166 165
3 107 242 108
3 101 428 102
3 428 101 94
3 419 185 240
3 239 186 255
3 255 188 237
3 237 280 255
3 17 280 237
3 236 115 318
3 223 227 225
3 223 225 222
3 8 10 9
3 8 420 10
3 420 303 10
3 301 421 293
3 422 212 211
3 211 210 300
3 148 231 150
3 150 231 151
3 230 152 151
3 233 200 202
3 198 196 195
3 194 32 192
3 23 194 213
3 31 22 216
3 216 189 190
3 189 218 15
3 217 216 22
3 22 31 23
3 16 15 221
3 227 223 117
3 223 24 7
3 24 217 22
3 224 218 217
3 222 224 217
3 200 244 246
3 200 246 247
3 226 227 116
3 226 219 225
3 226 220 219
3 24 213 212
3 196 210 213
3 196 198 228
3 210 196 228
3 212 7 24
3 115 236 221
3 238 18 17
3 184 239 240
3 88 185 94
3 94 101 241
3 108 242 241
3 243 165 245
3 244 245 246
3 39 250 425
3 39 425 46
3 243 208 248
3 241 248 92
3 93 249 89
3 251 429 424
3 58 425 424
3 58 46 425
3 424 429 58
3 251 250 429
3 425 250 205
3 190 253 252
3 190 252 41
3 39 429 250
3 39 58 429
3 58 39 41
3 58 254 50
3 50 254 255
3 254 256 239
3 240 427 419
3 103 258 104
3 177 259 260
3 265 82 75
3 261 264 262
3 262 87 89
3 87 257 88
3 187 102 428
3 238 427 256
3 18 238 254
3 171 284 97
3 171 97 426
3 253 18 254
3 32 31 41
3 32 41 191
3 190 18 253
3 240 256 427
3 427 428 419
3 428 427 187
3 259 258 103
3 81 260 407
3 417 263 81
3 263 76 75
3 259 87 260
3 417 81 407
3 76 267 74
3 1 269 268
3 272 62 64
3 272 63 62
3 63 272 343
3 343 267 63
3 274 275 265
3 260 87 264
3 408 407 260
3 417 407 409
3 63 266 416
3 277 278 328
3 278 274 328
3 327 279 430
3 430 50 327
3 50 430 48
3 179 45 44
3 178 282 79
3 77 79 284
3 284 171 77
3 97 172 426
3 277 325 324
3 277 324 329
3 79 282 283
3 282 281 52
3 52 283 282
3 356 285 66
3 286 355 111
3 123 153 124
3 287 288 147
3 139 349 141
3 19 292 20
3 292 293 20
3 296 294 297
3 295 298 144
3 298 300 299
3 297 293 421
3 302 292 291
3 302 291 304
3 306 305 307
3 308 431 318
3 3 314 316
3 3 316 4
3 4 313 5
3 309 319 310
3 431 310 319
3 319 321 431
3 321 318 431
3 318 306 308
3 318 321 322
3 2 309 341
3 2 341 0
3 270 329 324
3 268 323 317
3 2 320 319
3 2 319 309
3 1 317 322
3 322 321 2
3 313 339 338
3 313 338 341
3 269 271 330
3 330 272 270
3 267 343 273
3 273 342 74
3 74 331 328
3 74 328 274
3 53 326 331
3 335 333 345
3 337 367 336
3 337 340 367
3 338 340 0
3 271 337 330
3 330 343 272
3 343 330 336
3 331 74 342
3 342 332 331
3 273 345 333
3 401 392 360
3 401 360 68
3 340 337 271
3 344 343 336
3 345 273 343
3 4 346 339
3 316 315 347
3 314 60 315
3 60 370 315
3 348 141 349
3 43 30 34
3 99 287 353
3 353 100 99
3 288 350 289
3 290 138 350
3 290 28 349
3 351 143 288
3 287 149 353
3 354 100 123
3 111 355 354
3 285 355 286
3 71 359 394
3 380 369 340
3 380 340 339
3 402 59 392
3 402 386 388
3 423 386 51
3 51 361 423
3 385 13 362
3 12 363 175
3 175 364 378
3 175 378 176
3 346 380 339
3 346 347 372
3 55 347 315
3 347 38 371
3 371 119 373
3 130 129 119
3 372 371 373
3 373 376 372
3 375 373 129
3 374 83 98
3 98 83 86
3 380 372 376
3 266 418 414
3 266 414 416
3 376 384 369
3 376 375 382
3 98 383 381
3 389 382 381
3 384 376 382
3 174 173 399
3 399 173 432
3 362 399 385
3 432 385 399
3 387 176 398
3 387 379 57
3 57 56 387
3 57 377 384
3 384 382 390
3 57 391 397
3 57 397 55
3 384 390 391
3 86 390 383
3 396 61 60
3 60 397 396
3 370 388 56
3 59 402 388
3 392 61 393
3 393 61 394
3 61 395 394
3 90 84 83
3 69 71 395
3 391 86 85
3 85 72 396
3 59 370 60
3 377 57 379
3 379 387 398
3 361 385 432
3 432 423 361
3 432 173 423
3 381 375 129
3 380 346 372
3 344 336 366
3 345 363 335
3 54 53 332
3 51 402 400
3 51 400 52
3 400 67 283
3 401 400 402
3 51 14 361
3 362 13 12
3 356 403 357
3 359 403 68
3 359 71 358
3 11 291 405
3 405 433 305
3 431 308 307
3 307 312 431
3 312 405 404
3 404 405 3
3 19 405 291
3 433 307 305
3 312 307 433
3 312 433 405
3 310 431 312
3 297 294 293
3 144 35 295
3 21 20 294
3 133 294 296
3 133 21 294
3 289 136 147
3 179 281 282
3 279 49 275
3 417 409 418
3 415 276 413
3 415 430 278
3 278 430 279
3 430 406 48
3 264 48 406
3 412 414 409
3 411 416 414
3 430 415 406
3 411 413 416
3 414 418 409
3 418 266 263
3 205 207 206
3 249 192 207
3 92 248 195
3 199 208 244
3 249 93 192
3 94 419 428
3 188 255 186
3 237 238 17
3 16 236 209
3 117 7 235
3 7 117 223
3 422 420 8
3 420 422 421
3 231 230 151
3 232 299 234
3 228 229 210
3 230 202 203
3 233 202 230
3 194 196 213
3 213 24 23
3 301 292 303
3 306 115 235
3 200 214 199
3 193 195 194
3 249 181 89
3 205 183 425
3 127 204 163
3 105 157 160
3 119 118 73
3 262 181 78
3 397 60 55
