ply
format ascii 1.0
comment Created by Blender 2.80 (sub 75) - www.blender.org, source file: 'tree-1.blend'
element vertex 112
property float x
property float y
property float z
property uchar red
property uchar green
property uchar blue
property uchar alpha
element face 214
property list uchar uint vertex_indices
end_header
-0.024215 -1.828419 -3.517410 1 11 4 255
0.383251 -1.886633 9.177583 0 1 0 255
-0.897183 -1.413627 9.231993 0 0 0 255
-1.304649 -1.355421 -3.462998 1 10 3 255
-1.468172 -0.172955 9.262193 0 1 0 255
-1.875638 -0.114749 -3.432799 1 10 4 255
-0.995246 1.108602 9.250498 0 0 0 255
-1.402712 1.166818 -3.444501 1 10 3 255
0.244570 1.680335 9.203753 0 1 0 255
-0.162896 1.738550 -3.491240 1 10 4 255
1.524996 1.207330 9.149342 0 0 0 255
1.117537 1.265543 -3.545650 1 10 3 255
2.095992 -0.033335 9.119142 0 1 0 255
1.688526 0.024871 -3.575849 1 11 4 255
1.215600 -1.256687 -3.564156 1 10 3 255
1.623058 -1.314902 9.130845 0 0 0 255
1.357377 -2.297047 34.988018 0 50 19 255
1.525348 -0.357702 41.065853 0 39 11 255
1.466520 -0.335969 41.068352 0 37 11 255
0.013747 -1.644967 35.791153 0 49 14 255
1.440286 -0.278972 41.069740 0 39 11 255
-0.777192 -0.321291 35.085560 0 48 18 255
1.462016 -0.220089 41.069199 0 37 11 255
-0.091004 1.049323 35.810909 0 54 14 255
1.518980 -0.193818 41.067051 0 39 11 255
1.197487 1.815450 35.018188 0 51 19 255
1.577807 -0.215558 41.064556 0 36 11 255
2.601169 1.154788 35.702858 0 47 15 255
1.604041 -0.272555 41.063164 0 38 11 255
3.332063 -0.160314 34.920631 0 48 17 255
2.705920 -1.539503 35.683098 0 54 14 255
1.582311 -0.331438 41.063705 0 36 11 255
0.575896 -8.415064 10.167326 0 43 29 255
0.663405 -5.174322 14.889066 0 13 4 255
-2.679697 -3.566845 15.778406 0 10 4 255
-4.952643 -5.763317 10.529184 0 56 23 255
0.735218 -7.269403 14.633519 0 70 32 255
0.833472 -4.304801 19.974943 0 13 4 255
-1.909191 -2.984223 20.838402 0 9 3 255
-4.008398 -4.992714 15.583250 0 45 10 255
0.890060 -6.008228 19.722281 0 60 10 255
1.003531 -3.435271 25.060829 0 14 4 255
-1.138679 -2.401602 25.898390 0 8 3 255
-2.991484 -4.143462 20.634844 0 43 21 255
1.045414 -4.760495 24.810934 0 55 24 255
1.173597 -2.565750 30.146717 0 13 4 255
-0.368173 -1.818990 30.958385 0 4 1 255
-1.983020 -3.303359 25.686718 0 32 10 255
1.203183 -3.574727 29.899141 0 42 12 255
1.343656 -1.696218 35.232594 0 17 5 255
0.402332 -1.236369 36.018379 0 7 2 255
-1.013551 -2.505452 30.739912 0 28 12 255
-4.578219 -0.322675 15.128601 0 13 4 255
-8.061761 -0.420053 10.387435 0 57 10 255
-3.475108 -0.316781 20.171841 0 13 5 255
-6.682730 -0.403354 14.972515 0 65 35 255
-2.371990 -0.310886 25.215090 0 14 5 255
-5.188274 -0.382130 20.000048 0 60 10 255
-1.268879 -0.304992 30.258326 0 13 4 255
-3.707243 -0.361435 25.028130 0 57 24 255
-0.165761 -0.299097 35.301575 0 17 6 255
-2.288136 -0.343162 30.058693 0 42 13 255
-2.936922 3.049226 15.826936 0 11 4 255
-5.376527 5.139261 10.609167 0 61 27 255
-2.120629 2.454128 20.878294 0 10 3 255
-4.372430 4.370346 15.651936 0 42 11 255
-1.304330 1.859033 25.929653 0 8 3 255
-3.289769 3.528700 20.691114 0 40 15 255
-0.488037 1.263937 30.981001 0 4 1 255
-2.216252 2.695521 25.730719 0 32 10 255
0.328263 0.668850 36.032360 0 7 2 255
-1.184882 1.901354 30.772242 0 29 11 255
0.270779 4.924261 14.963141 0 13 5 255
-0.071115 8.226343 10.157182 0 44 32 255
0.510738 3.996158 20.035837 0 15 6 255
0.179581 7.022108 14.738359 0 69 29 255
0.750690 3.068054 25.108534 0 15 5 255
0.434757 5.702361 19.808178 0 54 12 255
0.990641 2.139950 30.181229 0 13 4 255
0.689414 4.396046 24.878105 0 46 18 255
1.230593 1.211847 35.253929 0 17 6 255
0.941670 3.151703 29.948479 0 42 13 255
3.673933 3.308200 15.561604 0 11 4 255
5.517475 5.566022 10.171922 0 55 24 255
3.313446 2.667006 20.660187 0 10 4 255
4.983249 4.736838 15.276436 0 42 12 255
2.952951 2.025811 25.758780 0 8 3 255
4.376353 3.829011 20.383432 0 39 15 255
2.592464 1.384617 30.857365 0 4 1 255
3.777908 2.930336 25.490139 0 32 11 255
2.231977 0.743423 35.955956 0 7 2 255
3.218456 2.073845 30.595514 0 29 10 255
5.512411 0.072612 14.723598 0 15 5 255
8.566543 0.231340 9.272955 0 59 9 255
4.819311 0.008145 19.838940 0 16 6 255
7.597528 0.156059 14.399364 0 58 25 255
4.126210 -0.056330 24.954273 0 14 5 255
6.513083 0.076255 19.530411 0 49 12 255
3.433118 -0.120797 30.069614 0 13 4 255
5.442079 -0.003014 24.660912 0 47 17 255
2.740018 -0.185275 35.184948 0 17 6 255
4.432990 -0.079870 29.788931 0 42 13 255
5.941359 -5.336564 10.091949 0 50 10 255
3.931158 -3.307870 15.513073 0 11 4 255
5.347281 -4.626223 15.207750 0 44 17 255
3.524884 -2.771356 20.620296 0 10 3 255
4.674638 -3.843150 20.327154 0 34 15 255
3.118602 -2.234833 25.727528 0 8 3 255
4.011139 -3.068553 25.446133 0 35 13 255
2.712328 -1.698317 30.834751 0 4 1 255
3.389787 -2.332958 30.563189 0 29 10 255
2.306046 -1.161795 35.941971 0 7 2 255
3 0 1 2
3 0 2 3
3 3 2 4
3 3 4 5
3 5 4 6
3 5 6 7
3 7 6 8
3 7 8 9
3 9 8 10
3 9 10 11
3 11 10 12
3 11 12 13
3 14 15 1
3 14 1 0
3 13 12 15
3 13 15 14
3 16 17 18
3 16 18 19
3 19 18 20
3 19 20 21
3 21 20 22
3 21 22 23
3 23 22 24
3 23 24 25
3 25 24 26
3 25 26 27
3 27 26 28
3 27 28 29
3 30 31 17
3 30 17 16
3 29 28 31
3 29 31 30
3 20 18 17
3 17 31 28
3 28 26 24
3 24 22 20
3 20 17 28
3 28 24 20
3 32 33 34
3 32 34 35
3 36 37 38
3 36 38 39
3 40 41 42
3 40 42 43
3 44 45 46
3 44 46 47
3 48 49 50
3 48 50 51
3 35 34 52
3 35 52 53
3 39 38 54
3 39 54 55
3 43 42 56
3 43 56 57
3 47 46 58
3 47 58 59
3 51 50 60
3 51 60 61
3 53 52 62
3 53 62 63
3 55 54 64
3 55 64 65
3 57 56 66
3 57 66 67
3 59 58 68
3 59 68 69
3 61 60 70
3 61 70 71
3 63 62 72
3 63 72 73
3 65 64 74
3 65 74 75
3 67 66 76
3 67 76 77
3 69 68 78
3 69 78 79
3 71 70 80
3 71 80 81
3 73 72 82
3 73 82 83
3 75 74 84
3 75 84 85
3 77 76 86
3 77 86 87
3 79 78 88
3 79 88 89
3 81 80 90
3 81 90 91
3 83 82 92
3 83 92 93
3 85 84 94
3 85 94 95
3 87 86 96
3 87 96 97
3 89 88 98
3 89 98 99
3 91 90 100
3 91 100 101
3 102 103 33
3 102 33 32
3 104 105 37
3 104 37 36
3 106 107 41
3 106 41 40
3 108 109 45
3 108 45 44
3 110 111 49
3 110 49 48
3 93 92 103
3 93 103 102
3 95 94 105
3 95 105 104
3 97 96 107
3 97 107 106
3 99 98 109
3 99 109 108
3 101 100 111
3 101 111 110
3 15 102 32
3 15 32 1
3 2 1 32
3 2 32 35
3 4 2 35
3 4 35 53
3 6 4 53
3 6 53 63
3 8 6 63
3 8 63 73
3 10 8 73
3 10 73 83
3 12 10 83
3 12 83 93
3 15 12 93
3 15 93 102
3 103 92 95
3 103 95 104
3 103 104 36
3 103 36 33
3 34 33 36
3 34 36 39
3 52 34 39
3 52 39 55
3 62 52 55
3 62 55 65
3 72 62 65
3 72 65 75
3 82 72 75
3 82 75 85
3 92 82 85
3 92 85 95
3 25 80 70
3 25 70 23
3 27 90 80
3 27 80 25
3 29 100 90
3 29 90 27
3 30 111 100
3 30 100 29
3 30 16 49
3 30 49 111
3 19 50 49
3 19 49 16
3 21 60 50
3 21 50 19
3 23 70 60
3 23 60 21
3 78 68 71
3 78 71 81
3 88 78 81
3 88 81 91
3 98 88 91
3 98 91 101
3 109 98 101
3 109 101 110
3 109 110 48
3 109 48 45
3 46 45 48
3 46 48 51
3 58 46 51
3 58 51 61
3 68 58 61
3 68 61 71
3 66 56 59
3 66 59 69
3 76 66 69
3 76 69 79
3 86 76 79
3 86 79 89
3 96 86 89
3 96 89 99
3 107 96 99
3 107 99 108
3 107 108 44
3 107 44 41
3 42 41 44
3 42 44 47
3 56 42 47
3 56 47 59
3 64 54 57
3 64 57 67
3 74 64 67
3 74 67 77
3 84 74 77
3 84 77 87
3 94 84 87
3 94 87 97
3 105 94 97
3 105 97 106
3 105 106 40
3 105 40 37
3 38 37 40
3 38 40 43
3 54 38 43
3 54 43 57
