ply
format ascii 1.0
comment Created by Blender 2.80 (sub 75) - www.blender.org, source file: 'tree-1.blend'
element vertex 112
property float x
property float y
property float z
property uchar red
property uchar green
property uchar blue
property uchar alpha
element face 118
property list uchar uint vertex_indices
end_header
-0.024215 -1.828419 -2.317746 130 101 37 255
0.383251 -1.886633 7.777551 50 39 12 255
-0.897183 -1.413627 7.831961 69 58 40 255
-1.304649 -1.355421 -2.263335 130 101 37 255
-1.468172 -0.172955 7.862160 48 38 17 255
-1.875638 -0.114749 -2.233135 134 107 51 255
-0.995246 1.108602 7.850466 50 41 20 255
-1.402712 1.166818 -2.244838 130 101 37 255
0.244570 1.680335 7.803720 48 38 16 255
-0.162896 1.738550 -2.291576 130 101 37 255
1.524996 1.207330 7.749310 45 36 12 255
1.117537 1.265543 -2.345986 130 101 37 255
2.095992 -0.033335 7.719110 48 39 17 255
1.688526 0.024871 -2.376185 137 113 63 255
1.215600 -1.256687 -2.364492 130 101 37 255
1.623058 -1.314902 7.730812 57 49 32 255
1.357377 -2.297047 31.647844 44 140 73 255
1.525348 -0.357702 37.725681 31 69 7 255
1.466520 -0.335969 37.728176 31 69 7 255
0.013747 -1.644967 32.450974 98 110 31 255
1.440286 -0.278972 37.729565 31 69 7 255
-0.777192 -0.321291 31.745382 53 143 80 255
1.462016 -0.220089 37.729023 31 69 7 255
-0.091004 1.049323 32.470730 97 112 33 255
1.518980 -0.193818 37.726875 31 69 7 255
1.197487 1.815450 31.678011 27 137 65 255
1.577807 -0.215558 37.724380 31 69 7 255
2.601169 1.154788 32.362679 99 112 37 255
1.604041 -0.272555 37.722988 31 69 7 255
3.332063 -0.160314 31.580456 47 141 76 255
2.705920 -1.539503 32.342918 98 111 32 255
1.582311 -0.331438 37.723530 31 69 7 255
0.575896 -8.415064 6.205438 87 153 103 255
0.663405 -5.174323 11.548889 31 69 8 255
-2.679697 -3.566845 12.438229 31 69 7 255
-4.952643 -5.763317 7.189007 14 136 62 255
0.735218 -7.269403 11.293343 27 137 66 255
0.833472 -4.304801 16.634766 31 69 8 255
-1.909191 -2.984223 17.498224 31 69 7 255
-4.008398 -4.992714 12.243073 77 122 47 255
0.890060 -6.008228 16.382103 97 120 54 255
1.003531 -3.435271 21.720652 31 69 7 255
-1.138679 -2.401602 22.558212 36 70 11 255
-2.991484 -4.143462 17.294666 45 140 74 255
1.045414 -4.760495 21.470758 22 136 64 255
1.173597 -2.565750 26.806538 38 72 10 255
-0.368173 -1.818990 27.618208 33 70 14 255
-1.983020 -3.303359 22.346540 89 116 39 255
1.203183 -3.574727 26.558966 91 119 48 255
1.343656 -1.696218 31.892414 96 113 91 255
0.402332 -1.236369 32.678200 89 103 47 255
-1.013551 -2.505451 27.399734 73 148 92 255
-4.578219 -0.322675 11.788424 31 69 7 255
-8.061761 -0.420053 6.600167 98 118 51 255
-3.475108 -0.316781 16.831663 31 69 8 255
-6.682730 -0.403355 11.632337 45 140 74 255
-2.371990 -0.310886 21.874912 32 69 9 255
-5.188274 -0.382130 16.659870 84 118 41 255
-1.268879 -0.304992 26.918148 40 73 10 255
-3.707243 -0.361435 21.687952 8 135 60 255
-0.165761 -0.299097 31.961399 31 69 7 255
-2.288136 -0.343162 26.718513 76 123 49 255
-2.936922 3.049226 12.486758 32 70 12 255
-5.376527 5.139261 7.268991 24 137 65 255
-2.120629 2.454128 17.538118 59 85 51 255
-4.372430 4.370346 12.311758 98 113 36 255
-1.304330 1.859033 22.589476 55 82 44 255
-3.289769 3.528700 17.350937 8 135 60 255
-0.488037 1.263937 27.640823 68 90 61 255
-2.216252 2.695521 22.390541 92 114 36 255
0.328263 0.668850 32.692181 85 101 49 255
-1.184882 1.901354 27.432064 38 139 71 255
0.270779 4.924261 11.622964 32 70 12 255
-0.071115 8.226343 6.327506 84 154 103 255
0.510738 3.996158 16.695660 34 70 15 255
0.179581 7.022108 11.398182 14 135 61 255
0.750690 3.068054 21.768356 33 70 14 255
0.434757 5.702361 16.468000 95 113 34 255
0.990641 2.139950 26.841049 65 88 54 255
0.689414 4.396045 21.537928 2 135 60 255
1.230593 1.211847 31.913754 48 78 38 255
0.941670 3.151703 26.608301 101 112 36 255
3.673933 3.308200 12.221426 74 94 67 255
5.517475 5.566021 6.831745 26 137 66 255
3.313446 2.667006 17.320009 37 72 21 255
4.983249 4.736837 11.936258 87 117 39 255
2.952951 2.025810 22.418602 58 83 49 255
4.376353 3.829011 17.043255 2 135 60 255
2.592464 1.384617 27.517187 31 69 8 255
3.777908 2.930336 22.149961 95 112 34 255
2.231977 0.743423 32.615776 90 105 56 255
3.218456 2.073845 27.255337 10 135 61 255
5.512411 0.072612 11.383421 32 69 10 255
8.566543 0.231340 5.932777 107 130 76 255
4.819311 0.008145 16.498762 31 69 8 255
7.597528 0.156059 11.059186 6 135 60 255
4.126210 -0.056330 21.614096 36 71 9 255
6.513083 0.076255 16.190231 94 113 35 255
3.433118 -0.120797 26.729435 47 76 13 255
5.442079 -0.003014 21.320736 21 134 60 255
2.740018 -0.185275 31.844769 40 74 27 255
4.432990 -0.079870 26.448753 92 114 37 255
5.941359 -5.336564 6.751771 114 138 91 255
3.931158 -3.307870 12.172895 31 69 7 255
5.347281 -4.626223 11.867574 2 135 60 255
3.524884 -2.771356 17.280119 31 69 8 255
4.674638 -3.843150 16.986977 71 148 92 255
3.118602 -2.234833 22.387350 31 69 7 255
4.011139 -3.068553 22.105955 7 135 60 255
2.712328 -1.698317 27.494574 66 89 58 255
3.389787 -2.332958 27.223011 9 135 61 255
2.306046 -1.161795 32.601791 83 98 33 255
3 0 1 2
3 0 2 3
3 3 2 4
3 3 4 5
3 5 4 6
3 5 6 7
3 7 6 8
3 7 8 9
3 9 8 10
3 9 10 11
3 11 10 12
3 11 12 13
3 14 15 1
3 14 1 0
3 13 12 15
3 13 15 14
3 16 17 18
3 16 18 19
3 19 18 20
3 19 20 21
3 21 20 22
3 21 22 23
3 23 22 24
3 23 24 25
3 25 24 26
3 25 26 27
3 27 26 28
3 27 28 29
3 30 31 17
3 30 17 16
3 29 28 31
3 29 31 30
3 20 18 17
3 17 31 28
3 28 26 24
3 24 22 20
3 20 17 28
3 28 24 20
3 32 33 34
3 32 34 35
3 36 37 38
3 36 38 39
3 40 41 42
3 40 42 43
3 44 45 46
3 44 46 47
3 48 49 50
3 48 50 51
3 35 34 52
3 35 52 53
3 39 38 54
3 39 54 55
3 43 42 56
3 43 56 57
3 47 46 58
3 47 58 59
3 51 50 60
3 51 60 61
3 53 52 62
3 53 62 63
3 55 54 64
3 55 64 65
3 57 56 66
3 57 66 67
3 59 58 68
3 59 68 69
3 61 60 70
3 61 70 71
3 63 62 72
3 63 72 73
3 65 64 74
3 65 74 75
3 67 66 76
3 67 76 77
3 69 68 78
3 69 78 79
3 71 70 80
3 71 80 81
3 73 72 82
3 73 82 83
3 75 74 84
3 75 84 85
3 77 76 86
3 77 86 87
3 79 78 88
3 79 88 89
3 81 80 90
3 81 90 91
3 83 82 92
3 83 92 93
3 85 84 94
3 85 94 95
3 87 86 96
3 87 96 97
3 89 88 98
3 89 98 99
3 91 90 100
3 91 100 101
3 102 103 33
3 102 33 32
3 104 105 37
3 104 37 36
3 106 107 41
3 106 41 40
3 108 109 45
3 108 45 44
3 110 111 49
3 110 49 48
3 93 92 103
3 93 103 102
3 95 94 105
3 95 105 104
3 97 96 107
3 97 107 106
3 99 98 109
3 99 109 108
3 101 100 111
3 101 111 110
