ply
format ascii 1.0
comment Created by Blender 2.80 (sub 75) - www.blender.org, source file: 'tree-2.blend'
element vertex 122
property float x
property float y
property float z
property uchar red
property uchar green
property uchar blue
property uchar alpha
element face 208
property list uchar uint vertex_indices
end_header
-2.311097 5.701082 14.010909 100 120 24 0
-2.219329 8.787206 17.307209 101 122 23 0
0.716562 1.109103 8.728594 56 48 37 0
0.301336 0.717620 16.342493 56 49 38 0
-3.554815 1.754915 24.324818 97 116 25 0
0.332454 -0.979886 15.331128 56 49 38 0
-1.253877 0.931956 15.937569 56 49 38 0
-1.712749 0.528719 10.400048 54 43 31 0
-0.588104 1.513409 13.775838 56 48 37 0
-1.980166 -0.704223 13.946776 54 46 34 0
6.683157 -3.786973 14.983392 94 111 26 0
9.970574 -6.646911 19.292480 100 121 23 0
0.302647 -2.006390 11.313855 54 45 34 0
0.814080 1.248041 11.782397 56 49 38 0
-6.644054 -1.026171 17.710365 56 49 38 0
-1.492671 -0.605514 17.856527 56 49 38 0
-8.166678 -1.487127 20.499239 101 122 23 0
3.932662 -3.476396 16.684515 56 49 38 0
5.099513 -2.663660 17.413086 56 49 38 0
5.821556 -0.903827 21.259315 101 121 23 0
3.931998 -2.052687 17.796553 99 120 24 0
-0.345256 -1.883779 3.944379 54 43 31 0
-1.242132 -2.077461 -3.307713 54 43 31 0
1.087326 -2.036653 -3.004037 54 43 31 0
8.442392 3.231011 13.020485 99 119 24 0
4.918236 3.111553 11.324306 93 111 27 0
5.313034 1.615142 10.509895 87 101 30 0
1.602324 0.136288 12.276960 55 47 36 0
1.463558 0.064272 8.742934 54 45 33 0
1.276973 -1.217291 10.587732 55 46 34 0
-3.380255 -3.961707 12.938026 80 90 27 0
-4.620406 -6.939274 15.966004 100 120 26 0
-1.148227 -1.859854 11.998973 54 46 34 0
3.765592 8.128715 18.068026 101 122 23 0
-1.892282 0.735508 -2.927262 54 43 31 0
0.168415 1.827446 -3.267414 54 43 31 0
1.858068 0.177739 -3.483983 54 43 31 0
-1.793980 -0.709025 -1.613325 54 43 31 0
-0.534928 1.227328 8.563755 54 44 32 0
-0.480480 3.545121 19.545240 91 191 13 255
-1.084305 -2.699170 18.927996 91 191 13 255
-4.367054 0.699857 19.059513 91 191 13 255
5.506335 2.228502 8.392525 92 191 19 255
5.019336 3.004258 13.131773 101 193 48 255
7.247797 4.181642 13.580720 91 191 13 255
7.590410 4.314891 10.536641 92 191 19 255
-1.147820 -3.742453 25.467922 91 191 13 255
-3.727225 -3.159452 25.112032 91 191 13 255
1.841358 0.066884 23.746449 114 191 20 255
0.980541 3.050590 23.475456 91 191 13 255
-0.970189 0.279871 27.399220 179 191 25 255
0.799201 -1.977321 22.591200 91 191 14 255
-10.555803 0.061661 18.662043 91 191 13 255
-10.910802 -3.612693 18.810980 101 194 50 255
-9.252946 -5.203629 20.801340 91 191 13 255
-8.231710 -2.321967 22.890272 175 191 26 255
-5.608644 -1.138171 22.129627 91 191 13 255
-0.613577 -6.190820 14.990727 92 191 17 255
-6.741531 -5.858235 15.450938 102 194 51 255
-5.584530 -4.335538 18.094454 91 191 13 255
-0.241869 -5.214844 17.883263 91 191 13 255
-3.368758 4.632779 23.900656 91 191 13 255
-7.873548 6.512609 17.610619 91 191 13 255
-4.693412 4.107805 18.887623 175 191 24 255
-2.088662 8.172945 21.020689 177 191 25 255
-7.698829 8.800896 19.239159 91 191 14 255
1.402835 -1.188097 17.983341 93 191 22 255
2.367718 -0.088273 23.200527 177 191 26 255
4.106398 1.876006 22.926815 171 191 25 255
6.197125 1.753396 19.673124 91 191 13 255
5.943780 -4.983599 19.307968 91 191 13 255
7.655588 -7.400365 16.241741 91 191 14 255
9.698009 -9.289067 19.169130 91 191 13 255
11.584337 -5.765730 23.734434 178 191 25 255
-5.181834 3.984040 23.222542 91 191 13 255
-5.995814 2.372323 24.612371 91 191 13 255
-7.167273 10.163549 15.181479 91 191 14 255
-1.407602 3.268539 13.694660 90 182 28 255
-3.903800 3.061355 13.907571 91 191 13 255
-4.182220 11.629663 16.892368 91 191 14 255
-0.714053 6.765397 14.004245 87 179 19 255
-0.625035 7.402732 18.827143 91 191 13 255
-0.652737 -8.876441 17.656847 91 191 13 255
-4.733643 -10.505206 16.758902 91 191 15 255
-0.813587 11.376967 18.287825 91 191 14 255
1.857644 7.663306 14.857228 91 191 14 255
2.167828 5.323594 19.829348 91 191 15 255
0.756961 6.919487 19.784246 108 195 63 255
0.537643 9.380659 15.856098 93 192 25 255
7.795888 -1.963069 17.500416 93 192 23 255
6.076829 -4.576879 16.228422 122 200 88 255
12.060797 -2.002250 16.703392 93 192 24 255
10.538885 -0.928787 19.595545 91 191 13 255
14.429768 -3.356034 18.691469 91 191 13 255
7.966147 -2.079823 21.213665 91 191 13 255
8.685400 0.020696 19.773268 93 192 23 255
13.123534 -4.946071 14.828568 91 191 13 255
13.648904 -8.244094 17.942652 91 191 13 255
11.488010 -9.654310 16.417877 101 193 48 255
-7.043664 0.425264 19.453588 95 192 32 255
-10.694593 -0.993784 16.506397 91 191 13 255
10.578805 2.821799 11.437157 91 191 13 255
7.765011 -2.557329 9.543085 91 191 13 255
-6.946665 -5.403368 20.515661 91 191 13 255
1.950966 -3.336055 17.419085 97 192 37 255
-6.054555 -4.841317 17.775497 91 191 13 255
-4.105400 -2.594952 19.313501 91 191 15 255
5.244699 -4.363882 21.579691 91 191 13 255
1.536531 -3.325520 20.637548 91 191 13 255
5.817231 1.354780 16.133312 177 191 25 255
10.317535 -0.451532 11.192750 98 193 39 255
6.238068 6.214503 17.784523 94 192 26 255
6.810553 7.985877 18.996525 91 191 13 255
2.538760 6.612843 22.099787 174 191 25 255
5.564748 10.478396 17.559099 91 191 13 255
1.945799 10.286894 20.043901 91 191 13 255
1.433328 10.563838 14.506606 91 191 13 255
3.518322 11.611333 19.378731 91 191 13 255
5.210735 -0.015811 11.080340 91 191 13 255
8.396612 -2.316166 11.463642 91 191 13 255
-5.236112 -8.904225 20.396124 173 191 26 255
-6.759009 -7.844036 17.660717 91 191 13 255
3 0 1 2
3 3 4 5
3 6 4 3
3 7 6 8
3 7 9 6
3 10 11 12
3 13 2 1
3 9 14 6
3 15 16 5
3 12 11 17
3 12 17 5
3 18 19 17
3 17 19 20
3 21 22 23
3 13 24 25
3 26 24 13
3 27 26 13
3 28 26 29
3 30 31 9
3 5 9 31
3 32 12 30
3 32 30 9
3 8 33 3
3 3 27 13
3 3 13 8
3 34 35 36
3 36 23 22
3 22 37 34
3 36 22 34
3 15 5 4
3 6 15 4
3 37 21 32
3 37 32 9
3 10 20 18
3 0 7 8
3 0 8 1
3 37 9 7
3 12 32 21
3 29 12 21
3 38 7 0
3 38 0 2
3 8 13 1
3 14 16 15
3 14 15 6
3 9 5 14
3 20 3 5
3 20 5 17
3 18 17 11
3 10 18 11
3 20 10 27
3 20 27 3
3 38 35 34
3 38 34 7
3 29 10 12
3 29 27 10
3 18 20 19
3 22 21 37
3 37 7 34
3 36 35 2
3 36 2 28
3 38 2 35
3 29 23 36
3 29 36 28
3 25 26 28
3 25 28 2
3 29 21 23
3 26 25 24
3 27 29 26
3 2 13 25
3 30 12 31
3 12 5 31
3 5 16 14
3 8 6 33
3 3 33 6
3 39 40 41
3 42 43 44
3 42 44 45
3 40 46 47
3 48 49 50
3 40 48 51
3 52 53 54
3 52 54 55
3 41 40 56
3 57 58 59
3 57 59 60
3 49 39 61
3 46 40 51
3 56 40 47
3 62 63 64
3 62 64 65
3 66 67 68
3 66 68 69
3 70 71 72
3 70 72 73
3 61 74 75
3 47 46 50
3 76 77 78
3 39 49 48
3 39 48 40
3 76 65 79
3 77 76 80
3 77 80 81
3 58 57 82
3 58 82 83
3 78 63 62
3 78 62 76
3 84 80 79
3 80 76 79
3 81 80 84
3 63 81 64
3 81 84 64
3 76 62 65
3 85 86 87
3 85 87 88
3 74 61 39
3 74 39 41
3 89 90 70
3 91 92 93
3 94 95 69
3 94 69 68
3 96 93 97
3 98 96 97
3 72 98 97
3 89 92 91
3 48 50 46
3 48 46 51
3 90 96 71
3 90 71 70
3 71 96 98
3 92 73 93
3 91 93 96
3 72 71 98
3 93 73 97
3 73 72 97
3 52 99 100
3 99 52 55
3 50 49 61
3 50 61 75
3 101 102 42
3 101 42 45
3 55 54 103
3 104 66 69
3 104 69 95
3 100 105 53
3 52 100 53
3 99 55 106
3 106 55 103
3 105 106 103
3 89 91 96
3 89 96 90
3 107 95 94
3 66 104 108
3 109 110 101
3 109 101 44
3 104 107 108
3 66 108 67
3 95 107 104
3 41 56 75
3 41 75 74
3 67 108 107
3 111 112 113
3 111 113 86
3 111 114 112
3 87 115 88
3 85 88 116
3 100 99 106
3 100 106 105
3 86 85 111
3 115 87 113
3 87 86 113
3 65 64 84
3 65 84 79
3 116 114 111
3 116 111 85
3 115 113 117
3 116 117 114
3 47 50 75
3 47 75 56
3 118 43 42
3 43 109 44
3 105 103 54
3 105 54 53
3 110 102 101
3 44 101 45
3 109 118 102
3 43 118 109
3 109 102 119
3 119 110 109
3 102 118 42
3 110 119 102
3 77 81 63
3 77 63 78
3 70 73 92
3 70 92 89
3 114 117 113
3 114 113 112
3 57 60 82
3 60 59 120
3 82 120 83
3 83 120 121
3 116 88 115
3 116 115 117
3 82 60 120
3 58 83 121
3 59 58 121
3 120 59 121
3 107 94 68
3 107 68 67
