ply
format ascii 1.0
comment Created by Blender 2.82 (sub 7) - www.blender.org, source file: 'tree-cut-1.blend'
element vertex 147
property float x
property float y
property float z
property uchar red
property uchar green
property uchar blue
property uchar alpha
element face 254
property list uchar uint vertex_indices
end_header
0.057278 -1.840062 4.073856 1 2 1 255
-0.897183 -1.413627 9.231993 0 0 0 255
-1.223156 -1.367062 4.128266 0 1 1 255
-1.468172 -0.172955 9.262193 0 1 0 255
-1.794145 -0.126390 4.158465 0 2 1 255
-1.321219 1.155174 4.146766 0 1 1 255
-0.995246 1.108602 9.250498 0 0 0 255
-0.081403 1.726907 4.100026 0 2 1 255
0.244570 1.680335 9.203753 0 1 0 255
1.199029 1.253900 4.045615 0 1 1 255
1.524996 1.207330 9.149342 0 0 0 255
1.770019 0.013230 4.015416 0 2 1 255
1.297092 -1.268330 4.027112 1 1 1 255
0.383251 -1.886633 9.177583 0 1 0 255
1.623058 -1.314902 9.130845 0 0 0 255
1.525348 -0.357702 41.065853 0 39 11 255
0.013747 -1.644967 35.791153 0 49 14 255
1.357377 -2.297047 34.988018 0 50 19 255
1.440286 -0.278972 41.069740 0 39 11 255
-0.777192 -0.321291 35.085560 0 48 18 255
-0.091004 1.049323 35.810909 0 54 14 255
1.518980 -0.193818 41.067051 0 39 11 255
1.197487 1.815450 35.018188 0 51 19 255
2.601169 1.154788 35.702858 0 47 15 255
1.604041 -0.272555 41.063164 0 38 11 255
3.332063 -0.160314 34.920631 0 48 17 255
2.705920 -1.539503 35.683098 0 54 14 255
1.577807 -0.215558 41.064556 0 36 11 255
0.663405 -5.174322 14.889066 0 13 4 255
-4.952643 -5.763317 10.529184 0 56 23 255
0.575896 -8.415064 10.167326 0 43 29 255
0.833472 -4.304801 19.974943 0 13 4 255
-4.008398 -4.992714 15.583250 0 45 10 255
0.735218 -7.269403 14.633519 0 70 32 255
1.003531 -3.435271 25.060829 0 14 4 255
-2.991484 -4.143462 20.634844 0 43 21 255
0.890060 -6.008228 19.722281 0 60 10 255
1.173597 -2.565750 30.146717 0 13 4 255
-1.983020 -3.303359 25.686718 0 32 10 255
1.045414 -4.760495 24.810934 0 55 24 255
1.343656 -1.696218 35.232594 0 17 5 255
-1.013551 -2.505452 30.739912 0 28 12 255
1.203183 -3.574727 29.899141 0 42 12 255
-4.578219 -0.322675 15.128601 0 13 4 255
-8.061761 -0.420053 10.387435 0 57 10 255
-3.475108 -0.316781 20.171841 0 13 5 255
-6.682730 -0.403354 14.972515 0 65 35 255
-2.371990 -0.310886 25.215090 0 14 5 255
-5.188274 -0.382130 20.000048 0 60 10 255
-1.268879 -0.304992 30.258326 0 13 4 255
-3.707243 -0.361435 25.028130 0 57 24 255
-0.165761 -0.299097 35.301575 0 17 6 255
-2.288136 -0.343162 30.058693 0 42 13 255
-5.376527 5.139261 10.609167 0 61 27 255
-4.372430 4.370346 15.651936 0 42 11 255
-3.289769 3.528700 20.691114 0 40 15 255
-2.216252 2.695521 25.730719 0 32 10 255
-1.184882 1.901354 30.772242 0 29 11 255
0.270779 4.924261 14.963141 0 13 5 255
-0.071115 8.226343 10.157182 0 44 32 255
0.510738 3.996158 20.035837 0 15 6 255
0.179581 7.022108 14.738359 0 69 29 255
0.750690 3.068054 25.108534 0 15 5 255
0.434757 5.702361 19.808178 0 54 12 255
0.990641 2.139950 30.181229 0 13 4 255
0.689414 4.396046 24.878105 0 46 18 255
1.230593 1.211847 35.253929 0 17 6 255
0.941670 3.151703 29.948479 0 42 13 255
5.517475 5.566022 10.171922 0 55 24 255
4.983249 4.736838 15.276436 0 42 12 255
4.376353 3.829011 20.383432 0 39 15 255
3.777908 2.930336 25.490139 0 32 11 255
3.218456 2.073845 30.595514 0 29 10 255
5.512411 0.072612 14.723598 0 15 5 255
8.566543 0.231340 9.272955 0 59 9 255
4.819311 0.008145 19.838940 0 16 6 255
7.597528 0.156059 14.399364 0 58 25 255
4.126210 -0.056330 24.954273 0 14 5 255
6.513083 0.076255 19.530411 0 49 12 255
3.433118 -0.120797 30.069614 0 13 4 255
5.442079 -0.003014 24.660912 0 47 17 255
2.740018 -0.185275 35.184948 0 17 6 255
4.432990 -0.079870 29.788931 0 42 13 255
5.941359 -5.336564 10.091949 0 50 10 255
5.347281 -4.626223 15.207750 0 44 17 255
4.674638 -3.843150 20.327154 0 34 15 255
4.011139 -3.068553 25.446133 0 35 13 255
3.389787 -2.332958 30.563189 0 29 10 255
2.095992 -0.033335 9.119142 0 1 0 255
3.931158 -3.307870 15.513073 0 11 4 255
-2.679697 -3.566845 15.778406 0 10 4 255
-2.936922 3.049226 15.826936 0 11 4 255
3.673933 3.308200 15.561604 0 11 4 255
2.306046 -1.161795 35.941971 0 7 2 255
2.592464 1.384617 30.857365 0 4 1 255
2.712328 -1.698317 30.834751 0 4 1 255
-0.368173 -1.818990 30.958385 0 4 1 255
-0.488037 1.263937 30.981001 0 4 1 255
-1.304330 1.859033 25.929653 0 8 3 255
2.952951 2.025811 25.758780 0 8 3 255
3.118602 -2.234833 25.727528 0 8 3 255
-1.138679 -2.401602 25.898390 0 8 3 255
-2.120629 2.454128 20.878294 0 10 3 255
3.313446 2.667006 20.660187 0 10 4 255
3.524884 -2.771356 20.620296 0 10 3 255
-1.909191 -2.984223 20.838402 0 9 3 255
1.402827 -0.262435 40.140442 0 0 0 255
1.770019 0.013230 1.945878 1 8 4 255
1.215600 -1.256687 -3.564156 1 10 3 255
1.688526 0.024871 -3.575849 1 11 4 255
1.770019 0.013230 1.945878 255 105 0 255
0.069430 -0.068221 2.877205 255 105 0 255
1.297092 -1.268330 1.957573 255 105 0 255
0.150923 -0.079864 3.060406 255 105 0 255
1.770019 0.013230 4.015416 255 105 0 255
1.297092 -1.268330 4.027112 255 105 0 255
1.297092 -1.268330 1.957573 1 7 2 255
-0.024215 -1.828419 -3.517410 1 11 4 255
0.057278 -1.840062 2.004317 255 105 0 255
0.057278 -1.840062 4.073856 255 105 0 255
1.117537 1.265543 -3.545650 1 10 3 255
1.199029 1.253901 1.976077 255 105 0 255
1.199029 1.253900 4.045615 255 105 0 255
-0.162896 1.738550 -3.491240 1 10 4 255
1.199029 1.253901 1.976077 1 7 3 255
-0.081403 1.726907 2.030487 255 105 0 255
-0.081403 1.726907 4.100026 255 105 0 255
-1.402712 1.166818 -3.444501 1 10 3 255
-0.081403 1.726907 2.030487 1 8 4 255
-1.321219 1.155174 2.077227 255 105 0 255
-1.321219 1.155174 4.146766 255 105 0 255
-1.875638 -0.114749 -3.432799 1 10 4 255
-1.321219 1.155174 2.077227 1 7 3 255
-1.794145 -0.126390 2.088927 255 105 0 255
-1.794145 -0.126390 4.158465 255 105 0 255
-1.223156 -1.367062 2.058728 1 7 3 255
-1.304649 -1.355421 -3.462998 1 10 3 255
-1.223156 -1.367062 2.058728 255 105 0 255
-1.223156 -1.367062 4.128266 255 105 0 255
0.057278 -1.840062 2.004317 1 8 3 255
1.466520 -0.335969 41.068352 0 37 11 255
1.462016 -0.220089 41.069199 0 37 11 255
1.582311 -0.331438 41.063705 0 36 11 255
0.402332 -1.236369 36.018379 0 7 2 255
0.328263 0.668850 36.032360 0 7 2 255
2.231977 0.743423 35.955956 0 7 2 255
-1.794145 -0.126390 2.088927 1 8 4 255
3 0 1 2
3 2 3 4
3 3 5 4
3 6 7 5
3 8 9 7
3 10 11 9
3 12 13 0
3 11 14 12
3 15 16 17
3 16 18 19
3 18 20 19
3 20 21 22
3 21 23 22
3 23 24 25
3 26 15 17
3 24 26 25
3 18 15 27
3 28 29 30
3 31 32 33
3 34 35 36
3 37 38 39
3 40 41 42
3 29 43 44
3 32 45 46
3 35 47 48
3 38 49 50
3 41 51 52
3 43 53 44
3 45 54 46
3 47 55 48
3 49 56 50
3 51 57 52
3 53 58 59
3 54 60 61
3 55 62 63
3 56 64 65
3 57 66 67
3 58 68 59
3 60 69 61
3 62 70 63
3 64 71 65
3 66 72 67
3 68 73 74
3 69 75 76
3 70 77 78
3 71 79 80
3 72 81 82
3 83 28 30
3 84 31 33
3 85 34 36
3 86 37 39
3 87 40 42
3 73 83 74
3 75 84 76
3 77 85 78
3 79 86 80
3 81 87 82
3 83 13 14
3 13 29 1
3 3 29 44
3 3 53 6
3 8 53 59
3 8 68 10
3 88 68 74
3 88 83 14
3 73 84 89
3 84 28 89
3 28 32 90
3 43 32 46
3 43 54 91
3 58 54 61
3 58 69 92
3 73 69 76
3 66 20 22
3 23 66 22
3 81 23 25
3 26 81 25
3 26 40 93
3 16 40 17
3 51 16 19
3 20 51 19
3 64 57 67
3 64 72 94
3 79 72 82
3 79 87 95
3 87 37 95
3 37 41 96
3 49 41 52
3 49 57 97
3 47 56 98
3 62 56 65
3 62 71 99
3 77 71 80
3 77 86 100
3 86 34 100
3 34 38 101
3 47 38 50
3 45 55 102
3 60 55 63
3 60 70 103
3 75 70 78
3 75 85 104
3 85 31 104
3 31 35 105
3 45 35 48
3 10 106 88
3 106 14 88
3 8 106 10
3 8 6 106
3 3 106 6
3 3 1 106
3 106 1 13
3 13 14 106
3 107 108 109
3 110 111 112
3 113 114 115
3 116 117 108
3 112 111 118
3 113 115 119
3 120 107 109
3 121 111 110
3 113 122 114
3 123 124 120
3 125 111 121
3 113 126 122
3 127 128 123
3 129 111 125
3 113 130 126
3 131 132 127
3 133 111 129
3 113 134 130
3 135 131 136
3 137 111 133
3 113 138 134
3 139 136 117
3 118 111 137
3 113 119 138
3 0 13 1
3 2 1 3
3 3 6 5
3 6 8 7
3 8 10 9
3 10 88 11
3 12 14 13
3 11 88 14
3 15 140 16
3 16 140 18
3 18 141 20
3 20 141 21
3 21 27 23
3 23 27 24
3 26 142 15
3 24 142 26
3 18 140 15
3 15 142 24
3 24 27 15
3 27 21 141
3 18 27 141
3 28 90 29
3 31 105 32
3 34 101 35
3 37 96 38
3 40 143 41
3 29 90 43
3 32 105 45
3 35 101 47
3 38 96 49
3 41 143 51
3 43 91 53
3 45 102 54
3 47 98 55
3 49 97 56
3 51 144 57
3 53 91 58
3 54 102 60
3 55 98 62
3 56 97 64
3 57 144 66
3 58 92 68
3 60 103 69
3 62 99 70
3 64 94 71
3 66 145 72
3 68 92 73
3 69 103 75
3 70 99 77
3 71 94 79
3 72 145 81
3 83 89 28
3 84 104 31
3 85 100 34
3 86 95 37
3 87 93 40
3 73 89 83
3 75 104 84
3 77 100 85
3 79 95 86
3 81 93 87
3 83 30 13
3 13 30 29
3 3 1 29
3 3 44 53
3 8 6 53
3 8 59 68
3 88 10 68
3 88 74 83
3 73 76 84
3 84 33 28
3 28 33 32
3 43 90 32
3 43 46 54
3 58 91 54
3 58 61 69
3 73 92 69
3 66 144 20
3 23 145 66
3 81 145 23
3 26 93 81
3 26 17 40
3 16 143 40
3 51 143 16
3 20 144 51
3 64 97 57
3 64 67 72
3 79 94 72
3 79 82 87
3 87 42 37
3 37 42 41
3 49 96 41
3 49 52 57
3 47 50 56
3 62 98 56
3 62 65 71
3 77 99 71
3 77 80 86
3 86 39 34
3 34 39 38
3 47 101 38
3 45 48 55
3 60 102 55
3 60 63 70
3 75 103 70
3 75 78 85
3 85 36 31
3 31 36 35
3 45 105 35
3 107 116 108
3 116 139 117
3 120 124 107
3 123 128 124
3 127 132 128
3 131 146 132
3 135 146 131
3 139 135 136
